<svg width="60" height="60" viewBox="0 0 60 60" fill="none" xmlns="http://www.w3.org/2000/svg">
<g clip-path="url(#clip0_1068_2872)">
<path d="M1.13661 30.1697L5.91843 32.0562C6.55031 32.3053 7.23925 32.1737 7.73202 31.7608L11.5188 34.1489L12.1683 34.6055C11.3444 35.9093 11.5555 37.691 12.8081 38.7531C13.4963 39.3367 14.3709 39.5857 15.227 39.4924C15.2772 40.3923 15.6865 41.1938 16.3524 41.7583C17.0069 42.3133 17.8613 42.5974 18.7712 42.4982C18.8218 43.3977 19.2308 44.1989 19.8968 44.7635C20.5573 45.3237 21.4134 45.6019 22.317 45.5033C22.3643 46.3507 22.7443 47.1779 23.4411 47.7688C24.7871 48.9103 26.812 48.7447 27.9533 47.3988L28.7131 46.5069L29.9936 47.4519C32.2075 49.0861 35.3366 47.7473 35.6253 45.0311C37.9079 45.8605 40.3315 44.2608 40.3667 41.8041C42.5182 42.2086 44.4274 40.6459 44.5473 38.5731C47.3381 39.3185 49.8625 36.4983 48.6301 33.7407L52.052 31.5428C52.542 32.1232 53.3562 32.3425 54.0822 32.0561L58.864 30.1697C59.7844 29.8067 60.238 28.7624 59.8748 27.8418L57.6893 22.3019C57.5112 21.8502 57.0006 21.6288 56.5492 21.8069C56.0975 21.985 55.8759 22.4955 56.0541 22.947L58.2395 28.4868C58.247 28.5057 58.2377 28.5271 58.2189 28.5346L53.437 30.421C53.4181 30.4284 53.3968 30.4192 53.3893 30.4003C53.2219 29.9759 47.8546 16.3704 47.38 15.1674C47.3782 15.1632 47.3744 15.1533 47.3804 15.1394C47.3865 15.1255 47.3965 15.1216 47.4006 15.1198L52.1825 13.2333C52.1866 13.2316 52.1964 13.2277 52.2107 13.2338C52.2245 13.2399 52.2284 13.2498 52.2301 13.254L54.547 19.1267C54.7253 19.5783 55.2357 19.7998 55.6871 19.6217C56.1388 19.4436 56.3604 18.9331 56.1823 18.4816L53.8654 12.609C53.5024 11.6886 52.4581 11.2351 51.5377 11.5982L46.7556 13.4847C45.9012 13.8217 45.4501 14.7386 45.6794 15.6078L43.1159 16.554C42.3182 16.8485 41.4522 16.9339 40.6117 16.8006L38.0205 16.3899C37.5412 16.3141 37.0907 16.6412 37.0149 17.1203C36.9389 17.5997 37.2659 18.0501 37.7453 18.126L40.3366 18.5368C41.4736 18.7169 42.645 18.6015 43.7247 18.2029L46.3114 17.2481C46.5921 17.9599 51.0229 29.1909 51.3136 29.9278L47.542 32.3502L47.4781 32.303C47.4778 32.3028 47.4775 32.3025 47.4772 32.3024C47.0732 32.0042 40.5153 27.1646 40.2075 26.9373C40.0191 26.7982 39.785 26.7358 39.5157 26.7815C35.8747 27.4006 32.6125 26.1059 30.2126 23.6001C29.4659 22.8204 28.2476 22.7786 27.4387 23.5049C25.1105 25.5959 21.8571 27.6348 19.5807 25.4714C19.3545 25.2566 19.3529 24.8598 19.6964 24.6381C22.5961 22.7729 25.5999 20.1538 28.0172 17.7084C28.6189 17.0996 29.4842 16.8166 30.3335 16.9512L33.6697 17.4801C34.15 17.5561 34.5993 17.229 34.6752 16.7497C34.7512 16.2703 34.4242 15.8199 33.9448 15.744L30.6086 15.2151C29.2019 14.9922 27.766 15.4624 26.7672 16.4728C26.4876 16.7555 26.1569 17.0839 25.784 17.444C24.6585 17.045 23.4855 16.8066 22.2923 16.7396C18.7997 16.5434 18.4967 16.5064 17.7036 16.5574C17.0811 16.5971 16.4478 16.4913 15.8718 16.2503L14.3229 15.6022C14.5465 14.738 14.0961 13.8201 13.2451 13.4845L8.46327 11.5982C7.54253 11.235 6.49839 11.6885 6.13535 12.609L0.125869 27.8418C-0.237997 28.7643 0.213759 29.8057 1.13661 30.1697V30.1697ZM15.9809 37.2447C15.4659 37.8522 14.5527 37.9275 13.9449 37.4124C13.3332 36.8937 13.2638 35.982 13.7761 35.3779L15.95 32.8262C16.4529 32.2329 17.3686 32.1352 17.986 32.6585C18.5949 33.1748 18.6702 34.0855 18.1536 34.6946C18.1534 34.6948 18.1532 34.695 18.153 34.6953L15.9809 37.2447ZM19.5252 40.2501C19.009 40.8588 18.0985 40.9341 17.4893 40.4176C16.8775 39.899 16.8082 38.9872 17.3204 38.3831L19.4943 35.8315C20.0342 35.1945 21.0349 35.1388 21.6373 35.7644C21.6413 35.7685 21.6447 35.773 21.6487 35.7772C22.1449 36.3049 22.1772 37.1346 21.6979 37.6999L19.5252 40.2501ZM23.0695 43.2552C22.5514 43.8663 21.64 43.937 21.0336 43.4228C20.4219 42.9042 20.3524 41.9925 20.8646 41.3884L23.0387 38.8367C23.5551 38.2278 24.4717 38.1574 25.0747 38.6691C25.6822 39.1844 25.7573 40.0976 25.2423 40.7051C25.242 40.7053 25.2419 40.7056 25.2417 40.7058L23.0695 43.2552ZM28.7984 43.6949C28.7948 43.6993 28.7916 43.7043 28.7879 43.7086C28.4372 44.1202 27.471 45.2542 26.6138 46.2604C26.0988 46.868 25.1855 46.9431 24.5779 46.4281C23.9703 45.9129 23.8952 44.9997 24.4089 44.3937L26.583 41.8419C27.101 41.2309 28.0131 41.1605 28.6189 41.6743C29.2149 42.1794 29.3062 43.0808 28.7984 43.6949ZM13.6912 17.2437L15.1932 17.8722C16.0175 18.2171 16.9245 18.3691 17.816 18.3118C18.4882 18.2685 18.7126 18.2992 22.1934 18.4948C22.9081 18.535 23.6148 18.6456 24.3049 18.8252C22.5852 20.3781 20.6539 21.9347 18.7195 23.1769C17.4793 23.9731 17.2956 25.7253 18.3698 26.7462C19.838 28.1413 23.1215 29.7452 28.6131 24.8131C28.7116 24.7247 28.8564 24.7259 28.9428 24.8163C31.6029 27.5929 35.3736 29.1439 39.4455 28.5716C39.9068 28.8959 39.0135 28.2413 46.4331 33.7171H46.4332C47.2273 34.303 47.4494 35.4555 46.8277 36.2508C46.2372 37.0063 45.1702 37.1527 44.3992 36.5835C43.3576 35.8147 44.1266 36.3999 40.4651 33.5786C40.0803 33.2822 39.5287 33.3538 39.2323 33.7383C38.9362 34.1228 39.0077 34.6746 39.392 34.971L42.4299 37.3117C42.9532 38.0012 42.8909 38.9977 42.2713 39.6157C41.6622 40.2236 40.6595 40.281 39.9389 39.7494C39.2423 39.2353 39.8211 39.6758 36.6258 37.2158C36.2412 36.9196 35.6893 36.9915 35.3933 37.3762C35.0971 37.7608 35.1688 38.3126 35.5534 38.6087L38.2471 40.6826C38.7558 41.3406 38.7309 42.287 38.1754 42.9168C37.5777 43.5943 36.5188 43.6887 35.7644 43.1318C34.5521 42.2372 35.1605 42.6991 32.8259 40.8922C32.442 40.5952 31.8901 40.6655 31.5929 41.0494C31.2958 41.4333 31.3661 41.9852 31.75 42.2823L33.6174 43.7276C34.0422 44.4036 33.959 45.2891 33.4004 45.8734C32.7906 46.5113 31.7747 46.5819 31.0372 46.0376L29.8557 45.1657L30.1271 44.8471C30.6683 44.2091 30.9476 43.3828 30.8761 42.5134C30.8035 41.6327 30.385 40.8675 29.7556 40.3336C29.1009 39.7785 28.2458 39.4941 27.3362 39.5927C27.2883 38.7436 26.8989 37.9117 26.2113 37.3283C25.559 36.7753 24.731 36.5096 23.8775 36.5793C23.849 36.5816 23.8205 36.5843 23.7923 36.5875C23.7907 36.5594 23.7897 36.5312 23.7874 36.503C23.7315 35.8234 23.4666 35.194 23.0313 34.6862C23.0286 34.6831 23.0261 34.6799 23.0234 34.6767C22.3309 33.8755 21.2998 33.4708 20.249 33.5837C20.1996 32.7012 19.7995 31.8919 19.1226 31.3179C17.7756 30.1759 15.7509 30.3426 14.6103 31.6879L13.2858 33.2426L12.5115 32.6984C12.4996 32.6899 12.4874 32.6817 12.4749 32.674L8.57425 30.2139C11.5233 22.7389 10.4187 25.5388 13.6912 17.2437V17.2437ZM1.76098 28.487L7.77034 13.2542C7.77609 13.2397 7.78991 13.2309 7.80456 13.2309C7.80902 13.2309 7.81359 13.2317 7.81804 13.2335L12.5999 15.1199C12.6187 15.1273 12.628 15.1488 12.6206 15.1675C12.3315 15.9004 6.80027 29.921 6.61113 30.4005C6.60339 30.4196 6.58277 30.4286 6.56355 30.4211L1.78172 28.5346C1.76274 28.5271 1.75337 28.5059 1.76098 28.487Z" fill="#FF6900"/>
</g>
<defs>
<clipPath id="clip0_1068_2872">
<rect width="60" height="60" fill="white"/>
</clipPath>
</defs>
</svg>
