<svg width="60" height="60" viewBox="0 0 60 60" fill="none" xmlns="http://www.w3.org/2000/svg">
<g clip-path="url(#clip0_1003_5340)">
<path d="M34.1176 40.1241C36.3681 38.7373 37.872 36.2506 37.872 33.4188V30.4101V27.4032C37.872 23.0629 34.341 19.5318 30.0006 19.5318C25.6603 19.5318 22.1292 23.0629 22.1292 27.4032V30.4109V33.4187C22.1292 36.2505 23.633 38.7371 25.8835 40.124C19.4001 41.982 14.4924 47.8637 14.4924 54.5403V59.1191C14.4924 59.6055 14.8868 60 15.3733 60H21.3072C21.7937 60 22.1881 59.6057 22.1881 59.1191C22.1881 58.6327 21.7938 58.2382 21.3072 58.2382H16.254V54.5403C16.254 51.0905 17.7261 47.792 20.3992 45.2523C21.997 43.7341 23.9316 42.6031 25.9955 41.9433L27.3907 44.654L25.5162 52.7913C25.4449 53.1007 25.5457 53.4245 25.7798 53.6388L29.4059 56.9575C29.5741 57.1114 29.7873 57.1884 30.0005 57.1884C30.2136 57.1884 30.4269 57.1114 30.5951 56.9575L34.2211 53.6388C34.4552 53.4245 34.556 53.1007 34.4848 52.7913L32.6102 44.6539L34.0055 41.9433C36.0694 42.6031 38.0038 43.7342 39.6018 45.2523C42.2748 47.792 43.7469 51.0906 43.7469 54.5403V58.2383H24.2432C23.7567 58.2383 23.3623 58.6327 23.3623 59.1192C23.3623 59.6057 23.7566 60.0001 24.2432 60.0001H44.628C45.1144 60.0001 45.5089 59.6058 45.5089 59.1192V54.5403C45.5086 47.8638 40.601 41.9822 34.1176 40.1241ZM23.8908 27.4033C23.8908 24.0345 26.6317 21.2936 30.0005 21.2936C33.3694 21.2936 36.1102 24.0345 36.1102 27.4033V29.4454C33.3413 28.9199 32.2195 26.1022 32.1696 25.9733C32.0475 25.6508 31.7483 25.4294 31.4043 25.4064C31.0601 25.3832 30.7344 25.5636 30.5707 25.8671C30.5521 25.9017 28.7469 29.1413 23.8908 29.4983V27.4033V27.4033ZM32.6528 52.6863L30.0004 55.1139L27.348 52.6863L29.0223 45.4185H30.9784L32.6528 52.6863ZM27.7498 41.5023C27.8231 41.4888 27.8967 41.4763 27.9702 41.4638C28.0195 41.4558 28.0689 41.4477 28.1183 41.44C28.2271 41.4231 28.3359 41.4074 28.445 41.3931C28.5546 41.3789 28.6643 41.3654 28.7741 41.3538C28.8326 41.3476 28.8911 41.3416 28.9495 41.3361C29.0981 41.3224 29.2468 41.3104 29.3953 41.3015C29.4308 41.2994 29.4663 41.2979 29.5018 41.296C29.6034 41.2907 29.7049 41.2882 29.8065 41.2852C29.8712 41.2868 29.9354 41.2902 30.0005 41.2902C30.0655 41.2902 30.1297 41.2868 30.1944 41.2852C30.2959 41.2882 30.3975 41.2909 30.4991 41.296C30.5346 41.2979 30.5701 41.2994 30.6057 41.3015C30.7543 41.3103 30.903 41.3223 31.0515 41.3361C31.11 41.3416 31.1685 41.3476 31.227 41.3538C31.3368 41.3654 31.4463 41.3789 31.556 41.3931C31.665 41.4074 31.774 41.4232 31.8827 41.44C31.9322 41.4477 31.9815 41.4558 32.0309 41.4638C32.1043 41.4761 32.1779 41.4887 32.2513 41.5023L31.1421 43.6568H28.8587L27.7498 41.5023ZM30.2365 39.5224C30.162 39.5203 30.0874 39.5176 30.0125 39.5165C30.0046 39.5164 29.9965 39.5164 29.9885 39.5165C29.9138 39.5176 29.8392 39.5203 29.7647 39.5224C26.5049 39.3979 23.8909 36.7085 23.8909 33.4188V31.2638C27.7814 31.0199 30.0783 29.1929 31.2188 27.9248C32.0214 29.1718 33.5667 30.8912 36.1103 31.2308V33.4187C36.1102 36.7085 33.4963 39.3978 30.2365 39.5224Z" fill="#FF6900"/>
<path d="M20.0914 12.7106C19.8961 12.1098 19.3866 11.6801 18.7613 11.5893L14.756 11.0073L12.9648 7.37799C12.6853 6.81151 12.1191 6.45959 11.4873 6.45959C10.8557 6.45959 10.2894 6.81163 10.0099 7.37799L8.21919 11.0072L4.21395 11.5891C3.58875 11.68 3.07922 12.1097 2.88398 12.7105C2.68875 13.3112 2.84859 13.9583 3.30094 14.3993L6.19923 17.2243L5.51497 21.2134C5.40821 21.836 5.65934 22.4535 6.1704 22.8247C6.45915 23.0345 6.79712 23.1412 7.1372 23.1412C7.39899 23.1412 7.66231 23.078 7.90548 22.95L11.4878 21.0667L15.07 22.95C15.6292 23.2442 16.2939 23.1961 16.8051 22.8247C17.3162 22.4534 17.5673 21.836 17.4604 21.2134L16.7761 17.2245L19.6744 14.3994C20.1269 13.9586 20.2866 13.3113 20.0914 12.7106ZM15.5037 16.0047C15.1155 16.3832 14.9383 16.9282 15.0298 17.4629L15.685 21.2831L12.2542 19.4795C11.7742 19.2272 11.2009 19.2271 10.7209 19.4795L7.29024 21.2831L7.94544 17.4629C8.0372 16.9283 7.85989 16.3832 7.47153 16.0047L4.69606 13.2991L8.53173 12.7418C9.06833 12.6639 9.53216 12.3269 9.77228 11.8406L11.4877 8.36483L13.203 11.8405C13.4431 12.3268 13.9067 12.6637 14.4434 12.7417L18.2791 13.299L15.5037 16.0047Z" fill="#FF6900"/>
<path d="M38.621 6.25114C38.4258 5.65044 37.9163 5.22071 37.2911 5.12989L33.2858 4.54782L31.4945 0.918517C31.2149 0.352032 30.6487 0 30.017 0C29.3852 0 28.8191 0.352032 28.5395 0.9184L26.7483 4.5477L22.743 5.12978C22.1178 5.2206 21.6083 5.65032 21.4132 6.25103C21.2179 6.85173 21.3777 7.49884 21.83 7.93994L24.7284 10.7649L24.0443 14.7539C23.9375 15.3766 24.1887 15.994 24.6997 16.3653C25.2108 16.7366 25.8755 16.7847 26.4348 16.4907L30.0171 14.6073L33.5995 16.4907C33.8428 16.6184 34.1059 16.6817 34.3676 16.6817C34.7077 16.6817 35.0456 16.575 35.3344 16.3653C35.8456 15.9939 36.0966 15.3764 35.9898 14.7539L35.3057 10.765L38.204 7.93994C38.6564 7.49908 38.8161 6.85185 38.621 6.25114ZM34.033 9.54541C33.6447 9.92404 33.4675 10.4692 33.5591 11.0037L34.2143 14.8239L30.7834 13.0201C30.5434 12.894 30.2802 12.8309 30.017 12.8309C29.7537 12.8309 29.4903 12.894 29.2503 13.0201L25.8196 14.8238L26.4748 11.0037C26.5665 10.4691 26.3892 9.92393 26.001 9.54541L23.2255 6.8399L27.061 6.28255C27.5978 6.2045 28.0616 5.86759 28.3015 5.38126L30.0168 1.90559L31.732 5.38114C31.9721 5.86759 32.4357 6.2045 32.9726 6.28255L36.8082 6.8399L34.033 9.54541Z" fill="#FF6900"/>
<path d="M57.1161 12.7106C56.9209 12.1097 56.4114 11.6801 55.7862 11.5892L51.7809 11.0072L49.9898 7.37793C49.7103 6.81145 49.1441 6.45953 48.5123 6.45953C47.8806 6.45953 47.3144 6.81157 47.0348 7.37793L45.2437 11.0072L41.2384 11.5892C40.6132 11.68 40.1036 12.1097 39.9084 12.7106C39.7132 13.3114 39.873 13.9585 40.3254 14.3994L43.2236 17.2244L42.5395 21.2135C42.4327 21.8361 42.6839 22.4535 43.1949 22.8248C43.4837 23.0346 43.8215 23.1412 44.1617 23.1412C44.4235 23.1412 44.6867 23.078 44.9299 22.9501L48.5122 21.0667L52.0945 22.95C52.6535 23.244 53.3184 23.1959 53.8296 22.8247C54.3408 22.4533 54.5918 21.8359 54.485 21.2134L53.8009 17.2243L56.6991 14.3992C57.1515 13.9586 57.3112 13.3114 57.1161 12.7106ZM52.5283 16.0047C52.14 16.3833 51.9628 16.9284 52.0544 17.463L52.7096 21.2832L49.279 19.4797C49.0388 19.3535 48.7756 19.2902 48.5122 19.2902C48.2489 19.2902 47.9856 19.3533 47.7456 19.4796L44.3148 21.2832L44.97 17.4631C45.0617 16.9285 44.8845 16.3833 44.4962 16.0048L41.7207 13.2993L45.5565 12.742C46.0932 12.664 46.5569 12.327 46.7969 11.8408L48.5122 8.36501L50.2276 11.8409C50.4677 12.3271 50.9313 12.6639 51.4679 12.742L55.3036 13.2993L52.5283 16.0047Z" fill="#FF6900"/>
</g>
<defs>
<clipPath id="clip0_1003_5340">
<rect width="60" height="60" fill="white"/>
</clipPath>
</defs>
</svg>
