<svg width="61" height="53" viewBox="0 0 61 53" fill="none" xmlns="http://www.w3.org/2000/svg">
<mask id="path-1-inside-1_687_11158" fill="white">
<path d="M55.2565 0H4.78911C3.51943 0.00151886 2.30218 0.506572 1.40438 1.40438C0.506572 2.30218 0.00151886 3.51943 0 4.78911V36.3424C0.00151886 37.6121 0.506572 38.8293 1.40438 39.7271C2.30218 40.6249 3.51943 41.13 4.78911 41.1315H37.9143L38.8071 43.1785C38.8723 43.3246 38.9685 43.4547 39.089 43.56C39.2094 43.6652 39.3513 43.7431 39.5048 43.7882V51.8831C39.505 52.073 39.5537 52.2598 39.6461 52.4256C39.7386 52.5915 39.8719 52.7311 40.0333 52.8312C40.1947 52.9313 40.379 52.9886 40.5687 52.9976C40.7584 53.0067 40.9473 52.9672 41.1175 52.883L44.8423 51.0337L48.5601 52.883C48.7302 52.9677 48.9192 53.0076 49.1091 52.9988C49.299 52.99 49.4835 52.9329 49.6451 52.8328C49.8067 52.7327 49.94 52.593 50.0325 52.4269C50.125 52.2608 50.1735 52.0738 50.1734 51.8837V43.7907C50.3287 43.7458 50.4722 43.6674 50.594 43.5613C50.7158 43.4551 50.813 43.3236 50.8787 43.176L51.7683 41.1315H55.2584C56.5281 41.13 57.7454 40.6249 58.6432 39.7271C59.541 38.8293 60.046 37.6121 60.0476 36.3424V4.78911C60.046 3.5191 59.5407 2.30156 58.6425 1.4037C57.7443 0.505843 56.5265 0.00101254 55.2565 0ZM45.3403 48.7839C45.1858 48.7073 45.0157 48.6674 44.8432 48.6674C44.6708 48.6674 44.5007 48.7073 44.3462 48.7839L41.7373 50.0803V43.6396L42.2889 43.5758L44.1797 44.9705C44.3715 45.1117 44.6034 45.188 44.8416 45.188C45.0798 45.188 45.3118 45.1117 45.5036 44.9705L47.3892 43.579L47.9402 43.6428V50.0835L45.3403 48.7839ZM49.9407 39.7286L49.1595 41.5294L47.2062 41.3088C46.9264 41.2758 46.6445 41.3513 46.4187 41.5199L44.8423 42.683L43.2595 41.5186C43.0678 41.3777 42.8361 41.3018 42.5982 41.3018C42.5556 41.3015 42.513 41.3038 42.4707 41.3088L40.5219 41.5288L39.7356 39.7267C39.6231 39.4701 39.4182 39.2652 39.1617 39.1527L38.7931 38.992L38.7771 38.985L37.3563 38.3652L37.5764 36.4164C37.6079 36.1371 37.5327 35.8563 37.3659 35.6301L36.2021 34.0473L37.3653 32.4709C37.5323 32.2444 37.6077 31.9631 37.5764 31.6834L37.3563 29.7295L39.1566 28.9483C39.4152 28.8357 39.6218 28.6296 39.735 28.3712L40.5219 26.5671L42.4726 26.7827C42.7511 26.8138 43.0312 26.7389 43.257 26.5729L44.8397 25.4084L46.4161 26.5716C46.6418 26.7385 46.9222 26.8139 47.2011 26.7827L49.1569 26.5671L49.9381 28.3693C50.0509 28.6288 50.2581 28.8358 50.5178 28.9483L52.3199 29.7301L52.1044 31.6859C52.0734 31.9643 52.1483 32.2441 52.3142 32.4697L53.4742 34.0473L52.3155 35.6314C52.1506 35.8569 52.0762 36.1361 52.1069 36.4138L52.3225 38.3645L50.9017 38.985L50.8851 38.992L50.5165 39.1527C50.2588 39.2661 50.0532 39.4724 49.9407 39.7305V39.7286ZM57.8137 36.3405C57.8129 37.0184 57.5432 37.6684 57.0638 38.1478C56.5844 38.6271 55.9345 38.8968 55.2565 38.8977H54.6271L54.372 36.602L55.7603 34.708C55.9007 34.5163 55.9764 34.2849 55.9764 34.0473C55.9764 33.8097 55.9007 33.5783 55.7603 33.3867L54.3733 31.4997L54.6284 29.1581C54.6552 28.9208 54.6051 28.6812 54.4854 28.4746C54.3658 28.268 54.183 28.1052 53.9639 28.0102L51.813 27.0735L50.8794 24.9206C50.7842 24.7017 50.6214 24.5191 50.4148 24.3995C50.2082 24.2799 49.9687 24.2296 49.7315 24.2561L47.3912 24.5144L45.5042 23.1217C45.3125 22.9803 45.0805 22.904 44.8423 22.904C44.6041 22.904 44.3721 22.9803 44.1804 23.1217L42.2864 24.5157L39.9518 24.2574C39.7147 24.23 39.4751 24.2797 39.2684 24.399C39.0617 24.5183 38.8988 24.701 38.8039 24.92L37.8665 27.0735L35.713 28.0109C35.494 28.106 35.3113 28.2688 35.1917 28.4754C35.0721 28.682 35.0219 28.9215 35.0485 29.1587L35.3119 31.4978L33.9204 33.3867C33.7792 33.5785 33.7031 33.8104 33.7031 34.0486C33.7031 34.2868 33.7792 34.5187 33.9204 34.7105L35.3132 36.6032L35.0536 38.8989H4.78911C4.11117 38.8981 3.46123 38.6284 2.98185 38.149C2.50247 37.6696 2.23279 37.0197 2.23194 36.3418V4.78911C2.23279 4.11117 2.50247 3.46123 2.98185 2.98185C3.46123 2.50247 4.11117 2.23279 4.78911 2.23194H55.2565C55.9345 2.23279 56.5844 2.50247 57.0638 2.98185C57.5432 3.46123 57.8129 4.11117 57.8137 4.78911V36.3405Z"/>
</mask>
<path d="M55.2565 0H4.78911C3.51943 0.00151886 2.30218 0.506572 1.40438 1.40438C0.506572 2.30218 0.00151886 3.51943 0 4.78911V36.3424C0.00151886 37.6121 0.506572 38.8293 1.40438 39.7271C2.30218 40.6249 3.51943 41.13 4.78911 41.1315H37.9143L38.8071 43.1785C38.8723 43.3246 38.9685 43.4547 39.089 43.56C39.2094 43.6652 39.3513 43.7431 39.5048 43.7882V51.8831C39.505 52.073 39.5537 52.2598 39.6461 52.4256C39.7386 52.5915 39.8719 52.7311 40.0333 52.8312C40.1947 52.9313 40.379 52.9886 40.5687 52.9976C40.7584 53.0067 40.9473 52.9672 41.1175 52.883L44.8423 51.0337L48.5601 52.883C48.7302 52.9677 48.9192 53.0076 49.1091 52.9988C49.299 52.99 49.4835 52.9329 49.6451 52.8328C49.8067 52.7327 49.94 52.593 50.0325 52.4269C50.125 52.2608 50.1735 52.0738 50.1734 51.8837V43.7907C50.3287 43.7458 50.4722 43.6674 50.594 43.5613C50.7158 43.4551 50.813 43.3236 50.8787 43.176L51.7683 41.1315H55.2584C56.5281 41.13 57.7454 40.6249 58.6432 39.7271C59.541 38.8293 60.046 37.6121 60.0476 36.3424V4.78911C60.046 3.5191 59.5407 2.30156 58.6425 1.4037C57.7443 0.505843 56.5265 0.00101254 55.2565 0ZM45.3403 48.7839C45.1858 48.7073 45.0157 48.6674 44.8432 48.6674C44.6708 48.6674 44.5007 48.7073 44.3462 48.7839L41.7373 50.0803V43.6396L42.2889 43.5758L44.1797 44.9705C44.3715 45.1117 44.6034 45.188 44.8416 45.188C45.0798 45.188 45.3118 45.1117 45.5036 44.9705L47.3892 43.579L47.9402 43.6428V50.0835L45.3403 48.7839ZM49.9407 39.7286L49.1595 41.5294L47.2062 41.3088C46.9264 41.2758 46.6445 41.3513 46.4187 41.5199L44.8423 42.683L43.2595 41.5186C43.0678 41.3777 42.8361 41.3018 42.5982 41.3018C42.5556 41.3015 42.513 41.3038 42.4707 41.3088L40.5219 41.5288L39.7356 39.7267C39.6231 39.4701 39.4182 39.2652 39.1617 39.1527L38.7931 38.992L38.7771 38.985L37.3563 38.3652L37.5764 36.4164C37.6079 36.1371 37.5327 35.8563 37.3659 35.6301L36.2021 34.0473L37.3653 32.4709C37.5323 32.2444 37.6077 31.9631 37.5764 31.6834L37.3563 29.7295L39.1566 28.9483C39.4152 28.8357 39.6218 28.6296 39.735 28.3712L40.5219 26.5671L42.4726 26.7827C42.7511 26.8138 43.0312 26.7389 43.257 26.5729L44.8397 25.4084L46.4161 26.5716C46.6418 26.7385 46.9222 26.8139 47.2011 26.7827L49.1569 26.5671L49.9381 28.3693C50.0509 28.6288 50.2581 28.8358 50.5178 28.9483L52.3199 29.7301L52.1044 31.6859C52.0734 31.9643 52.1483 32.2441 52.3142 32.4697L53.4742 34.0473L52.3155 35.6314C52.1506 35.8569 52.0762 36.1361 52.1069 36.4138L52.3225 38.3645L50.9017 38.985L50.8851 38.992L50.5165 39.1527C50.2588 39.2661 50.0532 39.4724 49.9407 39.7305V39.7286ZM57.8137 36.3405C57.8129 37.0184 57.5432 37.6684 57.0638 38.1478C56.5844 38.6271 55.9345 38.8968 55.2565 38.8977H54.6271L54.372 36.602L55.7603 34.708C55.9007 34.5163 55.9764 34.2849 55.9764 34.0473C55.9764 33.8097 55.9007 33.5783 55.7603 33.3867L54.3733 31.4997L54.6284 29.1581C54.6552 28.9208 54.6051 28.6812 54.4854 28.4746C54.3658 28.268 54.183 28.1052 53.9639 28.0102L51.813 27.0735L50.8794 24.9206C50.7842 24.7017 50.6214 24.5191 50.4148 24.3995C50.2082 24.2799 49.9687 24.2296 49.7315 24.2561L47.3912 24.5144L45.5042 23.1217C45.3125 22.9803 45.0805 22.904 44.8423 22.904C44.6041 22.904 44.3721 22.9803 44.1804 23.1217L42.2864 24.5157L39.9518 24.2574C39.7147 24.23 39.4751 24.2797 39.2684 24.399C39.0617 24.5183 38.8988 24.701 38.8039 24.92L37.8665 27.0735L35.713 28.0109C35.494 28.106 35.3113 28.2688 35.1917 28.4754C35.0721 28.682 35.0219 28.9215 35.0485 29.1587L35.3119 31.4978L33.9204 33.3867C33.7792 33.5785 33.7031 33.8104 33.7031 34.0486C33.7031 34.2868 33.7792 34.5187 33.9204 34.7105L35.3132 36.6032L35.0536 38.8989H4.78911C4.11117 38.8981 3.46123 38.6284 2.98185 38.149C2.50247 37.6696 2.23279 37.0197 2.23194 36.3418V4.78911C2.23279 4.11117 2.50247 3.46123 2.98185 2.98185C3.46123 2.50247 4.11117 2.23279 4.78911 2.23194H55.2565C55.9345 2.23279 56.5844 2.50247 57.0638 2.98185C57.5432 3.46123 57.8129 4.11117 57.8137 4.78911V36.3405Z" fill="#FF6900" stroke="white" stroke-width="0.4" mask="url(#path-1-inside-1_687_11158)"/>
<path d="M12.1672 31.56H18.71C18.9795 31.56 19.2379 31.667 19.4284 31.8575C19.619 32.0481 19.726 32.3065 19.726 32.5759C19.726 32.8454 19.619 33.1038 19.4284 33.2943C19.2379 33.4849 18.9795 33.5919 18.71 33.5919H12.1672C11.8978 33.5919 11.6394 33.4849 11.4488 33.2943C11.2583 33.1038 11.1513 32.8454 11.1513 32.5759C11.1513 32.3065 11.2583 32.0481 11.4488 31.8575C11.6394 31.667 11.8978 31.56 12.1672 31.56Z" fill="#FF6900" stroke="white" stroke-width="0.2"/>
<path d="M12.1672 16.0424H47.8783C48.1478 16.0424 48.4062 16.1494 48.5967 16.34C48.7873 16.5305 48.8943 16.7889 48.8943 17.0584C48.8943 17.3278 48.7873 17.5862 48.5967 17.7768C48.4062 17.9673 48.1478 18.0743 47.8783 18.0743H12.1672C11.8978 18.0743 11.6394 17.9673 11.4488 17.7768C11.2583 17.5862 11.1513 17.3278 11.1513 17.0584C11.1513 16.7889 11.2583 16.5305 11.4488 16.34C11.6394 16.1494 11.8978 16.0424 12.1672 16.0424Z" fill="#FF6900" stroke="white" stroke-width="0.2"/>
<path d="M12.1672 9.07559H47.8783C48.1478 9.07559 48.4062 9.18262 48.5967 9.37316C48.7873 9.56369 48.8943 9.82211 48.8943 10.0916C48.8943 10.361 48.7873 10.6194 48.5967 10.81C48.4062 11.0005 48.1478 11.1075 47.8783 11.1075H12.1672C11.8978 11.1075 11.6394 11.0005 11.4488 10.81C11.2583 10.6194 11.1513 10.361 11.1513 10.0916C11.1513 9.8221 11.2583 9.56369 11.4488 9.37316C11.6394 9.18262 11.8978 9.07559 12.1672 9.07559Z" fill="#FF6900" stroke="white" stroke-width="0.2"/>
<path d="M44.8399 36.6935H44.84C45.5416 36.6922 46.214 36.413 46.71 35.9168C47.206 35.4207 47.4851 34.7482 47.4862 34.0466V34.0465C47.4862 33.5229 47.3309 33.0111 47.04 32.5758C46.7492 32.1405 46.3357 31.8013 45.852 31.6009C45.3683 31.4006 44.8361 31.3482 44.3226 31.4504C43.8091 31.5526 43.3374 31.8048 42.9673 32.175C42.5971 32.5453 42.3451 33.017 42.243 33.5305C42.141 34.044 42.1935 34.5762 42.3939 35.0599C42.5944 35.5436 42.9337 35.9569 43.3691 36.2477C43.8045 36.5384 44.3163 36.6936 44.8399 36.6935ZM42.2402 30.1558C43.0097 29.6418 43.9144 29.3675 44.8398 29.3676L44.8399 29.2676L44.8398 29.3676C46.0803 29.3687 47.2697 29.8621 48.1468 30.7393C49.0239 31.6166 49.5171 32.806 49.5181 34.0466C49.5181 34.972 49.2437 35.8766 48.7295 36.646C48.2154 37.4155 47.4846 38.0152 46.6296 38.3693C45.7746 38.7234 44.8338 38.816 43.9262 38.6354C43.0185 38.4549 42.1848 38.0092 41.5305 37.3548C40.8762 36.7003 40.4306 35.8666 40.2501 34.9589C40.0697 34.0513 40.1624 33.1105 40.5166 32.2555C40.8709 31.4006 41.4707 30.6699 42.2402 30.1558Z" fill="#FF6900" stroke="white" stroke-width="0.2"/>
</svg>
