<svg width="60" height="60" viewBox="0 0 60 60" fill="none" xmlns="http://www.w3.org/2000/svg">
<path d="M56.08 9.3588C55.3657 9.18138 54.6519 9.04685 53.9398 8.95134C55.0848 7.97598 55.8379 6.33639 55.8379 4.48129C55.8379 1.75912 54.1337 0.000117189 51.4961 0.000117189C48.8586 0.000117189 47.1544 1.75912 47.1544 4.48129C47.1544 6.3317 47.9038 7.96742 49.0437 8.9436C48.3251 9.03981 47.6108 9.17775 46.9023 9.36044C44.4173 9.99619 42.9921 11.4434 42.9921 13.3307V20.2037C42.9921 20.7211 43.4115 21.1405 43.9289 21.1405C44.4463 21.1405 44.8657 20.7211 44.8657 20.2037V13.3307C44.8657 12.0783 46.2256 11.4674 47.3684 11.175C50.0543 10.4823 52.8336 10.4831 55.6297 11.1773C56.5622 11.4077 58.1265 11.9939 58.1265 13.3307V20.2037C58.1265 20.7211 58.5459 21.1405 59.0633 21.1405C59.5807 21.1405 60.0001 20.7211 60.0001 20.2037V13.3307C60.0001 11.422 58.5709 9.97428 56.08 9.3588ZM51.4961 1.87361C52.622 1.87361 53.9643 2.32596 53.9643 4.48129C53.9643 6.39897 52.834 8.0191 51.4961 8.0191C50.1583 8.0191 49.028 6.39897 49.028 4.48129C49.028 2.32596 50.37 1.87361 51.4961 1.87361ZM47.3669 21.1405C46.8496 21.1405 46.4301 20.7211 46.4301 20.2037V14.9086C46.4301 14.3912 46.8496 13.9718 47.3669 13.9718C47.8843 13.9718 48.3037 14.3912 48.3037 14.9086V20.2037C48.3037 20.7211 47.8843 21.1405 47.3669 21.1405ZM55.6218 21.1405C55.1044 21.1405 54.685 20.7211 54.685 20.2037V14.9086C54.685 14.3912 55.1044 13.9718 55.6218 13.9718C56.1392 13.9718 56.5586 14.3912 56.5586 14.9086V20.2037C56.5586 20.7211 56.1392 21.1405 55.6218 21.1405ZM37.3745 41.8601C35.6769 41.4387 33.9814 41.1613 32.2932 41.0272C34.7607 39.847 36.521 36.821 36.521 33.282C36.521 29.1184 34.0223 26.532 30.0001 26.532C25.9778 26.532 23.4791 29.1184 23.4791 33.282C23.4791 36.8133 25.2319 39.8335 27.691 41.0192C25.984 41.1502 24.2899 41.431 22.6147 41.8621C18.77 42.8507 16.6526 44.9567 16.6526 47.7921V59.0632C16.6526 59.5806 17.072 60 17.5894 60C18.1068 60 18.5262 59.5806 18.5262 59.0632V47.7921C18.5262 45.3587 21.0033 44.2109 23.0814 43.6766C27.588 42.5167 32.2449 42.5173 36.9231 43.6787C38.6214 44.0997 41.4704 45.1939 41.4704 47.7921V59.0632C41.4704 59.5806 41.8898 60 42.4072 60C42.9246 60 43.344 59.5806 43.344 59.0632V47.7921C43.3442 44.9627 41.1683 42.8006 37.3745 41.8601ZM25.3529 33.2819C25.3529 29.0389 28.2646 28.4054 30.0002 28.4054C31.7357 28.4054 34.6474 29.0389 34.6474 33.2819C34.6474 36.8117 32.5627 39.6832 30.0002 39.6832C27.4376 39.6832 25.3529 36.8117 25.3529 33.2819ZM24.167 50.383V59.0631C24.167 59.5805 23.7476 59.9999 23.2302 59.9999C22.7128 59.9999 22.2934 59.5805 22.2934 59.0631V50.383C22.2934 49.8656 22.7128 49.4462 23.2302 49.4462C23.7476 49.4462 24.167 49.8656 24.167 50.383ZM37.707 50.383V59.0631C37.707 59.5805 37.2875 59.9999 36.7702 59.9999C36.2528 59.9999 35.8334 59.5805 35.8334 59.0631V50.383C35.8334 49.8656 36.2528 49.4462 36.7702 49.4462C37.2875 49.4462 37.707 49.8656 37.707 50.383ZM0.93704 21.1405C1.45443 21.1405 1.87385 20.7211 1.87385 20.2037V13.3307C1.87385 12.0772 3.2337 11.4669 4.37641 11.175C7.06237 10.4823 9.84162 10.4831 12.6377 11.1773C13.569 11.4075 15.1313 11.9932 15.1313 13.3307V20.2037C15.1313 20.7211 15.5507 21.1405 16.0681 21.1405C16.5855 21.1405 17.0049 20.7211 17.0049 20.2037V13.3307C17.0049 11.4214 15.5768 9.97369 13.0881 9.35869C12.3736 9.18126 11.6599 9.04673 10.9478 8.95122C12.0927 7.97586 12.8457 6.33627 12.8457 4.48118C12.8457 1.759 11.1415 0 8.50403 0C5.86646 0 4.16219 1.759 4.16219 4.48118C4.16219 6.33159 4.91161 7.9673 6.05162 8.94349C5.33314 9.03958 4.61899 9.17763 3.91058 9.36021C1.42537 9.9949 0 11.4421 0 13.3306V20.2036C0.000234377 20.7211 0.419653 21.1405 0.93704 21.1405ZM8.50426 1.87361C9.63021 1.87361 10.9724 2.32596 10.9724 4.48129C10.9724 6.39897 9.84209 8.0191 8.50426 8.0191C7.16632 8.0191 6.03604 6.39897 6.03604 4.48129C6.03615 2.32596 7.37831 1.87361 8.50426 1.87361ZM4.37512 13.9719C4.89251 13.9719 5.31193 14.3914 5.31193 14.9087V20.2038C5.31193 20.7212 4.89251 21.1406 4.37512 21.1406C3.85773 21.1406 3.43831 20.7212 3.43831 20.2038V14.9087C3.43831 14.3914 3.85773 13.9719 4.37512 13.9719ZM12.63 13.9719C13.1474 13.9719 13.5668 14.3914 13.5668 14.9087V20.2038C13.5668 20.7212 13.1474 21.1406 12.63 21.1406C12.1126 21.1406 11.6932 20.7212 11.6932 20.2038V14.9087C11.6932 14.3914 12.1126 13.9719 12.63 13.9719ZM22.433 21.1405C22.9503 21.1405 23.3698 20.7211 23.3698 20.2037V13.3307C23.3698 12.0783 24.7297 11.4674 25.8724 11.175C28.5582 10.4823 31.3371 10.4831 34.1338 11.1773C35.0649 11.4074 36.6272 11.9932 36.6272 13.3307V20.2037C36.6272 20.7211 37.0466 21.1405 37.564 21.1405C38.0814 21.1405 38.5008 20.7211 38.5008 20.2037V13.3307C38.5008 11.4214 37.0727 9.97369 34.584 9.35869C33.8695 9.18126 33.1558 9.04673 32.4437 8.95122C33.5886 7.97586 34.3418 6.33627 34.3418 4.48118C34.3418 1.759 32.6375 0 30.0001 0C27.3625 0 25.6582 1.759 25.6582 4.48118C25.6582 6.33159 26.4076 7.9673 27.5477 8.94349C26.8291 9.0397 26.1148 9.17763 25.4063 9.36033C22.9213 9.99607 21.496 11.4432 21.496 13.3306V20.2036C21.4961 20.7211 21.9156 21.1405 22.433 21.1405ZM30.0002 1.87361C31.1261 1.87361 32.4683 2.32596 32.4683 4.48129C32.4683 6.39897 31.338 8.0191 30.0002 8.0191C28.6622 8.0191 27.5319 6.39897 27.5319 4.48129C27.5319 2.32596 28.8742 1.87361 30.0002 1.87361ZM25.8712 13.9719C26.3885 13.9719 26.808 14.3914 26.808 14.9087V20.2038C26.808 20.7212 26.3885 21.1406 25.8712 21.1406C25.3538 21.1406 24.9343 20.7212 24.9343 20.2038V14.9087C24.9342 14.3914 25.3538 13.9719 25.8712 13.9719ZM34.1259 13.9719C34.6433 13.9719 35.0627 14.3914 35.0627 14.9087V20.2038C35.0627 20.7212 34.6433 21.1406 34.1259 21.1406C33.6085 21.1406 33.1891 20.7212 33.1891 20.2038V14.9087C33.1891 14.3914 33.6085 13.9719 34.1259 13.9719ZM56.08 31.715C55.3669 31.5379 54.6541 31.4037 53.9426 31.3084C55.0859 30.3328 55.8379 28.6943 55.8379 26.8408C55.8379 24.1186 54.1337 22.3596 51.4961 22.3596C48.8586 22.3596 47.1544 24.1186 47.1544 26.8408C47.1544 28.6901 47.903 30.3251 49.0419 31.3016C48.3239 31.3975 47.6096 31.535 46.9007 31.717C44.4167 32.3573 42.9919 33.8044 42.9919 35.6869V42.5632C42.9919 43.0805 43.4114 43.5 43.9287 43.5C44.4461 43.5 44.8656 43.0805 44.8656 42.5632V35.6869C44.8656 34.4385 46.2265 33.8256 47.3674 33.5314C50.0597 32.8402 52.8392 32.8407 55.6279 33.5331C56.5611 33.7654 58.1264 34.3542 58.1264 35.6869V42.5632C58.1264 43.0805 58.5458 43.5 59.0632 43.5C59.5806 43.5 60 43.0805 60 42.5632V35.6869C60.0001 33.7831 58.5716 32.3355 56.08 31.715ZM51.4961 24.2332C52.622 24.2332 53.9643 24.6856 53.9643 26.8409C53.9643 28.7586 52.834 30.3787 51.4961 30.3787C50.1583 30.3787 49.028 28.7586 49.028 26.8409C49.028 24.6856 50.37 24.2332 51.4961 24.2332ZM48.3037 37.2682V42.5633C48.3037 43.0807 47.8843 43.5001 47.3669 43.5001C46.8496 43.5001 46.4301 43.0807 46.4301 42.5633V37.2682C46.4301 36.7508 46.8496 36.3314 47.3669 36.3314C47.8843 36.3314 48.3037 36.7508 48.3037 37.2682ZM56.5586 37.2682V42.5633C56.5586 43.0807 56.1392 43.5001 55.6218 43.5001C55.1044 43.5001 54.685 43.0807 54.685 42.5633V37.2682C54.685 36.7508 55.1044 36.3314 55.6218 36.3314C56.1392 36.3314 56.5586 36.7508 56.5586 37.2682ZM17.005 42.5633V35.687C17.005 33.7827 15.5775 32.3349 13.0882 31.715C12.3751 31.5379 11.6623 31.4036 10.9508 31.3084C12.0941 30.3328 12.846 28.6943 12.846 26.8408C12.846 24.1186 11.1417 22.3596 8.50426 22.3596C5.8667 22.3596 4.16242 24.1186 4.16242 26.8408C4.16242 28.6901 4.91102 30.325 6.04998 31.3014C5.33208 31.3974 4.61794 31.5349 3.90894 31.7169C1.4249 32.3561 0.000117189 33.8032 0.000117189 35.6869V42.5632C0.000117189 43.0805 0.419535 43.5 0.936923 43.5C1.45431 43.5 1.87373 43.0805 1.87373 42.5632V35.6869C1.87373 34.4374 3.23429 33.825 4.37547 33.5314C7.06776 32.8401 9.84736 32.8407 12.6361 33.5331C13.568 33.7651 15.1313 34.3535 15.1313 35.6869V42.5632C15.1313 43.0805 15.5507 43.5 16.0681 43.5C16.5855 43.5 17.005 43.0807 17.005 42.5633ZM8.50426 24.2332C9.63021 24.2332 10.9724 24.6856 10.9724 26.8409C10.9724 28.7586 9.84209 30.3787 8.50426 30.3787C7.16632 30.3787 6.03604 28.7586 6.03604 26.8409C6.03615 24.6856 7.37831 24.2332 8.50426 24.2332ZM5.31193 37.2682V42.5633C5.31193 43.0807 4.89251 43.5001 4.37512 43.5001C3.85773 43.5001 3.43831 43.0807 3.43831 42.5633V37.2682C3.43831 36.7508 3.85773 36.3314 4.37512 36.3314C4.89251 36.3314 5.31193 36.7508 5.31193 37.2682ZM13.5669 37.2682V42.5633C13.5669 43.0807 13.1475 43.5001 12.6301 43.5001C12.1127 43.5001 11.6933 43.0807 11.6933 42.5633V37.2682C11.6933 36.7508 12.1127 36.3314 12.6301 36.3314C13.1475 36.3314 13.5669 36.7508 13.5669 37.2682Z" fill="#FF6900"/>
</svg>
