<svg width="50" height="50" viewBox="0 0 50 50" fill="none" xmlns="http://www.w3.org/2000/svg">
    <path d="M46.875.781H3.125A2.344 2.344 0 0 0 .781 3.125v43.75a2.344 2.344 0 0 0 2.344 2.344h43.75a2.344 2.344 0 0 0 2.344-2.344V3.125A2.344 2.344 0 0 0 46.875.781zM3.125 2.344h43.75a.781.781 0 0 1 .781.781v2.344H2.344V3.125a.781.781 0 0 1 .781-.781zm43.75 45.312H3.125a.781.781 0 0 1-.781-.781V7.031h45.312v39.844a.781.781 0 0 1-.781.781z" fill="#00A499"/>
    <path d="M36.719 17.188a3.875 3.875 0 0 0-2.584.999l-4.49-4.49c.024-.138.038-.276.043-.416a3.125 3.125 0 1 0-6.25 0c.002.556.155 1.101.443 1.578l-5.108 5.107a3.12 3.12 0 0 0-1.585-.435 3.084 3.084 0 0 0-1.578.443L9.387 13.75a3.183 3.183 0 1 0-1.31.9l6.429 6.429a3.083 3.083 0 0 0-.443 1.577 3.125 3.125 0 1 0 5.804-1.574l5.118-5.119a3.063 3.063 0 0 0 3.993-.724l4.21 4.214a3.861 3.861 0 0 0-.375 1.64 3.906 3.906 0 1 0 3.906-3.905zm-31.25-5.47a1.562 1.562 0 1 1 3.124 0 1.562 1.562 0 0 1-3.124 0zm11.719 12.5a1.563 1.563 0 1 1 0-3.125 1.563 1.563 0 0 1 0 3.126zm9.375-9.374a1.563 1.563 0 1 1 0-3.126 1.563 1.563 0 0 1 0 3.126zm10.156 8.594a2.344 2.344 0 1 1 0-4.69 2.344 2.344 0 0 1 0 4.69zM45.313 25.781h-3.126a.781.781 0 0 0-.78.782v18.75a.781.781 0 0 0 .78.78h3.126a.781.781 0 0 0 .78-.78v-18.75a.781.781 0 0 0-.78-.782zm-.782 18.75H42.97V27.344h1.562V44.53zM39.063 30.469h-3.126a.781.781 0 0 0-.78.781v14.063a.781.781 0 0 0 .78.78h3.126a.781.781 0 0 0 .78-.78V31.25a.781.781 0 0 0-.78-.781zM38.28 44.53H36.72v-12.5h1.562v12.5zM32.813 33.594h-3.126a.781.781 0 0 0-.78.781v10.938a.781.781 0 0 0 .78.78h3.125a.781.781 0 0 0 .782-.78V34.374a.781.781 0 0 0-.782-.781zM32.03 44.53H30.47v-9.375h1.562v9.375zM13.281 27.344a9.375 9.375 0 1 0 9.375 9.375 9.385 9.385 0 0 0-9.375-9.375zm7.773 8.593h-6.991v-6.99a7.824 7.824 0 0 1 6.99 6.99zm-15.585.782a7.823 7.823 0 0 1 7.031-7.773v7.773c.002.12.033.24.09.346h-.008l3.473 6.945A7.792 7.792 0 0 1 5.469 36.72zm11.983 6.594L14.545 37.5h6.509a7.813 7.813 0 0 1-3.602 5.813zM45.313 8.594H34.374a.781.781 0 0 0-.781.781V12.5a.781.781 0 0 0 .781.781h10.938a.781.781 0 0 0 .78-.781V9.375a.781.781 0 0 0-.78-.781zm-.782 3.125h-9.375v-1.563h9.375v1.563z" fill="#00A499"/>
    <path d="M28.906 27.344a.781.781 0 0 0 .782-.782v-3.125a.781.781 0 0 0-.782-.78H24.22a.781.781 0 0 0-.782.78v3.125a.781.781 0 0 0 .782.782h4.687zM25 24.219h3.125v1.562H25V24.22zM24.219 28.906h7.812v1.563H24.22v-1.563zM24.219 32.031h3.125v1.563h-3.125V32.03z" fill="#00A499"/>
</svg>
