<svg width="50" height="50" viewBox="0 0 50 50" fill="none" xmlns="http://www.w3.org/2000/svg">
    <path d="M48.819 23.395a4.53 4.53 0 0 0-2.794-1.17 3.999 3.999 0 0 0-3.072 1.17l-5.56 5.5c-.11-.19-.235-.37-.376-.536-.684-.812-1.684-1.26-2.816-1.26h-7.783c-1.467 0-2.899-.19-4.255-.565-3.534-.977-6.911-.263-9.766 2.067a14.206 14.206 0 0 0-2.543 2.73l-1.395-1.355a.992.992 0 0 0-.689-.279h-.006a.994.994 0 0 0-.705.303L.275 37.042a.983.983 0 0 0 .03 1.395l11.473 10.925a.981.981 0 0 0 1.383-.026l6.72-6.894a.995.995 0 0 0 .281-.71.994.994 0 0 0-.3-.69l-.585-.568 1.34-.15a21.29 21.29 0 0 1 2.45-.142h11.84c1.925 0 3.559-.421 4.858-1.251a6.552 6.552 0 0 0 1.287-1.16l7.98-9.388c1.365-1.607 1.28-3.611-.213-4.988zM12.43 47.267 2.378 37.694l5.416-5.622 9.994 9.699-5.357 5.496zM47.533 27.11l-7.98 9.388a4.597 4.597 0 0 1-.864.787c-.975.617-2.247.93-3.782.93H23.066c-.89 0-1.792.053-2.673.156l-2.944.33-6.165-5.982a12.265 12.265 0 0 1 2.357-2.593c2.372-1.937 5.063-2.507 7.998-1.695 1.526.422 3.134.637 4.78.637H34.2c1.398 0 1.77 1.21 1.77 1.926 0 .523-.167 1.02-.46 1.365-.317.373-.768.563-1.341.563h-6.775a.984.984 0 0 0 0 1.967h6.775c1.144 0 2.152-.447 2.84-1.257.573-.673.9-1.56.927-2.506l6.403-6.336c.915-.915 2.345-.686 3.145.052.413.382.97 1.183.047 2.268z" fill="#00A499"/>
    <path d="M24.328 33.642a.984.984 0 0 0-1.915.45l.01.04a.984.984 0 0 0 1.915-.45l-.01-.04zM6.648 21.143h9.584c.522 0 1.005-.17 1.398-.456.393.286.876.456 1.398.456h9.584c.522 0 1.005-.17 1.398-.456.393.286.876.456 1.397.456h9.585a2.384 2.384 0 0 0 2.38-2.382v-4.47a5.157 5.157 0 0 0-2.804-4.61 5.648 5.648 0 0 0 1.305-3.617A5.68 5.68 0 0 0 36.199.391a5.68 5.68 0 0 0-5.673 5.673c0 1.374.49 2.634 1.305 3.617a5.153 5.153 0 0 0-1.821 1.561 5.142 5.142 0 0 0-1.822-1.561 5.647 5.647 0 0 0 1.305-3.617A5.68 5.68 0 0 0 23.82.391a5.68 5.68 0 0 0-5.674 5.673c0 1.374.491 2.634 1.306 3.617-.727.372-1.35.91-1.822 1.562a5.148 5.148 0 0 0-1.822-1.562 5.647 5.647 0 0 0 1.305-3.616A5.68 5.68 0 0 0 11.44.39a5.68 5.68 0 0 0-5.673 5.674c0 1.373.49 2.633 1.305 3.616a5.158 5.158 0 0 0-2.805 4.611v4.47a2.384 2.384 0 0 0 2.381 2.38zM36.2 2.358a3.71 3.71 0 0 1 3.706 3.706A3.71 3.71 0 0 1 36.2 9.771a3.71 3.71 0 0 1-3.707-3.707A3.71 3.71 0 0 1 36.2 2.358zm-2.556 8.77c.769.389 1.637.61 2.555.61.92 0 1.787-.221 2.556-.61a3.196 3.196 0 0 1 2.65 3.164v4.47a.415.415 0 0 1-.413.413h-9.585a.415.415 0 0 1-.413-.414v-4.47a3.196 3.196 0 0 1 2.65-3.164zm-9.824-8.77a3.71 3.71 0 0 1 3.706 3.706 3.71 3.71 0 0 1-3.706 3.707 3.71 3.71 0 0 1-3.706-3.707 3.71 3.71 0 0 1 3.706-3.706zm-2.555 8.77c.768.389 1.636.61 2.555.61.919 0 1.786-.221 2.555-.61a3.196 3.196 0 0 1 2.651 3.164v4.47a.415.415 0 0 1-.414.413h-9.584a.415.415 0 0 1-.414-.414v-4.47a3.196 3.196 0 0 1 2.65-3.164zm-9.825-8.77a3.71 3.71 0 0 1 3.707 3.706 3.71 3.71 0 0 1-3.707 3.707 3.71 3.71 0 0 1-3.706-3.707 3.71 3.71 0 0 1 3.706-3.706zM6.234 14.292a3.196 3.196 0 0 1 2.651-3.165c.769.39 1.636.61 2.555.61.92 0 1.787-.22 2.555-.61a3.196 3.196 0 0 1 2.651 3.165v4.47a.415.415 0 0 1-.414.413H6.648a.415.415 0 0 1-.414-.414v-4.47z" fill="#00A499"/>
</svg>
