<svg width="50" height="50" viewBox="0 0 50 50" fill="none" xmlns="http://www.w3.org/2000/svg">
    <path d="M21.842 21.723H14.47a.781.781 0 0 0-.781.78v23.53c0 .432.35.782.78.782h7.373c.431 0 .78-.35.78-.781v-23.53a.781.781 0 0 0-.78-.782zm-.782 23.53h-5.809V23.285h5.81v21.968zm14.47-20.458h-7.372a.781.781 0 0 0-.78.781v20.458c0 .431.349.781.78.781h7.372c.432 0 .782-.35.782-.781V25.576a.781.781 0 0 0-.782-.78zm-.78 20.458h-5.81V26.358h5.81v18.895zm14.469-33.2h-7.372a.781.781 0 0 0-.782.78v33.2c0 .432.35.782.782.782h7.372c.431 0 .781-.35.781-.781v-33.2a.781.781 0 0 0-.781-.782zm-.782 33.2h-5.809V13.614h5.81v31.637zM8.154 30.85H.781A.781.781 0 0 0 0 31.63v14.403c0 .431.35.78.781.78h7.372c.432 0 .781-.349.781-.78V31.63a.781.781 0 0 0-.78-.781zm-.781 14.402h-5.81v-12.84h5.81v12.84zM4.467 27.898a3.909 3.909 0 0 0 3.905-3.905 3.88 3.88 0 0 0-.408-1.733l10.345-8.054 13.294 4.308a.78.78 0 0 0 .796-.193L44.33 6.29l-.288 1.637a.781.781 0 0 0 1.539.271l.722-4.095a.781.781 0 0 0-.934-.9l-4.493.968a.781.781 0 0 0 .329 1.528l1.922-.414L31.628 16.88l-13.231-4.288a.782.782 0 0 0-.721.126l-10.673 8.31a3.886 3.886 0 0 0-2.536-.939 3.909 3.909 0 0 0-3.904 3.904 3.909 3.909 0 0 0 3.904 3.905zm0-6.247a2.344 2.344 0 0 1 2.342 2.342 2.345 2.345 0 0 1-2.342 2.342 2.345 2.345 0 0 1-2.342-2.342 2.345 2.345 0 0 1 2.342-2.341z" fill="#00A499"/>
</svg>
