<svg width="54" height="54" viewBox="0 0 54 54" fill="none" xmlns="http://www.w3.org/2000/svg">
    <g clip-path="url(#hahqi0isva)">
        <path d="M50.379 13.468c-1.808-.425-4.169-.69-6.715-.755V10.34c0-1.425-1.722-2.507-5.266-3.307-3.053-.69-7.101-1.07-11.398-1.07-2.338 0-4.593.111-6.703.33a.791.791 0 0 0 .163 1.574A63.693 63.693 0 0 1 27 7.545c4.183 0 8.107.366 11.05 1.031 3.314.749 4.032 1.595 4.032 1.764 0 .17-.718 1.015-4.032 1.764-5.757 1.364-16.343 1.364-22.1 0-3.314-.749-4.032-1.595-4.032-1.764 0-.196.865-1.158 4.863-1.938a.791.791 0 0 0-.303-1.553c-4.133.806-6.142 1.948-6.142 3.491v2.373c-2.546.066-4.907.33-6.715.755C1.185 14.042 0 14.847 0 15.93v23.625c0 1.083 1.185 1.888 3.621 2.462 1.808.425 4.169.689 6.715.755v.896c0 1.425 1.722 2.507 5.266 3.307 5.984 1.416 16.812 1.416 22.796 0 3.544-.8 5.266-1.882 5.266-3.307v-.896a43.607 43.607 0 0 0 3.026-.18.791.791 0 0 0-.15-1.575c-.92.089-1.885.146-2.876.172v-4.323c3.413-.148 6.107-.344 8.754-1.417v4.052c-.119.158-.724.58-2.402.976a.791.791 0 0 0 .363 1.54c2.437-.574 3.621-1.38 3.621-2.462V15.93c0-1.083-1.184-1.888-3.621-2.462zm2.039 14.22c-1.425 1.211-6.049 1.614-8.754 1.689v-4.324c3.413-.148 6.107-.344 8.754-1.416v4.051zm-42.082-4.217c-2.69-.073-7.344-.482-8.754-1.69v-4.05c2.647 1.072 5.34 1.268 8.754 1.416v4.324zm-8.754 4.217v-4.051c2.647 1.072 5.34 1.268 8.754 1.416v4.324c-2.69-.072-7.344-.481-8.754-1.689zm10.336 1.367c.866.48 2.09.896 3.684 1.256 5.984 1.416 16.812 1.416 22.796 0 1.594-.36 2.818-.777 3.684-1.256v6.281c0 .17-.718 1.015-4.032 1.764-5.757 1.364-16.343 1.364-22.1 0-3.314-.749-4.032-1.595-4.032-1.764v-6.281zm40.5-7.273c-1.425 1.21-6.049 1.613-8.754 1.689v-4.324c3.413-.148 6.107-.344 8.754-1.416v4.05zm-2.825-6.868c1.813.38 2.558.809 2.776 1.016-1.646 1.19-5.908 1.544-8.705 1.634v-3.269c2.213.06 4.295.276 5.93.62zm-33.991-1.267c5.984 1.416 16.812 1.416 22.796 0 1.594-.36 2.818-.777 3.684-1.257v6.282c0 .238-1.094 1.369-6.147 2.164a.79.79 0 1 0 .246 1.563c2.69-.423 4.659-.985 5.901-1.68v6.285c0 .17-.718 1.015-4.032 1.764-5.757 1.364-16.343 1.364-22.1 0-3.314-.749-4.032-1.595-4.032-1.764v-6.281c.866.48 2.09.896 3.684 1.256 3.053.69 7.101 1.07 11.398 1.07 1.873 0 3.709-.072 5.455-.215a.791.791 0 0 0-.129-1.576c-1.703.139-3.495.21-5.326.21-4.183 0-8.107-.367-11.05-1.032-3.314-.749-4.032-1.595-4.032-1.764v-6.281c.866.479 2.09.896 3.684 1.256zM4.407 14.914c1.634-.343 3.716-.559 5.929-.618v3.268c-2.785-.087-7.071-.446-8.705-1.634.218-.207.963-.635 2.776-1.016zm0 25.657c-1.991-.418-2.694-.893-2.825-1.07v-4.052c.536.246 1.208.465 2.022.657a.79.79 0 1 0 .364-1.54c-1.667-.393-2.268-.814-2.386-.972v-4.05c2.647 1.072 5.34 1.267 8.754 1.415v4.324a42.221 42.221 0 0 1-2.778-.162.792.792 0 0 0-.147 1.575c.938.087 1.92.144 2.925.17v4.324c-2.213-.06-4.295-.276-5.93-.62zm33.643 4.861c-5.757 1.364-16.343 1.364-22.1 0-3.314-.749-4.032-1.595-4.032-1.764v-6.281c.866.48 2.09.896 3.684 1.256 5.984 1.416 16.812 1.416 22.796 0 1.594-.36 2.818-.777 3.684-1.256v6.281c0 .17-.718 1.015-4.032 1.764zm11.543-10.768c-1.634.344-3.716.56-5.929.62v-4.325c3.413-.148 6.107-.344 8.754-1.416v4.051c-.131.177-.834.652-2.825 1.07z" fill="#FF6900"/>
    </g>
    <defs>
        <clipPath id="hahqi0isva">
            <path fill="#fff" d="M0 0h54v54H0z"/>
        </clipPath>
    </defs>
</svg>
