<svg width="50" height="50" viewBox="0 0 50 50" fill="none" xmlns="http://www.w3.org/2000/svg">
    <g clip-path="url(#qpw0m97ipa)" fill="#FF6900">
        <path d="M9.051 31.121a.732.732 0 0 0 1.004.256l22.356-13.288.977 1.645c.553.93 1.91.89 2.41-.064l2.348-4.474a1.38 1.38 0 0 0-1.202-2.022l-5.052-.075a1.382 1.382 0 0 0-1.208 2.086l.978 1.645L9.307 30.117a.732.732 0 0 0-.256 1.004zm27.735-16.484-2.215 4.22-2.55-4.292 4.765.072zM5.028 50h39.944a.732.732 0 1 0 0-1.465h-.66V37.772a.732.732 0 1 0-1.465 0v10.763h-4.383V22.09c0-.17.139-.31.31-.31h3.762c.172 0 .31.14.31.31v12.264a.732.732 0 1 0 1.466 0V22.09c0-.979-.797-1.775-1.776-1.775h-3.762c-.98 0-1.775.796-1.775 1.775v26.446h-3.124v-20.87c0-.98-.796-1.776-1.775-1.776h-3.763c-.979 0-1.775.796-1.775 1.775v20.871h-3.124V33.24c0-.979-.796-1.775-1.775-1.775H17.9c-.978 0-1.775.796-1.775 1.775v15.296h-3.123v-9.72c0-.98-.797-1.776-1.775-1.776H7.464c-.979 0-1.775.796-1.775 1.775v9.721h-.66a.732.732 0 1 0 0 1.465zm22.999-22.336c0-.17.139-.31.31-.31H32.1c.171 0 .31.14.31.31v20.871h-4.383v-20.87zM17.59 33.24c0-.17.14-.31.31-.31h3.763c.171 0 .31.14.31.31v15.296H17.59V33.24zM7.154 38.814c0-.17.139-.31.31-.31h3.763c.17 0 .31.14.31.31v9.721H7.154v-9.72zM22.452 10.565c0-4.186-3.406-7.591-7.591-7.591-4.186 0-7.591 3.405-7.591 7.59 0 4.186 3.405 7.592 7.59 7.592 4.186 0 7.592-3.406 7.592-7.591zm-6.859 6.08v-.233a.732.732 0 0 0-1.465 0v.234a6.136 6.136 0 0 1-5.348-5.349h.233a.732.732 0 1 0 0-1.465H8.78a6.136 6.136 0 0 1 5.348-5.348v.233a.732.732 0 1 0 1.465 0v-.233a6.136 6.136 0 0 1 5.349 5.348h-.234a.732.732 0 1 0 0 1.465h.234a6.136 6.136 0 0 1-5.349 5.349z"/>
        <path d="M17.484 9.832h-1.891V7.198a.732.732 0 1 0-1.465 0v3.367c0 .404.328.732.732.732h2.624a.732.732 0 0 0 0-1.465z"/>
        <path d="M13.025 20.97a.732.732 0 1 0 .253-1.443 9.079 9.079 0 0 1-7.517-8.962c0-5.018 4.082-9.1 9.1-9.1 5.017 0 9.1 4.082 9.1 9.1 0 4.43-3.162 8.199-7.518 8.962a.733.733 0 0 0 .253 1.443 10.541 10.541 0 0 0 8.73-10.405C25.425 4.739 20.685 0 14.86 0 9.035 0 4.296 4.74 4.296 10.565c0 5.142 3.671 9.519 8.73 10.405z"/>
    </g>
    <defs>
        <clipPath id="qpw0m97ipa">
            <path fill="#fff" d="M0 0h50v50H0z"/>
        </clipPath>
    </defs>
</svg>
