<svg width="50" height="50" viewBox="0 0 50 50" fill="none" xmlns="http://www.w3.org/2000/svg">
    <g clip-path="url(#20v862z90a)" fill="#00A499">
        <path d="m48.256 42.022-9.402-7.184a21.704 21.704 0 1 0-4.017 4.016l7.186 9.405a4.455 4.455 0 0 0 6.676.44A4.443 4.443 0 0 0 50 45.55a4.416 4.416 0 0 0-1.744-3.53zM1.666 21.667a20 20 0 1 1 20 20 20.023 20.023 0 0 1-20-20zm45.855 25.851a2.833 2.833 0 0 1-2.153.81 2.786 2.786 0 0 1-2.022-1.084l-7.224-9.454a21.841 21.841 0 0 0 1.666-1.667l9.454 7.222a2.782 2.782 0 0 1 .279 4.173z"/>
        <path d="M10.338 28.77A2.407 2.407 0 0 0 12.441 30h18.451a2.405 2.405 0 0 0 2.103-1.23 2.536 2.536 0 0 0-.007-2.535l-9.223-15.842a2.408 2.408 0 0 0-4.194 0l-9.225 15.841a2.535 2.535 0 0 0-.008 2.535zm1.448-1.697 9.228-15.85a.74.74 0 0 1 1.308.004l9.226 15.847a.852.852 0 0 1 0 .865.755.755 0 0 1-.656.394H12.44a.757.757 0 0 1-.658-.394.856.856 0 0 1 .003-.866z"/>
        <path d="M21.667 3.333a.833.833 0 0 0 0 1.667 16.658 16.658 0 1 1-3.965.477.834.834 0 0 0-.397-1.62 18.342 18.342 0 1 0 4.362-.524zM45.589 44.41a.833.833 0 0 0-1.178 1.18l.833.832a.833.833 0 0 0 1.178-1.178l-.833-.833z"/>
        <path d="M21.667 22.5a.833.833 0 0 0 .833-.833v-5.834a.833.833 0 0 0-1.666 0v5.834a.833.833 0 0 0 .833.833zM21.667 26.667a.833.833 0 0 0 .833-.834V25a.833.833 0 1 0-1.666 0v.833a.833.833 0 0 0 .833.834z"/>
    </g>
    <defs>
        <clipPath id="20v862z90a">
            <path fill="#fff" d="M0 0h50v50H0z"/>
        </clipPath>
    </defs>
</svg>
