<svg width="50" height="50" viewBox="0 0 50 50" fill="none" xmlns="http://www.w3.org/2000/svg">
    <path d="M25.027 22.681a1.667 1.667 0 0 0-.711 3.172v2.026a.712.712 0 0 0 1.423 0v-2.026a1.665 1.665 0 0 0-.712-3.172z" fill="#FF6900"/>
    <path d="M42.787 10.854c-3.063-1.212-5.495-3.444-6.846-6.286a2.249 2.249 0 0 0-2.025-1.272H16.084c-.862 0-1.657.5-2.024 1.272-1.352 2.842-3.783 5.074-6.847 6.286A2.23 2.23 0 0 0 5.8 12.941v4.337c0 5.686 1.658 11.302 4.794 16.242 3.167 4.989 7.757 9.158 13.272 12.056l.09.048a2.246 2.246 0 0 0 2.09 0l.09-.047c5.516-2.9 10.105-7.068 13.272-12.057 3.137-4.94 4.795-10.556 4.795-16.242v-4.337a2.23 2.23 0 0 0-1.415-2.087zm-.009 6.424c0 5.415-1.58 10.768-4.572 15.48-3.034 4.778-7.437 8.776-12.732 11.559l-.09.047a.824.824 0 0 1-.767 0l-.09-.047c-5.296-2.783-9.698-6.78-12.732-11.56-2.992-4.711-4.573-10.064-4.573-15.479v-4.337c0-.34.202-.64.515-.763 3.4-1.345 6.101-3.83 7.608-6.999a.819.819 0 0 1 .739-.46h17.832c.316 0 .606.18.74.46 1.506 3.168 4.208 5.654 7.608 6.999a.815.815 0 0 1 .514.763v4.337z" fill="#FF6900"/>
    <path d="M46.355 24.031a.711.711 0 0 0-.851.537c-2.168 9.588-8.768 17.903-18.11 22.813l-2.17 1.14a.481.481 0 0 1-.448 0l-2.17-1.14c-9.357-4.918-15.96-13.247-18.119-22.852a.712.712 0 1 0-1.388.312c2.25 10.013 9.118 18.687 18.844 23.8l2.171 1.14a1.905 1.905 0 0 0 1.772 0l2.17-1.14c9.712-5.105 16.577-13.764 18.836-23.759a.712.712 0 0 0-.538-.85zM46.008 8.142c-3.8-.4-6.787-3.068-7.265-6.485A1.922 1.922 0 0 0 36.855 0h-23.71c-.944 0-1.755.712-1.887 1.657-.479 3.417-3.466 6.084-7.266 6.485a1.892 1.892 0 0 0-1.689 1.892v7.641c0 1.11.058 2.233.171 3.337a.712.712 0 0 0 1.416-.146 31.338 31.338 0 0 1-.164-3.19v-7.642c0-.243.183-.452.415-.476 4.451-.47 7.957-3.638 8.526-7.704a.487.487 0 0 1 .479-.43h23.709c.242 0 .443.18.478.43.57 4.066 4.075 7.234 8.526 7.704a.477.477 0 0 1 .415.476v7.641c0 1.05-.054 2.113-.16 3.158a.712.712 0 0 0 1.416.144 32.77 32.77 0 0 0 .167-3.302v-7.64c0-.978-.726-1.791-1.689-1.893z" fill="#FF6900"/>
    <path d="M33.15 17.76h-1.17v-3.396a6.96 6.96 0 0 0-6.953-6.953 6.96 6.96 0 0 0-6.953 6.953v3.396h-1.17a2.266 2.266 0 0 0-2.263 2.263v10.189a2.266 2.266 0 0 0 2.263 2.263H33.15a2.266 2.266 0 0 0 2.263-2.263V20.023a2.266 2.266 0 0 0-2.263-2.263zm-13.653-3.396c0-3.05 2.481-5.53 5.53-5.53 3.05 0 5.53 2.48 5.53 5.53v3.396h-11.06v-3.396zM33.99 30.212c0 .463-.377.84-.84.84H16.904a.84.84 0 0 1-.84-.84V20.023a.84.84 0 0 1 .84-.84H33.15a.84.84 0 0 1 .84.84v10.189z" fill="#FF6900"/>
</svg>
