<svg width="50" height="50" viewBox="0 0 50 50" fill="none" xmlns="http://www.w3.org/2000/svg">
    <path d="M47.5 0h-35A2.5 2.5 0 0 0 10 2.5V25H2.5A2.5 2.5 0 0 0 0 27.5v20A2.5 2.5 0 0 0 2.5 50h20a2.5 2.5 0 0 0 2.5-2.5V40h22.5a2.5 2.5 0 0 0 2.5-2.5v-35A2.5 2.5 0 0 0 47.5 0zM23.333 47.5c0 .46-.373.833-.833.833h-20a.833.833 0 0 1-.833-.833v-20c0-.46.373-.833.833-.833H10V37.5a2.5 2.5 0 0 0 2.5 2.5h10.833v7.5zm25-10c0 .46-.373.833-.833.833h-35a.833.833 0 0 1-.833-.833v-35c0-.46.373-.833.833-.833h35c.46 0 .833.373.833.833v35z" fill="#FF6900"/>
    <path d="m44.571 3.386-4.083 1.02a1.708 1.708 0 0 0-.794 2.865l.938.937-22.415 22.405-.947-.946a1.707 1.707 0 0 0-2.864.795l-1.02 4.083a1.71 1.71 0 0 0 1.65 2.122c.14-.001.28-.019.417-.053l4.083-1.02a1.708 1.708 0 0 0 .793-2.866l-.936-.936L41.809 9.385l.949.948a1.684 1.684 0 0 0 1.662.436 1.69 1.69 0 0 0 1.201-1.232l1.02-4.084a1.706 1.706 0 0 0-2.07-2.07v.003zm-29.557 31.6a.033.033 0 0 1-.014-.038l1.091-4.102 3.043 3.132-4.12 1.009zM45.025 5.054l-1.089 4.101-3.044-3.131 4.122-1.01a.033.033 0 0 1 .011.039z" fill="#FF6900"/>
</svg>
