<svg width="61" height="60" viewBox="0 0 61 60" fill="none" xmlns="http://www.w3.org/2000/svg">
    <path d="M44.011 28.007c-.669.005-1.337.051-2 .14V8.831a3.001 3.001 0 0 0-.254-1.2c-.01-.024-.025-.044-.036-.066a3.013 3.013 0 0 0-.593-.861L35.309.883a3.012 3.012 0 0 0-.864-.593c-.022-.01-.042-.026-.066-.036a3.001 3.001 0 0 0-1.2-.254H4A4.001 4.001 0 0 0 0 4.001v43.011a4.001 4.001 0 0 0 4.001 4.001h25.642A15.995 15.995 0 1 0 44.01 28.007zM38.596 7.002H37.01a2 2 0 0 1-2-2V3.414l3.586 3.587zM4.001 49.012a2 2 0 0 1-2-2V4.001a2 2 0 0 1 2-2h29.008v3a4.001 4.001 0 0 0 4 4.001h3.001v19.532A15.952 15.952 0 0 0 28.82 49.013H4zm40.01 9.003a14.004 14.004 0 1 1 14.004-14.004c-.008 7.731-6.273 13.996-14.004 14.004z" fill="#FF6900"/>
    <path d="m18.298 5.295-1.909 1.907a2.986 2.986 0 0 0-2.385-1.2H8.002a3 3 0 0 0-3 3v6.002a3 3 0 0 0 3 3.001h6.002a3 3 0 0 0 3-3V9.416l2.708-2.708a1 1 0 1 0-1.414-1.414zm-3.294 9.71a1 1 0 0 1-1 1H8.002a1 1 0 0 1-1-1V9.002a1 1 0 0 1 1-1h6.002a.994.994 0 0 1 .93.656l-2.931 2.93-1.293-1.293a1 1 0 0 0-1.415 1.414l2 2a1 1 0 0 0 1.415 0l2.294-2.293v3.587zM18.298 19.297l-1.909 1.908a2.985 2.985 0 0 0-2.385-1.2H8.002a3 3 0 0 0-3 3v6.002a3 3 0 0 0 3 3h6.002a3 3 0 0 0 3-3v-5.588l2.708-2.707a1 1 0 0 0-1.414-1.415zm-3.294 9.71a1 1 0 0 1-1 1H8.002a1 1 0 0 1-1-1v-6.002a1 1 0 0 1 1-1h6.002a.994.994 0 0 1 .93.656l-2.931 2.931-1.293-1.293a1 1 0 0 0-1.415 1.414l2 2a1 1 0 0 0 1.415 0l2.294-2.293v3.587zM18.298 33.301l-1.909 1.908a2.985 2.985 0 0 0-2.385-1.2H8.002a3 3 0 0 0-3 3v6.002a3 3 0 0 0 3 3h6.002a3 3 0 0 0 3-3v-5.588l2.708-2.707a1 1 0 0 0-1.414-1.415zm-3.294 9.71a1 1 0 0 1-1 1H8.002a1 1 0 0 1-1-1v-6.002a1 1 0 0 1 1-1h6.002a.994.994 0 0 1 .93.656l-2.931 2.93-1.293-1.292a1 1 0 0 0-1.415 1.414l2 2a1 1 0 0 0 1.415 0l2.294-2.293v3.587zM50.554 36.168a1 1 0 0 0-1.382.3l-8.331 12.96-2.124-2.123a1 1 0 0 0-1.414 1.414l3 3.001a1 1 0 0 0 1.549-.166l9.002-14.004a1 1 0 0 0-.3-1.382zM23.006 10.002h7.002a1 1 0 1 0 0-2h-7.002a1 1 0 0 0 0 2zM23.006 15.004h6.002a1 1 0 0 0 0-2.001h-6.002a1 1 0 0 0 0 2zM23.006 24.005h13.003a1 1 0 0 0 0-2H23.006a1 1 0 1 0 0 2zM23.006 29.007h6.002a1 1 0 0 0 0-2h-6.002a1 1 0 0 0 0 2zM26.007 36.009h-3.001a1 1 0 1 0 0 2h3a1 1 0 0 0 0-2zM25.006 41.01h-2a1 1 0 0 0 0 2.001h2a1 1 0 0 0 0-2z" fill="#FF6900"/>
</svg>
