<svg width="61" height="53" viewBox="0 0 61 53" fill="none" xmlns="http://www.w3.org/2000/svg">
    <mask id="ko72bqbgja" fill="#fff">
        <path d="M55.257 0H4.788A4.795 4.795 0 0 0 0 4.79v31.552a4.795 4.795 0 0 0 4.79 4.79h33.124l.893 2.047a1.104 1.104 0 0 0 .698.61v8.094a1.117 1.117 0 0 0 1.612 1l3.725-1.85 3.718 1.85a1.116 1.116 0 0 0 1.613-1v-8.092a1.11 1.11 0 0 0 .706-.615l.89-2.044h3.49a4.795 4.795 0 0 0 4.789-4.79V4.79A4.795 4.795 0 0 0 55.257 0zM45.34 48.784a1.12 1.12 0 0 0-.994 0l-2.609 1.296v-6.44l.552-.064 1.89 1.395a1.117 1.117 0 0 0 1.325 0l1.885-1.392.551.064v6.44l-2.6-1.3zm4.6-9.055-.78 1.8-1.954-.22a1.1 1.1 0 0 0-.787.21l-1.577 1.164-1.582-1.164a1.117 1.117 0 0 0-.79-.21l-1.948.22-.786-1.802a1.116 1.116 0 0 0-.574-.574l-.369-.161-.016-.007-1.42-.62.22-1.949c.03-.279-.044-.56-.211-.786l-1.164-1.583 1.163-1.576c.167-.227.243-.508.211-.788l-.22-1.953 1.8-.782a1.12 1.12 0 0 0 .579-.577l.787-1.804 1.95.216c.28.03.56-.044.785-.21l1.583-1.165 1.576 1.164c.226.166.506.242.785.21l1.956-.215.781 1.802c.113.26.32.467.58.58l1.802.781-.216 1.956c-.03.278.044.558.21.784l1.16 1.577-1.158 1.584c-.165.226-.24.505-.21.783l.216 1.95-1.42.621-.017.007-.368.16a1.12 1.12 0 0 0-.576.578v-.001zm7.874-3.389a2.56 2.56 0 0 1-2.557 2.558h-.63l-.255-2.296 1.388-1.894a1.118 1.118 0 0 0 0-1.321L54.373 31.5l.255-2.342a1.114 1.114 0 0 0-.664-1.148l-2.151-.937-.934-2.152a1.117 1.117 0 0 0-1.148-.665l-2.34.258-1.887-1.392a1.115 1.115 0 0 0-1.324 0l-1.894 1.394-2.334-.259a1.112 1.112 0 0 0-1.148.663l-.938 2.153-2.153.938a1.116 1.116 0 0 0-.665 1.148l.264 2.339-1.392 1.889a1.116 1.116 0 0 0 0 1.324l1.393 1.892-.26 2.296H4.79a2.56 2.56 0 0 1-2.557-2.557V4.789a2.56 2.56 0 0 1 2.557-2.557h50.468a2.56 2.56 0 0 1 2.557 2.557V36.34z"/>
    </mask>
    <path d="M55.257 0H4.788A4.795 4.795 0 0 0 0 4.79v31.552a4.795 4.795 0 0 0 4.79 4.79h33.124l.893 2.047a1.104 1.104 0 0 0 .698.61v8.094a1.117 1.117 0 0 0 1.612 1l3.725-1.85 3.718 1.85a1.116 1.116 0 0 0 1.613-1v-8.092a1.11 1.11 0 0 0 .706-.615l.89-2.044h3.49a4.795 4.795 0 0 0 4.789-4.79V4.79A4.795 4.795 0 0 0 55.257 0zM45.34 48.784a1.12 1.12 0 0 0-.994 0l-2.609 1.296v-6.44l.552-.064 1.89 1.395a1.117 1.117 0 0 0 1.325 0l1.885-1.392.551.064v6.44l-2.6-1.3zm4.6-9.055-.78 1.8-1.954-.22a1.1 1.1 0 0 0-.787.21l-1.577 1.164-1.582-1.164a1.117 1.117 0 0 0-.79-.21l-1.948.22-.786-1.802a1.116 1.116 0 0 0-.574-.574l-.369-.161-.016-.007-1.42-.62.22-1.949c.03-.279-.044-.56-.211-.786l-1.164-1.583 1.163-1.576c.167-.227.243-.508.211-.788l-.22-1.953 1.8-.782a1.12 1.12 0 0 0 .579-.577l.787-1.804 1.95.216c.28.03.56-.044.785-.21l1.583-1.165 1.576 1.164c.226.166.506.242.785.21l1.956-.215.781 1.802c.113.26.32.467.58.58l1.802.781-.216 1.956c-.03.278.044.558.21.784l1.16 1.577-1.158 1.584c-.165.226-.24.505-.21.783l.216 1.95-1.42.621-.017.007-.368.16a1.12 1.12 0 0 0-.576.578v-.001zm7.874-3.389a2.56 2.56 0 0 1-2.557 2.558h-.63l-.255-2.296 1.388-1.894a1.118 1.118 0 0 0 0-1.321L54.373 31.5l.255-2.342a1.114 1.114 0 0 0-.664-1.148l-2.151-.937-.934-2.152a1.117 1.117 0 0 0-1.148-.665l-2.34.258-1.887-1.392a1.115 1.115 0 0 0-1.324 0l-1.894 1.394-2.334-.259a1.112 1.112 0 0 0-1.148.663l-.938 2.153-2.153.938a1.116 1.116 0 0 0-.665 1.148l.264 2.339-1.392 1.889a1.116 1.116 0 0 0 0 1.324l1.393 1.892-.26 2.296H4.79a2.56 2.56 0 0 1-2.557-2.557V4.789a2.56 2.56 0 0 1 2.557-2.557h50.468a2.56 2.56 0 0 1 2.557 2.557V36.34z" fill="#FF6900" stroke="#fff" stroke-width=".4" mask="url(#ko72bqbgja)"/>
    <path d="M12.167 31.56h6.543a1.016 1.016 0 1 1 0 2.032h-6.543a1.016 1.016 0 0 1 0-2.032zM12.167 16.042h35.711a1.016 1.016 0 1 1 0 2.032h-35.71a1.016 1.016 0 0 1 0-2.032zM12.167 9.076h35.711a1.016 1.016 0 1 1 0 2.031h-35.71a1.016 1.016 0 0 1 0-2.031zM44.84 36.694a2.65 2.65 0 0 0 2.646-2.647 2.647 2.647 0 1 0-2.646 2.647zm-2.6-6.538a4.68 4.68 0 0 1 2.6-.788v-.1.1a4.683 4.683 0 0 1 4.678 4.679 4.678 4.678 0 1 1-7.278-3.891z" fill="#FF6900" stroke="#fff" stroke-width=".2"/>
</svg>
