<svg width="60" height="60" viewBox="0 0 60 60" fill="none" xmlns="http://www.w3.org/2000/svg">
    <g clip-path="url(#rm41jt67ta)">
        <path d="m1.137 30.17 4.781 1.886c.632.25 1.321.118 1.814-.295l3.787 2.388.65.456a3.201 3.201 0 0 0 3.058 4.887c.05.9.46 1.702 1.125 2.266.655.555 1.51.84 2.42.74.05.9.459 1.7 1.125 2.266.66.56 1.516.838 2.42.74a3.194 3.194 0 0 0 1.124 2.265 3.205 3.205 0 0 0 4.512-.37l.76-.892 1.28.945c2.215 1.634 5.344.295 5.632-2.42 2.283.829 4.706-.771 4.742-3.228a3.506 3.506 0 0 0 4.18-3.23c2.791.745 5.316-2.076 4.083-4.833l3.422-2.198c.49.58 1.304.8 2.03.513l4.782-1.886a1.797 1.797 0 0 0 1.01-2.328l-2.185-5.54a.879.879 0 1 0-1.635.645l2.185 5.54a.037.037 0 0 1-.02.048l-4.782 1.886a.037.037 0 0 1-.048-.02L47.38 15.166a.033.033 0 0 1 0-.028c.006-.013.017-.017.02-.02l4.782-1.886a.034.034 0 0 1 .029 0c.014.007.017.017.02.021l2.316 5.873a.879.879 0 0 0 1.635-.645l-2.317-5.873a1.796 1.796 0 0 0-2.327-1.01l-4.782 1.886a1.79 1.79 0 0 0-1.077 2.123l-2.563.946a4.99 4.99 0 0 1-2.504.247l-2.592-.411a.88.88 0 0 0-.275 1.736l2.592.41a6.753 6.753 0 0 0 3.388-.333l2.586-.955 5.003 12.68-3.772 2.422-.064-.047c-.405-.299-6.963-5.138-7.27-5.366a.882.882 0 0 0-.692-.155c-3.641.619-6.904-.676-9.303-3.182a1.986 1.986 0 0 0-2.774-.095c-2.329 2.09-5.582 4.13-7.858 1.966-.226-.214-.228-.611.115-.833 2.9-1.865 5.904-4.484 8.321-6.93a2.673 2.673 0 0 1 2.317-.757l3.336.53a.878.878 0 1 0 .275-1.737l-3.336-.529a4.436 4.436 0 0 0-3.842 1.258c-.28.283-.61.61-.983.971a12.546 12.546 0 0 0-3.492-.704c-3.492-.197-3.795-.234-4.588-.183a4.095 4.095 0 0 1-1.832-.307l-1.55-.648a1.796 1.796 0 0 0-1.077-2.117l-4.782-1.887a1.796 1.796 0 0 0-2.328 1.011L.125 27.842a1.794 1.794 0 0 0 1.012 2.328zm14.844 7.075a1.444 1.444 0 0 1-2.205-1.867l2.174-2.552a1.444 1.444 0 1 1 2.204 1.868l-.001.001-2.172 2.55zm3.544 3.005a1.444 1.444 0 0 1-2.205-1.867l2.174-2.552a1.45 1.45 0 0 1 2.143-.067l.012.013c.496.528.528 1.358.049 1.923l-2.173 2.55zm3.545 3.005a1.444 1.444 0 0 1-2.205-1.867l2.174-2.551a1.448 1.448 0 0 1 2.036-.168c.607.515.682 1.429.167 2.036l-2.172 2.55zm5.728.44-.01.014-2.174 2.551a1.446 1.446 0 0 1-2.205-1.867l2.174-2.551a1.444 1.444 0 0 1 2.215 1.853zM13.691 17.244l1.502.628a5.858 5.858 0 0 0 2.623.44c.672-.044.897-.013 4.377.183.715.04 1.422.15 2.112.33-1.72 1.553-3.651 3.11-5.585 4.352-1.24.796-1.424 2.548-.35 3.57 1.468 1.394 4.752 2.998 10.243-1.934a.236.236 0 0 1 .33.003c2.66 2.777 6.43 4.328 10.503 3.756.46.324-.432-.33 6.987 5.145.794.586 1.016 1.739.395 2.534a1.749 1.749 0 0 1-2.429.333c-1.041-.77-.272-.184-3.934-3.005a.879.879 0 1 0-1.073 1.392l3.038 2.34c.523.69.46 1.687-.159 2.305-.609.608-1.611.665-2.332.133-.697-.514-.118-.073-3.313-2.533a.879.879 0 1 0-1.073 1.393l2.694 2.074a1.764 1.764 0 0 1-.072 2.234c-.597.677-1.656.772-2.41.215-1.213-.895-.605-.433-2.94-2.24a.879.879 0 0 0-1.075 1.39l1.867 1.446a1.755 1.755 0 0 1-.217 2.145c-.61.638-1.625.709-2.363.165l-1.181-.872.271-.319c.541-.638.82-1.464.75-2.334a3.185 3.185 0 0 0-1.121-2.18 3.18 3.18 0 0 0-2.42-.74 3.212 3.212 0 0 0-1.125-2.265 3.183 3.183 0 0 0-2.419-.74 3.179 3.179 0 0 0-.761-1.901l-.008-.01a3.203 3.203 0 0 0-2.774-1.093 3.183 3.183 0 0 0-1.126-2.266 3.206 3.206 0 0 0-4.513.37l-1.324 1.555-.774-.545a.646.646 0 0 0-.037-.024l-3.9-2.46 5.116-12.97zM1.761 28.487l6.01-15.233a.037.037 0 0 1 .047-.02L12.6 15.12a.037.037 0 0 1 .02.048L6.612 30.4a.036.036 0 0 1-.047.02l-4.782-1.886a.036.036 0 0 1-.021-.048z" fill="#FF6900"/>
    </g>
    <defs>
        <clipPath id="rm41jt67ta">
            <path fill="#fff" d="M0 0h60v60H0z"/>
        </clipPath>
    </defs>
</svg>
