<svg width="60" height="57" viewBox="0 0 60 57" fill="none" xmlns="http://www.w3.org/2000/svg">
<path d="M17.7141 24.153C17.7141 23.5863 17.6115 23.0301 17.4165 22.5087H25.1495C25.6394 22.5087 26.0367 22.1114 26.0367 21.6211V15.7631C26.4601 15.8867 26.9019 15.9499 27.3518 15.9499C29.941 15.9499 32.0476 13.8432 32.0476 11.2541C32.0476 8.66547 29.941 6.55884 27.3518 6.55884C26.9019 6.55884 26.4601 6.62201 26.0367 6.74561V0.887146C26.0367 0.397339 25.6394 0 25.1495 0H2.3941C1.07391 0 0 1.07437 0 2.3941V21.6211C0 22.1114 0.397339 22.5087 0.887146 22.5087H8.62015C8.42514 23.0301 8.3226 23.5863 8.3226 24.153C8.3226 26.7421 10.4292 28.8487 13.0183 28.8487C15.6075 28.8487 17.7141 26.7421 17.7141 24.153V24.153ZM10.0974 24.153C10.0974 23.4366 10.3601 22.7467 10.8371 22.2116C11.0696 21.9502 11.1273 21.5772 10.9845 21.2581C10.8412 20.939 10.5244 20.734 10.1747 20.734H1.77475V2.3941C1.77475 2.05261 2.05261 1.77475 2.3941 1.77475H24.2624V8.14865C24.2624 8.48053 24.4478 8.78449 24.7426 8.93692C25.0374 9.08936 25.3926 9.06418 25.6636 8.87192C26.1594 8.51944 26.7435 8.33313 27.3523 8.33313C28.9627 8.33313 30.2733 9.64371 30.2733 11.2541C30.2733 12.865 28.9627 14.1751 27.3523 14.1751C26.7435 14.1751 26.1594 13.9888 25.6636 13.6368C25.3931 13.4445 25.0374 13.4193 24.7426 13.5713C24.4478 13.7238 24.2624 14.0277 24.2624 14.3601V20.734H15.8624C15.5127 20.734 15.1955 20.939 15.0526 21.2581C14.9094 21.5772 14.967 21.9502 15.1996 22.2116C15.6766 22.7467 15.9393 23.4366 15.9393 24.153C15.9393 25.7639 14.6292 27.074 13.0183 27.074C11.4079 27.074 10.0974 25.7639 10.0974 24.153V24.153Z" fill="#FF6900"/>
<path d="M57.6059 13.0106H43.2738C42.7835 13.0106 42.3862 13.4079 42.3862 13.8982C42.3862 14.388 42.7835 14.7853 43.2738 14.7853H57.6059C57.9474 14.7853 58.2253 15.0632 58.2253 15.4047V33.7445H51.2947C51.5456 33.1645 51.6774 32.5337 51.6774 31.8805C51.6774 29.2914 49.5708 27.1848 46.9817 27.1848C44.3926 27.1848 42.2864 29.2914 42.2864 31.8805C42.2864 32.5337 42.4178 33.1645 42.6686 33.7445H35.7376V27.5588C36.2453 27.7419 36.7841 27.838 37.3316 27.838C39.9207 27.838 42.0268 25.7314 42.0268 23.1422C42.0268 20.5531 39.9207 18.447 37.3316 18.447C36.7841 18.447 36.2453 18.5431 35.7376 18.7262V14.7853H39.7247C40.2145 14.7853 40.6119 14.388 40.6119 13.8977C40.6119 13.4079 40.2145 13.0106 39.7247 13.0106H34.8505C34.3607 13.0106 33.9633 13.4079 33.9633 13.8977V20.2547C33.9633 20.6012 34.1652 20.9161 34.4806 21.0608C34.7955 21.2054 35.1663 21.1533 35.4291 20.9271C35.9583 20.4721 36.6339 20.2213 37.3316 20.2213C38.9424 20.2213 40.2525 21.5318 40.2525 23.1422C40.2525 24.7527 38.9424 26.0632 37.3316 26.0632C36.6339 26.0632 35.9583 25.8124 35.4291 25.3574C35.1663 25.1312 34.7955 25.079 34.4806 25.2237C34.1652 25.3684 33.9633 25.6833 33.9633 26.0303V33.7441H24.7284C24.4006 33.7441 24.0999 33.9244 23.9456 34.2137C23.7914 34.5026 23.8088 34.8528 23.9909 35.1251C24.3127 35.6058 24.483 36.1665 24.483 36.7474C24.483 38.3579 23.1725 39.668 21.562 39.668C19.9512 39.668 18.6411 38.3579 18.6411 36.7474C18.6411 36.1665 18.8109 35.6058 19.1327 35.1251C19.3149 34.8532 19.3323 34.5026 19.178 34.2137C19.0237 33.9249 18.723 33.7441 18.3952 33.7441H10.5881C10.0983 33.7441 9.70093 34.1414 9.70093 34.6317V42.925C9.70093 43.4148 10.0983 43.8121 10.5881 43.8121C11.0783 43.8121 11.4757 43.4148 11.4757 42.925V35.5188H17.0288C16.9212 35.9161 16.8663 36.3286 16.8663 36.747C16.8663 39.3361 18.9725 41.4427 21.5616 41.4427C24.1507 41.4427 26.2573 39.3361 26.2573 36.747C26.2573 36.3286 26.2024 35.9161 26.0948 35.5188H33.9629V42.1037C33.9629 42.4251 34.1364 42.7213 34.4165 42.8778C34.6967 43.0348 35.04 43.0284 35.3137 42.8604C35.771 42.5803 36.2979 42.432 36.8372 42.432C38.4476 42.432 39.7582 43.7425 39.7582 45.3529C39.7582 46.9638 38.4476 48.2739 36.8372 48.2739C36.2979 48.2739 35.771 48.1261 35.3137 47.8455C35.04 47.6779 34.6971 47.6711 34.4165 47.8281C34.1364 47.9851 33.9629 48.2813 33.9629 48.6022V54.478H12.095C11.7535 54.478 11.4757 54.2001 11.4757 53.8582V46.474C11.4757 45.9842 11.0783 45.5869 10.5881 45.5869C10.0983 45.5869 9.70093 45.9842 9.70093 46.474V53.8582C9.70093 55.1784 10.7748 56.2528 12.095 56.2528H57.6059C58.9261 56.2528 60 55.1784 60 53.8582V15.4047C60 14.0845 58.9261 13.0106 57.6059 13.0106V13.0106ZM57.6059 54.4785H35.7376V49.9187C36.0956 50.0047 36.465 50.0487 36.8372 50.0487C39.4263 50.0487 41.5329 47.9425 41.5329 45.3534C41.5329 42.7643 39.4263 40.6581 36.8372 40.6581C36.4645 40.6581 36.0956 40.7021 35.7376 40.7881V35.5188H44.3504C44.7125 35.5188 45.0385 35.2986 45.1735 34.9622C45.3085 34.6257 45.2257 34.2412 44.9634 33.9903C44.3811 33.4337 44.0607 32.6839 44.0607 31.8805C44.0607 30.2696 45.3708 28.9595 46.9817 28.9595C48.5921 28.9595 49.9027 30.2696 49.9027 31.8805C49.9027 32.6839 49.5818 33.4337 48.9995 33.9908C48.7377 34.2412 48.6543 34.6257 48.7894 34.9622C48.9244 35.2986 49.2503 35.5188 49.6129 35.5188H58.2253V53.8587C58.2253 54.2006 57.9474 54.4785 57.6059 54.4785Z" fill="#FF6900"/>
</svg>
