<svg width="60" height="60" viewBox="0 0 60 60" fill="none" xmlns="http://www.w3.org/2000/svg">
    <path d="M4.977 43.625a.91.91 0 0 0-.91.909v5.097c-1.526.405-2.66 1.786-2.66 3.439a3.575 3.575 0 0 0 3.57 3.571 3.575 3.575 0 0 0 3.571-3.571c0-1.653-1.135-3.035-2.662-3.44v-4.187H21.02a.91.91 0 0 0 .909-.91v-13.9h6.694v3.9l-.472-.472a.909.909 0 1 0-1.286 1.285l2.024 2.024c.36.36.94.347 1.286 0l2.023-2.024a.909.909 0 1 0-1.285-1.285l-.472.472v-3.9h7.443v13.9c0 .503.407.91.909.91h15.56v4.124a3.574 3.574 0 0 0-2.901 3.503 3.575 3.575 0 0 0 3.57 3.571 3.575 3.575 0 0 0 3.572-3.571c0-1.566-1.019-2.884-2.423-3.365v-5.171a.91.91 0 0 0-.91-.91h-15.56v-12.99h3.812v6.143c0 .502.407.91.909.91h6.35l-.473.471a.909.909 0 1 0 1.286 1.286l2.023-2.024a.913.913 0 0 0 0-1.286l-2.023-2.023a.909.909 0 1 0-1.286 1.285l.472.472h-5.44v-5.235h1.073c4.042 0 7.33-3.287 7.33-7.328a7.262 7.262 0 0 0-2.7-5.675c1.032-2.298-.212-5.031-2.663-5.696A11.231 11.231 0 0 0 37.144.909a11.257 11.257 0 0 0-10.878 8.357c-4.448-2.857-10.611-.134-11.19 5.445-4.935-1.1-9.746 2.71-9.746 7.878 0 4.436 3.61 8.044 8.045 8.044h.888v5.237H8.822l.472-.472a.909.909 0 1 0-1.286-1.286l-2.023 2.024a.913.913 0 0 0 0 1.286l2.023 2.024a.909.909 0 1 0 1.286-1.286l-.472-.472h6.35a.91.91 0 0 0 .91-.91v-6.144h4.028v12.99H4.977zM6.73 53.07c0 .966-.786 1.753-1.753 1.753a1.755 1.755 0 0 1-1.753-1.753c0-.966.787-1.753 1.753-1.753.967 0 1.753.787 1.753 1.753zm50.046 0c0 .966-.787 1.753-1.753 1.753a1.755 1.755 0 0 1-1.753-1.753c0-.966.786-1.753 1.753-1.753.966 0 1.752.787 1.752 1.753zM13.374 28.815a6.233 6.233 0 0 1-6.227-6.226c0-4.543 4.607-7.358 8.466-5.815a.907.907 0 0 0 1.246-.889c-.267-5.353 5.873-7.822 9.372-4.323a.91.91 0 0 0 1.545-.535c.565-4.732 4.592-8.3 9.367-8.3 5.203 0 9.648 4.284 9.402 9.934a.909.909 0 0 0 .853.947c1.86.114 2.83 2.243 1.708 3.733a.908.908 0 0 0 .243 1.316 5.458 5.458 0 0 1 2.565 4.648 5.517 5.517 0 0 1-5.51 5.51h-33.03z" fill="#FF6900"/>
    <path d="M20.682 57.9v.282c0 .502.408.909.91.909h15.88a.91.91 0 0 0 .91-.91v-.28c0-4.88-3.97-8.85-8.85-8.85-4.88 0-8.85 3.97-8.85 8.85zm8.85-7.031c3.665 0 6.685 2.82 7.003 6.404h-2.483v-1.884a.91.91 0 0 0-1.818 0v1.884H26.83v-1.884a.91.91 0 0 0-1.818 0v1.884h-2.483c.318-3.585 3.337-6.404 7.003-6.404zM33.252 43.632a3.725 3.725 0 0 0-3.72-3.72 3.725 3.725 0 0 0-3.721 3.72 3.725 3.725 0 0 0 3.72 3.72c2.052 0 3.721-1.669 3.721-3.72zm-5.623 0c0-1.05.854-1.903 1.903-1.903s1.902.854 1.902 1.903a1.905 1.905 0 0 1-1.902 1.902 1.905 1.905 0 0 1-1.903-1.902zM44.916 15.098l-1.725-.413.926-1.511a.91.91 0 0 0-.133-1.117L42.027 10.1a.91.91 0 0 0-1.117-.133l-1.513.926-.412-1.719a.91.91 0 0 0-.884-.697h-2.765a.91.91 0 0 0-.884.697l-.412 1.719-1.512-.926a.91.91 0 0 0-1.117.133l-1.957 1.957a.91.91 0 0 0-.133 1.117l.925 1.511-1.725.413a.91.91 0 0 0-.697.884v2.772c0 .42.288.787.697.885l1.725.413-.925 1.511a.91.91 0 0 0 .133 1.117l1.957 1.957a.909.909 0 0 0 1.117.133l1.512-.926.412 1.719a.91.91 0 0 0 .884.697h2.765a.91.91 0 0 0 .884-.697l.412-1.719 1.513.926c.36.22.821.164 1.117-.133l1.957-1.957a.909.909 0 0 0 .133-1.117l-.926-1.511 1.725-.413a.91.91 0 0 0 .698-.885v-2.772a.909.909 0 0 0-.697-.884zm-1.12 2.94-2.245.536a.91.91 0 0 0-.564 1.359l1.205 1.968-.944.944-1.968-1.205a.907.907 0 0 0-1.36.563l-.536 2.239h-1.33l-.537-2.239a.91.91 0 0 0-1.359-.563l-1.968 1.205-.944-.944 1.205-1.968a.91.91 0 0 0-.564-1.359l-2.245-.537V16.7l2.245-.537a.91.91 0 0 0 .564-1.36l-1.205-1.968.944-.943 1.968 1.205a.91.91 0 0 0 1.359-.563l.536-2.239h1.331l.537 2.238a.91.91 0 0 0 1.359.564l1.968-1.205.944.944-1.205 1.968a.91.91 0 0 0 .563 1.359l2.246.537v1.337z" fill="#FF6900"/>
    <path d="M36.719 13.862a3.51 3.51 0 0 0-3.507 3.506 3.51 3.51 0 0 0 3.507 3.506 3.51 3.51 0 0 0 3.506-3.506 3.51 3.51 0 0 0-3.506-3.506zm0 5.194a1.69 1.69 0 0 1-1.688-1.688c0-.93.757-1.687 1.688-1.687.93 0 1.688.757 1.688 1.687a1.69 1.69 0 0 1-1.688 1.688z" fill="#FF6900"/>
</svg>
