<svg width="60" height="60" viewBox="0 0 60 60" fill="none" xmlns="http://www.w3.org/2000/svg">
    <path d="M56.08 9.359a19.778 19.778 0 0 0-2.14-.408c1.145-.975 1.898-2.615 1.898-4.47 0-2.722-1.704-4.48-4.342-4.48-2.637 0-4.342 1.758-4.342 4.48 0 1.85.75 3.486 1.89 4.463a18.29 18.29 0 0 0-2.142.416c-2.485.636-3.91 2.083-3.91 3.97v6.874a.937.937 0 1 0 1.874 0V13.33c0-1.253 1.36-1.864 2.502-2.156 2.686-.693 5.466-.692 8.262.002.932.23 2.496.817 2.496 2.154v6.873a.937.937 0 1 0 1.874 0V13.33c0-1.909-1.43-3.357-3.92-3.972zm-4.584-7.485c1.126 0 2.468.452 2.468 2.607 0 1.918-1.13 3.538-2.468 3.538s-2.468-1.62-2.468-3.538c0-2.155 1.342-2.607 2.468-2.607zm-4.13 19.267a.937.937 0 0 1-.936-.937v-5.295a.937.937 0 0 1 1.874 0v5.295c0 .517-.42.936-.937.936zm8.256 0a.937.937 0 0 1-.937-.937v-5.295a.937.937 0 1 1 1.874 0v5.295c0 .517-.42.936-.937.936zM37.374 41.86a31.39 31.39 0 0 0-5.08-.834c2.467-1.18 4.227-4.206 4.227-7.745 0-4.164-2.499-6.75-6.52-6.75-4.023 0-6.522 2.586-6.522 6.75 0 3.531 1.753 6.552 4.212 7.737a29.355 29.355 0 0 0-5.076.843c-3.845.989-5.962 3.095-5.962 5.93v11.271a.937.937 0 1 0 1.873 0v-11.27c0-2.434 2.477-3.582 4.555-4.116 4.507-1.16 9.164-1.16 13.842.002 1.698.42 4.547 1.515 4.547 4.113v11.271a.937.937 0 1 0 1.874 0v-11.27c0-2.83-2.176-4.992-5.97-5.933zm-12.021-8.58c0-4.242 2.912-4.876 4.647-4.876 1.736 0 4.647.634 4.647 4.877 0 3.53-2.084 6.401-4.647 6.401-2.562 0-4.647-2.871-4.647-6.401zm-1.186 17.102v8.68a.937.937 0 1 1-1.874 0v-8.68a.937.937 0 1 1 1.874 0zm13.54 0v8.68a.937.937 0 0 1-1.874 0v-8.68a.937.937 0 1 1 1.874 0zM.937 21.14c.517 0 .937-.419.937-.936V13.33c0-1.254 1.36-1.864 2.502-2.156 2.686-.693 5.466-.692 8.262.002.931.23 2.493.816 2.493 2.154v6.873a.937.937 0 1 0 1.874 0V13.33c0-1.91-1.428-3.357-3.917-3.972a19.787 19.787 0 0 0-2.14-.408c1.145-.975 1.898-2.615 1.898-4.47C12.846 1.76 11.142 0 8.504 0S4.162 1.759 4.162 4.481c0 1.85.75 3.486 1.89 4.462-.719.097-1.433.235-2.141.417C1.425 9.995 0 11.442 0 13.33v6.874c0 .517.42.936.937.936zM8.504 1.875c1.126 0 2.468.452 2.468 2.607 0 1.918-1.13 3.538-2.468 3.538S6.036 6.4 6.036 4.481c0-2.155 1.342-2.607 2.468-2.607zM4.375 13.972c.518 0 .937.42.937.937v5.295a.937.937 0 1 1-1.874 0v-5.295c0-.518.42-.937.937-.937zm8.255 0c.517 0 .937.42.937.937v5.295a.937.937 0 1 1-1.874 0v-5.295c0-.518.42-.937.937-.937zm9.803 7.168c.517 0 .937-.419.937-.936V13.33c0-1.253 1.36-1.864 2.502-2.156 2.686-.693 5.465-.692 8.262.002.93.23 2.493.816 2.493 2.154v6.873a.937.937 0 1 0 1.874 0V13.33c0-1.91-1.428-3.357-3.917-3.972a19.787 19.787 0 0 0-2.14-.408c1.145-.975 1.898-2.615 1.898-4.47C34.342 1.76 32.638 0 30 0c-2.637 0-4.342 1.759-4.342 4.481 0 1.85.75 3.486 1.89 4.462-.719.097-1.433.235-2.142.417-2.485.636-3.91 2.083-3.91 3.97v6.874c0 .517.42.936.937.936zM30 1.875c1.126 0 2.468.452 2.468 2.607 0 1.918-1.13 3.538-2.468 3.538s-2.468-1.62-2.468-3.538c0-2.155 1.342-2.607 2.468-2.607zm-4.129 12.098c.518 0 .937.42.937.937v5.295a.937.937 0 0 1-1.874 0v-5.295c0-.518.42-.937.937-.937zm8.255 0c.517 0 .937.42.937.937v5.295a.937.937 0 1 1-1.874 0v-5.295c0-.518.42-.937.937-.937zM56.08 31.715a19.724 19.724 0 0 0-2.137-.407c1.143-.975 1.895-2.614 1.895-4.467 0-2.722-1.704-4.481-4.342-4.481-2.637 0-4.342 1.759-4.342 4.48 0 1.85.749 3.485 1.888 4.462a18.4 18.4 0 0 0-2.141.415c-2.484.64-3.91 2.087-3.91 3.97v6.876a.937.937 0 0 0 1.875 0v-6.876c0-1.248 1.36-1.861 2.501-2.156 2.693-.69 5.472-.69 8.26.002.934.232 2.5.821 2.5 2.154v6.876a.937.937 0 0 0 1.873 0v-6.876c0-1.904-1.428-3.351-3.92-3.972zm-4.584-7.482c1.126 0 2.468.453 2.468 2.608 0 1.918-1.13 3.538-2.468 3.538s-2.468-1.62-2.468-3.538c0-2.155 1.342-2.608 2.468-2.608zm-3.192 13.035v5.295a.937.937 0 1 1-1.874 0v-5.295a.937.937 0 0 1 1.874 0zm8.255 0v5.295a.937.937 0 1 1-1.874 0v-5.295a.937.937 0 1 1 1.874 0zm-39.554 5.295v-6.876c0-1.904-1.427-3.352-3.917-3.972a19.7 19.7 0 0 0-2.137-.407c1.143-.975 1.895-2.614 1.895-4.467 0-2.722-1.704-4.481-4.342-4.481-2.637 0-4.342 1.759-4.342 4.48 0 1.85.749 3.485 1.888 4.461-.718.096-1.432.234-2.141.416C1.425 32.357 0 33.803 0 35.687v6.876a.937.937 0 0 0 1.874 0v-6.876c0-1.25 1.36-1.862 2.501-2.156 2.693-.69 5.472-.69 8.261.002.932.232 2.495.82 2.495 2.154v6.876a.937.937 0 0 0 1.874 0zm-8.5-18.33c1.125 0 2.467.453 2.467 2.608 0 1.918-1.13 3.538-2.468 3.538s-2.468-1.62-2.468-3.538c0-2.155 1.342-2.608 2.468-2.608zM5.311 37.268v5.295a.937.937 0 1 1-1.874 0v-5.295a.937.937 0 1 1 1.874 0zm8.255 0v5.295a.937.937 0 1 1-1.874 0v-5.295a.937.937 0 1 1 1.874 0z" fill="#FF6900"/>
</svg>
