<svg width="60" height="60" viewBox="0 0 60 60" fill="none" xmlns="http://www.w3.org/2000/svg">
    <path d="M30 37.5c4.135 0 7.5-3.365 7.5-7.5s-3.365-7.5-7.5-7.5-7.5 3.365-7.5 7.5 3.365 7.5 7.5 7.5zm0-13.125A5.63 5.63 0 0 1 35.625 30 5.63 5.63 0 0 1 30 35.625 5.63 5.63 0 0 1 24.375 30 5.63 5.63 0 0 1 30 24.375z" fill="#FF6900"/>
    <path d="M30 33.75A3.754 3.754 0 0 0 33.75 30 3.754 3.754 0 0 0 30 26.25 3.754 3.754 0 0 0 26.25 30 3.754 3.754 0 0 0 30 33.75zm0-5.625c1.034 0 1.875.84 1.875 1.875 0 1.034-.84 1.875-1.875 1.875A1.877 1.877 0 0 1 28.125 30c0-1.034.84-1.875 1.875-1.875z" fill="#FF6900"/>
    <path d="m23.84 41.076 1.64-.784c.146.065.293.126.44.184l.604 1.712h6.951l.605-1.712c.147-.059.294-.12.442-.184l1.638.784 4.917-4.917-.784-1.638c.065-.147.126-.294.184-.442l1.71-.603v-6.951l-1.711-.605a12.514 12.514 0 0 0-.184-.442l.784-1.638-4.917-4.917-1.638.784a9.961 9.961 0 0 0-.442-.184l-.603-1.71h-6.951l-.605 1.711c-.147.058-.294.12-.442.184l-1.638-.784-4.917 4.917.784 1.638a9.961 9.961 0 0 0-.184.442l-1.71.603v6.951l1.711.605c.058.147.12.294.184.442l-.784 1.638 4.917 4.916zm-4.152-8.927V27.85l1.305-.46.147-.43c.122-.358.273-.72.448-1.075l.2-.408-.599-1.25 3.04-3.04 1.25.599.408-.2a9.35 9.35 0 0 1 1.075-.448l.43-.147.46-1.303h4.298l.46 1.305.43.147c.358.122.72.273 1.075.448l.407.2 1.251-.599 3.04 3.04-.599 1.25.2.408c.174.355.324.716.448 1.075l.147.43 1.303.46v4.298l-1.304.46-.148.43c-.123.358-.273.72-.448 1.075l-.2.407.599 1.251-3.04 3.04-1.25-.599-.408.2a9.35 9.35 0 0 1-1.075.448l-.43.147-.46 1.303H27.85l-.46-1.304-.43-.148a9.165 9.165 0 0 1-1.075-.448l-.408-.2-1.25.599-3.04-3.04.599-1.25-.2-.408a9.35 9.35 0 0 1-.448-1.075l-.147-.43-1.303-.46zM13.125 44.063H3.75a2.816 2.816 0 0 0-2.813 2.812v9.375a2.816 2.816 0 0 0 2.813 2.813h9.375a2.816 2.816 0 0 0 2.813-2.813v-9.375a2.816 2.816 0 0 0-2.813-2.813zm.938 12.187c0 .517-.421.938-.938.938H3.75a.939.939 0 0 1-.938-.938v-9.375c0-.517.421-.938.938-.938h9.375c.517 0 .938.421.938.938v9.375zM56.25 22.5h-9.375a2.816 2.816 0 0 0-2.813 2.813v9.375a2.816 2.816 0 0 0 2.813 2.812h9.375a2.816 2.816 0 0 0 2.813-2.813v-9.374A2.816 2.816 0 0 0 56.25 22.5zm.938 12.188c0 .516-.421.937-.938.937h-9.375a.939.939 0 0 1-.938-.938v-9.374c0-.517.421-.938.938-.938h9.375c.517 0 .938.42.938.938v9.375zM9.375 15.938h9.375a2.816 2.816 0 0 0 2.813-2.813V3.75A2.816 2.816 0 0 0 18.75.937H9.375A2.816 2.816 0 0 0 6.562 3.75v9.375a2.816 2.816 0 0 0 2.813 2.813zM8.437 3.75c0-.517.421-.938.938-.938h9.375c.517 0 .938.421.938.938v9.375c0 .517-.421.938-.938.938H9.375a.939.939 0 0 1-.938-.938V3.75z" fill="#FF6900"/>
    <path d="M6.563 53.05 5.35 51.836l-1.326 1.326L6.563 55.7l6.288-6.288-1.326-1.326-4.962 4.962zM18.476 6.288 17.15 4.962l-4.962 4.962-1.213-1.212-1.325 1.326 2.538 2.538 6.287-6.288zM49.688 31.487l-1.213-1.212L47.15 31.6l2.538 2.538 6.287-6.288-1.325-1.325-4.962 4.962zM43.834 42.216l.455 1.818 5.329-1.332C45.314 49.37 37.986 53.438 30 53.438c-3.43 0-6.736-.724-9.824-2.152l-.787 1.701A25.095 25.095 0 0 0 30 55.313c8.494 0 16.294-4.256 20.97-11.253l.6 4.807 1.86-.232-1.068-8.55-8.526 2.132zM11.225 33.968 9.4 33.532l-1.143 4.787C7.136 35.543 6.563 32.754 6.563 30c0-3.46.736-6.79 2.187-9.902l-1.7-.793A25.122 25.122 0 0 0 4.688 30c0 2.984.614 5.994 1.814 8.98L2.328 36.68l-.906 1.642 7.742 4.268 2.06-8.621zM31.458 8.595l-3.05-2.033H30c8.77 0 16.74 4.836 20.797 12.62l1.663-.867A25.252 25.252 0 0 0 30 4.687h-1.591l3.049-2.032-1.04-1.56-6.796 4.53 6.795 4.53 1.04-1.56z" fill="#FF6900"/>
</svg>
