<svg width="60" height="60" viewBox="0 0 60 60" fill="none" xmlns="http://www.w3.org/2000/svg">
    <path d="M9.812 14.031a3.066 3.066 0 0 0 3.062-3.064 3.065 3.065 0 0 0-3.062-3.062 3.066 3.066 0 0 0-3.064 3.062 3.068 3.068 0 0 0 3.064 3.064zm0-4.25a1.188 1.188 0 1 1-.003 2.375 1.188 1.188 0 0 1 .003-2.376zM18.077 14.031a3.068 3.068 0 0 0 3.064-3.064 3.066 3.066 0 0 0-3.064-3.062 3.065 3.065 0 0 0-3.062 3.062 3.066 3.066 0 0 0 3.062 3.064zm0-4.25c.656 0 1.19.531 1.19 1.186 0 .655-.534 1.19-1.19 1.19a1.188 1.188 0 0 1 0-2.376zM30.355 14.031H46.89a3.068 3.068 0 0 0 3.065-3.064 3.066 3.066 0 0 0-3.065-3.062H30.355a3.065 3.065 0 0 0-3.061 3.062 3.066 3.066 0 0 0 3.06 3.064zm0-4.25H46.89c.656 0 1.19.531 1.19 1.186 0 .655-.534 1.19-1.19 1.19H30.355a1.189 1.189 0 0 1 0-2.377zM41.198 39.06c.001-.563-.217-1.092-.614-1.489l-.25-.25c.286-.54.52-1.106.7-1.688h.354a2.101 2.101 0 0 0 2.099-2.1V31.84a2.101 2.101 0 0 0-2.1-2.1h-.348a9.876 9.876 0 0 0-.705-1.706l.248-.248a2.08 2.08 0 0 0 .616-1.483c.001-.563-.217-1.092-.614-1.488l-1.197-1.197a2.087 2.087 0 0 0-1.485-.614h-.005a2.076 2.076 0 0 0-1.477.613l-.252.252a9.948 9.948 0 0 0-1.732-.716v-.335a2.101 2.101 0 0 0-2.099-2.099H30.64a2.101 2.101 0 0 0-2.099 2.1v.358c-.585.183-1.15.42-1.69.707l-.243-.241a2.076 2.076 0 0 0-1.48-.616h-.005c-.562 0-1.09.218-1.486.615l-1.194 1.196c-.396.395-.615.92-.616 1.483 0 .563.217 1.092.614 1.488l.257.258a9.871 9.871 0 0 0-.69 1.674h-.354a2.101 2.101 0 0 0-2.1 2.099v1.694c0 1.157.942 2.099 2.1 2.099h.359a9.89 9.89 0 0 0 .7 1.69l-.25.248a2.086 2.086 0 0 0-.614 1.49c.001.561.22 1.088.614 1.479l1.198 1.197c.393.397.92.616 1.482.617h.003c.563 0 1.09-.219 1.487-.616l.248-.249c.54.285 1.106.52 1.692.703v.364c0 1.157.942 2.099 2.099 2.099h1.697a2.101 2.101 0 0 0 2.1-2.1v-.361a9.857 9.857 0 0 0 1.698-.706l.25.249c.393.397.92.615 1.48.617h.005c.562 0 1.09-.218 1.487-.615l1.193-1.197c.396-.394.615-.92.616-1.482zm-1.796-4.573c-.2.881-.548 1.72-1.032 2.492a.938.938 0 0 0 .132 1.16l.757.758a.225.225 0 0 1-.001.318l-1.196 1.199a.226.226 0 0 1-.16.064c-.008-.025-.103-.01-.157-.064l-.76-.76a.936.936 0 0 0-1.163-.131 8.02 8.02 0 0 1-2.499 1.037.938.938 0 0 0-.73.915v1.08a.227.227 0 0 1-.224.225h-1.697a.227.227 0 0 1-.224-.225v-1.08a.937.937 0 0 0-.726-.914 8.049 8.049 0 0 1-2.495-1.038.938.938 0 0 0-1.165.132l-.756.759a.225.225 0 0 1-.16.064c.008-.01-.1-.007-.157-.064l-1.202-1.203a.217.217 0 0 1-.063-.154c0-.035.009-.104.065-.16l.757-.757a.938.938 0 0 0 .131-1.161 8.038 8.038 0 0 1-1.031-2.492.937.937 0 0 0-.915-.73h-1.078a.227.227 0 0 1-.223-.223V31.84c0-.122.102-.224.224-.224h1.074a.938.938 0 0 0 .915-.732 8.035 8.035 0 0 1 1.02-2.479.937.937 0 0 0-.133-1.158l-.764-.764a.226.226 0 0 1 .001-.318l1.196-1.198a.227.227 0 0 1 .16-.065c-.004.015.1.008.159.066l.757.753a.936.936 0 0 0 1.165.127 7.939 7.939 0 0 1 2.485-1.042.937.937 0 0 0 .727-.913v-1.075c0-.121.103-.224.224-.224h1.697c.121 0 .224.103.224.224v1.056c0 .438.304.819.733.914.89.2 1.741.551 2.53 1.045.37.232.85.178 1.16-.13l.763-.761a.227.227 0 0 1 .315.002l1.197 1.196a.225.225 0 0 1-.002.32l-.757.76a.937.937 0 0 0-.13 1.16c.485.77.833 1.614 1.035 2.505.097.427.476.73.914.73h1.069c.121 0 .224.103.224.225v1.694a.227.227 0 0 1-.224.224h-1.072a.937.937 0 0 0-.914.729z" fill="#FF6900"/>
    <path d="M31.522 27.604a5.09 5.09 0 0 0-5.085 5.083 5.09 5.09 0 0 0 5.085 5.083 5.088 5.088 0 0 0 5.083-5.083 5.088 5.088 0 0 0-5.083-5.083zm0 8.29a3.213 3.213 0 0 1-3.21-3.207 3.213 3.213 0 0 1 3.21-3.208 3.21 3.21 0 0 1 3.208 3.208 3.211 3.211 0 0 1-3.208 3.208z" fill="#FF6900"/>
    <path d="M55.764 40.348V7.932a4.957 4.957 0 0 0-4.95-4.952H5.889A4.957 4.957 0 0 0 .937 7.932v40.386a4.957 4.957 0 0 0 4.952 4.951h36.138c1.736 2.274 4.466 3.75 7.541 3.75 5.236 0 9.495-4.259 9.495-9.494a9.469 9.469 0 0 0-3.299-7.177zM5.89 4.855h44.925a3.08 3.08 0 0 1 3.075 3.077v9.149H2.812v-9.15A3.08 3.08 0 0 1 5.89 4.856zm0 46.539a3.08 3.08 0 0 1-3.077-3.076V18.956H53.89v20.11c-.082-.041-.16-.067-.24-.1a9.42 9.42 0 0 0-4.08-.934c-5.236 0-9.494 4.259-9.494 9.494 0 1.344.285 2.622.79 3.782.013.03.02.056.033.086H5.888zm43.68 3.75c-4.202 0-7.62-3.417-7.62-7.619 0-4.201 3.419-7.619 7.62-7.619 4.2 0 7.618 3.418 7.618 7.62 0 4.2-3.417 7.618-7.619 7.618z" fill="#FF6900"/>
    <path d="M6.777 23.663H19.44a.938.938 0 0 0 0-1.875H6.777a.938.938 0 0 0 0 1.875zM17.538 26.314h-2.955a.938.938 0 0 0 0 1.875h2.955a.938.938 0 0 0 0-1.875zM6.777 28.19h3.28a.938.938 0 0 0 0-1.876h-3.28a.938.938 0 0 0 0 1.875zM6.777 32.716h8.855a.938.938 0 0 0 0-1.875H6.777a.938.938 0 0 0 0 1.875zM6.777 37.244h9.987a.938.938 0 0 0 0-1.875H6.777a.938.938 0 0 0 0 1.875zM17.537 39.899h-2.434a.938.938 0 0 0 0 1.875h2.434a.938.938 0 0 0 0-1.875zM10.576 39.899H6.777a.938.938 0 0 0 0 1.875h3.799a.938.938 0 0 0 0-1.875zM21.705 44.425h-8.187a.938.938 0 0 0 0 1.875h8.187a.938.938 0 0 0 0-1.875zM8.991 44.425H6.777a.938.938 0 0 0 0 1.875h2.214a.938.938 0 0 0 0-1.875zM48.19 51.075a.934.934 0 0 1-.654-.266l-2.329-2.261a.938.938 0 0 1 1.307-1.345l1.657 1.61 4.435-4.553a.938.938 0 0 1 1.343 1.308l-5.088 5.223a.935.935 0 0 1-.672.284z" fill="#FF6900"/>
</svg>
