<svg width="60" height="60" viewBox="0 0 60 60" fill="none" xmlns="http://www.w3.org/2000/svg">
    <g clip-path="url(#6ixtx4usja)" fill="#FF6900">
        <path d="M34.118 40.124a7.873 7.873 0 0 0 3.754-6.705v-6.016c0-4.34-3.531-7.871-7.871-7.871s-7.872 3.53-7.872 7.871v6.016a7.873 7.873 0 0 0 3.755 6.705c-6.484 1.858-11.392 7.74-11.392 14.416v4.58c0 .486.395.88.881.88h5.934a.88.88 0 1 0 0-1.762h-5.053V54.54c0-3.45 1.472-6.748 4.145-9.288a14.617 14.617 0 0 1 5.596-3.309l1.396 2.711-1.875 8.137a.88.88 0 0 0 .264.848l3.626 3.319a.879.879 0 0 0 1.19 0l3.625-3.32a.881.881 0 0 0 .264-.847l-1.875-8.137 1.395-2.71a14.62 14.62 0 0 1 5.597 3.308c2.673 2.54 4.145 5.839 4.145 9.288v3.698H24.243a.88.88 0 0 0 0 1.762h20.385a.88.88 0 0 0 .88-.88v-4.58c0-6.676-4.907-12.558-11.39-14.416zM23.89 27.404c0-3.37 2.74-6.11 6.11-6.11 3.368 0 6.11 2.74 6.11 6.11v2.041c-2.77-.525-3.892-3.343-3.941-3.472a.881.881 0 0 0-1.6-.106c-.018.035-1.823 3.274-6.68 3.631v-2.095zm8.762 25.282L30 55.114l-2.652-2.428 1.674-7.267h1.956l1.675 7.267zM27.75 41.502l.22-.038.148-.024a13.88 13.88 0 0 1 1.277-.139l.107-.005c.101-.005.203-.008.305-.01.064 0 .128.004.194.004.064 0 .129-.003.193-.005.102.003.204.006.305.011l.107.005a13.35 13.35 0 0 1 1.277.139l.148.024.22.038-1.109 2.155H28.86l-1.11-2.155zm2.486-1.98-.224-.005a.96.96 0 0 0-.024 0c-.074 0-.149.003-.223.005a6.116 6.116 0 0 1-5.874-6.103v-2.155c3.89-.244 6.187-2.071 7.328-3.34.802 1.248 2.348 2.967 4.891 3.307v2.188c0 3.29-2.614 5.979-5.873 6.103zM20.091 12.71a1.637 1.637 0 0 0-1.33-1.12l-4.005-.583-1.791-3.629a1.637 1.637 0 0 0-1.478-.918c-.631 0-1.198.352-1.477.918l-1.79 3.63-4.006.581c-.625.091-1.135.52-1.33 1.121-.195.601-.035 1.248.417 1.69l2.898 2.824-.684 3.99c-.107.622.144 1.24.655 1.61a1.642 1.642 0 0 0 1.735.126l3.583-1.883 3.582 1.883c.56.294 1.224.246 1.735-.125.511-.372.762-.989.655-1.612l-.684-3.989 2.898-2.825c.453-.44.613-1.088.417-1.688zm-4.587 3.295a1.648 1.648 0 0 0-.474 1.458l.655 3.82-3.43-1.803a1.647 1.647 0 0 0-1.534 0l-3.43 1.803.654-3.82a1.647 1.647 0 0 0-.473-1.458l-2.776-2.706 3.836-.557c.536-.078 1-.415 1.24-.901l1.716-3.476 1.715 3.476c.24.486.704.823 1.24.9l3.836.558-2.775 2.706zM38.621 6.251a1.637 1.637 0 0 0-1.33-1.121l-4.005-.582-1.792-3.63A1.638 1.638 0 0 0 30.017 0c-.632 0-1.198.352-1.477.918l-1.792 3.63-4.005.582c-.625.09-1.135.52-1.33 1.121-.195.6-.035 1.248.417 1.689l2.898 2.825-.684 3.989c-.107.623.145 1.24.656 1.611.51.372 1.175.42 1.735.126l3.582-1.884 3.582 1.884a1.643 1.643 0 0 0 1.735-.125c.512-.372.763-.99.656-1.612l-.684-3.989 2.898-2.825c.452-.44.612-1.088.417-1.689zm-4.588 3.294a1.648 1.648 0 0 0-.474 1.459l.655 3.82-3.43-1.804a1.647 1.647 0 0 0-1.534 0l-3.43 1.804.655-3.82A1.648 1.648 0 0 0 26 9.545L23.225 6.84l3.836-.557c.537-.079 1-.415 1.24-.902l1.716-3.475 1.715 3.475c.24.487.704.824 1.24.902l3.836.557-2.775 2.705zM57.116 12.71a1.637 1.637 0 0 0-1.33-1.12l-4.005-.583-1.791-3.63a1.637 1.637 0 0 0-1.478-.917c-.631 0-1.198.352-1.477.918l-1.791 3.63-4.006.581c-.625.091-1.134.52-1.33 1.122-.195.6-.035 1.248.417 1.688l2.899 2.825-.684 3.99c-.107.622.144 1.24.655 1.61a1.642 1.642 0 0 0 1.735.126l3.582-1.883 3.582 1.883a1.638 1.638 0 0 0 1.736-.125c.51-.372.762-.99.655-1.612l-.684-3.989 2.898-2.825c.453-.44.612-1.088.417-1.688zm-4.588 3.295a1.648 1.648 0 0 0-.474 1.458l.656 3.82-3.431-1.803a1.648 1.648 0 0 0-1.533 0l-3.431 1.803.655-3.82a1.647 1.647 0 0 0-.474-1.458l-2.775-2.706 3.836-.557c.536-.078 1-.415 1.24-.901l1.715-3.476 1.716 3.476c.24.486.703.823 1.24.901l3.836.557-2.776 2.706z"/>
    </g>
    <defs>
        <clipPath id="6ixtx4usja">
            <path fill="#fff" d="M0 0h60v60H0z"/>
        </clipPath>
    </defs>
</svg>
