<svg xmlns="http://www.w3.org/2000/svg" width="50" height="50" fill="none" viewBox="0 0 50 50">
    <path fill="#00A499" d="M47.5 0h-35C11.12 0 10 1.12 10 2.5V25H2.5C1.12 25 0 26.12 0 27.5v20C0 48.88 1.12 50 2.5 50h20c1.38 0 2.5-1.12 2.5-2.5V40h22.5c1.38 0 2.5-1.12 2.5-2.5v-35C50 1.12 48.88 0 47.5 0zM23.333 47.5c0 .46-.373.833-.833.833h-20c-.46 0-.833-.373-.833-.833v-20c0-.46.373-.833.833-.833H10V37.5c0 1.38 1.12 2.5 2.5 2.5h10.833v7.5zm25-10c0 .46-.373.833-.833.833h-35c-.46 0-.833-.373-.833-.833v-35c0-.46.373-.833.833-.833h35c.46 0 .833.373.833.833v35z"/>
    <path fill="#00A499" d="M44.571 3.386l-4.083 1.02c-.597.15-1.068.608-1.232 1.201-.164.593.003 1.229.438 1.664l.938.937-22.415 22.405-.947-.946c-.435-.435-1.07-.603-1.664-.438-.593.165-1.051.636-1.2 1.233l-1.02 4.083c-.127.51-.013 1.048.31 1.462.322.414.816.657 1.34.66.14-.001.28-.019.417-.053l4.083-1.02c.597-.15 1.067-.609 1.232-1.202.164-.593-.003-1.228-.439-1.664l-.936-.936L41.809 9.385l.949.948c.316.32.748.5 1.198.5.157 0 .313-.021.464-.064.596-.16 1.056-.633 1.201-1.232l1.02-4.084c.147-.582-.023-1.198-.447-1.622-.425-.424-1.041-.594-1.623-.448v.003zm-29.557 31.6c-.013-.007-.019-.023-.014-.038l1.091-4.102 3.043 3.132-4.12 1.009zM45.025 5.054l-1.089 4.101-3.044-3.131 4.122-1.01c.012.01.017.025.011.039z"/>
</svg>
