<svg xmlns="http://www.w3.org/2000/svg" width="50" height="50" fill="none" viewBox="0 0 50 50">
    <path fill="#00A499" d="M46.733 7.799c-.595-.148-1.19-.26-1.783-.34.954-.812 1.582-2.179 1.582-3.725 0-2.268-1.42-3.734-3.619-3.734-2.197 0-3.618 1.466-3.618 3.734 0 1.542.625 2.906 1.575 3.719-.6.08-1.194.195-1.785.347-2.07.53-3.258 1.736-3.258 3.309v5.727c0 .432.35.781.78.781.431 0 .781-.35.781-.78v-5.728c0-1.044 1.133-1.553 2.086-1.797 2.238-.577 4.554-.576 6.884.002.777.192 2.08.68 2.08 1.795v5.727c0 .432.35.781.781.781.432 0 .781-.35.781-.78v-5.728c0-1.59-1.19-2.797-3.267-3.31zm-3.82-6.238c.939 0 2.057.377 2.057 2.173 0 1.598-.942 2.949-2.057 2.949-1.114 0-2.056-1.35-2.056-2.949 0-1.796 1.118-2.173 2.056-2.173zm-3.44 16.056c-.432 0-.781-.35-.781-.78v-4.413c0-.431.35-.78.78-.78.432 0 .781.349.781.78v4.412c0 .432-.35.781-.78.781zm6.879 0c-.432 0-.781-.35-.781-.78v-4.413c0-.431.35-.78.78-.78.432 0 .781.349.781.78v4.412c0 .432-.35.781-.78.781zM31.145 34.883c-1.414-.35-2.827-.582-4.234-.694 2.056-.983 3.523-3.505 3.523-6.454 0-3.47-2.082-5.625-5.434-5.625-3.352 0-5.434 2.155-5.434 5.625 0 2.943 1.46 5.46 3.51 6.448-1.423.109-2.834.343-4.23.702-3.204.824-4.969 2.579-4.969 4.942v9.392c0 .431.35.781.78.781.432 0 .781-.35.781-.78v-9.393c0-2.028 2.065-2.985 3.796-3.43 3.756-.966 7.637-.966 11.535.002 1.416.35 3.79 1.263 3.79 3.428v9.392c0 .431.35.781.78.781.431 0 .781-.35.781-.78v-9.393c0-2.358-1.813-4.16-4.975-4.944zm-10.018-7.148c0-3.536 2.427-4.064 3.873-4.064 1.446 0 3.873.528 3.873 4.064 0 2.941-1.737 5.334-3.873 5.334-2.135 0-3.873-2.393-3.873-5.334zm-.988 14.25v7.234c0 .431-.35.78-.78.78-.432 0-.781-.349-.781-.78v-7.233c0-.431.35-.78.78-.78.432 0 .781.349.781.78zm11.284 0v7.234c0 .431-.35.78-.781.78-.431 0-.78-.349-.78-.78v-7.233c0-.431.349-.78.78-.78.431 0 .78.349.78.78zM.78 17.618c.431 0 .78-.35.78-.78v-5.728c0-1.045 1.134-1.553 2.086-1.797 2.238-.577 4.554-.576 6.884.002.776.192 2.078.68 2.078 1.795v5.727c0 .432.35.781.781.781.431 0 .78-.35.78-.78v-5.728c0-1.591-1.19-2.798-3.263-3.31-.596-.148-1.19-.26-1.784-.34.954-.812 1.582-2.179 1.582-3.725C10.705 1.466 9.285 0 7.087 0S3.468 1.466 3.468 3.734c0 1.542.625 2.905 1.575 3.719-.599.08-1.194.195-1.784.347C1.188 8.33 0 9.535 0 11.11v5.727c0 .432.35.781.78.781zM7.087 1.561c.938 0 2.057.377 2.057 2.173 0 1.598-.942 2.949-2.057 2.949S5.03 5.333 5.03 3.734c0-1.796 1.119-2.173 2.057-2.173zM3.646 11.643c.431 0 .78.35.78.78v4.414c0 .43-.349.78-.78.78-.431 0-.78-.35-.78-.78v-4.413c0-.431.349-.78.78-.78zm6.879 0c.431 0 .78.35.78.78v4.414c0 .43-.349.78-.78.78-.431 0-.78-.35-.78-.78v-4.413c0-.431.349-.78.78-.78zm8.17 5.974c.43 0 .78-.35.78-.78v-5.728c0-1.044 1.133-1.553 2.085-1.797 2.239-.577 4.554-.576 6.885.002.776.192 2.078.68 2.078 1.795v5.727c0 .432.35.781.78.781.431 0 .781-.35.781-.78v-5.728c0-1.591-1.19-2.798-3.264-3.31-.595-.148-1.19-.26-1.784-.34.954-.812 1.582-2.179 1.582-3.725C28.618 1.466 27.198 0 25 0s-3.618 1.466-3.618 3.734c0 1.542.624 2.905 1.574 3.719-.598.08-1.194.195-1.784.347-2.07.53-3.259 1.736-3.259 3.309v5.727c0 .432.35.781.781.781zM25 1.561c.938 0 2.057.377 2.057 2.173 0 1.598-.942 2.949-2.057 2.949s-2.057-1.35-2.057-2.949c0-1.796 1.119-2.173 2.057-2.173zm-3.44 10.082c.43 0 .78.35.78.78v4.414c0 .43-.35.78-.78.78-.432 0-.781-.35-.781-.78v-4.413c0-.431.35-.78.78-.78zm6.878 0c.431 0 .78.35.78.78v4.414c0 .43-.349.78-.78.78-.43 0-.78-.35-.78-.78v-4.413c0-.431.35-.78.78-.78zM46.733 26.43c-.594-.147-1.188-.26-1.78-.339.952-.813 1.579-2.178 1.579-3.723 0-2.268-1.42-3.734-3.619-3.734-2.197 0-3.618 1.466-3.618 3.734 0 1.541.624 2.904 1.573 3.718-.598.08-1.193.194-1.784.346-2.07.533-3.257 1.74-3.257 3.308v5.73c0 .431.35.781.78.781.431 0 .781-.35.781-.78v-5.73c0-1.041 1.134-1.552 2.085-1.797 2.243-.576 4.56-.576 6.884.001.777.194 2.082.684 2.082 1.795v5.73c0 .431.35.781.78.781.431 0 .781-.35.781-.78v-5.73c0-1.587-1.19-2.794-3.267-3.31zm-3.82-6.235c.939 0 2.057.377 2.057 2.173 0 1.598-.942 2.949-2.057 2.949-1.114 0-2.056-1.35-2.056-2.949 0-1.796 1.118-2.173 2.056-2.173zm-2.66 10.863v4.412c0 .431-.35.781-.78.781-.432 0-.781-.35-.781-.78v-4.413c0-.431.35-.78.78-.78.432 0 .781.349.781.78zm6.88 0v4.412c0 .431-.35.781-.782.781-.43 0-.78-.35-.78-.78v-4.413c0-.431.35-.78.78-.78.432 0 .781.349.781.78zM14.17 35.469v-5.73c0-1.587-1.19-2.793-3.264-3.31-.594-.147-1.188-.26-1.781-.339.952-.813 1.579-2.178 1.579-3.723 0-2.268-1.42-3.734-3.618-3.734s-3.618 1.466-3.618 3.734c0 1.541.624 2.904 1.573 3.717-.599.08-1.194.195-1.785.347C1.187 26.963 0 28.169 0 29.739v5.73c0 .431.35.781.78.781.432 0 .781-.35.781-.78v-5.73c0-1.042 1.134-1.552 2.085-1.797 2.244-.576 4.56-.576 6.884.001.777.194 2.08.684 2.08 1.795v5.73c0 .431.349.781.78.781.431 0 .78-.35.78-.78zM7.087 20.194c.938 0 2.057.377 2.057 2.173 0 1.598-.942 2.949-2.057 2.949s-2.057-1.35-2.057-2.949c0-1.796 1.119-2.173 2.057-2.173zm-2.66 10.863v4.412c0 .431-.35.781-.781.781-.431 0-.78-.35-.78-.78v-4.413c0-.431.349-.78.78-.78.431 0 .78.349.78.78zm6.879 0v4.412c0 .431-.35.781-.78.781-.432 0-.782-.35-.782-.78v-4.413c0-.431.35-.78.781-.78.431 0 .78.349.78.78z"/>
</svg>
