<svg width="80" height="80" viewBox="0 0 80 80" fill="none" xmlns="http://www.w3.org/2000/svg">
    <circle cx="40" cy="40" r="40" fill="#fff"/>
    <path d="M47.813 29.063a.779.779 0 0 0 .552-.23l9.146-9.145h1.383a2.34 2.34 0 0 0 2.2 1.562 2.347 2.347 0 0 0 2.343-2.344 2.347 2.347 0 0 0-2.343-2.343 2.34 2.34 0 0 0-2.2 1.562h-1.706a.779.779 0 0 0-.553.229L47.49 27.5H46.25v-.781a2.347 2.347 0 0 0-2.344-2.344 2.347 2.347 0 0 0-2.343 2.344v2.343h-3.986a3.913 3.913 0 0 0-3.827-3.125c-.978 0-1.863.375-2.548.97l-7.232-5.521a3.86 3.86 0 0 0 .405-1.698 3.91 3.91 0 0 0-3.906-3.907 3.91 3.91 0 0 0-3.907 3.906 3.91 3.91 0 0 0 3.907 3.907c.978 0 1.862-.375 2.548-.97l7.231 5.521c-.141.29-.259.593-.325.917h-5.627a3.914 3.914 0 0 0-3.827-3.125 3.91 3.91 0 0 0-3.907 3.907 3.91 3.91 0 0 0 3.907 3.906c.978 0 1.862-.374 2.548-.97l2.805 2.142-2.805 2.142a3.872 3.872 0 0 0-2.548-.97A3.91 3.91 0 0 0 16.562 40a3.91 3.91 0 0 0 3.907 3.906c.978 0 1.862-.374 2.548-.97l2.805 2.142-2.805 2.142a3.872 3.872 0 0 0-2.548-.97 3.91 3.91 0 0 0-3.907 3.906 3.91 3.91 0 0 0 3.907 3.907 3.914 3.914 0 0 0 3.827-3.126h5.627c.066.325.184.627.325.917l-7.23 5.522a3.876 3.876 0 0 0-2.55-.97 3.91 3.91 0 0 0-3.905 3.907 3.91 3.91 0 0 0 3.906 3.906 3.91 3.91 0 0 0 3.906-3.906c0-.611-.153-1.183-.405-1.698l7.232-5.522c.685.595 1.57.97 2.548.97a3.913 3.913 0 0 0 3.827-3.126h3.986V52.5a2.347 2.347 0 0 0 2.343 2.344A2.347 2.347 0 0 0 46.25 52.5h1.24l9.145 9.146a.779.779 0 0 0 .553.229h1.706a2.34 2.34 0 0 0 2.2 1.563 2.347 2.347 0 0 0 2.343-2.344 2.347 2.347 0 0 0-2.343-2.344 2.34 2.34 0 0 0-2.2 1.563H57.51l-9.146-9.147a.779.779 0 0 0-.553-.228H46.25v-2.344h3.583l6.02 6.02a.78.78 0 0 0 .553.23h2.488a2.34 2.34 0 0 0 2.2 1.562 2.347 2.347 0 0 0 2.343-2.343 2.347 2.347 0 0 0-2.343-2.344 2.34 2.34 0 0 0-2.2 1.562H56.73l-6.021-6.02a.78.78 0 0 0-.553-.23H46.25v-2.343h6.708l2.896 2.896a.779.779 0 0 0 .552.228h2.488a2.34 2.34 0 0 0 2.2 1.563 2.347 2.347 0 0 0 2.343-2.344 2.347 2.347 0 0 0-2.343-2.343 2.34 2.34 0 0 0-2.2 1.562H56.73l-2.896-2.896a.78.78 0 0 0-.553-.229H46.25v-2.344h12.644a2.34 2.34 0 0 0 2.2 1.563A2.347 2.347 0 0 0 63.437 40a2.347 2.347 0 0 0-2.343-2.344 2.34 2.34 0 0 0-2.2 1.563H46.25v-2.344h7.031a.78.78 0 0 0 .553-.229l2.896-2.896h2.164a2.34 2.34 0 0 0 2.2 1.563 2.347 2.347 0 0 0 2.343-2.344 2.347 2.347 0 0 0-2.343-2.344 2.34 2.34 0 0 0-2.2 1.563h-2.488a.779.779 0 0 0-.552.228l-2.896 2.897H46.25v-2.344h3.906a.78.78 0 0 0 .553-.23l6.02-6.02h2.165a2.34 2.34 0 0 0 2.2 1.562 2.347 2.347 0 0 0 2.343-2.343 2.347 2.347 0 0 0-2.343-2.344 2.34 2.34 0 0 0-2.2 1.562h-2.488a.78.78 0 0 0-.552.23l-6.021 6.02H46.25v-2.343h1.563zm13.28-10.938a.782.782 0 1 1 0 1.564.782.782 0 0 1 0-1.564zm0 42.188a.782.782 0 1 1 0 1.564.782.782 0 0 1 0-1.565zm0-7.032a.782.782 0 1 1-.001 1.564.782.782 0 0 1 .002-1.564zm0-7.031a.782.782 0 1 1 0 1.564.782.782 0 0 1 0-1.564zm0-7.031a.782.782 0 1 1 0 1.564.782.782 0 0 1 0-1.564zm0-7.032a.782.782 0 1 1 0 1.565.782.782 0 0 1 0-1.565zm0-7.03a.782.782 0 1 1-.001 1.563.782.782 0 0 1 .002-1.564zm-23.516 5.468h3.986v8.594h-3.986a3.913 3.913 0 0 0-3.827-3.125c-.978 0-1.863.374-2.548.97l-2.805-2.142 2.805-2.142c.685.596 1.57.97 2.548.97a3.913 3.913 0 0 0 3.827-3.125zM31.407 40a2.347 2.347 0 0 1 2.343-2.344A2.347 2.347 0 0 1 36.094 40a2.347 2.347 0 0 1-2.344 2.344A2.347 2.347 0 0 1 31.406 40zm2.343-12.5a2.347 2.347 0 0 1 2.344 2.344 2.347 2.347 0 0 1-2.344 2.343 2.347 2.347 0 0 1-2.344-2.343A2.347 2.347 0 0 1 33.75 27.5zm-13.281-5.469a2.347 2.347 0 0 1-2.344-2.343 2.347 2.347 0 0 1 2.344-2.344 2.347 2.347 0 0 1 2.343 2.343 2.347 2.347 0 0 1-2.343 2.344zm0 10.157a2.347 2.347 0 0 1-2.344-2.344 2.347 2.347 0 0 1 2.344-2.344 2.347 2.347 0 0 1 2.343 2.344 2.347 2.347 0 0 1-2.343 2.343zm3.501-.647c.142-.29.26-.592.326-.916h5.627c.066.324.184.627.325.916L27.11 33.94l-3.139-2.398zm6.278 6.761c-.141.29-.259.593-.325.917h-5.627a3.852 3.852 0 0 0-.326-.917l3.14-2.396 3.138 2.396zm-9.78 4.042A2.347 2.347 0 0 1 18.126 40a2.347 2.347 0 0 1 2.344-2.344A2.347 2.347 0 0 1 22.812 40a2.347 2.347 0 0 1-2.343 2.344zm3.502-.646c.142-.29.26-.593.326-.917h5.627c.066.325.184.627.325.917l-3.139 2.397-3.139-2.397zm5.953 7.677h-5.627a3.852 3.852 0 0 0-.326-.916l3.14-2.397 3.138 2.397c-.141.29-.259.592-.325.916zM20.469 52.5a2.347 2.347 0 0 1-2.344-2.344 2.347 2.347 0 0 1 2.344-2.343 2.347 2.347 0 0 1 2.343 2.343A2.347 2.347 0 0 1 20.47 52.5zm0 10.156a2.347 2.347 0 0 1-2.344-2.343 2.347 2.347 0 0 1 2.344-2.344 2.347 2.347 0 0 1 2.343 2.343 2.347 2.347 0 0 1-2.343 2.344zM33.75 52.5a2.347 2.347 0 0 1-2.344-2.344 2.347 2.347 0 0 1 2.344-2.343 2.347 2.347 0 0 1 2.344 2.343A2.347 2.347 0 0 1 33.75 52.5zm3.827-3.125a3.913 3.913 0 0 0-3.827-3.125c-.978 0-1.863.374-2.548.97l-2.805-2.142 2.805-2.142c.685.596 1.57.97 2.548.97a3.913 3.913 0 0 0 3.827-3.125h3.986v8.594h-3.986zm7.11 3.125a.782.782 0 0 1-1.562 0V26.719a.782.782 0 0 1 1.563 0V52.5z" fill="#FF6900"/>
    <path d="M38.438 32.969H40v1.562h-1.563V32.97zM38.438 36.094H40v1.562h-1.563v-1.562zM38.438 42.344H40v1.562h-1.563v-1.562zM38.438 45.469H40v1.562h-1.563V45.47z" fill="#FF6900"/>
</svg>
