<svg width="80" height="80" viewBox="0 0 80 80" fill="none" xmlns="http://www.w3.org/2000/svg">
    <circle cx="40" cy="40" r="40" fill="#fff"/>
    <g clip-path="url(#u1o7m09bna)" fill="#FF6900">
        <path d="M26.674 41.094h-2.1a2.426 2.426 0 0 1-2.431-2.416.732.732 0 1 0-1.465 0c0 2.14 1.747 3.88 3.895 3.88h2.101a.732.732 0 1 0 0-1.464zM33.556 46.514H27.3c-2.066 0-3.748 1.675-3.748 3.733a.732.732 0 1 0 1.465 0A2.278 2.278 0 0 1 27.3 47.98h6.257a.732.732 0 1 0 0-1.465zM39.524 46.514h-3.038a.732.732 0 1 0 0 1.465h3.038a.732.732 0 1 0 0-1.465zM34.374 32.283a.732.732 0 0 0-.732.732c0 2.095-1.714 3.798-3.82 3.798a.732.732 0 1 0 0 1.465c2.914 0 5.285-2.36 5.285-5.263a.732.732 0 0 0-.733-.732zM33.024 21.21a3.182 3.182 0 0 0-3.38 2.958.732.732 0 1 0 1.462.096c.06-.939.88-1.651 1.824-1.592a.731.731 0 1 0 .094-1.462zM30.561 49.776a.732.732 0 1 0 0 1.465c1.21 0 2.194.977 2.194 2.178 0 1.202-.985 2.18-2.194 2.18a.732.732 0 1 0 0 1.464 3.655 3.655 0 0 0 3.658-3.644 3.655 3.655 0 0 0-3.658-3.643zM38.057 32.529a.732.732 0 1 0 0 1.464c.971 0 1.762.785 1.762 1.75s-.79 1.75-1.762 1.75a.732.732 0 1 0 0 1.465 3.225 3.225 0 0 0 3.227-3.215 3.224 3.224 0 0 0-3.227-3.214zM25.154 27.872a.732.732 0 1 0 0 1.465c1.67 0 3.028 1.35 3.028 3.008 0 1.66-1.358 3.01-3.028 3.01a.732.732 0 1 0 0 1.464c2.477 0 4.492-2.007 4.492-4.474 0-2.466-2.015-4.473-4.492-4.473zM59.586 27.839a2.495 2.495 0 0 0-2.497 2.488 2.495 2.495 0 0 0 2.497 2.488 2.495 2.495 0 0 0 2.497-2.488 2.495 2.495 0 0 0-2.497-2.488zm0 3.511a1.029 1.029 0 0 1-1.032-1.023c0-.564.463-1.023 1.032-1.023.57 0 1.032.459 1.032 1.023 0 .564-.463 1.023-1.032 1.023zM62.033 46.584a2.495 2.495 0 0 0-2.496 2.488 2.495 2.495 0 0 0 2.496 2.488 2.495 2.495 0 0 0 2.497-2.488 2.495 2.495 0 0 0-2.497-2.488zm0 3.511a1.029 1.029 0 0 1-1.032-1.023c0-.564.463-1.023 1.032-1.023.57 0 1.032.459 1.032 1.023 0 .564-.463 1.023-1.032 1.023zM60.497 37.806c-.423 0-.82.105-1.17.29l-1.428-1.42a.732.732 0 0 0-1.033 1.038l1.424 1.418c-.185.347-.29.742-.29 1.162a2.495 2.495 0 0 0 2.497 2.488 2.495 2.495 0 0 0 2.496-2.488 2.495 2.495 0 0 0-2.496-2.488zm0 3.511a1.029 1.029 0 0 1-1.032-1.023c0-.564.463-1.023 1.032-1.023s1.032.459 1.032 1.023c0 .564-.463 1.023-1.032 1.023zM58.846 54.23a2.495 2.495 0 0 0-2.496 2.487 2.495 2.495 0 0 0 2.496 2.488 2.495 2.495 0 0 0 2.497-2.488 2.495 2.495 0 0 0-2.497-2.488zm0 3.51a1.029 1.029 0 0 1-1.031-1.023c0-.564.462-1.023 1.031-1.023.57 0 1.032.459 1.032 1.023 0 .564-.463 1.023-1.032 1.023z"/>
        <path d="M50.277 28.764a2.07 2.07 0 0 0 1.35-.558l2.83-2.815a2.495 2.495 0 0 0 3.414-2.313 2.495 2.495 0 0 0-2.496-2.488 2.495 2.495 0 0 0-2.497 2.488c0 .515.158.994.428 1.392l-2.711 2.698a.693.693 0 0 1-.318.131H44.23v-4.848h1.7a2.5 2.5 0 0 0 2.387 1.756 2.495 2.495 0 0 0 2.497-2.488 2.495 2.495 0 0 0-2.497-2.488 2.5 2.5 0 0 0-2.386 1.755h-1.7v-.11c0-3.24-2.648-5.876-5.901-5.876a5.9 5.9 0 0 0-5.365 3.428 6.234 6.234 0 0 0-.437-.015c-3.382 0-6.142 2.7-6.22 6.048a6.266 6.266 0 0 0-.885-.062c-3.43 0-6.222 2.779-6.222 6.195 0 .75.132 1.475.392 2.165A8.371 8.371 0 0 0 15.47 40a8.38 8.38 0 0 0 1.33 4.538 8.483 8.483 0 0 0 2.818 2.717 6.174 6.174 0 0 0 1.135 6.317.733.733 0 0 0 1.097-.971 4.71 4.71 0 0 1-.64-5.316 4.746 4.746 0 0 1 1.943-1.963.732.732 0 1 0-.698-1.288 6.214 6.214 0 0 0-2.15 1.925A6.911 6.911 0 0 1 16.936 40c0-2.643 1.464-5.011 3.827-6.21 0 0 1.367-.761 3.182-.761a.732.732 0 1 0 0-1.465 8.46 8.46 0 0 0-3.021.555 4.655 4.655 0 0 1-.255-1.525c0-2.609 2.134-4.73 4.757-4.73.493 0 .98.075 1.45.224a.732.732 0 0 0 .946-.803 4.775 4.775 0 0 1-.05-.677c0-2.608 2.135-4.73 4.758-4.73.257 0 .52.022.783.065 2.252.372 3.974 2.322 3.974 4.665a.732.732 0 1 0 1.465 0c0-2.744-1.802-5.076-4.29-5.887a4.437 4.437 0 0 1 3.87-2.256c2.445 0 4.435 1.978 4.435 4.41v.081h-1.408a.732.732 0 1 0 0 1.465h1.408V27.3h-5.923a2.426 2.426 0 0 1-2.431-2.415.732.732 0 1 0-1.465 0c0 2.14 1.747 3.88 3.895 3.88h5.924v12.33h-11.88a.732.732 0 1 0 0 1.465h11.88v10.056h-2.263c-2.067 0-3.748 1.674-3.748 3.733a.732.732 0 1 0 1.465 0 2.278 2.278 0 0 1 2.283-2.268h2.263v5.045c0 .115-.006.228-.014.341h-1.394a.732.732 0 1 0 0 1.465h1.018a4.442 4.442 0 0 1-4.045 2.604 4.442 4.442 0 0 1-3.858-2.233 6.202 6.202 0 0 0 2.385-1.437.732.732 0 1 0-1.017-1.054 4.737 4.737 0 0 1-2.518 1.268 4.835 4.835 0 0 1-.794.067c-2.624 0-4.758-2.122-4.758-4.73 0-.067.004-.136.008-.205a6.216 6.216 0 0 0 1.642-.983.732.732 0 0 0 .092-1.032.74.74 0 0 0-1.031-.093c-1.47 1.155-2.892 1.137-3.46 1.09a.731.731 0 1 0-.121 1.46c.468.038.945.025 1.409-.041.104 3.325 2.854 5.999 6.219 5.999.148 0 .297-.006.447-.017A5.905 5.905 0 0 0 38.332 65c3.253 0 5.9-2.636 5.9-5.875v-1.619h3.883a.69.69 0 0 1 .318.131l1.746 1.738c-.236.38-.373.828-.373 1.306a2.495 2.495 0 0 0 2.497 2.489 2.495 2.495 0 0 0 2.496-2.489 2.495 2.495 0 0 0-3.513-2.271l-1.82-1.811a2.071 2.071 0 0 0-1.35-.558H44.23v-3.915h6.367a2.5 2.5 0 0 0 2.387 1.756 2.495 2.495 0 0 0 2.496-2.488 2.495 2.495 0 0 0-2.496-2.488 2.5 2.5 0 0 0-2.387 1.755h-6.367v-4.906h7.62a2.5 2.5 0 0 0 2.386 1.756 2.495 2.495 0 0 0 2.496-2.488 2.495 2.495 0 0 0-2.496-2.488 2.5 2.5 0 0 0-2.387 1.755h-7.619v-5.33h1.814a2.5 2.5 0 0 0 2.387 1.755 2.495 2.495 0 0 0 2.496-2.488 2.495 2.495 0 0 0-2.496-2.488 2.5 2.5 0 0 0-2.387 1.755h-1.814v-4.226h7.98c.08.001.261.076.319.13l1.504 1.498a.73.73 0 0 0 1.036-.002.733.733 0 0 0-.003-1.036l-1.504-1.497a2.071 2.071 0 0 0-1.351-.558h-7.98v-3.039h6.045zm5.098-6.71c.569 0 1.032.46 1.032 1.024 0 .564-.463 1.023-1.032 1.023a1.029 1.029 0 0 1-1.032-1.023c0-.564.463-1.023 1.032-1.023zm-7.057-1.359c.569 0 1.032.46 1.032 1.024 0 .564-.463 1.023-1.032 1.023a1.029 1.029 0 0 1-1.032-1.023c0-.565.463-1.024 1.032-1.024zm3.984 38.963c.569 0 1.032.46 1.032 1.023 0 .565-.463 1.024-1.032 1.024a1.029 1.029 0 0 1-1.032-1.024c0-.564.463-1.023 1.032-1.023zm.683-9.288c.569 0 1.031.46 1.031 1.024 0 .564-.462 1.023-1.031 1.023a1.029 1.029 0 0 1-1.032-1.023c0-.564.463-1.023 1.032-1.023zM54.237 44c.569 0 1.032.458 1.032 1.023 0 .564-.463 1.023-1.032 1.023a1.029 1.029 0 0 1-1.032-1.023c0-.565.463-1.024 1.032-1.024zm-5.805-6.796c.569 0 1.032.459 1.032 1.023 0 .564-.463 1.023-1.032 1.023a1.029 1.029 0 0 1-1.032-1.023c0-.564.463-1.023 1.032-1.023z"/>
    </g>
    <defs>
        <clipPath id="u1o7m09bna">
            <path fill="#fff" transform="translate(15 15)" d="M0 0h50v50H0z"/>
        </clipPath>
    </defs>
</svg>
