<svg width="80" height="80" viewBox="0 0 80 80" fill="none" xmlns="http://www.w3.org/2000/svg">
    <circle cx="40" cy="40" r="40" fill="#fff"/>
    <path d="M63.413 45.536V34.415h-7.227c-.23-.67-.503-1.329-.817-1.97l5.111-5.11-7.864-7.864-5.107 5.107a17.087 17.087 0 0 0-1.973-.813v-7.227H34.415v7.227c-.67.23-1.33.504-1.97.817l-5.11-5.111-7.864 7.864 5.11 5.11c-.313.641-.587 1.3-.816 1.97h-7.227v11.121h7.227c.23.67.503 1.33.817 1.97l-5.111 5.11 7.864 7.864 5.11-5.11c.64.313 1.3.586 1.97.816v7.227h11.121V56.19a17.077 17.077 0 0 0 1.97-.82l5.11 5.11 7.864-7.864-5.11-5.11c.313-.64.587-1.3.816-1.97h7.227zm-4.874 7.08-5.923 5.922-4.85-4.85-.448.236c-.868.458-1.767.832-2.671 1.113l-.484.15v6.853h-8.375v-6.858c-1.464-.453-2.014-.656-3.603-1.494l-4.85 4.85-5.922-5.922 4.85-4.85c-.839-1.59-1.04-2.139-1.494-3.603h-6.858v-8.375h6.858c.45-1.45.653-2.008 1.494-3.603l-4.85-4.85 5.922-5.922 4.85 4.85.449-.236a15.749 15.749 0 0 1 2.67-1.109l.484-.15v-6.857h8.376v6.858l.483.15c.936.29 1.836.661 2.675 1.104l.448.236 4.847-4.846 5.922 5.922-4.85 4.85c.726 1.377.972 1.917 1.493 3.603h6.858v8.375h-6.858c-.198.64-.51 1.738-1.258 3.155l-.236.448 4.85 4.85z" fill="#FF6900"/>
    <path d="m22.82 52.502 3.203-3.203.971.971-3.202 3.203-.971-.971zM37.458 45.229l1.71-1.71-.972-.971-1.71 1.71a6.06 6.06 0 0 1-8.564 0 6.015 6.015 0 0 1-1.774-4.283c0-1.617.63-3.138 1.774-4.281a6.063 6.063 0 0 1 8.565 0l7.772 7.772a4.942 4.942 0 0 0 6.98 0 4.932 4.932 0 0 0 0-6.98 4.938 4.938 0 0 0-6.98 0l-1.71 1.71.971.97 1.71-1.71a3.538 3.538 0 0 1 2.52-1.041 3.557 3.557 0 0 1 3.563 3.56c0 .953-.371 1.847-1.044 2.52a3.567 3.567 0 0 1-5.038 0l-7.773-7.773c-2.897-2.896-7.61-2.896-10.507 0a7.426 7.426 0 0 0 0 10.507c2.9 2.9 7.607 2.9 10.507 0z" fill="#FF6900"/>
    <path d="M53.003 34.722c-2.897-2.896-7.61-2.896-10.507 0l-1.71 1.71.971.971 1.71-1.71a6.063 6.063 0 0 1 8.565 0 6.063 6.063 0 0 1 0 8.565 6.063 6.063 0 0 1-8.565 0l-7.772-7.773a4.941 4.941 0 0 0-6.981 0 4.942 4.942 0 0 0 0 6.981 4.941 4.941 0 0 0 6.98 0l1.71-1.71-.97-.971-1.71 1.71a3.567 3.567 0 0 1-5.039 0 3.567 3.567 0 0 1 0-5.039 3.567 3.567 0 0 1 5.039 0l7.772 7.773c2.899 2.898 7.612 2.895 10.507 0 2.897-2.896 2.897-7.61 0-10.507zM31.786 48.165l-.971.971c5.063 5.063 13.257 5.063 18.321 0l-.972-.971c-4.526 4.526-11.852 4.527-16.378 0zM49.136 28.13l-.971-.97.97-.972.972.971-.97.971zm1.618-1.618-.971-.971.971-.971.971.971-.97.97zm1.619-1.619-.971-.97 1.274-1.275.972.97-1.276 1.275zM48.164 31.786a11.575 11.575 0 0 0-12.83-2.425l-.55-1.258c4.722-2.063 10.446-1.193 14.352 2.712l-.972.971zm-16.378 0-.971-.97c.341-.342.704-.667 1.08-.967l.857 1.072c-.335.269-.66.56-.966.865zm1.66-1.38-.774-1.133c.397-.272.815-.524 1.24-.75l.644 1.214c-.38.201-.753.427-1.11.67z" fill="#FF6900"/>
</svg>
