<svg width="80" height="80" viewBox="0 0 80 80" fill="none" xmlns="http://www.w3.org/2000/svg">
    <circle cx="40" cy="40" r="40" fill="#fff"/>
    <g clip-path="url(#f0cjbe9mca)" fill="#FF6900">
        <path d="M61.667 33.333H48.333v-15A3.333 3.333 0 0 0 45 15H18.333A3.333 3.333 0 0 0 15 18.333V37.5a3.333 3.333 0 0 0 3.333 3.333H20v3.692a2.13 2.13 0 0 0 1.182 1.934 1.997 1.997 0 0 0 2.111-.217l6.992-5.409h1.382v15A3.334 3.334 0 0 0 35 59.167h14.715l6.992 5.408a1.993 1.993 0 0 0 2.111.218A2.13 2.13 0 0 0 60 62.858v-3.691h1.667A3.333 3.333 0 0 0 65 55.833V36.667a3.334 3.334 0 0 0-3.333-3.334zM30 39.167a.833.833 0 0 0-.51.174l-7.216 5.583a.317.317 0 0 1-.357.04.463.463 0 0 1-.25-.439V40a.833.833 0 0 0-.834-.833h-2.5a1.667 1.667 0 0 1-1.666-1.667V18.333a1.667 1.667 0 0 1 1.666-1.666H45a1.667 1.667 0 0 1 1.667 1.666V37.5A1.666 1.666 0 0 1 45 39.167H30zm7.5 1.666h1.667V42.5a.833.833 0 0 1-1.667 0v-1.667zm25.833 15a1.667 1.667 0 0 1-1.666 1.667h-2.5a.833.833 0 0 0-.834.833v4.525a.463.463 0 0 1-.25.438.316.316 0 0 1-.356-.04l-7.217-5.583A.833.833 0 0 0 50 57.5H35a1.666 1.666 0 0 1-1.667-1.667v-15h2.5V42.5a2.5 2.5 0 0 0 5 0v-1.667h3.334v3.334a.834.834 0 0 0 1.666 0v-3.452a3.333 3.333 0 0 0 2.5-3.215V35h13.334a1.667 1.667 0 0 1 1.666 1.667v19.166z"/>
        <path d="M28.333 24.167A.833.833 0 0 0 27.5 25v5a.833.833 0 0 0 1.667 0v-5a.833.833 0 0 0-.834-.833zM25 23.333a.833.833 0 0 0-.834.834v6.666a.833.833 0 1 0 1.667 0v-6.666a.833.833 0 0 0-.833-.834zM42.5 28.333v-1.666a.833.833 0 1 0-1.666 0v1.666a.833.833 0 1 0 1.666 0zM20.834 26.667v1.666a.833.833 0 1 0 1.666 0v-1.666a.833.833 0 1 0-1.666 0zM35 24.167a.833.833 0 0 0-.834.833v5a.833.833 0 0 0 1.667 0v-5a.833.833 0 0 0-.833-.833zM39.167 30.833v-6.666a.833.833 0 1 0-1.667 0v6.666a.833.833 0 1 0 1.667 0zM31.667 20.833a.833.833 0 0 0-.834.834v11.666a.833.833 0 1 0 1.667 0V21.667a.833.833 0 0 0-.833-.834zM20.833 24.167a.833.833 0 0 0 .834-.834v-1.666a.834.834 0 0 1 .833-.834h1.667a.833.833 0 0 0 0-1.666H22.5a2.5 2.5 0 0 0-2.5 2.5v1.666a.833.833 0 0 0 .833.834zM40.834 19.167h-1.667a.833.833 0 0 0 0 1.666h1.666a.833.833 0 0 1 .834.834v1.666a.833.833 0 1 0 1.666 0v-1.666a2.5 2.5 0 0 0-2.5-2.5zM24.167 34.167H22.5a.833.833 0 0 1-.833-.834v-1.666a.833.833 0 1 0-1.667 0v1.666a2.5 2.5 0 0 0 2.5 2.5h1.667a.833.833 0 0 0 0-1.666zM42.5 30.833a.833.833 0 0 0-.833.834v1.666a.833.833 0 0 1-.834.834h-1.666a.833.833 0 0 0 0 1.666h1.666a2.5 2.5 0 0 0 2.5-2.5v-1.666a.833.833 0 0 0-.833-.834zM58.334 36.667a2.5 2.5 0 0 0-2.5 2.5V42.5a2.5 2.5 0 0 0 5 0v-3.333a2.5 2.5 0 0 0-2.5-2.5zm.833 5.833a.834.834 0 0 1-1.667 0v-3.333a.834.834 0 0 1 1.667 0V42.5zM51.666 36.667a2.5 2.5 0 0 0-2.5 2.5V42.5a2.5 2.5 0 0 0 5 0v-3.333a2.5 2.5 0 0 0-2.5-2.5zM52.5 42.5a.834.834 0 0 1-1.667 0v-3.333a.834.834 0 0 1 1.667 0V42.5zM45 46.667a2.5 2.5 0 0 0-2.5 2.5V52.5a2.5 2.5 0 0 0 5 0v-3.333a2.5 2.5 0 0 0-2.5-2.5zm.833 5.833a.834.834 0 0 1-1.666 0v-3.333a.834.834 0 0 1 1.666 0V52.5zM38.334 46.667a2.5 2.5 0 0 0-2.5 2.5V52.5a2.5 2.5 0 0 0 5 0v-3.333a2.5 2.5 0 0 0-2.5-2.5zm.833 5.833a.834.834 0 0 1-1.667 0v-3.333a.834.834 0 0 1 1.667 0V52.5zM51.667 46.667a.833.833 0 0 0-.834.833v6.667a.833.833 0 0 0 1.667 0V47.5a.833.833 0 0 0-.833-.833zM58.333 46.667a.833.833 0 0 0-.833.833v6.667a.833.833 0 0 0 1.667 0V47.5a.833.833 0 0 0-.834-.833z"/>
    </g>
    <defs>
        <clipPath id="f0cjbe9mca">
            <path fill="#fff" transform="translate(15 15)" d="M0 0h50v50H0z"/>
        </clipPath>
    </defs>
</svg>
