<svg width="80" height="80" viewBox="0 0 80 80" fill="none" xmlns="http://www.w3.org/2000/svg">
    <circle cx="40" cy="40" r="40" fill="#fff"/>
    <g clip-path="url(#fgjunegcpa)" fill-rule="evenodd" clip-rule="evenodd" fill="#FF6900">
        <path d="M39.985 53.87c-8.934 0-17.282-5.156-21.704-13.504-.118-.205-.118-.44 0-.703 4.481-8.319 12.8-13.503 21.704-13.503 8.905 0 17.253 5.184 21.734 13.503.117.205.117.44 0 .703-4.481 8.348-12.83 13.503-21.734 13.503zM19.657 39.984c4.277 7.704 12.01 12.45 20.299 12.45 8.29 0 16.022-4.746 20.299-12.45-4.248-7.674-12.01-12.39-20.27-12.39-8.29 0-16.022 4.716-20.328 12.39z"/>
        <path d="M48.45 29.206a.725.725 0 0 1-.732-.732v-4.98c0-.41.322-.732.732-.732h6.269c.322-1.347 1.494-2.343 2.929-2.343a3.013 3.013 0 0 1 3.017 3.017 3.013 3.013 0 0 1-3.017 3.017 2.986 2.986 0 0 1-2.93-2.314h-5.565v4.335a.72.72 0 0 1-.703.732zm9.169-7.323c-.88 0-1.611.733-1.611 1.611a1.6 1.6 0 0 0 1.61 1.582c.88 0 1.582-.703 1.582-1.582 0-.908-.703-1.61-1.581-1.61zM31.49 29.206a.725.725 0 0 1-.731-.732v-4.247H25.28c-.322 1.318-1.523 2.314-2.93 2.314a3.013 3.013 0 0 1-3.016-3.017 3.013 3.013 0 0 1 3.017-3.017 3.01 3.01 0 0 1 2.93 2.314h6.209c.41 0 .732.322.732.732v4.92c-.03.411-.351.733-.732.733zm-9.197-7.323c-.878 0-1.581.703-1.581 1.611 0 .88.703 1.582 1.581 1.582.908 0 1.582-.732 1.582-1.582 0-.878-.674-1.61-1.582-1.61zM39.985 27.595a.725.725 0 0 1-.732-.732V22.03c0-.41.322-.732.732-.732s.733.322.733.732v4.833c-.03.41-.352.732-.733.732z"/>
        <path d="M39.985 22.704a3.844 3.844 0 0 1-3.866-3.867c0-2.138 1.757-3.866 3.866-3.866 2.139 0 3.867 1.757 3.867 3.866-.03 2.168-1.728 3.867-3.867 3.867zm0-6.298c-1.376 0-2.43 1.055-2.43 2.431 0 1.348 1.112 2.46 2.43 2.46a2.475 2.475 0 0 0 2.46-2.46c-.058-1.347-1.142-2.431-2.46-2.431zM57.619 59.552a2.997 2.997 0 0 1-2.93-2.255H48.45a.744.744 0 0 1-.732-.733v-5.009c0-.41.322-.732.732-.732s.733.322.733.732v4.306h5.536a2.986 2.986 0 0 1 2.929-2.314 3.013 3.013 0 0 1 3.017 3.017c-.059 1.64-1.377 2.988-3.046 2.988zm0-4.599c-.88 0-1.611.732-1.611 1.611a1.6 1.6 0 0 0 1.61 1.582c.88 0 1.582-.703 1.582-1.582 0-.908-.703-1.61-1.581-1.61zM22.293 59.552a2.981 2.981 0 0 1-2.987-2.988c0-1.67 1.318-3.017 2.987-3.017 1.436 0 2.607.967 2.93 2.314h5.536v-4.306c0-.41.322-.732.732-.732s.732.322.732.732v5.01c0 .38-.322.732-.732.732h-6.21c-.322 1.288-1.552 2.255-2.988 2.255zm0-4.599c-.878 0-1.581.703-1.581 1.611 0 .85.732 1.582 1.581 1.582.85 0 1.582-.732 1.582-1.582.059-.908-.674-1.61-1.582-1.61zM39.985 58.702a.725.725 0 0 1-.732-.732v-4.833c0-.41.322-.732.732-.732s.733.322.733.732v4.833c-.03.44-.352.732-.733.732z"/>
        <path d="M39.985 65a3.844 3.844 0 0 1-3.866-3.866c0-2.139 1.757-3.837 3.866-3.837 2.139 0 3.867 1.728 3.867 3.837C43.822 63.3 42.124 65 39.985 65zm0-6.297c-1.376 0-2.43 1.054-2.43 2.43 0 1.348 1.112 2.461 2.43 2.461a2.475 2.475 0 0 0 2.46-2.46c-.058-1.319-1.142-2.431-2.46-2.431zM39.985 48.421c-4.657 0-8.406-3.778-8.406-8.436 0-4.628 3.778-8.377 8.406-8.377a8.357 8.357 0 0 1 8.377 8.377c0 4.658-3.778 8.436-8.377 8.436zm0-15.378c-3.866 0-7 3.135-7 6.942a7 7 0 0 0 7 7c3.837 0 6.971-3.133 6.971-7 0-3.807-3.134-6.942-6.97-6.942z"/>
        <path d="M34.83 40.718a.725.725 0 0 1-.732-.733c0-3.192 2.636-5.8 5.858-5.8.41 0 .732.323.732.733s-.322.732-.732.732c-2.431 0-4.423 1.992-4.423 4.394 0 .351-.352.674-.703.674z"/>
    </g>
    <defs>
        <clipPath id="fgjunegcpa">
            <path fill="#fff" transform="translate(15 15)" d="M0 0h50v50H0z"/>
        </clipPath>
    </defs>
</svg>
