<svg width="22" height="37" fill="none" xmlns="http://www.w3.org/2000/svg"><path d="M19.643 27.5H2.357A2.357 2.357 0 0 1 0 25.143V2.357A2.357 2.357 0 0 1 2.357 0h11a.786.786 0 0 1 .558.228l7.857 7.857a.786.786 0 0 1 .228.558v16.5a2.357 2.357 0 0 1-2.357 2.357zM2.357 1.571a.786.786 0 0 0-.786.786v22.786a.786.786 0 0 0 .786.786h17.286a.785.785 0 0 0 .786-.786V8.996l-7.386-7.425H2.357z" fill="#fff"/><path d="M21.214 9.428h-7.857a.786.786 0 0 1-.786-.785V.786a.786.786 0 0 1 .487-.723.786.786 0 0 1 .857.165l7.857 7.857a.785.785 0 0 1 .165.856.785.785 0 0 1-.723.487zm-7.071-1.571h5.178l-5.178-5.178v5.178zm-3.929-1.571H3.928a.786.786 0 0 1 0-1.572h6.286a.786.786 0 0 1 0 1.572zm0 3.928H3.928a.786.786 0 1 1 0-1.571h6.286a.786.786 0 0 1 0 1.571zm7.071 3.929H3.928a.786.786 0 0 1 0-1.572h13.357a.785.785 0 1 1 0 1.572zm0 3.928H3.928a.786.786 0 0 1 0-1.571h13.357a.786.786 0 1 1 0 1.571zm0 3.929H3.928a.786.786 0 0 1 0-1.572h13.357a.785.785 0 1 1 0 1.572zm.786 14.928H3.928a.786.786 0 0 1-.785-.785v-3.929a.786.786 0 1 1 1.571 0v3.143h12.571v-3.143a.785.785 0 1 1 1.572 0v3.929a.785.785 0 0 1-.786.785z" fill="#fff"/><path d="M11 33a.786.786 0 0 1-.786-.786v-3.143a.785.785 0 1 1 1.571 0v3.143A.786.786 0 0 1 11 33z" fill="#fff"/><path d="M11 34.571a.786.786 0 0 1-.558-.227l-2.357-2.358A.789.789 0 1 1 9.2 30.871l1.8 1.807 1.799-1.807a.789.789 0 1 1 1.116 1.115l-2.358 2.358a.785.785 0 0 1-.557.227z" fill="#fff"/></svg>