<svg width="7" height="4" fill="none" xmlns="http://www.w3.org/2000/svg"><g clip-path="url(#clip0_1740_566)"><path d="M3.66 3.928L6.935.42A.247.247 0 0 0 7 .247a.246.246 0 0 0-.066-.172L6.93.071A.216.216 0 0 0 6.77 0H5.18a.215.215 0 0 0-.16.07L3.5 1.7 1.98.07A.22.22 0 0 0 1.82 0H.231A.216.216 0 0 0 .07.07L.066.076A.248.248 0 0 0 0 .247.25.25 0 0 0 .066.42L3.34 3.93c.09.095.232.095.32 0z" fill="#333"/></g><defs><clipPath id="clip0_1740_566"><path fill="#fff" d="M0 0h7v4H0z"/></clipPath></defs></svg>