<svg width="60" height="60" viewBox="0 0 60 60" fill="none" xmlns="http://www.w3.org/2000/svg">
    <g clip-path="url(#k2rviaohga)">
        <path d="M47.602 48.368c-4.906 4.906-11.43 7.608-18.368 7.608H.937a.938.938 0 0 1 0-1.875h28.297c13.29 0 24.101-10.812 24.101-24.101 0-12.196-9.278-22.443-21.143-23.918l2.772 2.165a.937.937 0 1 1-1.154 1.478L28.657 5.7a.938.938 0 0 1 0-1.478L33.81.199a.937.937 0 0 1 1.154 1.478L31.797 4.15c6.053.59 11.663 3.263 15.972 7.65A25.827 25.827 0 0 1 55.21 30c0 6.938-2.702 13.462-7.608 18.368zM12.683 50.02a.934.934 0 0 0 1.32-.125.938.938 0 0 0-.125-1.32A24.042 24.042 0 0 1 5.133 30c0-10.93 7.371-20.513 17.925-23.302a.938.938 0 0 0-.479-1.813C11.203 7.892 3.259 18.219 3.259 30a25.912 25.912 0 0 0 9.424 20.02zm46.956 4.278-5.153-4.024a.938.938 0 0 0-1.154 1.478l3.007 2.348H46.04a.938.938 0 0 0 0 1.875h10.298l-3.007 2.348a.937.937 0 1 0 1.154 1.477l5.154-4.024a.938.938 0 0 0 0-1.478zM19.98 30.003c0-5.104 4.152-9.255 9.255-9.255 5.103 0 9.255 4.151 9.255 9.255 0 5.102-4.152 9.254-9.255 9.254-5.103 0-9.254-4.152-9.254-9.254zm1.876 0c0 4.069 3.31 7.379 7.38 7.379 4.068 0 7.379-3.31 7.379-7.38 0-4.069-3.31-7.38-7.38-7.38-4.069 0-7.38 3.311-7.38 7.38zm-.729-13.04a15.18 15.18 0 0 1 4.622-1.917l.913-2.372c.14-.362.487-.601.875-.601h3.396c.388 0 .736.239.875.6l.914 2.373c1.639.38 3.19 1.023 4.621 1.917l2.326-1.033a.938.938 0 0 1 1.044.194l2.401 2.401a.937.937 0 0 1 .194 1.044l-1.032 2.325a15.18 15.18 0 0 1 1.916 4.622l2.372.914c.362.139.6.486.6.874v3.397a.938.938 0 0 1-.6.875l-2.373.913a15.184 15.184 0 0 1-1.916 4.622l1.033 2.326c.157.354.08.769-.194 1.043l-2.401 2.402a.937.937 0 0 1-1.044.194l-2.325-1.033a15.178 15.178 0 0 1-4.623 1.916l-.913 2.373a.937.937 0 0 1-.875.6h-3.396a.938.938 0 0 1-.875-.6l-.913-2.373a15.182 15.182 0 0 1-4.622-1.917L18.8 44.075a.937.937 0 0 1-1.043-.193l-2.402-2.402a.937.937 0 0 1-.194-1.043l1.033-2.325a15.177 15.177 0 0 1-1.916-4.623l-2.373-.913a.937.937 0 0 1-.6-.875v-3.397c0-.388.238-.735.6-.875l2.373-.913c.38-1.64 1.023-3.19 1.916-4.622l-1.033-2.326a.937.937 0 0 1 .194-1.043l2.402-2.401a.938.938 0 0 1 1.043-.194l2.326 1.033zm-.297 1.92-2.202-.979-1.49 1.492.977 2.2a.938.938 0 0 1-.079.904c-1 1.49-1.682 3.135-2.027 4.89a.937.937 0 0 1-.583.694l-2.246.864v2.109l2.246.864c.3.116.52.378.583.694a13.335 13.335 0 0 0 2.027 4.89c.18.268.21.61.079.904l-.978 2.2 1.491 1.491 2.202-.977a.938.938 0 0 1 .903.078c1.49 1 3.135 1.682 4.889 2.027a.937.937 0 0 1 .694.583l.865 2.246h2.109l.864-2.245a.938.938 0 0 1 .694-.583 13.335 13.335 0 0 0 4.89-2.027.938.938 0 0 1 .904-.079l2.2.977 1.491-1.49-.977-2.202a.938.938 0 0 1 .078-.903c1-1.49 1.682-3.135 2.027-4.89a.938.938 0 0 1 .583-.694l2.246-.864v-2.109l-2.245-.864a.938.938 0 0 1-.583-.694 13.34 13.34 0 0 0-2.028-4.89.937.937 0 0 1-.078-.904l.977-2.2-1.491-1.492-2.201.978a.938.938 0 0 1-.904-.078c-1.49-1-3.135-1.682-4.889-2.027a.938.938 0 0 1-.694-.583l-.864-2.246h-2.11l-.864 2.246a.938.938 0 0 1-.694.583 13.34 13.34 0 0 0-4.889 2.027.939.939 0 0 1-.903.078z" fill="#FF6900"/>
    </g>
    <defs>
        <clipPath id="k2rviaohga">
            <path fill="#fff" d="M0 0h60v60H0z"/>
        </clipPath>
    </defs>
</svg>
