<svg width="61" height="52" viewBox="0 0 61 52" fill="none" xmlns="http://www.w3.org/2000/svg">
<path d="M60.0275 35.0031V4.52207C60.0685 3.36756 59.6507 2.24377 58.8655 1.39639C58.0803 0.549002 56.9916 0.0469547 55.8373 0H4.19293C3.03864 0.0469547 1.94989 0.549002 1.1647 1.39639C0.379515 2.24377 -0.0382447 3.36756 0.00275653 4.52207V38.2951V38.3356V38.767C0.0199619 39.8003 0.425986 40.7893 1.13988 41.5366C1.85378 42.2839 2.82311 42.7348 3.85461 42.7992C3.96695 42.8088 4.0793 42.8178 4.19421 42.8178H24.0608V49.7531H19.7705C19.4725 49.7531 19.1867 49.8714 18.9761 50.0821C18.7654 50.2928 18.647 50.5786 18.647 50.8765C18.647 51.1745 18.7654 51.4603 18.9761 51.6709C19.1867 51.8816 19.4725 52 19.7705 52H40.2617C40.5596 52 40.8454 51.8816 41.0561 51.6709C41.2668 51.4603 41.3851 51.1745 41.3851 50.8765C41.3851 50.5786 41.2668 50.2928 41.0561 50.0821C40.8454 49.8714 40.5596 49.7531 40.2617 49.7531H35.9714V42.8197H55.8373C55.9458 42.8197 56.0517 42.8108 56.1583 42.8018C57.193 42.7415 58.1666 42.2924 58.8842 41.5445C59.6017 40.7966 60.0101 39.8052 60.0275 38.7689V35.0031ZM55.8379 40.569H4.19421C4.16597 40.569 4.139 40.5619 4.11076 40.5613C3.57358 40.4921 3.08266 40.2218 2.7371 39.8047C2.39155 39.3877 2.21712 38.855 2.24903 38.3144V36.1297H57.7799V38.2951C57.8161 38.8401 57.6427 39.3783 57.2952 39.7997C56.9477 40.221 56.4524 40.4937 55.9105 40.5619C55.8867 40.5626 55.863 40.569 55.8379 40.569ZM4.19293 2.24691H55.8373C56.3951 2.29491 56.9116 2.56046 57.2753 2.98618C57.6389 3.41191 57.8204 3.96362 57.7805 4.52207V33.8828H2.24967V4.52207C2.20983 3.96362 2.39134 3.41191 2.75496 2.98618C3.11858 2.56046 3.63511 2.29491 4.19293 2.24691V2.24691ZM33.7238 49.7531H26.3077V42.8197H33.7244L33.7238 49.7531Z" fill="#FF6900"/>
<path d="M36.9782 13.3368H48.6962C48.9941 13.3368 49.2799 13.2184 49.4906 13.0077C49.7013 12.797 49.8196 12.5113 49.8196 12.2133C49.8196 11.9153 49.7013 11.6296 49.4906 11.4189C49.2799 11.2082 48.9941 11.0898 48.6962 11.0898H36.9782C36.6802 11.0898 36.3945 11.2082 36.1838 11.4189C35.9731 11.6296 35.8547 11.9153 35.8547 12.2133C35.8547 12.5113 35.9731 12.797 36.1838 13.0077C36.3945 13.2184 36.6802 13.3368 36.9782 13.3368V13.3368Z" fill="#FF6900"/>
<path d="M36.9782 18.6522H48.6962C48.9941 18.6522 49.2799 18.5338 49.4906 18.3231C49.7013 18.1124 49.8196 17.8267 49.8196 17.5287C49.8196 17.2308 49.7013 16.945 49.4906 16.7343C49.2799 16.5236 48.9941 16.4053 48.6962 16.4053H36.9782C36.6802 16.4053 36.3945 16.5236 36.1838 16.7343C35.9731 16.945 35.8547 17.2308 35.8547 17.5287C35.8547 17.8267 35.9731 18.1124 36.1838 18.3231C36.3945 18.5338 36.6802 18.6522 36.9782 18.6522V18.6522Z" fill="#FF6900"/>
<path d="M36.9782 23.9686H48.6962C48.9941 23.9686 49.2799 23.8502 49.4906 23.6395C49.7013 23.4289 49.8196 23.1431 49.8196 22.8451C49.8196 22.5472 49.7013 22.2614 49.4906 22.0507C49.2799 21.84 48.9941 21.7217 48.6962 21.7217H36.9782C36.6802 21.7217 36.3945 21.84 36.1838 22.0507C35.9731 22.2614 35.8547 22.5472 35.8547 22.8451C35.8547 23.1431 35.9731 23.4289 36.1838 23.6395C36.3945 23.8502 36.6802 23.9686 36.9782 23.9686V23.9686Z" fill="#FF6900"/>
<path d="M36.9782 29.2811H48.6962C48.9941 29.2811 49.2799 29.1627 49.4906 28.952C49.7013 28.7413 49.8196 28.4556 49.8196 28.1576C49.8196 27.8597 49.7013 27.5739 49.4906 27.3632C49.2799 27.1525 48.9941 27.0342 48.6962 27.0342H36.9782C36.6802 27.0342 36.3945 27.1525 36.1838 27.3632C35.9731 27.5739 35.8547 27.8597 35.8547 28.1576C35.8547 28.4556 35.9731 28.7413 36.1838 28.952C36.3945 29.1627 36.6802 29.2811 36.9782 29.2811V29.2811Z" fill="#FF6900"/>
<path d="M8.13452 20.1893C8.1386 21.7978 8.51668 23.3834 9.23888 24.8206C9.96108 26.2579 11.0076 27.5075 12.2958 28.4708C13.9885 29.7353 16.0308 30.4455 18.1429 30.504H18.808C20.8821 30.4395 22.8874 29.7454 24.5575 28.5138C24.5787 28.4984 24.5999 28.4856 24.6217 28.4695C26.0353 27.418 27.1563 26.0223 27.8781 24.4151C28.5999 22.808 28.8984 21.0429 28.7452 19.2877C28.5921 17.5326 27.9924 15.8459 27.0031 14.388C26.0139 12.9302 24.6681 11.7497 23.0938 10.9589C21.5194 10.1681 19.7689 9.7933 18.0088 9.87019C16.2487 9.94707 14.5376 10.4731 13.0382 11.3981C11.5388 12.3232 10.301 13.6165 9.44272 15.1551C8.5844 16.6936 8.13405 18.4263 8.13452 20.188V20.1893ZM18.4652 21.1523H18.4523C17.7947 21.1506 17.1646 20.8879 16.7004 20.422C16.2363 19.956 15.976 19.3249 15.9769 18.6672C15.9777 18.0095 16.2396 17.3791 16.705 16.9143C17.1703 16.4496 17.8011 16.1885 18.4588 16.1885C19.1164 16.1885 19.7472 16.4496 20.2126 16.9143C20.6779 17.3791 20.9398 18.0095 20.9406 18.6672C20.9415 19.3249 20.6813 19.956 20.2171 20.422C19.753 20.8879 19.1229 21.1506 18.4652 21.1523ZM17.4509 23.3992H19.4635C20.3547 23.3995 21.2095 23.7535 21.8402 24.3833C22.4708 25.0131 22.8259 25.8674 22.8274 26.7587V26.9827C21.5855 27.7807 20.1488 28.2234 18.6732 28.2628C18.6019 28.2686 18.53 28.2673 18.4575 28.2673C18.3849 28.2673 18.3118 28.2673 18.1789 28.259C16.7262 28.2123 15.3139 27.7702 14.094 26.9802V26.7567C14.095 25.8665 14.4489 25.013 15.0782 24.3833C15.7074 23.7535 16.5606 23.399 17.4509 23.3973V23.3992ZM18.4594 12.1088C20.6014 12.1117 22.6548 12.964 24.1691 14.4789C25.6835 15.9937 26.5352 18.0474 26.5374 20.1893C26.5412 21.9835 25.9411 23.7267 24.8336 25.1383C24.614 24.4177 24.2519 23.7486 23.7689 23.1705C23.2859 22.5925 22.6918 22.1173 22.0217 21.7731C22.6187 21.089 23.0061 20.2475 23.1376 19.3492C23.2692 18.4508 23.1394 17.5336 22.7636 16.707C22.3879 15.8805 21.7822 15.1796 21.0188 14.6881C20.2554 14.1965 19.3667 13.9351 18.4588 13.9351C17.5508 13.9351 16.6621 14.1965 15.8987 14.6881C15.1354 15.1796 14.5296 15.8805 14.1539 16.707C13.7782 17.5336 13.6483 18.4508 13.7799 19.3492C13.9114 20.2475 14.2988 21.089 14.8958 21.7731C14.2259 22.1174 13.6319 22.5928 13.1492 23.171C12.6664 23.7491 12.3046 24.4184 12.0852 25.139C10.9777 23.7274 10.3775 21.9842 10.3814 20.19C10.3835 18.0479 11.2351 15.9941 12.7495 14.4791C14.2639 12.9641 16.3173 12.1117 18.4594 12.1088V12.1088Z" fill="#FF6900"/>
<path d="M5.76112 6.55301C5.96212 6.55301 6.1586 6.49341 6.32572 6.38174C6.49284 6.27007 6.6231 6.11136 6.70001 5.92566C6.77693 5.73997 6.79706 5.53563 6.75785 5.3385C6.71863 5.14137 6.62184 4.96029 6.47972 4.81816C6.33759 4.67604 6.15652 4.57925 5.95938 4.54004C5.76225 4.50082 5.55792 4.52095 5.37222 4.59787C5.18653 4.67478 5.02781 4.80504 4.91614 4.97216C4.80448 5.13928 4.74487 5.33576 4.74487 5.53676C4.74487 5.80629 4.85194 6.06477 5.04253 6.25536C5.23311 6.44594 5.4916 6.55301 5.76112 6.55301V6.55301Z" fill="#FF6900"/>
<path d="M8.85646 6.55301C9.05745 6.55301 9.25393 6.49341 9.42105 6.38174C9.58817 6.27007 9.71843 6.11136 9.79534 5.92566C9.87226 5.73997 9.89239 5.53563 9.85317 5.3385C9.81396 5.14137 9.71717 4.96029 9.57505 4.81816C9.43293 4.67604 9.25185 4.57925 9.05472 4.54004C8.85758 4.50082 8.65325 4.52095 8.46755 4.59787C8.28186 4.67478 8.12314 4.80504 8.01148 4.97216C7.89981 5.13928 7.84021 5.33576 7.84021 5.53676C7.84038 5.80623 7.9475 6.06462 8.13805 6.25517C8.32859 6.44572 8.58698 6.55284 8.85646 6.55301V6.55301Z" fill="#FF6900"/>
<path d="M11.9515 6.55301C12.1525 6.55301 12.349 6.49341 12.5161 6.38174C12.6833 6.27007 12.8135 6.11136 12.8904 5.92566C12.9673 5.73997 12.9875 5.53563 12.9483 5.3385C12.9091 5.14137 12.8123 4.96029 12.6701 4.81816C12.528 4.67604 12.3469 4.57925 12.1498 4.54004C11.9527 4.50082 11.7483 4.52095 11.5626 4.59787C11.377 4.67478 11.2182 4.80504 11.1066 4.97216C10.9949 5.13928 10.9353 5.33576 10.9353 5.53676C10.9353 5.80629 11.0424 6.06477 11.233 6.25536C11.4235 6.44594 11.682 6.55301 11.9515 6.55301Z" fill="#FF6900"/>
</svg>
