<svg width="61" height="60" viewBox="0 0 61 60" fill="none" xmlns="http://www.w3.org/2000/svg">
<path d="M44.0115 28.0073C43.3424 28.0115 42.6742 28.058 42.0109 28.1463V8.8323C42.0098 8.41897 41.9233 8.01032 41.7569 7.63199C41.7469 7.60798 41.7319 7.58798 41.7209 7.56597C41.5749 7.24651 41.3741 6.95504 41.1277 6.70475L35.3092 0.88323C35.058 0.636517 34.7655 0.435759 34.445 0.290076C34.423 0.279073 34.403 0.264069 34.379 0.254066C34.0006 0.0876146 33.592 0.0011182 33.1786 0H4.00104C1.79133 0 0 1.79133 0 4.00104V47.0122C0 49.222 1.79133 51.0133 4.00104 51.0133H29.6427C33.1073 58.1179 41.2418 61.6265 48.7869 59.2707C56.332 56.9148 61.0249 49.4009 59.8313 41.5872C58.6378 33.7735 51.9158 28.0033 44.0115 28.0073V28.0073ZM38.596 7.00182H37.0096C35.9048 7.00182 35.0091 6.10616 35.0091 5.0013V3.41489L38.596 7.00182ZM4.00104 49.0128C2.89618 49.0128 2.00052 48.1171 2.00052 47.0122V4.00104C2.00052 2.89618 2.89618 2.00052 4.00104 2.00052H33.0086V5.0013C33.0086 7.21102 34.7999 9.00235 37.0096 9.00235H40.0104V28.5344C35.7231 29.6298 32.0834 32.4569 29.9613 36.3398C27.8391 40.2228 27.4252 44.8128 28.8185 49.0128H4.00104ZM44.0115 58.0151C38.3475 58.0151 33.2413 54.6032 31.0738 49.3704C28.9063 44.1376 30.1044 38.1144 34.1094 34.1094C38.1144 30.1044 44.1376 28.9063 49.3704 31.0738C54.6032 33.2413 58.0151 38.3475 58.0151 44.0115C58.0068 51.742 51.742 58.0068 44.0115 58.0151Z" fill="#FF6900"/>
<path d="M18.2977 5.29465L16.3892 7.20215C15.8272 6.44889 14.9434 6.00419 14.0036 6.00183H8.002C6.34472 6.00183 5.00122 7.34533 5.00122 9.00262V15.0042C5.00122 16.6615 6.34472 18.005 8.002 18.005H14.0036C15.6609 18.005 17.0043 16.6615 17.0043 15.0042V9.41672L19.7121 6.70902C19.9721 6.45788 20.0764 6.08598 19.9848 5.73626C19.8933 5.38654 19.6202 5.11342 19.2704 5.02188C18.9207 4.93034 18.5488 5.03463 18.2977 5.29465V5.29465ZM15.0038 15.0042C15.0038 15.5566 14.556 16.0044 14.0036 16.0044H8.002C7.44957 16.0044 7.00174 15.5566 7.00174 15.0042V9.00262C7.00174 8.45019 7.44957 8.00236 8.002 8.00236H14.0036C14.4206 8.00436 14.792 8.26637 14.9338 8.65853L12.003 11.5893L10.7097 10.296C10.3172 9.91688 9.69336 9.9223 9.30752 10.3081C8.92169 10.694 8.91627 11.3178 9.29534 11.7103L11.2959 13.7108C11.6865 14.1013 12.3196 14.1013 12.7102 13.7108L15.0038 11.4172V15.0042Z" fill="#FF6900"/>
<path d="M18.2977 19.2974L16.3892 21.2049C15.8272 20.4516 14.9434 20.0069 14.0036 20.0046H8.002C6.34472 20.0046 5.00122 21.3481 5.00122 23.0054V29.0069C5.00122 30.6642 6.34472 32.0077 8.002 32.0077H14.0036C15.6609 32.0077 17.0043 30.6642 17.0043 29.0069V23.4195L19.7121 20.7118C20.0911 20.3193 20.0857 19.6954 19.6999 19.3096C19.314 18.9237 18.6902 18.9183 18.2977 19.2974V19.2974ZM15.0038 29.0069C15.0038 29.5593 14.556 30.0072 14.0036 30.0072H8.002C7.44957 30.0072 7.00174 29.5593 7.00174 29.0069V23.0054C7.00174 22.4529 7.44957 22.0051 8.002 22.0051H14.0036C14.4206 22.0071 14.792 22.2691 14.9338 22.6613L12.003 25.592L10.7097 24.2987C10.3172 23.9196 9.69336 23.925 9.30752 24.3109C8.92169 24.6967 8.91627 25.3206 9.29534 25.7131L11.2959 27.7136C11.6865 28.1041 12.3196 28.1041 12.7102 27.7136L15.0038 25.42V29.0069Z" fill="#FF6900"/>
<path d="M18.2977 33.3013L16.3892 35.2088C15.8272 34.4555 14.9434 34.0108 14.0036 34.0085H8.002C6.34472 34.0085 5.00122 35.352 5.00122 37.0093V43.0108C5.00122 44.6681 6.34472 46.0116 8.002 46.0116H14.0036C15.6609 46.0116 17.0043 44.6681 17.0043 43.0108V37.4234L19.7121 34.7157C20.0911 34.3232 20.0857 33.6993 19.6999 33.3135C19.314 32.9276 18.6902 32.9222 18.2977 33.3013V33.3013ZM15.0038 43.0108C15.0038 43.5633 14.556 44.0111 14.0036 44.0111H8.002C7.44957 44.0111 7.00174 43.5633 7.00174 43.0108V37.0093C7.00174 36.4568 7.44957 36.009 8.002 36.009H14.0036C14.4206 36.011 14.792 36.273 14.9338 36.6652L12.003 39.5959L10.7097 38.3026C10.3172 37.9235 9.69336 37.9289 9.30752 38.3148C8.92169 38.7006 8.91627 39.3245 9.29534 39.717L11.2959 41.7175C11.6865 42.108 12.3196 42.108 12.7102 41.7175L15.0038 39.4239V43.0108Z" fill="#FF6900"/>
<path d="M50.5542 36.1679C50.0896 35.8691 49.4707 36.0034 49.1718 36.468L40.8407 49.4284L38.7171 47.3048C38.3246 46.9258 37.7008 46.9312 37.3149 47.317C36.9291 47.7028 36.9237 48.3267 37.3028 48.7192L40.3035 51.72C40.4911 51.9076 40.7455 52.013 41.0107 52.0131C41.0462 52.013 41.0815 52.011 41.1167 52.0071C41.4178 51.975 41.6881 51.8084 41.8519 51.5539L50.8543 37.5503C51.1531 37.0857 51.0188 36.4668 50.5542 36.1679V36.1679Z" fill="#FF6900"/>
<path d="M23.006 10.0025H30.0078C30.5603 10.0025 31.0081 9.55464 31.0081 9.00221C31.0081 8.44979 30.5603 8.00195 30.0078 8.00195H23.006C22.4536 8.00195 22.0057 8.44979 22.0057 9.00221C22.0057 9.55464 22.4536 10.0025 23.006 10.0025Z" fill="#FF6900"/>
<path d="M23.006 15.0035H29.0076C29.56 15.0035 30.0078 14.5556 30.0078 14.0032C30.0078 13.4508 29.56 13.0029 29.0076 13.0029H23.006C22.4536 13.0029 22.0057 13.4508 22.0057 14.0032C22.0057 14.5556 22.4536 15.0035 23.006 15.0035Z" fill="#FF6900"/>
<path d="M23.006 24.0054H36.0094C36.5618 24.0054 37.0096 23.5576 37.0096 23.0051C37.0096 22.4527 36.5618 22.0049 36.0094 22.0049H23.006C22.4536 22.0049 22.0057 22.4527 22.0057 23.0051C22.0057 23.5576 22.4536 24.0054 23.006 24.0054Z" fill="#FF6900"/>
<path d="M23.006 29.0074H29.0076C29.56 29.0074 30.0078 28.5595 30.0078 28.0071C30.0078 27.4547 29.56 27.0068 29.0076 27.0068H23.006C22.4536 27.0068 22.0057 27.4547 22.0057 28.0071C22.0057 28.5595 22.4536 29.0074 23.006 29.0074Z" fill="#FF6900"/>
<path d="M26.0068 36.0088H23.006C22.4536 36.0088 22.0057 36.4566 22.0057 37.009C22.0057 37.5615 22.4536 38.0093 23.006 38.0093H26.0068C26.5592 38.0093 27.007 37.5615 27.007 37.009C27.007 36.4566 26.5592 36.0088 26.0068 36.0088Z" fill="#FF6900"/>
<path d="M25.0065 41.0107H23.006C22.4536 41.0107 22.0057 41.4586 22.0057 42.011C22.0057 42.5634 22.4536 43.0113 23.006 43.0113H25.0065C25.5589 43.0113 26.0068 42.5634 26.0068 42.011C26.0068 41.4586 25.5589 41.0107 25.0065 41.0107Z" fill="#FF6900"/>
</svg>
