<svg width="60" height="60" viewBox="0 0 60 60" fill="none" xmlns="http://www.w3.org/2000/svg">
    <path d="M45.938 15h1.874a9.385 9.385 0 0 0-9.374-9.375V7.5a7.508 7.508 0 0 1 7.5 7.5zM18.75 12.188a6.57 6.57 0 0 0-6.563 6.562h1.876a4.693 4.693 0 0 1 4.687-4.688v-1.874zM52.5 29.063h1.875a3.75 3.75 0 0 0-3.75-3.75v1.875a1.875 1.875 0 0 1 1.875 1.875zM54.375 41.25a3.75 3.75 0 0 0-3.617 2.813H48.75v-5.626h-1.875V45a.938.938 0 0 0 .938.938h2.945a3.744 3.744 0 1 0 3.617-4.688zm0 5.625a1.875 1.875 0 1 1 0-3.75 1.875 1.875 0 0 1 0 3.75zM9.242 45.938h2.945a.938.938 0 0 0 .938-.938v-6.563H11.25v5.626H9.242a3.75 3.75 0 1 0 0 1.874zm-3.617.937a1.875 1.875 0 1 1 0-3.75 1.875 1.875 0 0 1 0 3.75z" fill="#FF6900"/>
    <path d="M39.327 38.438h.048a2.812 2.812 0 0 0 2.64-1.876h8.61a7.5 7.5 0 0 0 0-15h-.83A12.937 12.937 0 0 0 51.562 15a13.118 13.118 0 0 0-25.7-3.71A10.307 10.307 0 0 0 8.835 21.581a7.5 7.5 0 0 0 .54 14.98h8.61a2.812 2.812 0 0 0 2.64 1.876h.048a9.375 9.375 0 0 0 18.656 0h-.002zM20.625 30v.55l-.938-.938v-1.487a6.57 6.57 0 0 1 6.563-6.563h7.5a6.57 6.57 0 0 1 6.563 6.563v1.487l-.938.937V30a.938.938 0 0 0-.69-.905l-10.313-2.812a.947.947 0 0 0-.616.043l-6.563 2.812a.938.938 0 0 0-.568.862zm19.688 5.625a.938.938 0 0 1-.938.938V33.75a.938.938 0 0 1 .938.938v.937zM3.75 29.062a5.63 5.63 0 0 1 5.625-5.625h.787a.937.937 0 0 0 .858-1.312 8.342 8.342 0 0 1-.707-3.375 8.437 8.437 0 0 1 15.305-4.894.937.937 0 0 0 1.688-.414A11.243 11.243 0 0 1 49.687 15a11.132 11.132 0 0 1-2.398 6.922.938.938 0 0 0 .74 1.515h2.596a5.625 5.625 0 1 1 0 11.25h-8.438a2.812 2.812 0 0 0-1.711-2.587l1.437-1.437a.938.938 0 0 0 .275-.663v-1.875a8.447 8.447 0 0 0-8.438-8.438h-7.5a8.447 8.447 0 0 0-8.438 8.438V30c0 .249.1.487.275.663l1.437 1.437a2.813 2.813 0 0 0-1.712 2.587H9.376a5.63 5.63 0 0 1-5.625-5.624zm15.938 6.563v-.938a.938.938 0 0 1 .937-.937v2.813a.938.938 0 0 1-.938-.938zM30 45a7.508 7.508 0 0 1-7.5-7.5v-6.882l5.693-2.438 9.307 2.536V37.5A7.508 7.508 0 0 1 30 45z" fill="#FF6900"/>
    <path d="M42.188 46.875H17.811A10.325 10.325 0 0 0 7.5 57.188a.937.937 0 0 0 .938.937h43.124a.938.938 0 0 0 .938-.938 10.325 10.325 0 0 0-10.313-10.312zm-7.876 1.875-1.27 3.75h-6.095l-1.26-3.75h8.625zm-24.89 7.5a8.45 8.45 0 0 1 8.39-7.5h5.89l1.688 4.988a.938.938 0 0 0 .89.637h7.433a.937.937 0 0 0 .89-.637l1.694-4.988h5.89a8.45 8.45 0 0 1 8.386 7.5H9.422z" fill="#FF6900"/>
</svg>
