<svg width="60" height="60" viewBox="0 0 60 60" fill="none" xmlns="http://www.w3.org/2000/svg">
    <g clip-path="url(#g4hyzwaupa)" fill="#FF6900">
        <path d="m.19 5.504 4.001 7.002a1 1 0 0 0 .625.474l3.734.934 12.804 12.804 1.415-1.415L9.763 12.3a.997.997 0 0 0-.464-.263l-3.587-.9L2.306 5.17l2.92-2.921 5.968 3.41.9 3.587a.998.998 0 0 0 .264.465l13.004 13.005 1.415-1.415L13.972 8.498l-.933-3.731a1.002 1.002 0 0 0-.474-.627l-7.003-4a1 1 0 0 0-1.2.16L.361 4.302A1 1 0 0 0 .19 5.504zM41.78 19.715 19.771 41.722l-1.415-1.414L40.365 18.3l1.414 1.414zM15.92 42.501a1 1 0 0 0-.857-.485H9.06a1 1 0 0 0-.857.485l-3.002 5.002a1 1 0 0 0 0 1.03l3.002 5.002a1 1 0 0 0 .857.485h6.002c.351 0 .676-.185.857-.485l3-5.002a1 1 0 0 0 0-1.03l-3-5.002zm-1.423 9.518h-4.87l-2.4-4.001 2.4-4.002h4.87l2.4 4.002-2.4 4.001z"/>
        <path d="M48.074 24.01c6.606.022 11.98-5.316 12.003-11.923a11.971 11.971 0 0 0-.368-2.982 1 1 0 0 0-1.677-.466l-6.227 6.223-4.94-1.647-1.648-4.94 6.227-6.227a1 1 0 0 0-.47-1.679C44.569-1.253 38.06 2.625 36.437 9.032c-.246.972-.37 1.97-.366 2.974.002.787.083 1.573.243 2.344L14.405 36.257c-.77-.16-1.556-.24-2.343-.243-6.63 0-12.004 5.374-12.004 12.004s5.374 12.004 12.004 12.004 12.004-5.375 12.004-12.004a11.763 11.763 0 0 0-.244-2.344l5.245-5.245 2.294 2.294a1 1 0 0 0 1.415 0l.5-.5a1.126 1.126 0 0 1 1.586 0 1.12 1.12 0 0 1 .002 1.584l-.002.002-.5.5a1 1 0 0 0 0 1.415l11.933 11.933a8.073 8.073 0 1 0 11.47-11.366l-.052-.052L45.78 34.306a1 1 0 0 0-1.415 0l-.5.5a1.126 1.126 0 0 1-1.586 0 1.12 1.12 0 0 1-.002-1.584l.002-.002.5-.5a1 1 0 0 0 0-1.415l-2.294-2.294 5.245-5.244c.771.159 1.556.24 2.344.243zm3.93 34.011a6.08 6.08 0 0 1-2.128-.388l7.813-7.813a6.066 6.066 0 0 1-5.685 8.201zM40.67 32.022a3.122 3.122 0 0 0 4.401 4.396l11.226 11.236c.122.122.236.25.346.381l-8.552 8.553a5.877 5.877 0 0 1-.383-.346L36.475 45.007a3.122 3.122 0 0 0-4.402-4.396l-1.6-1.6 8.598-8.585 1.6 1.596zm4.04-10.06L22.018 44.65c-.249.248-.349.61-.264.95 1.372 5.39-1.885 10.871-7.275 12.243C9.09 59.216 3.61 55.96 2.236 50.57.864 45.18 4.12 39.698 9.51 38.325a10.076 10.076 0 0 1 4.969 0c.34.084.7-.016.95-.263l22.688-22.689a1 1 0 0 0 .262-.95c-1.363-5.327 1.85-10.75 7.177-12.113a9.96 9.96 0 0 1 3.085-.291l-5.277 5.279a1 1 0 0 0-.242 1.023l2 6.002c.1.298.335.533.634.632l6.002 2a1 1 0 0 0 1.023-.24l5.277-5.277c.012.19.018.38.018.568.028 5.496-4.405 9.975-9.901 10.003-.85.004-1.697-.1-2.52-.31a1.001 1.001 0 0 0-.95.262h.005z"/>
        <path d="m51.783 50.311-1.415 1.415-10.003-10.003 1.414-1.415 10.004 10.003z"/>
    </g>
    <defs>
        <clipPath id="g4hyzwaupa">
            <path fill="#fff" d="M0 0h60v60H0z"/>
        </clipPath>
    </defs>
</svg>
