<svg width="50" height="50" viewBox="0 0 50 50" fill="none" xmlns="http://www.w3.org/2000/svg">
<path d="M48.4375 7.8125H47.2922C47.1548 7.37611 46.9789 6.95282 46.7664 6.54766L47.5781 5.73672C47.7246 5.59021 47.8069 5.39153 47.8069 5.18438C47.8069 4.97722 47.7246 4.77854 47.5781 4.63203L45.368 2.42187C45.2215 2.27541 45.0228 2.19314 44.8156 2.19314C44.6085 2.19314 44.4098 2.27541 44.2633 2.42187L43.4523 3.23281C43.0471 3.02076 42.6238 2.84507 42.1875 2.70781V1.5625C42.1875 1.3553 42.1052 1.15659 41.9587 1.01007C41.8122 0.86356 41.6135 0.78125 41.4062 0.78125H38.2812C38.074 0.78125 37.8753 0.86356 37.7288 1.01007C37.5823 1.15659 37.5 1.3553 37.5 1.5625V2.70781C37.0637 2.84507 36.6404 3.02076 36.2352 3.23281L35.4242 2.42187C35.275 2.28073 35.0773 2.20208 34.8719 2.20208C34.6664 2.20208 34.4688 2.28073 34.3195 2.42187L32.1094 4.63203C31.9629 4.77854 31.8806 4.97722 31.8806 5.18438C31.8806 5.39153 31.9629 5.59021 32.1094 5.73672L32.9203 6.54766C32.7081 6.95284 32.5324 7.37613 32.3953 7.8125H31.25C31.0428 7.8125 30.8441 7.89481 30.6976 8.04132C30.5511 8.18784 30.4688 8.38655 30.4688 8.59375V11.7188C30.4688 11.926 30.5511 12.1247 30.6976 12.2712C30.8441 12.4177 31.0428 12.5 31.25 12.5H32.3953C32.5327 12.9364 32.7086 13.3597 32.9211 13.7648L32.1094 14.5758C31.9629 14.7223 31.8806 14.921 31.8806 15.1281C31.8806 15.3353 31.9629 15.534 32.1094 15.6805L34.3195 17.8906C34.466 18.0371 34.6647 18.1194 34.8719 18.1194C35.079 18.1194 35.2777 18.0371 35.4242 17.8906L36.2352 17.0797C36.6403 17.2919 37.0636 17.4676 37.5 17.6047V18.75C37.5 18.9572 37.5823 19.1559 37.7288 19.3024C37.8753 19.4489 38.074 19.5312 38.2812 19.5312H41.4062C41.6135 19.5312 41.8122 19.4489 41.9587 19.3024C42.1052 19.1559 42.1875 18.9572 42.1875 18.75V17.6047C42.6239 17.4673 43.0472 17.2914 43.4523 17.0789L44.2633 17.8906C44.4125 18.0318 44.6102 18.1104 44.8156 18.1104C45.0211 18.1104 45.2187 18.0318 45.368 17.8906L47.5781 15.6805C47.7246 15.534 47.8069 15.3353 47.8069 15.1281C47.8069 14.921 47.7246 14.7223 47.5781 14.5758L46.7672 13.7648C46.9794 13.3597 47.1551 12.9364 47.2922 12.5H48.4375C48.6447 12.5 48.8434 12.4177 48.9899 12.2712C49.1364 12.1247 49.2188 11.926 49.2188 11.7188V8.59375C49.2188 8.38655 49.1364 8.18784 48.9899 8.04132C48.8434 7.89481 48.6447 7.8125 48.4375 7.8125ZM47.6562 10.9375H46.6953C46.5183 10.9375 46.3465 10.9977 46.2081 11.1081C46.0697 11.2185 45.9729 11.3727 45.9336 11.5453C45.7772 12.23 45.5059 12.8833 45.1313 13.4773C45.0366 13.6272 44.9956 13.8048 45.0152 13.981C45.0348 14.1572 45.1138 14.3215 45.2391 14.4469L45.9203 15.1281L44.8156 16.2328L44.1344 15.5516C44.0091 15.4263 43.845 15.3474 43.669 15.3276C43.493 15.3079 43.3155 15.3486 43.1656 15.443C42.5716 15.8182 41.918 16.0896 41.2328 16.2453C41.0602 16.2846 40.906 16.3814 40.7956 16.5198C40.6852 16.6582 40.625 16.83 40.625 17.007V17.9688H39.0625V17.007C39.0625 16.83 39.0023 16.6582 38.8919 16.5198C38.7815 16.3814 38.6273 16.2846 38.4547 16.2453C37.7695 16.0896 37.1159 15.8182 36.5219 15.443C36.372 15.3486 36.1945 15.3079 36.0185 15.3276C35.8425 15.3474 35.6784 15.4263 35.5531 15.5516L34.8719 16.2328L33.7672 15.1281L34.4484 14.4469C34.5737 14.3215 34.6527 14.1572 34.6723 13.981C34.6919 13.8048 34.6509 13.6272 34.5562 13.4773C34.1816 12.8833 33.9103 12.23 33.7539 11.5453C33.7146 11.3727 33.6178 11.2185 33.4794 11.1081C33.341 10.9977 33.1692 10.9375 32.9922 10.9375H32.0312V9.375H32.9922C33.1692 9.37499 33.341 9.31484 33.4794 9.20441C33.6178 9.09398 33.7146 8.93982 33.7539 8.76719C33.9103 8.08249 34.1816 7.42923 34.5562 6.83516C34.6509 6.68529 34.6919 6.50768 34.6723 6.3315C34.6527 6.15531 34.5737 5.99102 34.4484 5.86562L33.7672 5.18438L34.8719 4.07969L35.5531 4.76094C35.6784 4.88617 35.8425 4.96513 36.0185 4.98486C36.1945 5.00459 36.372 4.96393 36.5219 4.86953C37.1159 4.49419 37.7695 4.22285 38.4547 4.06719C38.6275 4.02785 38.7817 3.93096 38.8922 3.79241C39.0026 3.65385 39.0627 3.48187 39.0625 3.30469V2.34375H40.625V3.30469C40.6248 3.48187 40.6849 3.65385 40.7953 3.79241C40.9058 3.93096 41.06 4.02785 41.2328 4.06719C41.918 4.22285 42.5716 4.49419 43.1656 4.86953C43.3155 4.96393 43.493 5.00459 43.669 4.98486C43.845 4.96513 44.0091 4.88617 44.1344 4.76094L44.8156 4.07969L45.9203 5.18438L45.2391 5.86562C45.1138 5.99102 45.0348 6.15531 45.0152 6.3315C44.9956 6.50768 45.0366 6.68529 45.1313 6.83516C45.5073 7.42897 45.7799 8.08224 45.9375 8.76719C45.9767 8.93917 46.0729 9.09284 46.2105 9.2032C46.348 9.31356 46.5189 9.37411 46.6953 9.375H47.6562V10.9375Z" fill="#00A499"/>
<path d="M39.8437 5.46875C38.9167 5.46875 38.0104 5.74367 37.2395 6.25874C36.4687 6.7738 35.8679 7.50589 35.5131 8.36242C35.1583 9.21895 35.0655 10.1614 35.2463 11.0707C35.4272 11.98 35.8736 12.8152 36.5292 13.4708C37.1847 14.1264 38.02 14.5728 38.9293 14.7537C39.8385 14.9345 40.781 14.8417 41.6376 14.4869C42.4941 14.1321 43.2262 13.5313 43.7413 12.7605C44.2563 11.9896 44.5312 11.0833 44.5312 10.1562C44.53 8.91343 44.0357 7.72186 43.1569 6.84306C42.2781 5.96425 41.0866 5.46999 39.8437 5.46875ZM39.8437 13.2812C39.2257 13.2812 38.6215 13.098 38.1076 12.7546C37.5937 12.4112 37.1932 11.9232 36.9566 11.3521C36.7201 10.7811 36.6582 10.1528 36.7788 9.54659C36.8994 8.9404 37.197 8.38358 37.634 7.94654C38.0711 7.5095 38.6279 7.21187 39.2341 7.09129C39.8403 6.97072 40.4686 7.0326 41.0396 7.26912C41.6107 7.50565 42.0987 7.90619 42.4421 8.42009C42.7855 8.93399 42.9687 9.53818 42.9687 10.1562C42.9687 10.985 42.6395 11.7799 42.0535 12.366C41.4674 12.952 40.6726 13.2812 39.8437 13.2812Z" fill="#00A499"/>
<path d="M5.46875 3.90625H7.8125V5.46875H5.46875V3.90625Z" fill="#00A499"/>
<path d="M3.90625 7.03125H11.7188V8.59375H3.90625V7.03125Z" fill="#00A499"/>
<path d="M3.90625 10.1562H11.7188V11.7188H3.90625V10.1562Z" fill="#00A499"/>
<path d="M3.90625 13.2812H10.1562V14.8438H3.90625V13.2812Z" fill="#00A499"/>
<path d="M5.46875 32.0312H7.8125V33.5938H5.46875V32.0312Z" fill="#00A499"/>
<path d="M3.90625 35.1562H11.7188V36.7188H3.90625V35.1562Z" fill="#00A499"/>
<path d="M3.90625 38.2812H11.7188V39.8438H3.90625V38.2812Z" fill="#00A499"/>
<path d="M3.90625 41.4062H11.7188V42.9688H3.90625V41.4062Z" fill="#00A499"/>
<path d="M22.4273 29.1352C22.2809 28.9886 22.0822 28.9063 21.875 28.9062H13.2812C13.074 28.9062 12.8753 28.9886 12.7288 29.1351C12.5823 29.2816 12.5 29.4803 12.5 29.6875V30.9266L10.7086 29.1352C10.5621 28.9886 10.3634 28.9063 10.1562 28.9062H7.03125V21.0938H8.63984C8.79072 22.482 9.3504 23.7941 10.2479 24.8639C11.1455 25.9336 12.3404 26.7127 13.6813 27.1025C15.0222 27.4923 16.4486 27.4751 17.7798 27.0532C19.1109 26.6313 20.2867 25.8236 21.1583 24.7326C22.0298 23.6415 22.5577 22.3163 22.6752 20.9248C22.7926 19.5334 22.4942 18.1384 21.8178 16.9168C21.1414 15.6951 20.1176 14.7018 18.876 14.0628C17.6344 13.4238 16.231 13.1678 14.8438 13.3273V5.46875C14.8437 5.26157 14.7614 5.06289 14.6148 4.91641L10.7086 1.01016C10.5621 0.863633 10.3634 0.781294 10.1562 0.78125H1.5625C1.3553 0.78125 1.15659 0.86356 1.01007 1.01007C0.86356 1.15659 0.78125 1.3553 0.78125 1.5625V20.3125C0.78125 20.5197 0.86356 20.7184 1.01007 20.8649C1.15659 21.0114 1.3553 21.0938 1.5625 21.0938H5.46875V28.9062H1.5625C1.3553 28.9062 1.15659 28.9886 1.01007 29.1351C0.86356 29.2816 0.78125 29.4803 0.78125 29.6875V48.4375C0.78125 48.6447 0.86356 48.8434 1.01007 48.9899C1.15659 49.1364 1.3553 49.2188 1.5625 49.2188H25.7812C25.9885 49.2188 26.1872 49.1364 26.3337 48.9899C26.4802 48.8434 26.5625 48.6447 26.5625 48.4375V33.5938C26.5625 33.3866 26.4801 33.1879 26.3336 33.0414L22.4273 29.1352ZM21.0938 20.3125C21.0938 21.3941 20.773 22.4514 20.1721 23.3508C19.5712 24.2501 18.7171 24.951 17.7178 25.365C16.7185 25.7789 15.6189 25.8872 14.5581 25.6762C13.4973 25.4652 12.5228 24.9443 11.758 24.1795C10.9932 23.4147 10.4723 22.4402 10.2613 21.3794C10.0503 20.3186 10.1586 19.219 10.5725 18.2197C10.9865 17.2204 11.6874 16.3663 12.5867 15.7654C13.4861 15.1645 14.5434 14.8438 15.625 14.8438C17.0749 14.8454 18.4649 15.4221 19.4902 16.4473C20.5154 17.4726 21.0921 18.8626 21.0938 20.3125ZM10.9375 3.44844L12.1766 4.6875H10.9375V3.44844ZM2.34375 2.34375H9.375V5.46875C9.375 5.67595 9.45731 5.87466 9.60382 6.02118C9.75034 6.16769 9.94905 6.25 10.1562 6.25H13.2812V13.6914C12.0384 14.1325 10.9444 14.9138 10.1238 15.9463C9.30321 16.9787 8.78905 18.2209 8.63984 19.5312H2.34375V2.34375ZM22.6562 31.5734L23.8953 32.8125H22.6562V31.5734ZM10.9375 31.5734L12.1766 32.8125H10.9375V31.5734ZM2.34375 47.6562V30.4688H9.375V33.5938C9.375 33.8009 9.45731 33.9997 9.60382 34.1462C9.75034 34.2927 9.94905 34.375 10.1562 34.375H13.2812V47.6562H2.34375ZM14.8438 47.6562V33.5938C14.8437 33.3866 14.7614 33.1879 14.6148 33.0414L14.0625 32.4891V30.4688H21.0938V33.5938C21.0938 33.8009 21.1761 33.9997 21.3226 34.1462C21.4691 34.2927 21.6678 34.375 21.875 34.375H25V47.6562H14.8438Z" fill="#00A499"/>
<path d="M17.1875 32.0312H19.5312V33.5938H17.1875V32.0312Z" fill="#00A499"/>
<path d="M15.625 35.1562H23.4375V36.7188H15.625V35.1562Z" fill="#00A499"/>
<path d="M15.625 38.2812H23.4375V39.8438H15.625V38.2812Z" fill="#00A499"/>
<path d="M15.625 41.4062H23.4375V42.9688H15.625V41.4062Z" fill="#00A499"/>
<path d="M15.625 21.0938H19.5312V19.5312H16.4062V17.1875H14.8438V20.3125C14.8438 20.5197 14.9261 20.7184 15.0726 20.8649C15.2191 21.0114 15.4178 21.0938 15.625 21.0938Z" fill="#00A499"/>
<path d="M23.9383 5.64987C23.8242 5.55462 23.6854 5.49388 23.538 5.47476C23.3907 5.45564 23.2409 5.47894 23.1063 5.54192C22.9718 5.60491 22.8579 5.70496 22.7782 5.83036C22.6985 5.95575 22.6562 6.10128 22.6562 6.24987V7.81237H17.1875C16.9803 7.81237 16.7816 7.89468 16.6351 8.04119C16.4886 8.18771 16.4062 8.38642 16.4062 8.59362V11.7186C16.4062 11.9258 16.4886 12.1245 16.6351 12.271C16.7816 12.4176 16.9803 12.4999 17.1875 12.4999H22.6562V14.0624C22.6562 14.211 22.6985 14.3565 22.7782 14.4819C22.8579 14.6073 22.9718 14.7073 23.1063 14.7703C23.2409 14.8333 23.3907 14.8566 23.538 14.8375C23.6854 14.8184 23.8242 14.7576 23.9383 14.6624L28.6258 10.7561C28.7137 10.6828 28.7844 10.5911 28.833 10.4874C28.8815 10.3837 28.9067 10.2706 28.9067 10.1561C28.9067 10.0416 28.8815 9.92855 28.833 9.82487C28.7844 9.72119 28.7137 9.62944 28.6258 9.55612L23.9383 5.64987ZM24.2188 12.3944V11.7186C24.2188 11.5114 24.1364 11.3127 23.9899 11.1662C23.8434 11.0197 23.6447 10.9374 23.4375 10.9374H17.9688V9.37487H23.4375C23.6447 9.37487 23.8434 9.29256 23.9899 9.14605C24.1364 8.99954 24.2188 8.80082 24.2188 8.59362V7.91784L26.9047 10.1561L24.2188 12.3944Z" fill="#00A499"/>
<path d="M41.4061 20.3125H38.2811C38.0739 20.3125 37.8752 20.3948 37.7287 20.5413C37.5822 20.6878 37.4999 20.8865 37.4999 21.0938V25H35.9374C35.7889 24.9999 35.6434 25.0421 35.518 25.1218C35.3927 25.2014 35.2926 25.3151 35.2295 25.4496C35.1665 25.584 35.1431 25.7337 35.162 25.881C35.181 26.0283 35.2415 26.1671 35.3366 26.2812L39.2428 30.9688C39.3162 31.0569 39.408 31.1279 39.5118 31.1766C39.6157 31.2253 39.7289 31.2506 39.8436 31.2506C39.9583 31.2506 40.0716 31.2253 40.1754 31.1766C40.2793 31.1279 40.3711 31.0569 40.4444 30.9688L44.3507 26.2812C44.4457 26.1671 44.5063 26.0283 44.5252 25.881C44.5442 25.7337 44.5208 25.584 44.4577 25.4496C44.3947 25.3151 44.2946 25.2014 44.1692 25.1218C44.0439 25.0421 43.8984 24.9999 43.7499 25H42.1874V21.0938C42.1874 20.8865 42.1051 20.6878 41.9586 20.5413C41.812 20.3948 41.6133 20.3125 41.4061 20.3125ZM39.8436 29.2484L37.6053 26.5625H38.2811C38.4883 26.5625 38.687 26.4802 38.8336 26.3337C38.9801 26.1872 39.0624 25.9885 39.0624 25.7812V21.875H40.6249V25.7812C40.6249 25.9885 40.7072 26.1872 40.8537 26.3337C41.0002 26.4802 41.1989 26.5625 41.4061 26.5625H42.0819L39.8436 29.2484Z" fill="#00A499"/>
<path d="M39.8437 32.0312C38.1441 32.0312 36.4826 32.5353 35.0693 33.4796C33.6561 34.4239 32.5546 35.766 31.9042 37.3363C31.2537 38.9066 31.0835 40.6345 31.4151 42.3015C31.7467 43.9686 32.5652 45.4998 33.7671 46.7017C34.9689 47.9035 36.5002 48.722 38.1672 49.0536C39.8342 49.3852 41.5621 49.215 43.1324 48.5646C44.7027 47.9141 46.0449 46.8127 46.9892 45.3994C47.9335 43.9862 48.4375 42.3247 48.4375 40.625C48.4348 38.3466 47.5285 36.1623 45.9175 34.5513C44.3064 32.9402 42.1221 32.0339 39.8437 32.0312ZM39.8437 47.6562C38.4531 47.6562 37.0937 47.2439 35.9374 46.4713C34.7811 45.6987 33.8799 44.6005 33.3477 43.3157C32.8155 42.0309 32.6763 40.6172 32.9476 39.2533C33.2189 37.8893 33.8886 36.6365 34.8719 35.6532C35.8552 34.6698 37.1081 34.0002 38.472 33.7289C39.8359 33.4575 41.2497 33.5968 42.5345 34.129C43.8193 34.6611 44.9174 35.5624 45.69 36.7186C46.4626 37.8749 46.875 39.2343 46.875 40.625C46.8729 42.4892 46.1315 44.2764 44.8133 45.5946C43.4951 46.9127 41.7079 47.6542 39.8437 47.6562Z" fill="#00A499"/>
<path d="M41.6351 36.1665L38.2812 39.5204L37.271 38.5102C37.1245 38.3638 36.9259 38.2815 36.7187 38.2815C36.5115 38.2815 36.3129 38.3638 36.1664 38.5102L33.8226 40.854C33.6761 41.0005 33.5939 41.1992 33.5939 41.4063C33.5939 41.6135 33.6761 41.8122 33.8226 41.9587L37.7289 45.8649C37.8754 46.0114 38.074 46.0937 38.2812 46.0937C38.4884 46.0937 38.687 46.0114 38.8335 45.8649L45.0835 39.6149C45.23 39.4684 45.3123 39.2697 45.3123 39.0626C45.3123 38.8554 45.23 38.6567 45.0835 38.5102L42.7398 36.1665C42.5933 36.02 42.3946 35.9377 42.1875 35.9377C41.9803 35.9377 41.7816 36.02 41.6351 36.1665ZM38.2812 44.2079L35.4796 41.4063L36.7187 40.1673L37.7289 41.1774C37.8754 41.3239 38.074 41.4062 38.2812 41.4062C38.4884 41.4062 38.687 41.3239 38.8335 41.1774L42.1875 37.8235L43.4265 39.0626L38.2812 44.2079Z" fill="#00A499"/>
</svg>
