<svg width="60" height="60" viewBox="0 0 60 60" fill="none" xmlns="http://www.w3.org/2000/svg">
<path d="M6.5625 18.75H4.6875C4.6875 21.3347 6.79031 23.4375 9.375 23.4375V21.5625C7.82437 21.5625 6.5625 20.3006 6.5625 18.75Z" fill="#FF6900"/>
<path d="M13.9836 10.8741L15.7011 11.625C17.0455 8.55 20.0821 6.5625 23.4374 6.5625C24.6111 6.5625 25.7465 6.79875 26.8124 7.26469L27.5624 5.54625C26.2593 4.97625 24.8708 4.6875 23.4374 4.6875C19.3368 4.6875 15.6252 7.11563 13.9836 10.8741Z" fill="#FF6900"/>
<path d="M56.9053 40.9097C56.6184 40.8366 56.3775 40.6284 56.2547 40.3313C56.1366 40.0509 56.1572 39.7303 56.3213 39.4547C56.9841 38.34 56.8069 36.9197 55.8891 36.0019L53.9972 34.11C53.0794 33.1922 51.6609 33.0159 50.5256 33.6891C50.2697 33.8428 49.9463 33.8625 49.6481 33.7369C49.3706 33.6216 49.1616 33.3806 49.0828 33.0722C48.7641 31.8159 47.6353 30.9375 46.3378 30.9375H43.6622C42.3647 30.9375 41.2359 31.8159 40.9097 33.0947C40.8366 33.3816 40.6275 33.6225 40.3322 33.7453C40.0528 33.8634 39.7284 33.8428 39.4537 33.6787C38.34 33.015 36.9188 33.1922 36.0009 34.11L34.1091 36.0019C33.1912 36.9197 33.0141 38.3391 33.6881 39.4734C33.8409 39.7303 33.8625 40.0509 33.7359 40.3519C33.6206 40.6284 33.3797 40.8375 33.0722 40.9163C31.8159 41.235 30.9375 42.3647 30.9375 43.6622V46.3378C30.9375 47.6353 31.8159 48.7641 33.0947 49.0903C33.3825 49.1634 33.6225 49.3725 33.7453 49.6687C33.8634 49.9491 33.8428 50.2697 33.6787 50.5453C33.0159 51.66 33.1931 53.0803 34.1109 53.9981L36.0028 55.89C36.9216 56.8078 38.34 56.985 39.4744 56.3109C39.7294 56.1572 40.0528 56.1375 40.3519 56.2631C40.6294 56.3784 40.8384 56.6194 40.9172 56.9278C41.2359 58.1841 42.3647 59.0625 43.6622 59.0625H46.3378C47.6353 59.0625 48.7641 58.1841 49.0903 56.9053C49.1634 56.6184 49.3725 56.3775 49.6678 56.2547C49.9481 56.1366 50.2706 56.1572 50.5462 56.3213C51.66 56.985 53.0812 56.8069 53.9991 55.89L55.8909 53.9981C56.8088 53.0803 56.9859 51.6609 56.3119 50.5266C56.1591 50.2697 56.1375 49.9491 56.2631 49.6491C56.3784 49.3716 56.6194 49.1625 56.9278 49.0837C58.1841 48.765 59.0625 47.6353 59.0625 46.3378V43.6622C59.0625 42.3647 58.1841 41.235 56.9053 40.9097ZM57.1875 46.3378C57.1875 46.7766 56.8903 47.1591 56.4441 47.2725C55.5891 47.4891 54.8737 48.1078 54.5259 48.9403C54.1781 49.7672 54.2428 50.7178 54.7097 51.5034C54.9337 51.8803 54.8738 52.3612 54.5634 52.6716L52.6716 54.5634C52.3603 54.8756 51.8784 54.9338 51.4847 54.6984C50.7188 54.2428 49.7681 54.1772 48.9253 54.5316C48.1078 54.8728 47.49 55.5881 47.2669 56.4638C47.1591 56.8903 46.7766 57.1875 46.3378 57.1875H43.6622C43.2234 57.1875 42.8409 56.8903 42.7266 56.4441C42.51 55.5881 41.8912 54.8738 41.0578 54.525C40.7081 54.3787 40.335 54.3056 39.9637 54.3056C39.4566 54.3056 38.9484 54.4416 38.4975 54.7106C38.1197 54.9347 37.6397 54.8756 37.3284 54.5644L35.4366 52.6725C35.1262 52.3612 35.0653 51.8812 35.3006 51.4856C35.7562 50.7197 35.8219 49.7681 35.4684 48.9272C35.1263 48.1087 34.4109 47.4909 33.5344 47.2678C33.1097 47.1591 32.8125 46.7775 32.8125 46.3378V43.6622C32.8125 43.2234 33.1097 42.8409 33.5559 42.7275C34.4119 42.51 35.1272 41.8913 35.4741 41.0597C35.8219 40.2328 35.7572 39.2822 35.2903 38.4966C35.0663 38.1197 35.1262 37.6388 35.4366 37.3284L37.3284 35.4366C37.6406 35.1262 38.1225 35.0681 38.5153 35.3016C39.2812 35.7581 40.2319 35.8219 41.0747 35.4684C41.8922 35.1272 42.51 34.4119 42.7331 33.5362C42.8409 33.1097 43.2234 32.8125 43.6622 32.8125H46.3378C46.7766 32.8125 47.1591 33.1097 47.2734 33.5559C47.49 34.4119 48.1088 35.1263 48.9422 35.475C49.7691 35.8209 50.7206 35.7563 51.5025 35.2903C51.8813 35.0663 52.3622 35.1272 52.6716 35.4366L54.5634 37.3284C54.8738 37.6397 54.9347 38.1197 54.6994 38.5153C54.2438 39.2812 54.1781 40.2328 54.5325 41.0738C54.8728 41.8922 55.5881 42.5109 56.4656 42.7341C56.8903 42.8409 57.1875 43.2225 57.1875 43.6622V46.3378Z" fill="#FF6900"/>
<path d="M45 36.5625C40.3472 36.5625 36.5625 40.3481 36.5625 45C36.5625 49.6519 40.3472 53.4375 45 53.4375C49.6528 53.4375 53.4375 49.6519 53.4375 45C53.4375 40.3481 49.6528 36.5625 45 36.5625ZM45 51.5625C41.3822 51.5625 38.4375 48.6187 38.4375 45C38.4375 41.3812 41.3822 38.4375 45 38.4375C48.6178 38.4375 51.5625 41.3812 51.5625 45C51.5625 48.6187 48.6178 51.5625 45 51.5625Z" fill="#FF6900"/>
<path d="M45 40.3125C42.4153 40.3125 40.3125 42.4153 40.3125 45C40.3125 47.5847 42.4153 49.6875 45 49.6875C47.5847 49.6875 49.6875 47.5847 49.6875 45C49.6875 42.4153 47.5847 40.3125 45 40.3125ZM45 47.8125C43.4494 47.8125 42.1875 46.5506 42.1875 45C42.1875 43.4494 43.4494 42.1875 45 42.1875C46.5506 42.1875 47.8125 43.4494 47.8125 45C47.8125 46.5506 46.5506 47.8125 45 47.8125Z" fill="#FF6900"/>
<path d="M23.4375 14.0625H30.9375V15.9375H23.4375V14.0625Z" fill="#FF6900"/>
<path d="M23.4375 17.8125H30.9375V19.6875H23.4375V17.8125Z" fill="#FF6900"/>
<path d="M23.4375 21.5625H30.9375V23.4375H23.4375V21.5625Z" fill="#FF6900"/>
<path d="M23.4375 25.3125H30.9375V27.1875H23.4375V25.3125Z" fill="#FF6900"/>
<path d="M15.9375 29.0625H0.9375V49.6875H15.9375V44.0625H29.0625V42.1875H15.9375V29.0625ZM14.0625 47.8125H2.8125V30.9375H14.0625V47.8125Z" fill="#FF6900"/>
<path d="M4.6875 32.8125H12.1875V34.6875H4.6875V32.8125Z" fill="#FF6900"/>
<path d="M4.6875 36.5625H12.1875V38.4375H4.6875V36.5625Z" fill="#FF6900"/>
<path d="M4.6875 40.3125H12.1875V42.1875H4.6875V40.3125Z" fill="#FF6900"/>
<path d="M4.6875 44.0625H12.1875V45.9375H4.6875V44.0625Z" fill="#FF6900"/>
<path d="M22.5 51.6956C20.8866 52.1147 19.6875 53.5706 19.6875 55.3125C19.6875 57.3806 21.3694 59.0625 23.4375 59.0625C25.5056 59.0625 27.1875 57.3806 27.1875 55.3125C27.1875 53.5706 25.9884 52.1147 24.375 51.6956V47.8125H29.0625V45.9375H22.5V51.6956ZM25.3125 55.3125C25.3125 56.3466 24.4716 57.1875 23.4375 57.1875C22.4034 57.1875 21.5625 56.3466 21.5625 55.3125C21.5625 54.2784 22.4034 53.4375 23.4375 53.4375C24.4716 53.4375 25.3125 54.2784 25.3125 55.3125Z" fill="#FF6900"/>
<path d="M25.3125 30.9375H34.6875V27.1875H51.5625C55.6978 27.1875 59.0625 23.8228 59.0625 19.6875C59.0625 15.5522 55.6978 12.1875 51.5625 12.1875C51.0488 12.1875 50.5359 12.2419 50.0287 12.3497C48.5044 7.79344 44.2528 4.6875 39.375 4.6875C37.5703 4.6875 35.7956 5.12625 34.1934 5.96156C31.5103 2.75813 27.6356 0.9375 23.4375 0.9375C17.4722 0.9375 12.1312 4.76906 10.1747 10.3519C5.19375 9.87656 0.9375 13.8337 0.9375 18.75C0.9375 23.4019 4.72219 27.1875 9.375 27.1875H19.6875V30.9375H23.4375V40.3125H29.0625V38.4375H25.3125V30.9375ZM19.6875 25.3125H9.375C5.75719 25.3125 2.8125 22.3687 2.8125 18.75C2.8125 14.7141 6.52875 11.505 10.6453 12.3131L11.49 12.4781L11.7272 11.6503C13.2141 6.44719 18.0291 2.8125 23.4375 2.8125C27.315 2.8125 30.8747 4.60688 33.2053 7.73531L33.72 8.42531L34.4513 7.9725C35.9381 7.05 37.6406 6.5625 39.375 6.5625C43.71 6.5625 47.4525 9.50719 48.4753 13.7231L48.72 14.73L49.6978 14.3859C50.3091 14.1713 50.9362 14.0625 51.5625 14.0625C54.6647 14.0625 57.1875 16.5853 57.1875 19.6875C57.1875 22.7897 54.6647 25.3125 51.5625 25.3125H34.6875V10.3125H19.6875V25.3125ZM21.5625 29.0625V12.1875H32.8125V29.0625H21.5625Z" fill="#FF6900"/>
<path d="M53.4375 19.6875H55.3125C55.3125 17.6194 53.6306 15.9375 51.5625 15.9375V17.8125C52.5966 17.8125 53.4375 18.6534 53.4375 19.6875Z" fill="#FF6900"/>
<path d="M44.7675 14.3297L46.5638 13.7953C45.6253 10.6406 42.6694 8.4375 39.375 8.4375V10.3125C41.8463 10.3125 44.0634 11.9644 44.7675 14.3297Z" fill="#FF6900"/>
<path d="M44.0625 21.5625H45.9375V23.4375H44.0625V21.5625Z" fill="#FF6900"/>
<path d="M40.3125 21.5625H42.1875V23.4375H40.3125V21.5625Z" fill="#FF6900"/>
<path d="M36.5625 21.5625H38.4375V23.4375H36.5625V21.5625Z" fill="#FF6900"/>
</svg>
