<svg width="50" height="50" viewBox="0 0 50 50" fill="none" xmlns="http://www.w3.org/2000/svg">
<g clip-path="url(#clip0)">
<path d="M39.6894 12.1661V12.3134C39.6894 12.7179 40.0172 13.0459 40.4218 13.0459C40.8264 13.0459 41.1542 12.7179 41.1542 12.3134V12.1661C41.1542 11.6492 40.9711 11.1469 40.6386 10.7518C40.3781 10.4424 39.9161 10.4025 39.6066 10.6629C39.2972 10.9234 39.2574 11.3854 39.5179 11.695C39.596 11.788 39.6894 11.9453 39.6894 12.1661Z" fill="#00A499"/>
<path d="M40.422 17.6357C40.0174 17.6357 39.6896 17.9637 39.6896 18.3682V19.54C39.6896 19.9445 40.0174 20.2725 40.422 20.2725C40.8266 20.2725 41.1544 19.9445 41.1544 19.54V18.3682C41.1544 17.9637 40.8266 17.6357 40.422 17.6357Z" fill="#00A499"/>
<path d="M41.1544 14.7549C41.1544 14.3504 40.8266 14.0225 40.422 14.0225C40.0174 14.0225 39.6896 14.3504 39.6896 14.7549V15.9268C39.6896 16.3312 40.0174 16.6592 40.422 16.6592C40.8266 16.6592 41.1544 16.3312 41.1544 15.9268V14.7549Z" fill="#00A499"/>
<path d="M28.5156 45.2534H27.3438C26.9392 45.2534 26.6113 45.5813 26.6113 45.9858C26.6113 46.3903 26.9392 46.7183 27.3438 46.7183H28.5156C28.9202 46.7183 29.248 46.3903 29.248 45.9858C29.248 45.5813 28.9202 45.2534 28.5156 45.2534Z" fill="#00A499"/>
<path d="M24.9023 45.2534H23.7305C23.326 45.2534 22.998 45.5813 22.998 45.9858C22.998 46.3903 23.326 46.7183 23.7305 46.7183H24.9023C25.3069 46.7183 25.6348 46.3903 25.6348 45.9858C25.6348 45.5813 25.3069 45.2534 24.9023 45.2534Z" fill="#00A499"/>
<path d="M21.2891 45.2534H20.1172C19.7127 45.2534 19.3848 45.5813 19.3848 45.9858C19.3848 46.3903 19.7127 46.7183 20.1172 46.7183H21.2891C21.6936 46.7183 22.0215 46.3903 22.0215 45.9858C22.0215 45.5813 21.6936 45.2534 21.2891 45.2534Z" fill="#00A499"/>
<path d="M17.6758 45.2534H16.5039C16.0994 45.2534 15.7715 45.5813 15.7715 45.9858C15.7715 46.3903 16.0994 46.7183 16.5039 46.7183H17.6758C18.0803 46.7183 18.4082 46.3903 18.4082 45.9858C18.4082 45.5813 18.0803 45.2534 17.6758 45.2534Z" fill="#00A499"/>
<path d="M14.3657 45.1954C14.1844 45.1182 14.0397 44.9686 13.9688 44.7849C13.8228 44.4075 13.3987 44.2201 13.0215 44.3658C12.6443 44.5117 12.4566 44.9357 12.6025 45.3131C12.8152 45.8633 13.2485 46.3115 13.7912 46.5429C13.8849 46.5828 13.9823 46.6018 14.0781 46.6018C14.3628 46.6018 14.6336 46.4348 14.7523 46.1564C14.9109 45.7842 14.7378 45.354 14.3657 45.1954Z" fill="#00A499"/>
<path d="M13.1875 43.3523C13.592 43.3523 13.9199 43.0244 13.9199 42.6199V41.448C13.9199 41.0435 13.592 40.7156 13.1875 40.7156C12.783 40.7156 12.4551 41.0435 12.4551 41.448V42.6199C12.4551 43.0245 12.783 43.3523 13.1875 43.3523Z" fill="#00A499"/>
<path d="M16.5251 16.8208H6.36707C5.96257 16.8208 5.63464 17.1487 5.63464 17.5532C5.63464 17.9577 5.96257 18.2856 6.36707 18.2856H16.5251C16.9296 18.2856 17.2575 17.9577 17.2575 17.5532C17.2575 17.1487 16.9296 16.8208 16.5251 16.8208Z" fill="#00A499"/>
<path d="M16.5251 20.3694H6.36707C5.96257 20.3694 5.63464 20.6973 5.63464 21.1018C5.63464 21.5063 5.96257 21.8342 6.36707 21.8342H16.5251C16.9296 21.8342 17.2575 21.5063 17.2575 21.1018C17.2575 20.6973 16.9296 20.3694 16.5251 20.3694Z" fill="#00A499"/>
<path d="M16.5251 23.9021H6.36707C5.96257 23.9021 5.63464 24.23 5.63464 24.6345C5.63464 25.039 5.96257 25.367 6.36707 25.367H16.5251C16.9296 25.367 17.2575 25.039 17.2575 24.6345C17.2575 24.23 16.9296 23.9021 16.5251 23.9021Z" fill="#00A499"/>
<path d="M17.2575 28.199C17.2575 27.7945 16.9296 27.4666 16.5251 27.4666H6.36707C5.96257 27.4666 5.63464 27.7945 5.63464 28.199C5.63464 28.6035 5.96257 28.9314 6.36707 28.9314H16.5251C16.9296 28.9314 17.2575 28.6035 17.2575 28.199Z" fill="#00A499"/>
<path d="M6.36707 31.0149C5.96257 31.0149 5.63464 31.3428 5.63464 31.7473C5.63464 32.1518 5.96257 32.4797 6.36707 32.4797H10.9207C11.3252 32.4797 11.6531 32.1518 11.6531 31.7473C11.6531 31.3428 11.3252 31.0149 10.9207 31.0149H6.36707Z" fill="#00A499"/>
<path d="M21.2588 38.647C21.4017 38.79 21.5892 38.8616 21.7766 38.8616C21.964 38.8616 22.1515 38.7901 22.2945 38.647L25.2511 35.6905C25.5371 35.4044 25.5371 34.9406 25.2511 34.6547C24.9649 34.3687 24.5013 34.3687 24.2153 34.6547L21.7766 37.0934L20.0667 35.3834C19.7806 35.0974 19.3169 35.0974 19.0309 35.3834C18.7449 35.6695 18.7449 36.1332 19.0309 36.4192L21.2588 38.647Z" fill="#00A499"/>
<path d="M32.9107 19.1352C33.5914 18.6024 34.2067 17.9871 34.7397 17.3061C35.141 16.7933 35.095 16.058 34.6327 15.5957L33.2977 14.2607C33.4727 13.9142 33.6222 13.5531 33.7434 13.1839H35.6322C36.2861 13.1839 36.8387 12.6966 36.9173 12.0503C36.9421 11.8461 36.9607 11.6401 36.9737 11.4337H37.793C38.1976 11.4337 38.5254 11.1058 38.5254 10.7013C38.5254 10.2968 38.1976 9.9689 37.793 9.9689H36.9655C36.953 9.79966 36.9378 9.63081 36.9175 9.46323C36.8388 8.81694 36.2863 8.32964 35.6324 8.32964H33.7436C33.6225 7.96069 33.4729 7.59956 33.2979 7.25288L34.6329 5.91782C35.0952 5.45542 35.1412 4.72007 34.7399 4.20737C34.207 3.52661 33.5916 2.91128 32.9109 2.37837C32.3981 1.9769 31.6628 2.02271 31.2005 2.4853L29.8653 3.82026C29.519 3.64526 29.1579 3.49575 28.7887 3.37456V1.48569C28.7887 0.831787 28.3014 0.279248 27.6552 0.200635C26.801 0.0965332 25.9224 0.0965332 25.068 0.200635C24.4217 0.279346 23.9344 0.831689 23.9344 1.48569V3.37446C23.5652 3.49565 23.204 3.64517 22.8576 3.82026L21.5227 2.4853C21.0603 2.0228 20.3248 1.97681 19.8122 2.37817C19.1313 2.91108 18.516 3.52642 17.9832 4.20718C17.5817 4.71997 17.6277 5.45532 18.0901 5.91773L19.4251 7.25269C19.2501 7.59907 19.1005 7.9604 18.9793 8.32944H17.0905C16.4366 8.32944 15.8842 8.81675 15.8055 9.46294C15.7851 9.63052 15.7697 9.79937 15.7573 9.9687H5.48603C5.02959 9.9687 4.60039 10.1464 4.27754 10.4693L0.500488 14.2465C0.177734 14.5693 0 14.9984 0 15.4549V36.5621C0 37.5043 0.766699 38.271 1.70898 38.271H12.4551V39.0067C12.4551 39.4112 12.783 39.7391 13.1875 39.7391C13.592 39.7391 13.9199 39.4112 13.9199 39.0067V38.271H15.9196C16.6896 40.9826 19.1861 42.9752 22.141 42.9752C25.7074 42.9752 28.6088 40.0737 28.6088 36.5074C28.6088 33.1953 26.1058 30.4583 22.8922 30.0846V26.7579C22.8922 26.3534 22.5643 26.0254 22.1598 26.0254C21.7553 26.0254 21.4273 26.3534 21.4273 26.7579V30.0798C18.1956 30.4363 15.6731 33.1823 15.6731 36.5074C15.6731 36.6076 15.6762 36.7071 15.6808 36.8063H1.70898C1.57441 36.8063 1.46484 36.6967 1.46484 36.5622V15.4549C1.46484 15.3907 1.49092 15.3278 1.53633 15.2823L5.31338 11.5052C5.35957 11.4591 5.4208 11.4337 5.48603 11.4337H15.7486C15.7617 11.6402 15.7804 11.8462 15.8052 12.0503C15.8839 12.6966 16.4362 13.1839 17.0902 13.1839H18.979C19.1002 13.5531 19.2497 13.9143 19.4248 14.2607L18.0898 15.5957C17.6274 16.058 17.5813 16.7934 17.9828 17.3062C18.5158 17.9871 19.1312 18.6024 19.8118 19.1352C20.2907 19.51 20.9639 19.4944 21.4272 19.1139V23.3398C21.4272 23.7443 21.7552 24.0722 22.1597 24.0722C22.5642 24.0722 22.8921 23.7443 22.8921 23.3398V17.71C23.228 17.8777 23.5772 18.0218 23.934 18.1389V20.0277C23.934 20.6816 24.4213 21.2341 25.0676 21.3128C25.4948 21.3648 25.9302 21.3912 26.3611 21.3912C26.7922 21.3912 27.2274 21.3648 27.6547 21.3127C28.301 21.2341 28.7883 20.6816 28.7883 20.0277V18.1389C29.1574 18.0177 29.5187 17.8682 29.865 17.6932L31.2 19.0282C31.6627 19.4905 32.3979 19.5365 32.9107 19.1352ZM22.141 31.5043C24.8997 31.5043 27.1439 33.7486 27.1439 36.5072C27.1439 39.2658 24.8996 41.5101 22.141 41.5101C19.3824 41.5101 17.1381 39.2658 17.1381 36.5072C17.1381 33.7486 19.3823 31.5043 22.141 31.5043ZM29.2908 16.3413C28.9551 16.5175 28.6011 16.6641 28.2385 16.7768C27.6912 16.947 27.3236 17.444 27.3236 18.0135V19.876C26.6858 19.9427 26.037 19.9427 25.399 19.876V18.0135C25.399 17.444 25.0313 16.947 24.484 16.7767C24.1215 16.664 23.7674 16.5175 23.4317 16.3412C22.9243 16.0747 22.3128 16.1661 21.9101 16.5687L20.5937 17.8851C20.0942 17.4804 19.6375 17.0237 19.2327 16.5242L20.549 15.2078C20.9518 14.805 21.0432 14.1936 20.7767 13.6862C20.6004 13.3505 20.4538 12.9965 20.341 12.6338C20.1708 12.0866 19.6737 11.7189 19.1043 11.7189H17.2418C17.2085 11.4 17.1916 11.077 17.1916 10.7566C17.1916 10.4362 17.2085 10.1132 17.2418 9.79429H19.1043C19.6738 9.79429 20.1708 9.42661 20.341 8.87935C20.4538 8.51675 20.6004 8.16265 20.7766 7.8271C21.0432 7.31958 20.9517 6.70815 20.549 6.30542L19.2327 4.98901C19.6374 4.4896 20.0941 4.03276 20.5937 3.62808L21.9101 4.94439C22.3127 5.34702 22.9241 5.43853 23.4317 5.17202C23.7674 4.99575 24.1215 4.84917 24.484 4.73638C25.0312 4.56626 25.399 4.06919 25.399 3.49966V1.63726C26.0366 1.57056 26.6858 1.57056 27.3236 1.63726V3.49976C27.3236 4.06939 27.6914 4.56636 28.2385 4.73647C28.6012 4.84927 28.9553 4.99585 29.2908 5.17212C29.7983 5.43862 30.41 5.34712 30.8124 4.94448L32.1289 3.62827C32.6283 4.03296 33.0852 4.4897 33.4898 4.98921L32.1735 6.30562C32.1734 6.30562 32.1734 6.30562 32.1734 6.30562C31.7707 6.70835 31.6793 7.31987 31.9459 7.8272C32.1224 8.16314 32.2689 8.51724 32.3815 8.87944C32.5516 9.42681 33.0486 9.79458 33.6183 9.79458H35.4808C35.5142 10.1137 35.5311 10.4368 35.5311 10.7569C35.5311 11.077 35.5142 11.4 35.4808 11.7192H33.6182C33.0484 11.7192 32.5515 12.087 32.3815 12.6341C32.2687 12.9966 32.1222 13.3507 31.946 13.6864C31.6793 14.1938 31.7707 14.8053 32.1733 15.2082L33.4897 16.5246C33.085 17.0241 32.6282 17.4808 32.1288 17.8855L30.8125 16.5691C30.4099 16.1662 29.7984 16.0748 29.2908 16.3413Z" fill="#00A499"/>
<path d="M30.1235 8.28926C29.7537 8.45332 29.587 8.88603 29.7511 9.25576C29.9618 9.73066 30.0687 10.2356 30.0687 10.7566C30.0687 12.8009 28.4056 14.464 26.3612 14.464C24.317 14.464 22.6539 12.8009 22.6539 10.7566C22.6539 8.7124 24.317 7.04932 26.3612 7.04932C26.8136 7.04932 27.2569 7.13066 27.6787 7.29111C28.0567 7.43457 28.4798 7.24502 28.6236 6.86689C28.7675 6.48877 28.5776 6.06572 28.1994 5.92197C27.6107 5.69805 26.9922 5.58447 26.3612 5.58447C23.5093 5.58447 21.1891 7.90469 21.1891 10.7566C21.1891 13.6086 23.5093 15.9288 26.3612 15.9288C29.2132 15.9288 31.5335 13.6086 31.5335 10.7566C31.5335 10.0297 31.3843 9.3248 31.0901 8.66162C30.926 8.29189 30.4931 8.12529 30.1235 8.28926Z" fill="#00A499"/>
<path d="M26.3612 8.48291C25.1074 8.48291 24.0874 9.50293 24.0874 10.7567C24.0874 12.0105 25.1074 13.0306 26.3612 13.0306C27.615 13.0306 28.6351 12.0105 28.6351 10.7567C28.6351 9.50293 27.615 8.48291 26.3612 8.48291ZM26.3612 11.5657C25.9151 11.5657 25.5522 11.2028 25.5522 10.7567C25.5522 10.3106 25.9151 9.94775 26.3612 9.94775C26.8073 9.94775 27.1702 10.3106 27.1702 10.7567C27.1702 11.2028 26.8074 11.5657 26.3612 11.5657Z" fill="#00A499"/>
<path d="M48.7793 31.3737C49.4524 31.3737 50 30.8262 50 30.153V24.8112C50 24.1381 49.4524 23.5905 48.7793 23.5905H41.0085C41.0997 23.4685 41.1543 23.3174 41.1543 23.1533V21.9814C41.1543 21.577 40.8265 21.249 40.4219 21.249C40.0173 21.249 39.6895 21.577 39.6895 21.9814V23.1533C39.6895 23.3174 39.744 23.4685 39.8353 23.5905H32.0645C31.3913 23.5905 30.8437 24.1381 30.8437 24.8112V30.153C30.8437 30.8262 31.3913 31.3737 32.0645 31.3737H39.6895V32.8424H32.0645C31.3913 32.8424 30.8437 33.3899 30.8437 34.0631V39.4049C30.8437 40.078 31.3913 40.6256 32.0645 40.6256H39.6895V42.0943H32.0645C31.3913 42.0943 30.8437 42.6419 30.8437 43.315V45.2632C30.4932 45.3178 30.2246 45.6201 30.2246 45.9859C30.2246 46.3518 30.4932 46.6541 30.8437 46.7087V48.6568C30.8437 49.33 31.3913 49.8775 32.0645 49.8775H48.7793C49.4524 49.8775 50 49.33 50 48.6568V43.315C50 42.6419 49.4524 42.0943 48.7793 42.0943H41.1543V40.6256H43.0664C43.471 40.6256 43.7988 40.2977 43.7988 39.8932C43.7988 39.4887 43.471 39.1607 43.0664 39.1607H32.3086V34.3072H48.5352V39.1607H46.4844C46.0798 39.1607 45.752 39.4887 45.752 39.8932C45.752 40.2977 46.0798 40.6256 46.4844 40.6256H48.7793C49.4524 40.6256 50 40.078 50 39.4049V34.0631C50 33.3899 49.4524 32.8424 48.7793 32.8424H41.1543V31.3737H48.7793ZM48.5352 43.5592V48.4127H32.3086V43.5592H48.5352ZM32.3086 29.9089V25.0554H48.5352V29.9089H32.3086Z" fill="#00A499"/>
<path d="M45.7925 26.7498H35.0513C34.6467 26.7498 34.3188 27.0777 34.3188 27.4822C34.3188 27.8867 34.6467 28.2146 35.0513 28.2146H45.7925C46.1971 28.2146 46.5249 27.8867 46.5249 27.4822C46.5249 27.0777 46.1971 26.7498 45.7925 26.7498Z" fill="#00A499"/>
<path d="M46.5249 36.7341C46.5249 36.3296 46.1971 36.0017 45.7925 36.0017H35.0513C34.6467 36.0017 34.3188 36.3296 34.3188 36.7341C34.3188 37.1386 34.6467 37.4666 35.0513 37.4666H45.7925C46.1971 37.4666 46.5249 37.1386 46.5249 36.7341Z" fill="#00A499"/>
<path d="M35.0513 46.7183H45.7925C46.1971 46.7183 46.5249 46.3903 46.5249 45.9858C46.5249 45.5813 46.1971 45.2534 45.7925 45.2534H35.0513C34.6467 45.2534 34.3188 45.5813 34.3188 45.9858C34.3188 46.3903 34.6467 46.7183 35.0513 46.7183Z" fill="#00A499"/>
</g>
<defs>
<clipPath id="clip0">
<rect width="50" height="50" fill="white"/>
</clipPath>
</defs>
</svg>
