<svg width="60" height="60" viewBox="0 0 60 60" fill="none" xmlns="http://www.w3.org/2000/svg">
<path d="M45.9375 15H47.8125C47.8098 12.5144 46.8212 10.1315 45.0636 8.37389C43.306 6.61633 40.9231 5.62773 38.4375 5.625V7.5C40.4259 7.50223 42.3323 8.29313 43.7383 9.69917C45.1444 11.1052 45.9353 13.0116 45.9375 15Z" fill="#FF6900"/>
<path d="M18.75 12.1875C17.0101 12.1895 15.3421 12.8815 14.1118 14.1118C12.8815 15.3421 12.1895 17.0101 12.1875 18.75H14.0625C14.064 17.5073 14.5583 16.3158 15.4371 15.4371C16.3158 14.5583 17.5073 14.064 18.75 14.0625V12.1875Z" fill="#FF6900"/>
<path d="M52.5 29.0625H54.375C54.375 28.0679 53.9799 27.1141 53.2766 26.4109C52.5734 25.7076 51.6196 25.3125 50.625 25.3125V27.1875C51.1223 27.1875 51.5992 27.385 51.9508 27.7367C52.3025 28.0883 52.5 28.5652 52.5 29.0625Z" fill="#FF6900"/>
<path d="M54.375 41.25C53.546 41.2531 52.7415 41.5308 52.0871 42.0397C51.4327 42.5485 50.9654 43.2599 50.7581 44.0625H48.75V38.4375H46.875V45C46.875 45.2487 46.9738 45.4871 47.1496 45.6629C47.3254 45.8388 47.5639 45.9375 47.8125 45.9375H50.7581C50.9347 46.6149 51.2976 47.2292 51.8057 47.7107C52.3139 48.1922 52.9468 48.5216 53.6327 48.6614C54.3187 48.8013 55.03 48.746 55.6861 48.5019C56.3422 48.2577 56.9167 47.8345 57.3443 47.2803C57.7719 46.7261 58.0356 46.063 58.1054 45.3665C58.1751 44.67 58.0482 43.9678 57.7389 43.3398C57.4297 42.7118 56.9506 42.183 56.3559 41.8136C55.7613 41.4443 55.075 41.249 54.375 41.25ZM54.375 46.875C54.0042 46.875 53.6416 46.7651 53.3333 46.559C53.025 46.353 52.7846 46.0602 52.6427 45.7176C52.5008 45.3749 52.4637 44.9979 52.536 44.6342C52.6084 44.2705 52.7869 43.9364 53.0492 43.6742C53.3114 43.412 53.6455 43.2334 54.0092 43.1611C54.3729 43.0887 54.7499 43.1258 55.0925 43.2678C55.4351 43.4097 55.728 43.65 55.934 43.9583C56.14 44.2667 56.25 44.6292 56.25 45C56.25 45.4973 56.0525 45.9742 55.7008 46.3259C55.3492 46.6775 54.8723 46.875 54.375 46.875Z" fill="#FF6900"/>
<path d="M9.24176 45.9375H12.1874C12.436 45.9375 12.6745 45.8388 12.8503 45.6629C13.0261 45.4871 13.1249 45.2487 13.1249 45V38.4375H11.2499V44.0625H9.24176C9.01358 43.1788 8.47092 42.4086 7.7155 41.8963C6.96009 41.3841 6.04377 41.1649 5.13832 41.2799C4.23287 41.3949 3.40045 41.8362 2.79708 42.5211C2.19372 43.2059 1.86084 44.0873 1.86084 45C1.86084 45.9128 2.19372 46.7942 2.79708 47.479C3.40045 48.1639 4.23287 48.6051 5.13832 48.7201C6.04377 48.8352 6.96009 48.616 7.7155 48.1037C8.47092 47.5915 9.01358 46.8213 9.24176 45.9375ZM5.62489 46.875C5.25405 46.875 4.89153 46.7651 4.58319 46.559C4.27485 46.353 4.03453 46.0602 3.89261 45.7176C3.7507 45.375 3.71357 44.998 3.78591 44.6342C3.85826 44.2705 4.03684 43.9364 4.29906 43.6742C4.56128 43.412 4.89538 43.2334 5.25909 43.1611C5.62281 43.0887 5.99981 43.1258 6.34242 43.2678C6.68503 43.4097 6.97786 43.65 7.18389 43.9583C7.38992 44.2667 7.49989 44.6292 7.49989 45C7.49989 45.4973 7.30234 45.9742 6.95071 46.3259C6.59908 46.6775 6.12217 46.875 5.62489 46.875Z" fill="#FF6900"/>
<path d="M39.3271 38.4375H39.3749C39.9545 38.4351 40.5192 38.2537 40.9918 37.918C41.4643 37.5824 41.8217 37.109 42.0149 36.5625H50.6249C52.614 36.5625 54.5216 35.7723 55.9282 34.3658C57.3347 32.9593 58.1249 31.0516 58.1249 29.0625C58.1249 27.0734 57.3347 25.1657 55.9282 23.7592C54.5216 22.3527 52.614 21.5625 50.6249 21.5625H49.7952C50.9586 19.5716 51.5687 17.3059 51.5624 15C51.5635 11.845 50.4275 8.79523 48.3625 6.40984C46.2975 4.02445 43.442 2.46324 40.3193 2.0124C37.1967 1.56155 34.0161 2.25128 31.3608 3.95515C28.7054 5.65903 26.7531 8.26287 25.8617 11.2894C24.4017 9.89534 22.5644 8.96076 20.5779 8.60163C18.5914 8.2425 16.5431 8.47463 14.6874 9.26921C12.8316 10.0638 11.2501 11.3858 10.139 13.0713C9.0279 14.7567 8.43622 16.7313 8.43737 18.75C8.4363 19.708 8.57011 20.6615 8.83487 21.5822C6.89816 21.7228 5.09146 22.6091 3.79486 24.0546C2.49827 25.5001 1.81285 27.3921 1.8828 29.3327C1.95275 31.2732 2.77262 33.111 4.16993 34.4594C5.56724 35.8078 7.43306 36.5617 9.37487 36.5625H17.9849C18.1781 37.109 18.5354 37.5824 19.008 37.918C19.4805 38.2537 20.0453 38.4351 20.6249 38.4375H20.6727C20.9048 40.7502 21.9878 42.8942 23.7114 44.4535C25.4351 46.0128 27.6765 46.8762 30.0008 46.8762C32.3251 46.8762 34.5665 46.0128 36.2902 44.4535C38.0138 42.8942 39.0968 40.7502 39.3289 38.4375H39.3271ZM20.6249 30V30.5494L19.6874 29.6119V28.125C19.6894 26.3851 20.3814 24.7171 21.6117 23.4868C22.842 22.2565 24.51 21.5645 26.2499 21.5625H33.7499C35.4897 21.5645 37.1578 22.2565 38.3881 23.4868C39.6183 24.7171 40.3104 26.3851 40.3124 28.125V29.6119L39.3749 30.5494V30C39.3749 29.7943 39.3073 29.5943 39.1824 29.4308C39.0576 29.2673 38.8824 29.1494 38.6839 29.0953L28.3714 26.2828C28.1671 26.2279 27.9502 26.2431 27.7555 26.3259L21.193 29.1384C21.0244 29.2107 20.8807 29.3309 20.7797 29.484C20.6787 29.6371 20.6249 29.8166 20.6249 30ZM40.3124 35.625C40.3124 35.8736 40.2136 36.1121 40.0378 36.2879C39.862 36.4637 39.6235 36.5625 39.3749 36.5625V33.75C39.6235 33.75 39.862 33.8488 40.0378 34.0246C40.2136 34.2004 40.3124 34.4389 40.3124 34.6875V35.625ZM3.74987 29.0625C3.75136 27.5711 4.34447 26.1412 5.39904 25.0867C6.45361 24.0321 7.88349 23.439 9.37487 23.4375H10.1624C10.3179 23.4373 10.471 23.3983 10.6077 23.3242C10.7445 23.2501 10.8606 23.1431 10.9457 23.0129C11.0308 22.8827 11.0822 22.7334 11.0952 22.5784C11.1082 22.4234 11.0824 22.2676 11.0202 22.125C10.5518 21.0616 10.3107 19.912 10.3124 18.75C10.3139 16.9626 10.883 15.222 11.9376 13.7789C12.9922 12.3358 14.4778 11.2649 16.1803 10.7206C17.8827 10.1763 19.714 10.1866 21.4102 10.7502C23.1064 11.3137 24.5798 12.4013 25.618 13.8562C25.7273 14.0075 25.8793 14.1227 26.0545 14.187C26.2297 14.2513 26.4201 14.2619 26.6013 14.2174C26.7826 14.1729 26.9464 14.0754 27.0718 13.9372C27.1973 13.799 27.2786 13.6266 27.3055 13.4419C27.691 10.6147 29.137 8.03983 31.3505 6.23925C33.5639 4.43868 36.3792 3.5471 39.2257 3.74526C42.0722 3.94342 44.7368 5.21648 46.6794 7.30639C48.6221 9.39629 49.6974 12.1467 49.6874 15C49.6919 17.512 48.8468 19.9517 47.2892 21.9225C47.181 22.0609 47.1138 22.227 47.0954 22.4018C47.077 22.5765 47.1081 22.7529 47.1851 22.9109C47.2621 23.0688 47.382 23.202 47.531 23.2951C47.6801 23.3882 47.8523 23.4375 48.028 23.4375H50.6249C52.1167 23.4375 53.5475 24.0301 54.6023 25.085C55.6572 26.1399 56.2499 27.5707 56.2499 29.0625C56.2499 30.5543 55.6572 31.9851 54.6023 33.04C53.5475 34.0949 52.1167 34.6875 50.6249 34.6875H42.1874C42.1872 34.1358 42.0249 33.5964 41.7205 33.1363C41.4161 32.6763 40.9832 32.3159 40.4755 32.1L41.9127 30.6628C42.0885 30.487 42.1873 30.2486 42.1874 30V28.125C42.1849 25.888 41.2951 23.7433 39.7133 22.1615C38.1315 20.5797 35.9869 19.69 33.7499 19.6875H26.2499C24.0129 19.69 21.8682 20.5797 20.2864 22.1615C18.7046 23.7433 17.8149 25.888 17.8124 28.125V30C17.8124 30.2486 17.9112 30.487 18.0871 30.6628L19.5242 32.1C19.0166 32.3159 18.5836 32.6763 18.2793 33.1363C17.9749 33.5964 17.8125 34.1358 17.8124 34.6875H9.37487C7.88349 34.686 6.45361 34.0929 5.39904 33.0383C4.34447 31.9838 3.75136 30.5539 3.74987 29.0625ZM19.6874 35.625V34.6875C19.6874 34.4389 19.7861 34.2004 19.962 34.0246C20.1378 33.8488 20.3762 33.75 20.6249 33.75V36.5625C20.3762 36.5625 20.1378 36.4637 19.962 36.2879C19.7861 36.1121 19.6874 35.8736 19.6874 35.625ZM29.9999 45C28.0114 44.9978 26.1051 44.2069 24.699 42.8008C23.293 41.3948 22.5021 39.4884 22.4999 37.5V30.6178L28.1933 28.1803L37.4999 30.7162V37.5C37.4976 39.4884 36.7067 41.3948 35.3007 42.8008C33.8947 44.2069 31.9883 44.9978 29.9999 45Z" fill="#FF6900"/>
<path d="M42.1875 46.875H17.8125C15.0784 46.8783 12.4573 47.9658 10.524 49.8991C8.59075 51.8323 7.50323 54.4535 7.5 57.1875C7.5 57.4362 7.59877 57.6746 7.77459 57.8504C7.9504 58.0263 8.18886 58.125 8.4375 58.125H51.5625C51.8111 58.125 52.0496 58.0263 52.2254 57.8504C52.4012 57.6746 52.5 57.4362 52.5 57.1875C52.4968 54.4535 51.4092 51.8323 49.476 49.8991C47.5427 47.9658 44.9216 46.8783 42.1875 46.875ZM34.3125 48.75L33.0413 52.5H26.9475L25.6875 48.75H34.3125ZM9.42188 56.25C9.65516 54.1876 10.6394 52.2831 12.1869 50.8999C13.7344 49.5167 15.7369 48.7514 17.8125 48.75H23.7028L25.3903 53.7385C25.4533 53.9242 25.5729 54.0855 25.7323 54.1997C25.8917 54.3139 26.083 54.3752 26.2791 54.375H33.7134C33.9095 54.3752 34.1008 54.3139 34.2602 54.1997C34.4196 54.0855 34.5392 53.9242 34.6022 53.7385L36.2972 48.75H42.1875C44.2623 48.7525 46.2636 49.5183 47.8102 50.9015C49.3567 52.2846 50.3402 54.1884 50.5734 56.25H9.42188Z" fill="#FF6900"/>
</svg>
