<svg width="50" height="50" viewBox="0 0 50 50" fill="none" xmlns="http://www.w3.org/2000/svg">
<path d="M25.6529 27.2877C25.5604 27.2677 25.4655 27.2641 25.3717 27.2781C24.4327 27.1688 23.7243 26.3743 23.7226 25.4292C23.7226 24.9763 23.3554 24.6091 22.9025 24.6091C22.4496 24.6091 22.0824 24.9763 22.0824 25.4292C22.0848 27.0074 23.1404 28.3898 24.6621 28.8075V29.6276C24.6621 30.0806 25.0294 30.4478 25.4823 30.4478C25.9352 30.4478 26.3024 30.0806 26.3024 29.6276V28.8572C28.0588 28.4895 29.2526 26.8536 29.068 25.0688C28.883 23.2839 27.3793 21.9276 25.5848 21.9272C24.5564 21.9272 23.7226 21.0934 23.7226 20.065C23.7226 19.0366 24.5564 18.2029 25.5848 18.2029C26.6132 18.2029 27.4469 19.0366 27.4469 20.065C27.4469 20.5179 27.8142 20.8852 28.2671 20.8852C28.72 20.8852 29.0872 20.5179 29.0872 20.065C29.0848 18.4079 27.9239 16.9787 26.3024 16.6367V15.8902C26.3024 15.4373 25.9352 15.0701 25.4823 15.0701C25.0294 15.0701 24.6621 15.4373 24.6621 15.8902V16.6867C22.9698 17.1489 21.8805 18.792 22.1136 20.5308C22.3467 22.2696 23.8304 23.5675 25.5848 23.5671C26.5996 23.5671 27.4273 24.3796 27.4457 25.394C27.4646 26.4083 26.6668 27.2509 25.6529 27.2877Z" fill="#00A499"/>
<path d="M13.6918 22.8101C13.6918 29.3785 19.0163 34.703 25.5847 34.703C32.153 34.703 37.4775 29.3785 37.4775 22.8101C37.4775 16.2418 32.153 10.9172 25.5847 10.9172C19.0195 10.9244 13.6994 16.245 13.6918 22.8101ZM25.5847 12.5575C31.2472 12.5575 35.8373 17.1476 35.8373 22.8101C35.8373 28.4727 31.2472 33.0627 25.5847 33.0627C19.9221 33.0627 15.3321 28.4727 15.3321 22.8101C15.3385 17.1504 19.9249 12.5639 25.5847 12.5575Z" fill="#00A499"/>
<path d="M41.5206 36.725L35.096 39.7604C34.2089 38.1105 32.5074 37.0605 30.6348 37.0077L24.704 36.8447C23.7649 36.8179 22.8435 36.58 22.0085 36.1487L21.405 35.8359C18.315 34.2253 14.632 34.2293 11.5453 35.8463L11.5829 34.4792C11.5953 34.0262 11.2385 33.649 10.7856 33.6366L4.28209 33.4576C3.82917 33.4452 3.45233 33.802 3.43992 34.2549L3.04707 48.5265C3.03465 48.9795 3.39146 49.3567 3.84439 49.3691L10.3479 49.5481H10.3703C10.8148 49.5481 11.1784 49.1945 11.1904 48.7504L11.2093 48.0676L12.8988 47.163C13.562 46.8062 14.3373 46.7213 15.0617 46.9263L25.1509 49.758C25.1685 49.7632 25.1862 49.7672 25.2042 49.7712C25.9334 49.9238 26.6767 50.0002 27.4215 49.9998C28.9993 50.0006 30.5587 49.6606 31.9928 49.0023C32.028 48.9863 32.0621 48.9675 32.0945 48.9462L46.7229 39.4841C47.0874 39.2483 47.2051 38.7697 46.9917 38.3917C45.9056 36.4647 43.4968 35.7306 41.5206 36.725ZM4.70938 47.7521L5.05698 35.1199L9.92058 35.2537L9.57298 47.8862L4.70938 47.7521ZM31.2539 47.5374C29.4723 48.3415 27.4824 48.5634 25.5674 48.1721L15.5054 45.3477C14.3729 45.0277 13.1607 45.1603 12.1247 45.7173L11.2613 46.1798L11.4924 37.781C14.2283 35.9613 17.7372 35.7743 20.6509 37.2924L21.2544 37.6052C22.3092 38.1498 23.4726 38.4501 24.6591 38.4846L30.5904 38.6476C32.2563 38.6956 33.6711 39.8818 34.0091 41.5141L25.1745 41.2702C24.7216 41.2578 24.3448 41.615 24.332 42.0675C24.3196 42.5204 24.6768 42.8977 25.1293 42.9101L34.8789 43.1784H34.9017C35.3459 43.178 35.7091 42.8244 35.7211 42.3807C35.7311 42.0243 35.7047 41.6674 35.6418 41.3166L42.2314 38.2031C42.2378 38.2003 42.2442 38.197 42.2506 38.1938C43.1853 37.7209 44.3154 37.8791 45.0843 38.5907L31.2539 47.5374Z" fill="#00A499"/>
<path d="M26.4048 8.61152V0.820144C26.4048 0.367223 26.0376 0 25.5847 0C25.1317 0 24.7645 0.367223 24.7645 0.820144V8.61152C24.7645 9.06444 25.1317 9.43166 25.5847 9.43166C26.0376 9.43166 26.4048 9.06444 26.4048 8.61152Z" fill="#00A499"/>
<path d="M32.5558 8.61162V4.92097C32.5558 4.46805 32.1886 4.10083 31.7357 4.10083C31.2828 4.10083 30.9155 4.46805 30.9155 4.92097V8.61162C30.9155 9.06455 31.2828 9.43177 31.7357 9.43177C32.1886 9.43177 32.5558 9.06455 32.5558 8.61162Z" fill="#00A499"/>
<path d="M20.2538 8.61162V4.92097C20.2538 4.46805 19.8866 4.10083 19.4337 4.10083C18.9807 4.10083 18.6135 4.46805 18.6135 4.92097V8.61162C18.6135 9.06455 18.9807 9.43177 19.4337 9.43177C19.8866 9.43177 20.2538 9.06455 20.2538 8.61162Z" fill="#00A499"/>
</svg>
