<svg width="50" height="50" viewBox="0 0 50 50" fill="none" xmlns="http://www.w3.org/2000/svg">
<path d="M7.8125 17.9688C5.65859 17.9688 3.90625 19.7211 3.90625 21.875V23.4375C3.90625 25.5914 5.65859 27.3438 7.8125 27.3438C9.96641 27.3438 11.7188 25.5914 11.7188 23.4375V21.875C11.7188 19.7211 9.96641 17.9688 7.8125 17.9688ZM10.1562 23.4375C10.1562 24.7297 9.10469 25.7812 7.8125 25.7812C6.52031 25.7812 5.46875 24.7297 5.46875 23.4375V21.875C5.46875 20.5828 6.52031 19.5312 7.8125 19.5312C9.10469 19.5312 10.1562 20.5828 10.1562 21.875V23.4375Z" fill="#00A499"/>
<path d="M48.1461 19.9109C48.8438 18.8859 49.2188 17.6766 49.2188 16.4062C49.2188 12.9602 46.4148 10.1562 42.9688 10.1562C42.5406 10.1562 42.1133 10.2016 41.6906 10.2914C40.4203 6.49453 36.8773 3.90625 32.8125 3.90625C30.7586 3.90625 28.7867 4.57188 27.1664 5.79609C25.1617 2.68047 21.7188 0.78125 17.9688 0.78125C13.0836 0.78125 8.86172 3.96562 7.49297 8.60078C3.76328 8.76875 0.78125 11.8555 0.78125 15.625C0.78125 16.675 1.02969 17.7094 1.47891 18.65C1.03359 19.7219 0.78125 20.8969 0.78125 22.1312V23.182C0.78125 27.857 4.31875 31.7367 8.83516 32.0148C9.01172 32.0258 9.18672 32.0312 9.36172 32.0312C13.193 32.0312 16.6008 29.4523 17.6437 25.7812H36.7188V30.4688H41.4062V28.9062H42.9688V32.0312H47.6562V25.6375C48.5633 25.3141 49.2188 24.4547 49.2188 23.4375V21.875C49.2188 21.0516 48.7898 20.3297 48.1461 19.9109ZM2.34375 15.625C2.34375 12.6094 4.79688 10.1562 7.8125 10.1562C7.85469 10.1562 7.89531 10.1594 7.93672 10.1625L8.70391 10.1984L8.85234 9.56797C9.85234 5.31406 13.6016 2.34375 17.9688 2.34375C21.4586 2.34375 24.6391 4.26328 26.268 7.35391L26.7437 8.25703L27.4914 7.56172C28.9406 6.21172 30.8305 5.46875 32.8125 5.46875C36.4258 5.46875 39.5438 7.92266 40.3961 11.4359L40.5992 12.275L41.4141 11.9883C41.9242 11.8094 42.4469 11.7188 42.9688 11.7188C45.5539 11.7188 47.6562 13.8211 47.6562 16.4062C47.6562 17.5742 47.2289 18.6703 46.4555 19.5312H17.643C16.5531 15.6937 12.875 13.0437 8.83516 13.2977C6.22734 13.4586 3.95156 14.8234 2.48906 16.8453C2.39766 16.4469 2.34375 16.0375 2.34375 15.625ZM44.5312 30.4688V27.3438H39.8438V28.9062H38.2812V25.7812H46.0938V30.4688H44.5312ZM47.6562 23.4375C47.6562 23.868 47.3055 24.2188 46.875 24.2188H16.3914L16.2641 24.8438C15.568 28.257 12.4164 30.6617 8.93125 30.4547C5.2375 30.2273 2.34375 27.0328 2.34375 23.1813V22.1305C2.34375 18.2797 5.2375 15.0844 8.93125 14.857C9.07578 14.8484 9.21875 14.8438 9.36172 14.8438C12.6727 14.8438 15.5969 17.1961 16.2641 20.468L16.3914 21.093H46.875C47.3055 21.093 47.6562 21.4438 47.6562 21.8742V23.4375Z" fill="#00A499"/>
<path d="M22.6562 15.6086V17.9688H27.3438V15.6086C28.3172 14.875 28.9062 13.7211 28.9062 12.5C28.9062 10.3461 27.1539 8.59375 25 8.59375C22.8461 8.59375 21.0938 10.3461 21.0938 12.5C21.0938 13.7211 21.6828 14.8758 22.6562 15.6086ZM25 10.1562C26.2922 10.1562 27.3438 11.2078 27.3438 12.5C27.3438 13.3344 26.9047 14.0883 26.1695 14.5164L25.7812 14.7422V16.4062H24.2188V14.7422L23.8305 14.5164C23.0953 14.0883 22.6562 13.3344 22.6562 12.5C22.6562 11.2078 23.7078 10.1562 25 10.1562Z" fill="#00A499"/>
<path d="M7.03125 41.4062H11.7188V42.9688H7.03125V41.4062Z" fill="#00A499"/>
<path d="M7.03125 44.5312H11.7188V46.0938H7.03125V44.5312Z" fill="#00A499"/>
<path d="M22.6562 41.4062H27.3438V42.9688H22.6562V41.4062Z" fill="#00A499"/>
<path d="M22.6562 44.5312H27.3438V46.0938H22.6562V44.5312Z" fill="#00A499"/>
<path d="M38.2812 41.4062H42.9688V42.9688H38.2812V41.4062Z" fill="#00A499"/>
<path d="M38.2812 44.5312H42.9688V46.0938H38.2812V44.5312Z" fill="#00A499"/>
<path d="M25.7812 27.3438H24.2188V38.2812H19.5312V49.2188H30.4688V38.2812H25.7812V27.3438ZM28.9062 47.6562H21.0938V39.8438H28.9062V47.6562Z" fill="#00A499"/>
<path d="M41.4062 33.5938H30.4688V27.3438H28.9062V35.1562H39.8438V38.2812H35.1562V49.2188H46.0938V38.2812H41.4062V33.5938ZM44.5312 47.6562H36.7188V39.8438H44.5312V47.6562Z" fill="#00A499"/>
<path d="M10.1562 35.1562H21.0938V27.3438H19.5312V33.5938H8.59375V38.2812H3.90625V49.2188H14.8438V38.2812H10.1562V35.1562ZM13.2812 47.6562H5.46875V39.8438H13.2812V47.6562Z" fill="#00A499"/>
<path d="M21.4415 4.71885C20.8899 4.44463 20.3055 4.23682 19.704 4.1001L19.3586 5.62354C19.8391 5.73291 20.3063 5.89932 20.7461 6.11807L21.4415 4.71885Z" fill="#00A499"/>
<path d="M17.9689 5.46875V3.90625C14.2946 3.90625 11.1618 6.40547 10.3501 9.98359L11.8735 10.3289C12.5228 7.46719 15.029 5.46875 17.9689 5.46875Z" fill="#00A499"/>
<path d="M37.3055 11.9414L38.8031 11.4961C38.0211 8.86719 35.5578 7.03125 32.8125 7.03125V8.59375C34.8719 8.59375 36.7195 9.97031 37.3055 11.9414Z" fill="#00A499"/>
</svg>
