<svg width="60" height="60" viewBox="0 0 60 60" fill="none" xmlns="http://www.w3.org/2000/svg">
<g clip-path="url(#clip0)">
<path d="M1.13661 30.1697L5.91843 32.0561C6.55031 32.3053 7.23925 32.1737 7.73202 31.7607L11.5188 34.1489L12.1683 34.6054C11.3444 35.9093 11.5555 37.691 12.8081 38.753C13.4963 39.3366 14.3709 39.5857 15.227 39.4924C15.2772 40.3923 15.6865 41.1937 16.3524 41.7582C17.0069 42.3132 17.8613 42.5974 18.7712 42.4981C18.8218 43.3976 19.2308 44.1989 19.8968 44.7635C20.5573 45.3236 21.4134 45.6018 22.317 45.5033C22.3643 46.3506 22.7443 47.1779 23.4411 47.7687C24.7871 48.9103 26.812 48.7447 27.9533 47.3988L28.7131 46.5069L29.9936 47.4519C32.2075 49.086 35.3366 47.7473 35.6253 45.031C37.9079 45.8605 40.3315 44.2607 40.3667 41.804C42.5182 42.2085 44.4274 40.6459 44.5473 38.573C47.3381 39.3185 49.8625 36.4982 48.6301 33.7406L52.052 31.5427C52.542 32.1232 53.3562 32.3424 54.0822 32.056L58.864 30.1697C59.7844 29.8066 60.238 28.7624 59.8748 27.8417L57.6893 22.3018C57.5112 21.8502 57.0006 21.6287 56.5492 21.8068C56.0975 21.9849 55.8759 22.4954 56.0541 22.9469L58.2395 28.4867C58.247 28.5056 58.2377 28.527 58.2189 28.5345L53.437 30.4209C53.4181 30.4283 53.3968 30.4191 53.3893 30.4003C53.2219 29.9758 47.8546 16.3704 47.38 15.1673C47.3782 15.1631 47.3744 15.1533 47.3804 15.1393C47.3865 15.1254 47.3965 15.1215 47.4006 15.1198L52.1825 13.2333C52.1866 13.2315 52.1964 13.2277 52.2107 13.2338C52.2245 13.2398 52.2284 13.2497 52.2301 13.2539L54.547 19.1266C54.7253 19.5783 55.2357 19.7998 55.6871 19.6216C56.1388 19.4435 56.3604 18.933 56.1823 18.4815L53.8654 12.6089C53.5024 11.6885 52.4581 11.235 51.5377 11.5982L46.7556 13.4847C45.9012 13.8217 45.4501 14.7386 45.6794 15.6077L43.1159 16.5539C42.3182 16.8484 41.4522 16.9338 40.6117 16.8006L38.0205 16.3898C37.5412 16.314 37.0907 16.6411 37.0149 17.1203C36.9389 17.5997 37.2659 18.05 37.7453 18.126L40.3366 18.5367C41.4736 18.7168 42.645 18.6014 43.7247 18.2028L46.3114 17.248C46.5921 17.9598 51.0229 29.1908 51.3136 29.9278L47.542 32.3502L47.4781 32.3029C47.4778 32.3027 47.4775 32.3025 47.4772 32.3024C47.0732 32.0041 40.5153 27.1645 40.2075 26.9373C40.0191 26.7982 39.785 26.7357 39.5157 26.7814C35.8747 27.4005 32.6125 26.1058 30.2126 23.6C29.4659 22.8204 28.2476 22.7785 27.4387 23.5049C25.1105 25.5958 21.8571 27.6348 19.5807 25.4714C19.3545 25.2566 19.3529 24.8598 19.6964 24.6381C22.5961 22.7728 25.5999 20.1538 28.0172 17.7083C28.6189 17.0995 29.4842 16.8165 30.3335 16.9512L33.6697 17.48C34.15 17.5561 34.5993 17.2289 34.6752 16.7496C34.7512 16.2702 34.4242 15.8198 33.9448 15.7439L30.6086 15.215C29.2019 14.9921 27.766 15.4623 26.7672 16.4727C26.4876 16.7555 26.1569 17.0838 25.784 17.4439C24.6585 17.0449 23.4855 16.8066 22.2923 16.7395C18.7997 16.5434 18.4967 16.5063 17.7036 16.5573C17.0811 16.597 16.4478 16.4912 15.8718 16.2503L14.3229 15.6021C14.5465 14.738 14.0961 13.82 13.2451 13.4844L8.46327 11.5982C7.54253 11.2349 6.49839 11.6884 6.13535 12.6089L0.125869 27.8417C-0.237997 28.7642 0.213759 29.8057 1.13661 30.1697ZM15.9809 37.2446C15.4659 37.8521 14.5527 37.9275 13.9449 37.4123C13.3332 36.8936 13.2638 35.9819 13.7761 35.3778L15.95 32.8262C16.4529 32.2329 17.3686 32.1351 17.986 32.6585C18.5949 33.1747 18.6702 34.0855 18.1536 34.6945C18.1534 34.6947 18.1532 34.695 18.153 34.6952L15.9809 37.2446ZM19.5252 40.25C19.009 40.8588 18.0985 40.934 17.4893 40.4176C16.8775 39.8989 16.8082 38.9872 17.3204 38.3831L19.4943 35.8314C20.0342 35.1944 21.0349 35.1388 21.6373 35.7643C21.6413 35.7684 21.6447 35.773 21.6487 35.7772C22.1449 36.3049 22.1772 37.1346 21.6979 37.6999L19.5252 40.25ZM23.0695 43.2551C22.5514 43.8663 21.64 43.9369 21.0336 43.4227C20.4219 42.9042 20.3524 41.9924 20.8646 41.3883L23.0387 38.8366C23.5551 38.2277 24.4717 38.1574 25.0747 38.669C25.6822 39.1843 25.7573 40.0975 25.2423 40.705C25.242 40.7053 25.2419 40.7055 25.2417 40.7057L23.0695 43.2551ZM28.7984 43.6948C28.7948 43.6993 28.7916 43.7042 28.7879 43.7085C28.4372 44.1201 27.471 45.2541 26.6138 46.2603C26.0988 46.8679 25.1855 46.943 24.5779 46.428C23.9703 45.9128 23.8952 44.9996 24.4089 44.3936L26.583 41.8419C27.101 41.2309 28.0131 41.1604 28.6189 41.6743C29.2149 42.1794 29.3062 43.0808 28.7984 43.6948ZM13.6912 17.2437L15.1932 17.8721C16.0175 18.217 16.9245 18.369 17.816 18.3117C18.4882 18.2685 18.7126 18.2992 22.1934 18.4948C22.9081 18.535 23.6148 18.6456 24.3049 18.8251C22.5852 20.3781 20.6539 21.9347 18.7195 23.1769C17.4793 23.973 17.2956 25.7252 18.3698 26.7461C19.838 28.1413 23.1215 29.7451 28.6131 24.813C28.7116 24.7247 28.8564 24.7258 28.9428 24.8162C31.6029 27.5928 35.3736 29.1438 39.4455 28.5716C39.9068 28.8958 39.0135 28.2412 46.4331 33.717H46.4332C47.2273 34.303 47.4494 35.4554 46.8277 36.2507C46.2372 37.0062 45.1702 37.1526 44.3992 36.5834C43.3576 35.8147 44.1266 36.3998 40.4651 33.5785C40.0803 33.2822 39.5287 33.3538 39.2323 33.7382C38.9362 34.1227 39.0077 34.6746 39.392 34.9709L42.4299 37.3116C42.9532 38.0012 42.8909 38.9976 42.2713 39.6157C41.6622 40.2235 40.6595 40.2809 39.9389 39.7494C39.2423 39.2353 39.8211 39.6758 36.6258 37.2158C36.2412 36.9195 35.6893 36.9915 35.3932 37.3761C35.0971 37.7607 35.1688 38.3125 35.5534 38.6087L38.2471 40.6825C38.7558 41.3405 38.7309 42.2869 38.1754 42.9167C37.5777 43.5943 36.5188 43.6886 35.7644 43.1317C34.5521 42.2371 35.1605 42.6991 32.8259 40.8922C32.442 40.5951 31.8901 40.6654 31.5929 41.0493C31.2958 41.4332 31.3661 41.9852 31.75 42.2823L33.6174 43.7275C34.0422 44.4036 33.959 45.289 33.4004 45.8733C32.7906 46.5112 31.7747 46.5819 31.0372 46.0375L29.8557 45.1656L30.1271 44.847C30.6683 44.209 30.9476 43.3828 30.8762 42.5133C30.8035 41.6327 30.385 40.8675 29.7556 40.3335C29.1009 39.7784 28.2458 39.494 27.3362 39.5927C27.2883 38.7435 26.8989 37.9116 26.2113 37.3283C25.559 36.7753 24.731 36.5095 23.8775 36.5792C23.849 36.5816 23.8205 36.5843 23.7923 36.5874C23.7907 36.5593 23.7897 36.5312 23.7874 36.5029C23.7315 35.8234 23.4666 35.1939 23.0313 34.6862C23.0286 34.683 23.0261 34.6798 23.0234 34.6767C22.3309 33.8755 21.2998 33.4707 20.249 33.5837C20.1996 32.7011 19.7995 31.8918 19.1226 31.3179C17.7756 30.1759 15.7509 30.3425 14.6103 31.6878L13.2858 33.2425L12.5115 32.6983C12.4996 32.6899 12.4874 32.6817 12.4749 32.674L8.57425 30.2138C11.5233 22.7388 10.4187 25.5388 13.6912 17.2437ZM1.76098 28.487L7.77034 13.2541C7.77609 13.2396 7.78991 13.2308 7.80456 13.2308C7.80902 13.2308 7.81359 13.2316 7.81804 13.2334L12.5999 15.1199C12.6187 15.1273 12.628 15.1487 12.6206 15.1675C12.3315 15.9004 6.80027 29.921 6.61113 30.4004C6.60339 30.4195 6.58277 30.4285 6.56355 30.421L1.78172 28.5345C1.76274 28.527 1.75337 28.5058 1.76098 28.487Z" fill="#FF6900"/>
</g>
<defs>
<clipPath id="clip0">
<rect width="60" height="60" fill="white"/>
</clipPath>
</defs>
</svg>
