<svg width="61" height="60" viewBox="0 0 61 60" fill="none" xmlns="http://www.w3.org/2000/svg">
<path d="M41.9609 28.2034V28.1463V8.83244C41.9598 8.42599 41.8748 8.02416 41.7111 7.65212L41.7107 7.65122C41.7071 7.64265 41.7024 7.63417 41.6962 7.62373C41.6905 7.61414 41.6827 7.60141 41.6761 7.58833L41.6754 7.58677L41.6754 7.58675C41.5319 7.27269 41.3345 6.98615 41.0923 6.74007C41.0922 6.73999 41.0922 6.73991 41.0921 6.73983L35.2742 0.918902L41.9609 28.2034ZM41.9609 28.2034L42.0175 28.1959M41.9609 28.2034L42.0175 28.1959M42.0175 28.1959C42.6787 28.1078 43.3448 28.0615 44.0118 28.0573C51.8913 28.0535 58.5921 33.8056 59.7819 41.5948C60.9717 49.3841 56.2935 56.8744 48.772 59.2229C41.2505 61.5714 33.1414 58.0738 29.6877 50.9914L29.674 50.9633H29.6427H4.00104C1.81894 50.9633 0.05 49.1943 0.05 47.0122V4.00104C0.05 1.81894 1.81894 0.05 4.00104 0.05H33.1786C33.585 0.0511088 33.9868 0.136164 34.3588 0.299833L34.3588 0.299842L34.3597 0.30022C34.3683 0.303791 34.3768 0.308514 34.3872 0.314703C34.3888 0.315635 34.3904 0.316626 34.3922 0.317661C34.401 0.322935 34.4117 0.329328 34.4226 0.334796L34.4226 0.334827M42.0175 28.1959L34.4226 0.334827M34.4226 0.334827L34.4243 0.335595M34.4226 0.334827L34.4243 0.335595M34.4243 0.335595C34.7394 0.478795 35.0269 0.676108 35.2738 0.918576L34.4243 0.335595ZM38.5961 7.05182H38.7168L38.6314 6.96647L35.0445 3.37953L34.9591 3.29418V3.41489V5.0013C34.9591 6.13377 35.8772 7.05182 37.0096 7.05182H38.5961ZM33.0586 2.00052V1.95052H33.0086H4.00104C2.86857 1.95052 1.95052 2.86857 1.95052 4.00104V47.0122C1.95052 48.1447 2.86857 49.0628 4.00104 49.0628H28.8185H28.8878L28.866 48.997C27.4771 44.8102 27.8897 40.2346 30.0052 36.3638C32.1207 32.493 35.7489 29.6748 40.0228 28.5829L40.0604 28.5733V28.5344V9.00235V8.95234H40.0104H37.0096C34.8275 8.95234 33.0586 7.1834 33.0586 5.0013V2.00052ZM31.0276 49.3896C33.2028 54.6411 38.3273 58.0651 44.0115 58.0651C51.7697 58.0568 58.0568 51.7697 58.0651 44.0115C58.0651 38.3273 54.641 33.2028 49.3896 31.0276C44.1381 28.8524 38.0933 30.0547 34.074 34.074C30.0547 38.0933 28.8523 44.1381 31.0276 49.3896Z" fill="#FF6900" stroke="white" stroke-width="0.1"/>
<path d="M18.333 5.33002L18.3336 5.32939C18.5722 5.08236 18.9255 4.98329 19.2578 5.07025C19.59 5.15722 19.8495 5.41668 19.9364 5.74892C20.0234 6.08116 19.9243 6.43447 19.6773 6.67305L19.6767 6.67366L16.969 9.38137L16.9543 9.39601V9.41672V15.0042C16.9543 16.6339 15.6332 17.955 14.0036 17.955H8.002C6.37233 17.955 5.05122 16.6339 5.05122 15.0042V9.00262C5.05122 7.37294 6.37233 6.05183 8.002 6.05183L14.0034 6.05183C14.9275 6.05415 15.7965 6.49141 16.3491 7.23205L16.3837 7.27836L16.4245 7.23751L18.333 5.33002L18.333 5.33002ZM14.0038 7.95236H14.0036H8.002C7.42196 7.95236 6.95174 8.42257 6.95174 9.00262V15.0042C6.95174 15.5842 7.42196 16.0544 8.002 16.0544H14.0036C14.5836 16.0544 15.0538 15.5842 15.0538 15.0042V11.4172V11.2965L14.9685 11.3819L12.6749 13.6755C12.3038 14.0464 11.7023 14.0464 11.3312 13.6755L9.3313 11.6756C9.3312 11.6755 9.3311 11.6754 9.331 11.6753C8.97118 11.3024 8.97643 10.7099 9.34288 10.3435C9.70932 9.97705 10.3018 9.9718 10.6747 10.3316L11.9677 11.6246L12.003 11.66L12.0384 11.6246L14.9692 8.69388L14.9916 8.67141L14.9808 8.64153C14.8319 8.22964 14.4418 7.95446 14.0038 7.95236Z" fill="#FF6900" stroke="white" stroke-width="0.1"/>
<path d="M16.3491 21.2348L16.3837 21.2811L16.4245 21.2402L18.3324 19.3334C18.3325 19.3333 18.3326 19.3332 18.3327 19.3331C18.7056 18.9732 19.2981 18.9785 19.6645 19.3449C20.031 19.7114 20.0362 20.3038 19.6764 20.6767C19.6763 20.6768 19.6762 20.6769 19.6761 20.677L16.969 23.3841L16.9543 23.3987V23.4195V29.0069C16.9543 30.6366 15.6332 31.9577 14.0036 31.9577H8.002C6.37233 31.9577 5.05122 30.6366 5.05122 29.0069V23.0054C5.05122 21.3757 6.37233 20.0546 8.002 20.0546L14.0034 20.0546C14.9275 20.0569 15.7965 20.4941 16.3491 21.2348ZM14.0038 21.9551H14.0036H8.002C7.42196 21.9551 6.95174 22.4253 6.95174 23.0054V29.0069C6.95174 29.587 7.42196 30.0572 8.002 30.0572H14.0036C14.5836 30.0572 15.0538 29.587 15.0538 29.0069V25.42V25.2993L14.9685 25.3846L12.6749 27.6782C12.3038 28.0492 11.7023 28.0492 11.3312 27.6782L9.3313 25.6783C9.3312 25.6782 9.3311 25.6781 9.331 25.678C8.97118 25.3051 8.97644 24.7127 9.34288 24.3462C9.70932 23.9798 10.3018 23.9745 10.6747 24.3343L11.9677 25.6274L12.003 25.6627L12.0384 25.6274L14.9692 22.6966L14.9916 22.6741L14.9808 22.6443C14.8319 22.2324 14.4418 21.9572 14.0038 21.9551Z" fill="#FF6900" stroke="white" stroke-width="0.1"/>
<path d="M16.3491 35.2387L16.3837 35.285L16.4245 35.2442L18.3324 33.3373C18.3325 33.3372 18.3326 33.3371 18.3327 33.337C18.7056 32.9771 19.2981 32.9824 19.6645 33.3488C20.031 33.7153 20.0362 34.3077 19.6764 34.6806C19.6763 34.6807 19.6762 34.6808 19.6761 34.6809L16.969 37.388L16.9543 37.4027V37.4234V43.0108C16.9543 44.6405 15.6332 45.9616 14.0036 45.9616H8.002C6.37233 45.9616 5.05122 44.6405 5.05122 43.0108V37.0093C5.05122 35.3796 6.37233 34.0585 8.002 34.0585L14.0034 34.0585C14.9275 34.0608 15.7965 34.4981 16.3491 35.2387ZM14.0038 35.959H14.0036H8.002C7.42196 35.959 6.95174 36.4292 6.95174 37.0093V43.0108C6.95174 43.5909 7.42196 44.0611 8.002 44.0611H14.0036C14.5836 44.0611 15.0538 43.5909 15.0538 43.0108V39.4239V39.3032L14.9685 39.3885L12.6749 41.6821C12.3038 42.0531 11.7023 42.0531 11.3312 41.6821L9.3313 39.6822C9.3312 39.6821 9.3311 39.682 9.331 39.6819C8.97118 39.309 8.97644 38.7166 9.34288 38.3501C9.70933 37.9837 10.3018 37.9784 10.6747 38.3383L11.9677 39.6313L12.003 39.6666L12.0384 39.6313L14.9692 36.7005L14.9916 36.6781L14.9808 36.6482C14.8319 36.2363 14.4418 35.9611 14.0038 35.959Z" fill="#FF6900" stroke="white" stroke-width="0.1"/>
<path d="M40.8492 49.5076L40.8053 49.4637L38.6824 47.3408C38.6823 47.3407 38.6822 47.3406 38.6821 47.3405C38.3092 46.9807 37.7167 46.9859 37.3503 47.3524C36.9839 47.7188 36.9786 48.3113 37.3384 48.6841C37.3385 48.6843 37.3386 48.6844 37.3387 48.6845L40.3389 51.6846L40.3389 51.6846C40.5171 51.8628 40.7587 51.963 41.0107 51.9631C41.0443 51.963 41.0778 51.9612 41.1111 51.9574L41.1115 51.9573C41.3974 51.9269 41.6542 51.7687 41.8099 51.5269L40.8492 49.5076ZM40.8492 49.5076L40.8827 49.4554L49.2139 36.4951C49.2139 36.495 49.2139 36.495 49.2139 36.495C49.4978 36.0537 50.0858 35.9261 50.5272 36.21C50.9685 36.4939 51.0961 37.0819 50.8122 37.5232L50.8122 37.5232L41.8099 51.5269L40.8492 49.5076Z" fill="#FF6900" stroke="white" stroke-width="0.1"/>
<path d="M30.0078 9.95247H23.006C22.4812 9.95247 22.0557 9.52703 22.0557 9.00221C22.0557 8.4774 22.4812 8.05195 23.006 8.05195H30.0078C30.5326 8.05195 30.9581 8.4774 30.9581 9.00221C30.9581 9.52703 30.5326 9.95247 30.0078 9.95247Z" fill="#FF6900" stroke="white" stroke-width="0.1"/>
<path d="M29.0076 14.9535H23.006C22.4812 14.9535 22.0557 14.528 22.0557 14.0032C22.0557 13.4784 22.4812 13.0529 23.006 13.0529H29.0076C29.5324 13.0529 29.9578 13.4784 29.9578 14.0032C29.9578 14.528 29.5324 14.9535 29.0076 14.9535Z" fill="#FF6900" stroke="white" stroke-width="0.1"/>
<path d="M36.0094 23.9554H23.006C22.4812 23.9554 22.0557 23.53 22.0557 23.0051C22.0557 22.4803 22.4812 22.0549 23.006 22.0549H36.0094C36.5342 22.0549 36.9596 22.4803 36.9596 23.0051C36.9596 23.53 36.5342 23.9554 36.0094 23.9554Z" fill="#FF6900" stroke="white" stroke-width="0.1"/>
<path d="M29.0076 28.9574H23.006C22.4812 28.9574 22.0557 28.5319 22.0557 28.0071C22.0557 27.4823 22.4812 27.0568 23.006 27.0568H29.0076C29.5324 27.0568 29.9578 27.4823 29.9578 28.0071C29.9578 28.5319 29.5324 28.9574 29.0076 28.9574Z" fill="#FF6900" stroke="white" stroke-width="0.1"/>
<path d="M23.006 36.0588H26.0068C26.5316 36.0588 26.957 36.4842 26.957 37.009C26.957 37.5339 26.5316 37.9593 26.0068 37.9593H23.006C22.4812 37.9593 22.0557 37.5339 22.0557 37.009C22.0557 36.4842 22.4812 36.0588 23.006 36.0588Z" fill="#FF6900" stroke="white" stroke-width="0.1"/>
<path d="M23.006 41.0607H25.0065C25.5313 41.0607 25.9568 41.4862 25.9568 42.011C25.9568 42.5358 25.5313 42.9613 25.0065 42.9613H23.006C22.4812 42.9613 22.0557 42.5358 22.0557 42.011C22.0557 41.4862 22.4812 41.0607 23.006 41.0607Z" fill="#FF6900" stroke="white" stroke-width="0.1"/>
</svg>
