<svg width="50" height="50" viewBox="0 0 50 50" fill="none" xmlns="http://www.w3.org/2000/svg">
<path d="M12.5 25H20.791L19.7494 28.125H17.9688V29.6875H32.0312V28.125H30.2506L29.209 25H37.5C38.1214 24.9993 38.7171 24.7521 39.1565 24.3128C39.5959 23.8734 39.843 23.2776 39.8438 22.6562V3.90625C39.843 3.28486 39.5959 2.68913 39.1565 2.24974C38.7171 1.81036 38.1214 1.5632 37.5 1.5625H12.5C11.8786 1.5632 11.2829 1.81036 10.8435 2.24974C10.4041 2.68913 10.157 3.28486 10.1562 3.90625V22.6562C10.157 23.2776 10.4041 23.8734 10.8435 24.3128C11.2829 24.7521 11.8786 24.9993 12.5 25V25ZM21.3965 28.125L22.4381 25H27.5619L28.6035 28.125H21.3965ZM11.7188 3.90625C11.719 3.69912 11.8014 3.50055 11.9478 3.35408C12.0943 3.20762 12.2929 3.12524 12.5 3.125H37.5C37.7071 3.12524 37.9057 3.20762 38.0522 3.35408C38.1986 3.50055 38.281 3.69912 38.2812 3.90625V20.3125H11.7188V3.90625ZM11.7188 21.875H38.2812V22.6562C38.281 22.8634 38.1986 23.062 38.0522 23.2084C37.9057 23.3549 37.7071 23.4373 37.5 23.4375H12.5C12.2929 23.4373 12.0943 23.3549 11.9478 23.2084C11.8014 23.062 11.719 22.8634 11.7188 22.6562V21.875Z" fill="#00A499"/>
<path d="M18.75 35.1562C18.7493 34.5349 18.5021 33.9391 18.0628 33.4997C17.6234 33.0604 17.0276 32.8132 16.4062 32.8125H5.46875C4.84736 32.8132 4.25163 33.0604 3.81224 33.4997C3.37286 33.9391 3.1257 34.5349 3.125 35.1562V43.75H1.5625V46.0938C1.56321 46.7151 1.81037 47.3109 2.24975 47.7502C2.68914 48.1896 3.28487 48.4368 3.90625 48.4375H17.9688C18.5901 48.4368 19.1859 48.1896 19.6252 47.7502C20.0646 47.3109 20.3118 46.7151 20.3125 46.0938V43.75H18.75V35.1562ZM4.6875 35.1562C4.68774 34.9491 4.77012 34.7505 4.91658 34.6041C5.06305 34.4576 5.26162 34.3752 5.46875 34.375H16.4062C16.6134 34.3752 16.812 34.4576 16.9584 34.6041C17.1049 34.7505 17.1873 34.9491 17.1875 35.1562V43.75H4.6875V35.1562ZM18.75 46.0938C18.7498 46.3009 18.6674 46.4995 18.5209 46.6459C18.3745 46.7924 18.1759 46.8748 17.9688 46.875H3.90625C3.69912 46.8748 3.50055 46.7924 3.35408 46.6459C3.20762 46.4995 3.12524 46.3009 3.125 46.0938V45.3125H18.75V46.0938Z" fill="#00A499"/>
<path d="M28.125 35.8032C28.6463 35.6189 29.0856 35.2563 29.3653 34.7794C29.6451 34.3025 29.7473 33.7421 29.6538 33.1972C29.5603 32.6523 29.2771 32.1579 28.8544 31.8016C28.4317 31.4452 27.8966 31.2498 27.3438 31.2498C26.7909 31.2498 26.2558 31.4452 25.8331 31.8016C25.4104 32.1579 25.1273 32.6523 25.0338 33.1972C24.9403 33.7421 25.0424 34.3025 25.3222 34.7794C25.6019 35.2563 26.0412 35.6189 26.5625 35.8032V40.9487L28.3538 42.74L29.4587 41.6352L28.125 40.3015V35.8032ZM27.3438 34.3751C27.1892 34.3751 27.0382 34.3293 26.9097 34.2434C26.7812 34.1576 26.6811 34.0356 26.622 33.8928C26.5628 33.7501 26.5474 33.593 26.5775 33.4414C26.6077 33.2899 26.6821 33.1507 26.7913 33.0414C26.9006 32.9322 27.0398 32.8578 27.1913 32.8276C27.3429 32.7975 27.5 32.8129 27.6427 32.8721C27.7855 32.9312 27.9075 33.0313 27.9933 33.1598C28.0792 33.2883 28.125 33.4393 28.125 33.5939C28.1248 33.801 28.0424 33.9996 27.8959 34.146C27.7495 34.2925 27.5509 34.3749 27.3438 34.3751V34.3751Z" fill="#00A499"/>
<path d="M46.875 43.75V35.1562C46.8743 34.5349 46.6271 33.9391 46.1878 33.4997C45.7484 33.0604 45.1526 32.8132 44.5312 32.8125H33.5938C32.9724 32.8132 32.3766 33.0604 31.9372 33.4997C31.4979 33.9391 31.2507 34.5349 31.25 35.1562V43.75H29.6875V46.0938C29.6882 46.7151 29.9354 47.3109 30.3748 47.7502C30.8141 48.1896 31.4099 48.4368 32.0312 48.4375H46.0938C46.7151 48.4368 47.3109 48.1896 47.7502 47.7502C48.1896 47.3109 48.4368 46.7151 48.4375 46.0938V43.75H46.875ZM32.8125 35.1562C32.8127 34.9491 32.8951 34.7505 33.0416 34.6041C33.188 34.4576 33.3866 34.3752 33.5938 34.375H44.5312C44.7384 34.3752 44.937 34.4576 45.0834 34.6041C45.2299 34.7505 45.3123 34.9491 45.3125 35.1562V43.75H32.8125V35.1562ZM46.875 46.0938C46.8748 46.3009 46.7924 46.4995 46.6459 46.6459C46.4995 46.7924 46.3009 46.8748 46.0938 46.875H32.0312C31.8241 46.8748 31.6255 46.7924 31.4791 46.6459C31.3326 46.4995 31.2502 46.3009 31.25 46.0938V45.3125H46.875V46.0938Z" fill="#00A499"/>
<path d="M5.46875 31.2499C6.02162 31.25 6.5567 31.0546 6.97941 30.6982C7.40212 30.3419 7.68525 29.8476 7.77875 29.3027C7.87225 28.7578 7.77009 28.1974 7.49034 27.7205C7.21059 27.2437 6.77126 26.8811 6.25 26.6968V12.0423L8.36497 9.92735L7.26004 8.82251L4.6875 11.3951V26.6968C4.16625 26.8811 3.72692 27.2437 3.44717 27.7205C3.16742 28.1974 3.06526 28.7578 3.15876 29.3027C3.25226 29.8476 3.53539 30.3419 3.9581 30.6982C4.38081 31.0546 4.91589 31.25 5.46875 31.2499V31.2499ZM5.46875 28.1249C5.62327 28.1249 5.77432 28.1707 5.90279 28.2566C6.03127 28.3424 6.1314 28.4644 6.19054 28.6072C6.24967 28.75 6.26514 28.907 6.23499 29.0586C6.20485 29.2101 6.13044 29.3493 6.02118 29.4586C5.91192 29.5679 5.77272 29.6423 5.62117 29.6724C5.46962 29.7026 5.31254 29.6871 5.16978 29.628C5.02703 29.5688 4.90501 29.4687 4.81917 29.3402C4.73332 29.2117 4.6875 29.0607 4.6875 28.9062C4.68774 28.699 4.77013 28.5005 4.91659 28.354C5.06305 28.2075 5.26163 28.1252 5.46875 28.1249V28.1249Z" fill="#00A499"/>
<path d="M43.75 26.6968C43.2287 26.8811 42.7894 27.2437 42.5096 27.7206C42.2299 28.1975 42.1277 28.7579 42.2212 29.3029C42.3147 29.8478 42.5978 30.3421 43.0206 30.6985C43.4433 31.0548 43.9783 31.2503 44.5312 31.2503C45.0841 31.2503 45.6192 31.0548 46.0419 30.6985C46.4646 30.3421 46.7477 29.8478 46.8412 29.3029C46.9347 28.7579 46.8326 28.1975 46.5528 27.7206C46.2731 27.2437 45.8337 26.8811 45.3125 26.6968V11.3951L42.7399 8.82251L41.635 9.92734L43.75 12.0423V26.6968ZM44.5312 28.1249C44.6857 28.1249 44.8368 28.1707 44.9653 28.2566C45.0937 28.3424 45.1939 28.4644 45.253 28.6072C45.3121 28.75 45.3276 28.907 45.2975 29.0586C45.2673 29.2101 45.1929 29.3493 45.0837 29.4586C44.9744 29.5679 44.8352 29.6423 44.6836 29.6724C44.5321 29.7026 44.375 29.6871 44.2323 29.628C44.0895 29.5688 43.9675 29.4687 43.8816 29.3402C43.7958 29.2117 43.75 29.0607 43.75 28.9062C43.7502 28.699 43.8326 28.5005 43.9791 28.354C44.1255 28.2075 44.3241 28.1252 44.5312 28.1249V28.1249Z" fill="#00A499"/>
<path d="M30.2497 13.5835L32.0312 13.1563V10.2812L30.2498 9.85408L30.0313 9.32689L30.9916 7.75981L28.959 5.72725L27.3919 6.6875L26.8647 6.46901L26.4375 4.6875H23.5625L23.1353 6.46901L22.6082 6.6875L21.0411 5.7272L19.0084 7.75981L19.9688 9.32689L19.7503 9.85404L17.9688 10.2812V13.1563L19.7502 13.5834L19.9687 14.1106L19.0084 15.6777L21.041 17.7103L22.6081 16.75L23.1353 16.9685L23.5625 18.75H26.4375L26.8647 16.9685L27.3918 16.75L28.9589 17.7103L30.9916 15.6777L30.0312 14.1106L30.2497 13.5835ZM29.0157 15.4438L28.7251 15.7345L27.5293 15.0017L25.5309 15.8298L25.2053 17.1875H24.7947L24.4691 15.8298L22.4708 15.0017L21.2749 15.7344L20.9843 15.4438L21.717 14.248L20.8889 12.2496L19.5312 11.9241V11.5134L20.889 11.1878L21.7171 9.18942L20.9843 7.99365L21.2749 7.70302L22.4707 8.43578L24.4691 7.6077L24.7947 6.25H25.2053L25.5309 7.6077L27.5292 8.43577L28.7252 7.70307L29.0157 7.9937L28.283 9.18946L29.1111 11.1879L30.4688 11.5134V11.9241L29.111 12.2497L28.2829 14.2481L29.0157 15.4438Z" fill="#00A499"/>
<path d="M25 9.375C24.5365 9.375 24.0833 9.51246 23.6979 9.76999C23.3125 10.0275 23.0121 10.3936 22.8347 10.8218C22.6573 11.2501 22.6109 11.7213 22.7013 12.176C22.7917 12.6306 23.0149 13.0483 23.3427 13.376C23.6705 13.7038 24.0881 13.927 24.5428 14.0175C24.9974 14.1079 25.4686 14.0615 25.8969 13.8841C26.3252 13.7067 26.6912 13.4063 26.9488 13.0209C27.2063 12.6354 27.3437 12.1823 27.3437 11.7187C27.343 11.0974 27.0959 10.5016 26.6565 10.0622C26.2171 9.62286 25.6214 9.3757 25 9.375V9.375ZM25 12.5C24.8455 12.5 24.6944 12.4542 24.566 12.3683C24.4375 12.2825 24.3374 12.1605 24.2782 12.0177C24.2191 11.875 24.2036 11.7179 24.2338 11.5663C24.2639 11.4148 24.3383 11.2756 24.4476 11.1663C24.5568 11.0571 24.696 10.9827 24.8476 10.9525C24.9991 10.9224 25.1562 10.9378 25.299 10.997C25.4417 11.0561 25.5637 11.1562 25.6496 11.2847C25.7354 11.4132 25.7812 11.5642 25.7812 11.7187C25.781 11.9259 25.6986 12.1245 25.5522 12.2709C25.4057 12.4174 25.2071 12.4998 25 12.5V12.5Z" fill="#00A499"/>
<path d="M16.4063 11.7188C16.4048 9.60477 17.1839 7.56465 18.5943 5.98983L17.43 4.94775C16.2166 6.30581 15.3902 7.96476 15.0369 9.75133C14.6837 11.5379 14.8166 13.3866 15.4219 15.1042L16.8951 14.5834C16.5703 13.6633 16.405 12.6945 16.4063 11.7188Z" fill="#00A499"/>
<path d="M16.2029 16.7975C16.5529 17.4022 16.9641 17.9693 17.43 18.4899L18.5942 17.4478C18.1998 17.0071 17.8517 16.527 17.5554 16.0151L16.2029 16.7975Z" fill="#00A499"/>
<path d="M33.1049 8.85406C33.6168 10.3074 33.7292 11.8715 33.4303 13.3832C33.1314 14.8948 32.4322 16.2984 31.4058 17.4476L32.57 18.4897C33.7834 17.1316 34.6099 15.4727 34.9631 13.6861C35.3164 11.8995 35.1834 10.0509 34.5782 8.33325L33.1049 8.85406Z" fill="#00A499"/>
<path d="M33.7971 6.6401C33.4589 6.05597 33.0636 5.50683 32.617 5.00073L31.4456 6.03462C31.8236 6.46307 32.1583 6.92798 32.4446 7.4225L33.7971 6.6401Z" fill="#00A499"/>
<path d="M23.4375 38.4156V33.2701L21.6462 31.4788L20.5413 32.5836L21.875 33.9173V38.4156C21.3537 38.5999 20.9144 38.9625 20.6347 39.4394C20.3549 39.9163 20.2528 40.4767 20.3463 41.0216C20.4398 41.5665 20.7229 42.0609 21.1456 42.4172C21.5683 42.7736 22.1034 42.969 22.6563 42.969C23.2091 42.969 23.7442 42.7736 24.1669 42.4172C24.5896 42.0609 24.8728 41.5665 24.9663 41.0216C25.0598 40.4767 24.9576 39.9163 24.6778 39.4394C24.3981 38.9625 23.9588 38.5999 23.4375 38.4156V38.4156ZM22.6563 41.4062C22.5017 41.4062 22.3507 41.3604 22.2222 41.2745C22.0937 41.1887 21.9936 41.0667 21.9345 40.9239C21.8753 40.7811 21.8599 40.6241 21.89 40.4725C21.9202 40.321 21.9946 40.1818 22.1038 40.0725C22.2131 39.9632 22.3523 39.8888 22.5038 39.8587C22.6554 39.8285 22.8125 39.844 22.9552 39.9031C23.098 39.9623 23.22 40.0624 23.3058 40.1909C23.3917 40.3194 23.4375 40.4704 23.4375 40.6249C23.4373 40.8321 23.3549 41.0306 23.2084 41.1771C23.062 41.3236 22.8634 41.4059 22.6563 41.4062V41.4062Z" fill="#00A499"/>
</svg>
