<svg width="50" height="50" viewBox="0 0 50 50" fill="none" xmlns="http://www.w3.org/2000/svg">
<path d="M5.46875 15.625H3.90625C3.90625 17.7789 5.65859 19.5312 7.8125 19.5312V17.9688C6.52031 17.9688 5.46875 16.9172 5.46875 15.625Z" fill="#00A499"/>
<path d="M11.6531 9.06172L13.0843 9.6875C14.2046 7.125 16.7351 5.46875 19.5312 5.46875C20.5093 5.46875 21.4554 5.66563 22.3437 6.05391L22.9687 4.62187C21.8828 4.14687 20.7257 3.90625 19.5312 3.90625C16.114 3.90625 13.021 5.92969 11.6531 9.06172Z" fill="#00A499"/>
<path d="M47.4211 34.0914C47.182 34.0305 46.9813 33.857 46.8789 33.6094C46.7805 33.3758 46.7977 33.1086 46.9344 32.8789C47.4867 31.95 47.3391 30.7664 46.5742 30.0016L44.9977 28.425C44.2328 27.6602 43.0508 27.5133 42.1047 28.0742C41.8914 28.2023 41.6219 28.2188 41.3734 28.1141C41.1422 28.018 40.968 27.8172 40.9023 27.5602C40.6367 26.5133 39.6961 25.7812 38.6148 25.7812H36.3852C35.3039 25.7812 34.3633 26.5133 34.0914 27.5789C34.0305 27.818 33.8562 28.0187 33.6102 28.1211C33.3773 28.2195 33.107 28.2023 32.8781 28.0656C31.95 27.5125 30.7656 27.6602 30.0008 28.425L28.4242 30.0016C27.6594 30.7664 27.5117 31.9492 28.0734 32.8945C28.2008 33.1086 28.2188 33.3758 28.1133 33.6266C28.0172 33.857 27.8164 34.0313 27.5602 34.0969C26.5133 34.3625 25.7812 35.3039 25.7812 36.3852V38.6148C25.7812 39.6961 26.5133 40.6367 27.5789 40.9086C27.8187 40.9695 28.0187 41.1437 28.1211 41.3906C28.2195 41.6242 28.2023 41.8914 28.0656 42.1211C27.5133 43.05 27.6609 44.2336 28.4258 44.9984L30.0023 46.575C30.768 47.3398 31.95 47.4875 32.8953 46.9258C33.1078 46.7977 33.3773 46.7812 33.6266 46.8859C33.8578 46.982 34.032 47.1828 34.0977 47.4398C34.3633 48.4867 35.3039 49.2188 36.3852 49.2188H38.6148C39.6961 49.2188 40.6367 48.4867 40.9086 47.4211C40.9695 47.182 41.1438 46.9813 41.3898 46.8789C41.6234 46.7805 41.8922 46.7977 42.1219 46.9344C43.05 47.4875 44.2344 47.3391 44.9992 46.575L46.5758 44.9984C47.3406 44.2336 47.4883 43.0508 46.9266 42.1055C46.7992 41.8914 46.7812 41.6242 46.8859 41.3742C46.982 41.143 47.1828 40.9687 47.4398 40.9031C48.4867 40.6375 49.2188 39.6961 49.2188 38.6148V36.3852C49.2188 35.3039 48.4867 34.3625 47.4211 34.0914V34.0914ZM47.6562 38.6148C47.6562 38.9805 47.4086 39.2992 47.0367 39.3937C46.3242 39.5742 45.7281 40.0898 45.4383 40.7836C45.1484 41.4727 45.2023 42.2648 45.5914 42.9195C45.7781 43.2336 45.7281 43.6344 45.4695 43.893L43.893 45.4695C43.6336 45.7297 43.232 45.7781 42.9039 45.582C42.2656 45.2023 41.4734 45.1477 40.7711 45.443C40.0898 45.7273 39.575 46.3234 39.3891 47.0531C39.2992 47.4086 38.9805 47.6562 38.6148 47.6562H36.3852C36.0195 47.6562 35.7008 47.4086 35.6055 47.0367C35.425 46.3234 34.9094 45.7281 34.2148 45.4375C33.9234 45.3156 33.6125 45.2547 33.3031 45.2547C32.8805 45.2547 32.457 45.368 32.0812 45.5922C31.7664 45.7789 31.3664 45.7297 31.107 45.4703L29.5305 43.8937C29.2719 43.6344 29.2211 43.2344 29.4172 42.9047C29.7969 42.2664 29.8516 41.4734 29.557 40.7727C29.2719 40.0906 28.6758 39.5758 27.9453 39.3898C27.5914 39.2992 27.3438 38.9812 27.3438 38.6148V36.3852C27.3438 36.0195 27.5914 35.7008 27.9633 35.6063C28.6766 35.425 29.2727 34.9094 29.5617 34.2164C29.8516 33.5273 29.7977 32.7352 29.4086 32.0805C29.2219 31.7664 29.2719 31.3656 29.5305 31.107L31.107 29.5305C31.3672 29.2719 31.7688 29.2234 32.0961 29.418C32.7344 29.7984 33.5266 29.8516 34.2289 29.557C34.9102 29.2727 35.425 28.6766 35.6109 27.9469C35.7008 27.5914 36.0195 27.3438 36.3852 27.3438H38.6148C38.9805 27.3438 39.2992 27.5914 39.3945 27.9633C39.575 28.6766 40.0906 29.2719 40.7852 29.5625C41.4742 29.8508 42.2672 29.7969 42.9188 29.4086C43.2344 29.2219 43.6352 29.2727 43.893 29.5305L45.4695 31.107C45.7281 31.3664 45.7789 31.7664 45.5828 32.0961C45.2031 32.7344 45.1484 33.5273 45.4437 34.2281C45.7273 34.9102 46.3234 35.4258 47.0547 35.6117C47.4086 35.7008 47.6562 36.0188 47.6562 36.3852V38.6148Z" fill="#00A499"/>
<path d="M37.5 30.4688C33.6227 30.4688 30.4688 33.6234 30.4688 37.5C30.4688 41.3766 33.6227 44.5312 37.5 44.5312C41.3773 44.5312 44.5312 41.3766 44.5312 37.5C44.5312 33.6234 41.3773 30.4688 37.5 30.4688ZM37.5 42.9688C34.4852 42.9688 32.0312 40.5156 32.0312 37.5C32.0312 34.4844 34.4852 32.0312 37.5 32.0312C40.5148 32.0312 42.9688 34.4844 42.9688 37.5C42.9688 40.5156 40.5148 42.9688 37.5 42.9688Z" fill="#00A499"/>
<path d="M37.5 33.5938C35.3461 33.5938 33.5938 35.3461 33.5938 37.5C33.5938 39.6539 35.3461 41.4062 37.5 41.4062C39.6539 41.4062 41.4062 39.6539 41.4062 37.5C41.4062 35.3461 39.6539 33.5938 37.5 33.5938ZM37.5 39.8438C36.2078 39.8438 35.1562 38.7922 35.1562 37.5C35.1562 36.2078 36.2078 35.1562 37.5 35.1562C38.7922 35.1562 39.8438 36.2078 39.8438 37.5C39.8438 38.7922 38.7922 39.8438 37.5 39.8438Z" fill="#00A499"/>
<path d="M19.5312 11.7188H25.7812V13.2812H19.5312V11.7188Z" fill="#00A499"/>
<path d="M19.5312 14.8438H25.7812V16.4062H19.5312V14.8438Z" fill="#00A499"/>
<path d="M19.5312 17.9688H25.7812V19.5312H19.5312V17.9688Z" fill="#00A499"/>
<path d="M19.5312 21.0938H25.7812V22.6562H19.5312V21.0938Z" fill="#00A499"/>
<path d="M13.2812 24.2188H0.78125V41.4062H13.2812V36.7188H24.2188V35.1562H13.2812V24.2188ZM11.7188 39.8438H2.34375V25.7812H11.7188V39.8438Z" fill="#00A499"/>
<path d="M3.90625 27.3438H10.1562V28.9062H3.90625V27.3438Z" fill="#00A499"/>
<path d="M3.90625 30.4688H10.1562V32.0312H3.90625V30.4688Z" fill="#00A499"/>
<path d="M3.90625 33.5938H10.1562V35.1562H3.90625V33.5938Z" fill="#00A499"/>
<path d="M3.90625 36.7188H10.1562V38.2812H3.90625V36.7188Z" fill="#00A499"/>
<path d="M18.75 43.0797C17.4055 43.4289 16.4062 44.6422 16.4062 46.0938C16.4062 47.8172 17.8078 49.2188 19.5312 49.2188C21.2547 49.2188 22.6562 47.8172 22.6562 46.0938C22.6562 44.6422 21.657 43.4289 20.3125 43.0797V39.8438H24.2188V38.2812H18.75V43.0797ZM21.0938 46.0938C21.0938 46.9555 20.393 47.6562 19.5312 47.6562C18.6695 47.6562 17.9688 46.9555 17.9688 46.0938C17.9688 45.232 18.6695 44.5312 19.5312 44.5312C20.393 44.5312 21.0938 45.232 21.0938 46.0938Z" fill="#00A499"/>
<path d="M21.0938 25.7812H28.9062V22.6562H42.9688C46.4148 22.6562 49.2188 19.8523 49.2188 16.4062C49.2188 12.9602 46.4148 10.1562 42.9688 10.1562C42.5406 10.1562 42.1133 10.2016 41.6906 10.2914C40.4203 6.49453 36.8773 3.90625 32.8125 3.90625C31.3086 3.90625 29.8297 4.27188 28.4945 4.96797C26.2586 2.29844 23.0297 0.78125 19.5312 0.78125C14.5602 0.78125 10.1094 3.97422 8.47891 8.62656C4.32812 8.23047 0.78125 11.5281 0.78125 15.625C0.78125 19.5016 3.93516 22.6562 7.8125 22.6562H16.4062V25.7812H19.5312V33.5938H24.2188V32.0312H21.0938V25.7812ZM16.4062 21.0938H7.8125C4.79766 21.0938 2.34375 18.6406 2.34375 15.625C2.34375 12.2617 5.44062 9.5875 8.87109 10.2609L9.575 10.3984L9.77266 9.70859C11.0117 5.37266 15.0242 2.34375 19.5312 2.34375C22.7625 2.34375 25.7289 3.83906 27.6711 6.44609L28.1 7.02109L28.7094 6.64375C29.9484 5.875 31.3672 5.46875 32.8125 5.46875C36.425 5.46875 39.5438 7.92266 40.3961 11.4359L40.6 12.275L41.4148 11.9883C41.9242 11.8094 42.4469 11.7188 42.9688 11.7188C45.5539 11.7188 47.6562 13.8211 47.6562 16.4062C47.6562 18.9914 45.5539 21.0938 42.9688 21.0938H28.9062V8.59375H16.4062V21.0938ZM17.9688 24.2188V10.1562H27.3438V24.2188H17.9688Z" fill="#00A499"/>
<path d="M44.5312 16.4062H46.0938C46.0938 14.6828 44.6922 13.2812 42.9688 13.2812V14.8438C43.8305 14.8438 44.5312 15.5445 44.5312 16.4062Z" fill="#00A499"/>
<path d="M37.3062 11.9414L38.8031 11.4961C38.0211 8.86719 35.5578 7.03125 32.8125 7.03125V8.59375C34.8719 8.59375 36.7195 9.97031 37.3062 11.9414Z" fill="#00A499"/>
<path d="M36.7188 17.9688H38.2812V19.5312H36.7188V17.9688Z" fill="#00A499"/>
<path d="M33.5938 17.9688H35.1562V19.5312H33.5938V17.9688Z" fill="#00A499"/>
<path d="M30.4688 17.9688H32.0312V19.5312H30.4688V17.9688Z" fill="#00A499"/>
</svg>
