<svg width="50" height="50" viewBox="0 0 50 50" fill="none" xmlns="http://www.w3.org/2000/svg">
<path d="M20.3125 7.8125H21.875C21.875 5.65859 20.1227 3.90625 17.9688 3.90625V5.46875C19.2609 5.46875 20.3125 6.52031 20.3125 7.8125Z" fill="#00A499"/>
<path d="M46.875 11.7188C48.1672 11.7188 49.2188 10.6672 49.2188 9.375V3.125C49.2188 1.83281 48.1672 0.78125 46.875 0.78125H34.375C33.0828 0.78125 32.0312 1.83281 32.0312 3.125V5.46875H29.6875C28.3953 5.46875 27.3438 6.52031 27.3438 7.8125V9.79687C26.6852 9.20547 25.8602 8.79922 24.9469 8.65547C24.9805 8.37734 25 8.09531 25 7.8125C25 3.93594 21.8453 0.78125 17.9688 0.78125C15.193 0.78125 12.7172 2.39766 11.582 4.87656C11.1187 4.75078 10.6414 4.6875 10.1562 4.6875C7.68672 4.6875 5.57422 6.3125 4.90703 8.63047C2.58672 8.90937 0.78125 10.8867 0.78125 13.2812C0.78125 15.8664 2.88359 17.9688 5.46875 17.9688H11.7188V32.0422C11.7188 32.3977 11.6367 32.7531 11.4805 33.0727L10.825 29.7961C10.3555 27.4516 8.27891 25.7492 5.8875 25.7492C4.79609 25.7492 3.90781 26.6375 3.90703 27.7297C3.90703 28.1219 4.02188 28.5016 4.23984 28.8281L5.04375 30.0336C5.34141 30.4797 5.53359 30.9977 5.60078 31.5297L6.14063 35.8531C6.23047 36.5727 6.45859 37.2578 6.79453 37.8422L9.375 43.1484V44.5312H7.8125V49.2188H25V44.5312H23.4375V43.2289L24.6875 41.5625C25.393 40.6219 25.7812 39.457 25.7812 38.2812V28.125C25.7812 26.8328 24.7297 25.7812 23.4375 25.7812C23.1289 25.7812 22.8359 25.8445 22.5656 25.9531C22.2961 24.957 21.393 24.2188 20.3125 24.2188C19.7102 24.2188 19.1656 24.4539 18.75 24.8281C18.3344 24.4531 17.7898 24.2188 17.1875 24.2188C16.9125 24.2188 16.6516 24.275 16.4062 24.3625V17.9688H22.6562V21.875C22.6562 23.1672 23.7078 24.2188 25 24.2188H27.3438V39.0625C27.3438 40.3547 28.3953 41.4062 29.6875 41.4062H32.0312V43.75C32.0312 45.0422 33.0828 46.0938 34.375 46.0938H36.7188V47.6562H35.1562V49.2188H46.0938V47.6562H44.5312V46.0938H46.875C48.1672 46.0938 49.2188 45.0422 49.2188 43.75V37.5C49.2188 36.2078 48.1672 35.1562 46.875 35.1562H34.375C33.0828 35.1562 32.0312 36.2078 32.0312 37.5V39.8438H29.6875C29.257 39.8438 28.9062 39.493 28.9062 39.0625V24.2188H32.0312V26.5625C32.0312 27.8547 33.0828 28.9062 34.375 28.9062H36.7188V30.4688H35.1562V32.0312H46.0938V30.4688H44.5312V28.9062H46.875C48.1672 28.9062 49.2188 27.8547 49.2188 26.5625V20.3125C49.2188 19.0203 48.1672 17.9688 46.875 17.9688H34.375C33.0828 17.9688 32.0312 19.0203 32.0312 20.3125V22.6562H28.9062V7.8125C28.9062 7.38203 29.257 7.03125 29.6875 7.03125H32.0312V9.375C32.0312 10.6672 33.0828 11.7188 34.375 11.7188H36.7188V13.2812H35.1562V14.8438H46.0938V13.2812H44.5312V11.7188H46.875ZM42.9688 47.6562H38.2812V46.0938H42.9688V47.6562ZM46.875 44.5312H34.375C33.9445 44.5312 33.5938 44.1805 33.5938 43.75V42.9688H47.6562V43.75C47.6562 44.1805 47.3055 44.5312 46.875 44.5312ZM34.375 36.7188H46.875C47.3055 36.7188 47.6562 37.0695 47.6562 37.5V41.4062H33.5938V37.5C33.5938 37.0695 33.9445 36.7188 34.375 36.7188ZM42.9688 30.4688H38.2812V28.9062H42.9688V30.4688ZM46.875 27.3438H34.375C33.9445 27.3438 33.5938 26.993 33.5938 26.5625V25.7812H47.6562V26.5625C47.6562 26.993 47.3055 27.3438 46.875 27.3438ZM34.375 19.5312H46.875C47.3055 19.5312 47.6562 19.882 47.6562 20.3125V24.2188H33.5938V20.3125C33.5938 19.882 33.9445 19.5312 34.375 19.5312ZM2.34375 13.2812C2.34375 11.5578 3.74531 10.1562 5.46875 10.1562C7.19219 10.1562 8.59375 11.5578 8.59375 13.2812H10.1562C10.1562 11.0617 8.60469 9.20234 6.52969 8.71953C7.10625 7.25313 8.51875 6.25 10.1562 6.25C10.6961 6.25 11.2227 6.36016 11.7203 6.57813L12.5078 6.92266L12.7758 6.10625C13.5148 3.85625 15.6016 2.34375 17.9688 2.34375C20.9844 2.34375 23.4375 4.79688 23.4375 7.8125C23.4375 8.10391 23.407 8.39141 23.3617 8.67578C21.1852 9.08047 19.5312 10.9898 19.5312 13.2812H21.0938C21.0938 11.5578 22.4953 10.1562 24.2188 10.1562C25.9422 10.1562 27.3438 11.5578 27.3438 13.2812C27.3438 15.0047 25.9422 16.4062 24.2188 16.4062H16.2625C15.9391 15.4992 15.0797 14.8438 14.0625 14.8438C13.0453 14.8438 12.1859 15.4992 11.8625 16.4062H5.46875C3.74531 16.4062 2.34375 15.0047 2.34375 13.2812V13.2812ZM23.4375 47.6562H9.375V46.0938H23.4375V47.6562ZM17.1875 25.7812C17.618 25.7812 17.9688 26.132 17.9688 26.5625V29.6875H19.5312V26.5625C19.5312 26.132 19.882 25.7812 20.3125 25.7812C20.743 25.7812 21.0938 26.132 21.0938 26.5625V28.125V29.6875H22.6562V28.125C22.6562 27.6945 23.007 27.3438 23.4375 27.3438C23.868 27.3438 24.2188 27.6945 24.2188 28.125V38.2812C24.2188 39.1211 23.9414 39.9539 23.4375 40.625L21.875 42.7086V44.5312H10.9375V42.7891L8.17422 37.1125C7.91719 36.6625 7.75391 36.1734 7.68984 35.6594L7.15 31.3359C7.05313 30.5641 6.77422 29.8141 6.34297 29.1672L5.53906 27.9609C5.49297 27.8922 5.46875 27.8117 5.46875 27.7289C5.46875 27.4984 5.65625 27.3109 5.88672 27.3109C7.53672 27.3109 8.96875 28.4844 9.29219 30.1023L10.2969 35.1234H12.2016L12.8688 33.7891C13.1383 33.2492 13.2812 32.6453 13.2812 32.0422V17.1875C13.2812 16.757 13.632 16.4062 14.0625 16.4062C14.493 16.4062 14.8438 16.757 14.8438 17.1875V26.5625V29.6875H16.4062V26.5625C16.4062 26.132 16.757 25.7812 17.1875 25.7812V25.7812ZM25 22.6562C24.5695 22.6562 24.2188 22.3055 24.2188 21.875V17.9688C25.4203 17.9688 26.5133 17.5109 27.3438 16.7656V22.6562H25ZM34.375 2.34375H46.875C47.3055 2.34375 47.6562 2.69453 47.6562 3.125V7.03125H33.5938V3.125C33.5938 2.69453 33.9445 2.34375 34.375 2.34375ZM33.5938 9.375V8.59375H47.6562V9.375C47.6562 9.80547 47.3055 10.1562 46.875 10.1562H34.375C33.9445 10.1562 33.5938 9.80547 33.5938 9.375ZM42.9688 13.2812H38.2812V11.7188H42.9688V13.2812Z" fill="#00A499"/>
</svg>
