<svg width="50" height="50" viewBox="0 0 50 50" fill="none" xmlns="http://www.w3.org/2000/svg">
<g clip-path="url(#clip0_705_68)">
<path d="M48.1308 20.2148C47.1177 18.8633 45.7384 17.8026 44.1876 17.1696C44.2385 16.7028 44.2642 16.2318 44.2642 15.7617C44.2642 8.73242 38.5833 3.01367 31.6005 3.01367C29.3912 3.01367 27.2158 3.59531 25.3097 4.69561C23.6513 5.65293 22.2214 6.98467 21.1425 8.5711C21.1357 8.57031 21.1289 8.56944 21.1222 8.56875C20.562 8.47822 19.9887 8.43233 19.4176 8.43233C15.3564 8.43233 11.7 10.7014 9.87295 14.3544C9.37832 15.3016 9.03838 16.3028 8.85811 17.3414C3.97324 17.3457 0 21.3468 0 26.2643C0 30.1501 2.46406 33.5601 6.13359 34.7551C6.92959 35.0418 7.76504 35.1872 8.61689 35.1872H13.6532C14.09 41.7669 19.5822 46.9863 26.2706 46.9863C32.9591 46.9863 38.4512 41.7668 38.8881 35.1872H40.7126C45.8337 35.1872 50.0001 30.994 50.0001 25.8397C50 23.7911 49.3537 21.846 48.1308 20.2148V20.2148ZM26.2705 45.0332C20.3748 45.0332 15.5782 40.2366 15.5782 34.3409C15.5782 28.4452 20.3748 23.6486 26.2705 23.6486C32.1663 23.6486 36.9629 28.4452 36.9629 34.3409C36.9629 40.2366 32.1663 45.0332 26.2705 45.0332ZM40.7125 33.2341H38.868C38.3055 26.7777 32.8704 21.6955 26.2705 21.6955C19.6707 21.6955 14.2355 26.7777 13.6731 33.2341H8.6168C7.98701 33.2341 7.37021 33.1262 6.78359 32.9132C6.77285 32.9093 6.76201 32.9056 6.75117 32.9021C3.88125 31.9734 1.95312 29.306 1.95312 26.2643C1.95312 22.474 4.96934 19.3808 8.70879 19.2962C8.73701 20.8181 9.09482 22.2823 9.77373 23.6515C9.94414 23.9953 10.2899 24.1945 10.6494 24.1945C10.7951 24.1945 10.9431 24.1618 11.0824 24.0927C11.5656 23.8531 11.7632 23.2672 11.5236 22.784C10.9507 21.6282 10.6602 20.389 10.6602 19.1005C10.6602 14.327 14.7476 10.4435 19.7719 10.4435C24.796 10.4435 28.8835 14.327 28.8835 19.1005C28.8835 19.6398 29.3208 20.0771 29.8601 20.0771C30.3993 20.0771 30.8366 19.6398 30.8366 19.1005C30.8366 14.4081 27.6435 10.4174 23.2314 9.02139C25.2535 6.46065 28.2949 4.9669 31.6007 4.9669C37.5065 4.9669 42.3112 9.80947 42.3112 15.7618C42.3112 16.3968 42.2562 17.0334 42.1475 17.6537C42.0622 18.1401 42.3536 18.6138 42.8263 18.7568C45.9002 19.6877 48.047 22.6003 48.047 25.8398C48.0469 29.917 44.7567 33.2341 40.7125 33.2341V33.2341Z" fill="#00A499"/>
<path d="M27.7896 33.5508C27.6256 33.4929 27.4699 33.4372 27.3224 33.3841V30.2462C27.7089 30.364 27.9767 30.5609 28.1081 30.7481C28.418 31.1895 29.027 31.2963 29.4685 30.9865C29.91 30.6767 30.0167 30.0676 29.7068 29.6262C29.2463 28.97 28.4115 28.4224 27.3224 28.2448V28.0386C27.3224 27.4992 26.8851 27.062 26.3458 27.062C25.8065 27.062 25.3692 27.4992 25.3692 28.0386V28.3191C25.2209 28.3521 25.0701 28.3914 24.9172 28.4375C23.6919 28.8066 22.7669 29.997 22.668 31.3321C22.5702 32.6506 23.2723 33.7962 24.5458 34.3968C24.7264 34.4819 25.0094 34.5996 25.3692 34.7399V38.4975C24.8669 38.3475 24.4055 38.0959 24.1058 37.7237C23.7673 37.3036 23.1526 37.2375 22.7325 37.5758C22.3125 37.9141 22.2463 38.5289 22.5846 38.9489C23.2962 39.8323 24.3466 40.3048 25.3692 40.5057V40.6435C25.3692 41.1828 25.8065 41.62 26.3458 41.62C26.8851 41.62 27.3224 41.1828 27.3224 40.6435V40.5802C29.4804 40.3069 30.4224 38.9033 30.5814 37.6501C30.8043 35.8963 29.6562 34.2105 27.7896 33.5508V33.5508ZM24.6157 31.4765C24.6518 30.9908 24.9672 30.528 25.3692 30.3491V32.6256C24.7001 32.306 24.5899 31.8247 24.6157 31.4765ZM28.6439 37.4041C28.5663 38.0158 28.0915 38.4398 27.3224 38.6012V35.464C28.3425 35.9017 28.7259 36.7594 28.6439 37.4041Z" fill="#00A499"/>
</g>
<defs>
<clipPath id="clip0_705_68">
<rect width="50" height="50" fill="white"/>
</clipPath>
</defs>
</svg>
