<svg width="122" height="134" viewBox="0 0 122 134" fill="none" xmlns="http://www.w3.org/2000/svg">
    <g filter="url(#d14pbh7wua)">
        <path d="m52.37 76.982-1.258 1.536a7.913 7.913 0 0 1-10.056 1.828L17.83 67.044a3.658 3.658 0 0 1-.178-6.225l5.202-3.36a8.506 8.506 0 0 0 3.538-4.841l.576-2.098" stroke="#FF8200" stroke-miterlimit="10"/>
        <path d="M66.302 103.98c-10.497-.011-19.002-4.833-18.995-10.771.006-5.938 8.52-10.742 19.017-10.731 10.498.01 19.002 4.833 18.996 10.77-.006 5.938-8.521 10.743-19.018 10.732z" fill="#F3F3F3" style="mix-blend-mode:multiply"/>
        <path d="M66.367 101.396c-8.611 0-15.592-3.673-15.592-8.205s6.98-8.205 15.592-8.205c8.611 0 15.592 3.673 15.592 8.205s-6.98 8.205-15.592 8.205z" fill="#6F89AA"/>
        <path d="M103.584 10.833a1.736 1.736 0 0 1 .274-1.677c.288-.363.432-.818.407-1.28 0-.818-.037-1.888-.041-2.633a.97.97 0 0 1 .868-.983.98.98 0 0 1 1.075.873l.749 7.387a10.881 10.881 0 0 1-.8 5.34l-2.532-7.027z" fill="#05015E"/>
        <path d="m106.116 17.864-.114-.082a2.513 2.513 0 0 1-.914-1.294l-1.769-5.783.205-.059 2.592 7.218z" fill="#7B728E"/>
        <path d="M105.985 14.658c-.257-.084-.361-.472-.233-.869.128-.396.441-.65.698-.566.257.083.361.471.233.868-.129.396-.441.65-.698.567z" fill="#FF6900"/>
        <path d="M98.099 8.031a4.964 4.964 0 0 0 4.571 1.829l2.285-.215a.457.457 0 0 1 .485.594.908.908 0 0 1-.754.627l-3.771.457a4.078 4.078 0 0 1-2.003-.234 3.223 3.223 0 0 1-1.124-.74l.31-2.318z" fill="#05015E"/>
        <path d="M72.815 13.873a4.174 4.174 0 0 1 3.58-4.69L94.28 6.486a4.169 4.169 0 0 1 4.584 5.204 4.17 4.17 0 0 1-3.478 3.065l-17.882 2.697a4.174 4.174 0 0 1-4.69-3.579z" fill="url(#7btef5a8yb)"/>
        <path d="M49.695 87.418v-.151c.183-6.276 1.453-19.94 8.735-27.486h.023c1.408-1.554 4.425-2.629 7.917-2.629 3.493 0 6.514 1.075 7.922 2.633 7.282 7.543 8.552 21.206 8.735 27.482v.15c.055 1.962 0 3.936 0 3.936 0 4.846-7.46 8.772-16.661 8.772-9.202 0-16.657-3.926-16.657-8.772 0 0-.069-1.974-.014-3.935z" fill="url(#v2axzwvubc)"/>
        <path d="M66.376 66.382c-4.842 0-8.767-2.067-8.767-4.617s3.925-4.617 8.767-4.617 8.768 2.067 8.768 4.617-3.926 4.617-8.768 4.617z" fill="#05015E"/>
        <path d="M58.482 59.918c.974-1.828 4.114-3.145 7.894-3.145 3.552 0 6.578 1.188 7.72 2.848.22.128.49.274.49.274v1.435c-.229 2.286-3.812 4.082-8.196 4.082-4.475 0-8.11-1.883-8.2-4.228v-1.371l.292.105z" fill="url(#kxau0nv5sd)"/>
        <path d="M66.376 64.288c-4.532 0-8.205-1.934-8.205-4.32s3.673-4.32 8.205-4.32c4.531 0 8.205 1.934 8.205 4.32s-3.674 4.32-8.205 4.32z" fill="url(#krmklkgzqe)"/>
        <path d="M66.374 62.505c-3.006 0-5.444-1.283-5.444-2.866 0-1.583 2.438-2.866 5.444-2.866 3.007 0 5.444 1.283 5.444 2.866 0 1.583-2.437 2.866-5.444 2.866z" fill="#05015E"/>
        <path d="M66.374 57.76c-2.683 0-4.914 1.024-5.357 2.373a1.647 1.647 0 0 1-.087-.494c0-1.582 2.441-2.866 5.444-2.866s5.444 1.284 5.444 2.866c-.002.168-.03.334-.082.494-.448-1.349-2.674-2.373-5.362-2.373z" fill="#322649"/>
        <path d="m65.845 45.2 4.125 9.625a4.172 4.172 0 1 1-7.667 3.286l-4.126-9.625a4.172 4.172 0 1 1 7.668-3.286z" fill="url(#rfri72c6xf)"/>
        <path d="M61.366 55.91c.064.14.52 1.338-.083 4.058 0 0 1.033 2.208 5.394 2.117 4.361-.092 4.85-2.391 4.81-2.446-.042-.055-.426-3.99-2.538-7.231 0 0 .073 2.038-3.305 3.323-3.021 1.147-4.278.178-4.278.178zM59.953 39.513s-3.657 1.156-2.519 6.952a2.326 2.326 0 0 0 1.07 1.56c.713.424 1.883.753 3.707.282 2.519-.644 3.021-2.175 3.305-2.866.124-.327.33-.616.599-.84.457-.37 1.092-1.18 1.092-2.849l-7.254-2.24z" fill="#05015E"/>
        <path d="M67.586 41.364s-1.399 1.87-4.21 1.001c-2.624-.81-3.456-2.18-3.588-3.451l7.798 2.45z" fill="#05015E"/>
        <path d="M63.05 41.78a5.637 5.637 0 0 1-3.098-2.286 1.37 1.37 0 0 1-.096-1.083l4.895-15.117a4.173 4.173 0 0 1 7.931 2.597l-4.859 15.007a1.371 1.371 0 0 1-.562.74c-.946.608-2.56.695-4.21.142z" fill="url(#acrh3j68rg)"/>
        <path d="m75.134 11.29.169.129a4.16 4.16 0 0 0-.517 3.652 1.1 1.1 0 0 1-.091.914l-2.286 3.767c-.594 1.074-.676 1.828-.15 2.569l.095.274c-.059-.142-.329-.343-.457-.457a4.895 4.895 0 0 0-1.371-.828 2.514 2.514 0 0 0-1.742-.096l-1.668.517-1.198.292 9.216-10.732z" fill="#3D2E54"/>
        <path d="M72.377 22.609a3.58 3.58 0 0 0-3.067-1.321 4.57 4.57 0 0 0-2.688 1.37.402.402 0 0 1-.603-.031l-.101-.119a.338.338 0 0 1 .032-.457 4.923 4.923 0 0 1 2.994-1.335c1.842-.064 2.62.53 3.433 1.893z" fill="#3D2E54"/>
        <path d="m75.311 11.423-8.867 11.218a.247.247 0 0 1-.316-.028c-.15-.15-.352-.251-.251-.484l9.256-10.839.178.133z" fill="#53466D"/>
        <path d="M94.84 10.834a1.188 1.188 0 0 0 0-.128 6.37 6.37 0 0 0-1.23-3.054c-.64-.804-1.403-1.193-2.153-1.088l.05.357c.617-.087 1.267.251 1.829.955a6.02 6.02 0 0 1 1.143 2.88c.301 2.185-.412 4.141-1.632 4.47l-.165.032.046.357c.073-.008.145-.024.215-.046 1.376-.37 2.203-2.395 1.897-4.736zM104.823 14.253l-.539-.398-1.271-2.98.914-.558.896 3.936zM63.816 26.92a.745.745 0 1 1 1.42.45l-1.433 4.518a.745.745 0 1 1-1.42-.45l1.433-4.519z" fill="#05015E"/>
        <path d="M105.224 5.723s.352-5.243-4.849-4.68c-5.202.561-10.107 6.001-23.363 6.938-13.257.937-13.832 8.649-13.343 15.702.489 7.053-.819 8.717-.819 8.717" stroke="#FF8200" stroke-miterlimit="10"/>
        <path d="M77.038 9.087s2.235.457 2.235 4.869c0 0-.032 2.857-1.714 3.487a4.572 4.572 0 0 1-1.174 1.714 5.028 5.028 0 0 0-1.564 2.684 10.098 10.098 0 0 1-1.915 3.954 1.138 1.138 0 0 1-.855.434c-1.294.06-4.64-.073-7.067-2.66a.887.887 0 0 1-.233-.627c0-1.101.242-4.452 2.24-6.54a17.367 17.367 0 0 0 2.624-3.329c.996-1.741 3.122-3.945 7.423-3.986z" fill="#05015E"/>
    </g>
    <defs>
        <radialGradient id="v2axzwvubc" cx="0" cy="0" r="1" gradientUnits="userSpaceOnUse" gradientTransform="matrix(-2.57537 -20.08778 14.92286 -1.9132 65.906 78.657)">
            <stop stop-color="#fff"/>
            <stop offset=".29" stop-color="#F3F4FC"/>
            <stop offset="1" stop-color="#D7DBF5"/>
        </radialGradient>
        <radialGradient id="krmklkgzqe" cx="0" cy="0" r="1" gradientUnits="userSpaceOnUse" gradientTransform="matrix(-236.594 0 0 -124.558 -21710.3 4239.79)">
            <stop stop-color="#fff"/>
            <stop offset=".29" stop-color="#F3F4FC"/>
            <stop offset="1" stop-color="#D7DBF5"/>
        </radialGradient>
        <radialGradient id="rfri72c6xf" cx="0" cy="0" r="1" gradientUnits="userSpaceOnUse" gradientTransform="matrix(-132.4345 -320.12017 26.93946 -11.14492 -11187.2 -23178.5)">
            <stop stop-color="#fff"/>
            <stop offset=".29" stop-color="#F3F4FC"/>
            <stop offset="1" stop-color="#D7DBF5"/>
        </radialGradient>
        <radialGradient id="acrh3j68rg" cx="0" cy="0" r="1" gradientUnits="userSpaceOnUse" gradientTransform="rotate(-71.565 -9464.976 -11502.292) scale(248.842 65.9088)">
            <stop stop-color="#fff"/>
            <stop offset=".29" stop-color="#F3F4FC"/>
            <stop offset="1" stop-color="#D7DBF5"/>
        </radialGradient>
        <linearGradient id="7btef5a8yb" x1="-39846.4" y1="5860.23" x2="-39772.5" y2="7102.7" gradientUnits="userSpaceOnUse">
            <stop stop-color="#D7DBF5"/>
            <stop offset=".13" stop-color="#D9DDF5"/>
            <stop offset=".18" stop-color="#E0E3F7"/>
            <stop offset=".21" stop-color="#EBEDFA"/>
            <stop offset=".24" stop-color="#fff"/>
            <stop offset=".25" stop-color="#FCFCFE"/>
            <stop offset=".28" stop-color="#EBEDFA"/>
            <stop offset=".32" stop-color="#E0E3F7"/>
            <stop offset=".38" stop-color="#D9DDF5"/>
            <stop offset=".54" stop-color="#D7DBF5"/>
        </linearGradient>
        <linearGradient id="kxau0nv5sd" x1="74.261" y1="61.71" x2="66.765" y2="61.125" gradientUnits="userSpaceOnUse">
            <stop stop-color="#DDE0F6"/>
            <stop offset=".11" stop-color="#E0E3F7"/>
            <stop offset=".2" stop-color="#EBEDFA"/>
            <stop offset=".28" stop-color="#FDFEFF"/>
            <stop offset=".29" stop-color="#FCFDFF"/>
            <stop offset=".37" stop-color="#EBEEFA"/>
            <stop offset=".47" stop-color="#E0E3F7"/>
            <stop offset=".61" stop-color="#D9DDF5"/>
            <stop offset="1" stop-color="#D7DBF5"/>
        </linearGradient>
        <filter id="d14pbh7wua" x=".5" y=".5" width="121.473" height="133.48" filterUnits="userSpaceOnUse" color-interpolation-filters="sRGB">
            <feFlood flood-opacity="0" result="BackgroundImageFix"/>
            <feColorMatrix in="SourceAlpha" values="0 0 0 0 0 0 0 0 0 0 0 0 0 0 0 0 0 0 127 0" result="hardAlpha"/>
            <feOffset dy="15"/>
            <feGaussianBlur stdDeviation="7.5"/>
            <feComposite in2="hardAlpha" operator="out"/>
            <feColorMatrix values="0 0 0 0 0 0 0 0 0 0 0 0 0 0 0 0 0 0 0.15 0"/>
            <feBlend in2="BackgroundImageFix" result="effect1_dropShadow_4294_18338"/>
            <feBlend in="SourceGraphic" in2="effect1_dropShadow_4294_18338" result="shape"/>
        </filter>
    </defs>
</svg>
