<svg width="144" height="168" viewBox="0 0 144 168" fill="none" xmlns="http://www.w3.org/2000/svg">
    <g filter="url(#ig8jh0b2oa)">
        <path d="M29.298 61.507c-1.431.817-2.522 2.791-2.522 4.426l.137 59.65c0 1.635 1.159 2.248 2.59 1.43l86.975-50.117c1.432-.817 2.522-2.792 2.522-4.426l-.136-59.651c0-1.634-1.159-2.247-2.59-1.43L29.298 61.507z" fill="url(#fecztlxe7b)"/>
        <path d="M27.525 60.485 114.5 10.368c.681-.409 1.363-.477 1.84-.205l1.772 1.022c-.477-.273-1.09-.204-1.84.204L29.297 61.507c-1.431.817-2.522 2.792-2.522 4.426l.136 59.651c0 .817.273 1.362.75 1.634l-1.772-1.021c-.477-.273-.75-.818-.75-1.635l-.136-59.65c-.068-1.635 1.09-3.61 2.522-4.427z" fill="url(#7szwietlbc)"/>
        <path d="m45.793 98.346 57.461-33.162c.068-.068.136 0 .136.068 0 .136-.068.205-.136.273L45.793 98.687c-.069.068-.137 0-.137-.069 0-.136.068-.272.137-.272z" fill="#FF8200"/>
        <path d="M98.89 63.686c.068-.068.136 0 .136.068v4.018c0 .136-.068.204-.136.272-.069.068-.137 0-.137-.068v-4.018c-.068-.136 0-.272.137-.272zM85.599 71.313c.068-.068.136 0 .136.068v4.017c0 .137-.068.205-.136.273-.069.068-.137 0-.137-.068v-4.018c0-.136.069-.204.137-.272zM72.376 78.94c.068-.069.136 0 .136.067v4.018c0 .136-.068.204-.136.272-.069.068-.137 0-.137-.068v-4.017c0-.069.069-.205.137-.273zM59.151 86.566c.068-.068.136 0 .136.068v4.017c0 .137-.068.205-.136.273-.068.068-.136 0-.136-.068v-4.018c-.069-.068.068-.204.136-.272zM92.141 71.79c.068-.069.136 0 .136.067v4.018c0 .136-.068.204-.136.272-.068.068-.136 0-.136-.068v-4.017c-.068-.068 0-.205.136-.273zM78.85 79.416c.068-.068.137 0 .137.068v4.018c0 .136-.069.204-.137.272-.068.068-.136 0-.136-.068v-4.018c0-.068.068-.204.136-.272zM65.628 87.11c.068-.068.136 0 .136.069v4.017c0 .136-.068.204-.136.273-.069.068-.137 0-.137-.069v-4.017c0-.136.068-.272.137-.272zM52.402 94.737c.069-.068.137 0 .137.068v4.018c0 .136-.069.204-.137.272-.068.068-.136 0-.136-.068V95.01c-.068-.136 0-.205.136-.273z" fill="#FF8200"/>
        <path fill-rule="evenodd" clip-rule="evenodd" d="M98.892 58.102c1.363-.817 2.522-.136 2.522 1.43 0 1.567-1.091 3.541-2.522 4.29-1.364.818-2.522.137-2.522-1.43 0-1.566 1.09-3.473 2.522-4.29zM85.598 65.73c1.363-.818 2.522-.137 2.522 1.43 0 1.565-1.09 3.54-2.522 4.29-1.363.816-2.522.135-2.522-1.43.068-1.567 1.159-3.474 2.522-4.29zM72.375 73.356c1.363-.818 2.522-.137 2.522 1.43 0 1.566-1.09 3.54-2.522 4.29-1.363.817-2.522.136-2.522-1.43 0-1.499 1.159-3.473 2.522-4.29zM59.151 81.05c1.364-.817 2.522-.136 2.522 1.43 0 1.566-1.09 3.541-2.522 4.29-1.363.817-2.522.136-2.522-1.43 0-1.566 1.16-3.54 2.522-4.29zM92.142 75.943c1.364-.817 2.522-.136 2.522 1.43 0 1.566-1.09 3.541-2.522 4.29-1.363.817-2.522.136-2.522-1.43 0-1.566 1.09-3.473 2.522-4.29zM78.852 83.57c1.363-.817 2.522-.136 2.522 1.43 0 1.566-1.09 3.54-2.522 4.29-1.364.817-2.522.136-2.522-1.43 0-1.567 1.158-3.473 2.522-4.29zM65.627 91.196c1.363-.817 2.522-.136 2.522 1.43 0 1.566-1.09 3.541-2.522 4.29-1.363.817-2.522.136-2.522-1.43 0-1.566 1.159-3.473 2.522-4.29zM52.404 98.891c1.363-.817 2.522-.136 2.522 1.43 0 1.566-1.09 3.541-2.522 4.29-1.363.817-2.522.136-2.522-1.43 0-1.566 1.09-3.541 2.522-4.29z" fill="#FF8200"/>
        <path fill-rule="evenodd" clip-rule="evenodd" d="M103.254 64.367c.477-.272.886-.068.886.477 0 .545-.409 1.226-.886 1.498-.477.272-.886.068-.886-.477.068-.544.477-1.225.886-1.498zM45.793 97.53c.477-.273.886-.069.886.476 0 .545-.409 1.226-.886 1.498-.477.272-.886.068-.886-.477.068-.544.41-1.225.886-1.498z" fill="#fff" stroke="#FF8200" stroke-width=".75" stroke-miterlimit="10"/>
        <path fill-rule="evenodd" clip-rule="evenodd" d="M98.687 68.725c-.273 0-.477-.204-.477-.545 0-.408.272-.817.545-1.021.136-.068.204-.068.34-.068.273 0 .478.204.478.545 0 .408-.273.817-.546 1.021-.136.068-.272.068-.34.068z" fill="#fff"/>
        <path d="M99.095 67.295c.137 0 .273.136.273.34 0 .273-.205.614-.477.75-.068.068-.137.068-.205.068-.136 0-.272-.136-.272-.34 0-.273.204-.614.477-.75.068 0 .136-.068.204-.068zm0-.477c-.136 0-.34.069-.477.137-.409.204-.681.749-.681 1.225 0 .477.34.817.75.817.136 0 .34-.068.476-.136.41-.204.682-.749.682-1.225 0-.477-.34-.817-.75-.817z" fill="#FF8200"/>
        <path fill-rule="evenodd" clip-rule="evenodd" d="M85.396 76.352c-.272 0-.477-.205-.477-.545 0-.409.273-.817.545-1.022.137-.068.205-.068.341-.068.273 0 .477.204.477.545 0 .409-.272.817-.545 1.021-.068.069-.205.069-.34.069z" fill="#fff"/>
        <path d="M85.804 74.99c.137 0 .273.136.273.34 0 .273-.205.613-.477.75-.068.067-.136.067-.205.067-.136 0-.272-.136-.272-.34 0-.273.204-.613.477-.75.136-.067.204-.067.204-.067zm0-.545c-.136 0-.34.068-.477.136-.409.204-.681.75-.681 1.226s.34.817.75.817c.136 0 .34-.068.476-.136.41-.205.682-.75.682-1.226.068-.477-.273-.817-.75-.817z" fill="#FF8200"/>
        <path fill-rule="evenodd" clip-rule="evenodd" d="M72.17 84.046c-.272 0-.477-.204-.477-.544 0-.409.273-.817.546-1.022.136-.068.204-.068.34-.068.273 0 .478.204.478.545 0 .409-.273.817-.546 1.021-.136 0-.272.068-.34.068z" fill="#fff"/>
        <path d="M72.579 82.616c.136 0 .272.137.272.34 0 .273-.204.614-.477.75-.068.068-.136.068-.204.068-.137 0-.273-.136-.273-.34 0-.273.205-.613.477-.75.068-.068.136-.068.205-.068zm0-.476c-.137 0-.341.068-.477.136-.41.204-.682.749-.682 1.226 0 .476.34.817.75.817.136 0 .34-.068.477-.136.409-.205.681-.75.681-1.226 0-.477-.34-.817-.75-.817z" fill="#FF8200"/>
        <path fill-rule="evenodd" clip-rule="evenodd" d="M58.946 91.672c-.272 0-.477-.205-.477-.545 0-.409.273-.817.614-1.022.136-.068.204-.068.34-.068.273 0 .478.205.478.545 0 .409-.273.817-.546 1.022-.204 0-.34.068-.409.068z" fill="#fff"/>
        <path d="M59.355 90.243c.136 0 .273.136.273.34 0 .273-.205.613-.477.75-.069.068-.137.068-.205.068-.136 0-.273-.137-.273-.34 0-.273.205-.614.478-.75.068-.068.136-.068.204-.068zm0-.545c-.136 0-.34.068-.477.136-.41.205-.682.75-.682 1.226 0 .477.341.817.75.817.136 0 .341-.068.477-.136.41-.204.682-.749.682-1.226 0-.408-.341-.817-.75-.817z" fill="#FF8200"/>
        <path fill-rule="evenodd" clip-rule="evenodd" d="M91.94 72.674c-.273 0-.478-.204-.478-.544 0-.409.273-.817.546-1.022.136-.068.204-.068.34-.068.273 0 .478.204.478.545 0 .409-.273.817-.614 1.021-.068 0-.204.069-.273.069z" fill="#fff"/>
        <path d="M92.348 71.245c.136 0 .273.136.273.34 0 .272-.205.613-.477.75-.068.067-.137.067-.205.067-.136 0-.272-.136-.272-.34 0-.273.204-.613.477-.75.068-.067.136-.067.204-.067zm0-.545c-.136 0-.34.068-.477.136-.409.204-.681.749-.681 1.226 0 .476.34.817.75.817.136 0 .34-.068.476-.136.41-.205.682-.75.682-1.226 0-.477-.34-.817-.75-.817z" fill="#FF8200"/>
        <path fill-rule="evenodd" clip-rule="evenodd" d="M78.646 80.301c-.273 0-.478-.204-.478-.544 0-.409.273-.818.546-1.022.136-.068.204-.068.34-.068.273 0 .478.204.478.545 0 .408-.273.817-.546 1.021-.136 0-.204.068-.34.068z" fill="#fff"/>
        <path d="M79.055 78.871c.136 0 .273.136.273.34 0 .273-.205.614-.477.75-.068.068-.137.068-.205.068-.136 0-.272-.136-.272-.34 0-.273.204-.613.477-.75.068-.068.136-.068.204-.068zm0-.544c-.136 0-.34.068-.477.136-.409.204-.681.749-.681 1.225 0 .477.34.817.75.817.136 0 .34-.068.476-.136.41-.204.682-.749.682-1.225 0-.477-.273-.818-.75-.818z" fill="#FF8200"/>
        <path fill-rule="evenodd" clip-rule="evenodd" d="M65.424 87.928c-.273 0-.477-.204-.477-.545 0-.408.272-.817.545-1.021.136-.068.204-.068.34-.068.274 0 .478.204.478.544 0 .409-.273.818-.545 1.022-.137 0-.205.068-.341.068z" fill="#fff"/>
        <path d="M65.833 86.498c.136 0 .272.136.272.34 0 .273-.204.613-.477.75-.068.068-.136.068-.204.068-.137 0-.273-.137-.273-.34 0-.273.205-.614.477-.75.068-.068.136-.068.205-.068zm0-.477c-.137 0-.341.068-.477.136-.41.205-.682.75-.682 1.226 0 .477.34.817.75.817.136 0 .34-.068.477-.136.409-.204.681-.749.681-1.226 0-.476-.34-.817-.75-.817z" fill="#FF8200"/>
        <path fill-rule="evenodd" clip-rule="evenodd" d="M52.198 95.555c-.273 0-.477-.205-.477-.545 0-.409.272-.817.545-1.022.136-.068.205-.068.34-.068.273 0 .478.205.478.545 0 .409-.273.817-.614 1.022-.068 0-.136.068-.272.068z" fill="#fff"/>
        <path d="M52.606 94.124c.137 0 .273.137.273.34 0 .273-.204.614-.477.75-.068.068-.136.068-.204.068-.137 0-.273-.136-.273-.34 0-.273.204-.613.477-.75.068-.068.136-.067.204-.067zm0-.544c-.136 0-.34.068-.477.136-.409.204-.681.749-.681 1.226 0 .476.34.817.75.817.136 0 .34-.068.477-.136.409-.205.681-.75.681-1.226 0-.477-.272-.817-.75-.817zM97.253 36.925c3.817-2.18 6.884-.409 6.884 3.95 0 4.357-3.067 9.669-6.884 11.916-3.817 2.179-6.885.408-6.885-3.95 0-4.358 3.068-9.737 6.885-11.916z" fill="#FF8200"/>
        <path d="M97.253 36.925v7.899s6.543-3.814 6.884-3.95c0 4.358-3.067 9.67-6.884 11.917-3.817 2.179-6.885.408-6.885-3.95 0-4.358 3.068-9.737 6.885-11.916z" fill="#fff"/>
        <path d="M82.123 45.64c3.817-2.178 6.884-.408 6.884 3.95 0 4.358-3.067 9.67-6.884 11.917-3.817 2.179-6.885.408-6.885-3.95 0-4.426 3.068-9.737 6.885-11.916z" fill="#FF8200"/>
        <path d="M82.123 45.64v7.9s4.567.953 5.725 1.09c-1.295 2.927-3.408 5.447-5.725 6.809-3.817 2.179-6.885.408-6.885-3.95 0-4.358 3.068-9.67 6.885-11.848z" fill="#fff"/>
        <path d="M66.989 54.357c3.817-2.179 6.884-.408 6.884 3.95 0 4.358-3.067 9.669-6.884 11.916-3.817 2.18-6.885.409-6.885-3.95 0-4.357 3.068-9.737 6.885-11.916z" fill="#FF8200"/>
        <path d="M66.99 54.357v7.9s4.294-5.857 5.725-7.696c.75.886 1.159 2.18 1.159 3.746 0 4.358-3.067 9.669-6.885 11.916-3.817 2.18-6.884.409-6.884-3.95 0-4.357 3.067-9.737 6.884-11.916z" fill="#fff"/>
        <path d="M51.857 63.073c3.817-2.179 6.885-.408 6.885 3.95 0 4.358-3.068 9.67-6.885 11.916-3.817 2.18-6.884.409-6.884-3.95 0-4.357 3.067-9.669 6.884-11.916z" fill="#FF8200"/>
        <path d="M51.789 71.176s4.84-6.605 5.794-7.898c.75.885 1.159 2.179 1.159 3.745 0 4.358-3.068 9.67-6.885 11.916-3.817 2.18-6.884.409-6.884-3.95 0-2.86 1.295-6.06 3.272-8.647 1.295 1.838 3.544 4.834 3.544 4.834z" fill="#fff"/>
    </g>
    <defs>
        <linearGradient id="fecztlxe7b" x1="72.888" y1="11.029" x2="72.888" y2="127.374" gradientUnits="userSpaceOnUse">
            <stop stop-color="#3C1EA0"/>
            <stop offset="1" stop-color="#A01E8C"/>
        </linearGradient>
        <linearGradient id="7szwietlbc" x1="118.113" y1="68.609" x2="25" y2="68.609" gradientUnits="userSpaceOnUse">
            <stop stop-color="#F8FBFF"/>
            <stop offset="1" stop-color="#BCC4D4"/>
        </linearGradient>
        <filter id="ig8jh0b2oa" x="0" y="0" width="144" height="167.374" filterUnits="userSpaceOnUse" color-interpolation-filters="sRGB">
            <feFlood flood-opacity="0" result="BackgroundImageFix"/>
            <feColorMatrix in="SourceAlpha" values="0 0 0 0 0 0 0 0 0 0 0 0 0 0 0 0 0 0 127 0" result="hardAlpha"/>
            <feOffset dy="15"/>
            <feGaussianBlur stdDeviation="12.5"/>
            <feComposite in2="hardAlpha" operator="out"/>
            <feColorMatrix values="0 0 0 0 0.301961 0 0 0 0 0.309804 0 0 0 0 0.329412 0 0 0 0.15 0"/>
            <feBlend in2="BackgroundImageFix" result="effect1_dropShadow_4301_18664"/>
            <feBlend in="SourceGraphic" in2="effect1_dropShadow_4301_18664" result="shape"/>
        </filter>
    </defs>
</svg>
