<svg width="82" height="108" viewBox="0 0 82 108" fill="none" xmlns="http://www.w3.org/2000/svg">
    <g filter="url(#i8nmba7bxa)">
        <path d="M55.401 23.701c3.264 1.884 5.875 6.377 5.875 10.145l-.145 39.49c0 3.696-2.684 5.218-5.875 3.334l-34.38-19.854C17.61 54.932 15 50.439 15 46.67l.145-39.49c0-3.696 2.684-5.218 5.875-3.334l34.381 19.854z" fill="#E9F0F9"/>
        <path d="M60.624 20.658 26.244.804c-1.668-.942-3.12-1.014-4.207-.435l-5.223 3.044c1.088-.653 2.54-.508 4.207.434l34.381 19.855c3.264 1.883 5.875 6.376 5.875 10.144l-.145 39.491c0 1.884-.653 3.188-1.74 3.768l5.222-3.043c1.088-.58 1.74-1.884 1.74-3.768l.146-39.491c0-3.768-2.684-8.26-5.876-10.145z" fill="url(#eclvur44nb)"/>
        <path d="M38.066 52.758c-6.02-3.478-10.88-11.883-10.88-18.84 0-6.956 4.933-9.71 10.953-6.231 6.02 3.478 10.88 11.883 10.88 18.84 0 2.318-.58 4.202-1.523 5.507l-4.788-8.26c.363-.726.508-1.668.508-2.682 0-2.029-.653-4.42-1.958-6.594-1.233-2.174-2.974-3.985-4.715-5a5.94 5.94 0 0 0-1.74-.724c-.218-.073-.436.072-.508.29-.073.29 0 .58.217.942 0 0 2.321 4.13 3.12 5.434.072.145.072.362.072.435v.072c-.073.942-.218 2.03-.363 2.464h-.073l-.072.072c-.435-.072-1.45-.507-2.321-.941h-.073c-.072-.073-.217-.145-.362-.363-.798-1.449-3.12-5.29-3.12-5.29-.217-.362-.434-.507-.58-.58-.362-.216-.652-.072-.725.218-.653 2.319 0 5.507 1.668 8.406 1.233 2.173 2.974 3.985 4.715 5 .943.507 1.813.797 2.611.869l4.787 8.333c-1.595.362-3.554-.072-5.73-1.377zm.145-34.201c-.725-.435-1.378-.725-2.103-1.087-.58-.217-.943.072-.943.725.072 2.028-1.015 3.333-2.611 3.115-.435-.072-1.016-.217-1.523-.507-1.16-.652-2.394-1.956-3.192-3.406a3.09 3.09 0 0 0-.798-.87c-.217-.144-.435-.144-.652-.144a7.964 7.964 0 0 0-3.047 1.739c-.362.29-.29 1.087.073 1.74 1.305 2.1 1.74 4.564 1.015 6.013-.653 1.377-2.248 1.667-4.134.58h-.073c-.58-.362-1.015-.145-1.088.435-.145 1.521-.145 3.188 0 4.927.073.652.725 1.45 1.233 1.812 0 0 .073 0 .073.072 1.596.942 3.119 2.971 3.771 5.145.653 2.246.218 4.13-1.087 4.782-.436.218-.436.87-.145 1.594.87 1.812 1.885 3.55 2.973 5.218.218.29.436.507.653.652.29.145.58.217.798.072.798-.58 2.03-.435 3.191.29.508.29 1.088.724 1.524 1.232 1.668 1.739 2.683 4.203 2.538 6.231-.072.58.363 1.377.943 1.812.725.507 1.45 1.014 2.176 1.377.725.362 1.378.724 2.104 1.087.58.217.942-.073.942-.725-.072-2.029 1.016-3.333 2.612-3.116a4.2 4.2 0 0 1 1.523.507c1.16.652 2.393 1.957 3.191 3.406.218.362.508.652.798.87.218.144.435.144.653.144a7.964 7.964 0 0 0 3.047-1.739c.362-.29.29-1.087-.073-1.739-1.306-2.101-1.74-4.565-1.016-6.014.653-1.377 2.176-1.666 3.917-.724l.218.144.072.073c.508.29.943.072 1.016-.507.145-1.522.217-3.189 0-4.928-.073-.652-.653-1.449-1.233-1.811-1.741-1.015-3.264-3.044-3.917-5.217-.653-2.247-.218-4.13 1.088-4.783.435-.217.435-.87.145-1.594-.87-1.811-1.886-3.55-2.974-5.217a2.77 2.77 0 0 0-.653-.652c-.29-.145-.58-.218-.797-.073-.798.58-2.031.435-3.192-.29-.508-.29-1.015-.724-1.523-1.231-1.668-1.74-2.684-4.203-2.539-6.232.073-.652-.363-1.45-.943-1.812a10.001 10.001 0 0 0-2.03-1.376z" fill="url(#602q05a6mc)"/>
    </g>
    <defs>
        <linearGradient id="eclvur44nb" x1="16.814" y1="38.553" x2="66.5" y2="38.553" gradientUnits="userSpaceOnUse">
            <stop stop-color="#F8FBFF"/>
            <stop offset="1" stop-color="#BCC4D4"/>
        </linearGradient>
        <linearGradient id="602q05a6mc" x1="19.142" y1="40.331" x2="57.033" y2="40.331" gradientUnits="userSpaceOnUse">
            <stop stop-color="#00A499"/>
            <stop offset="1" stop-color="#1BA9D6"/>
        </linearGradient>
        <filter id="i8nmba7bxa" x="0" y="0" width="81.5" height="107.48" filterUnits="userSpaceOnUse" color-interpolation-filters="sRGB">
            <feFlood flood-opacity="0" result="BackgroundImageFix"/>
            <feColorMatrix in="SourceAlpha" values="0 0 0 0 0 0 0 0 0 0 0 0 0 0 0 0 0 0 127 0" result="hardAlpha"/>
            <feOffset dy="15"/>
            <feGaussianBlur stdDeviation="7.5"/>
            <feComposite in2="hardAlpha" operator="out"/>
            <feColorMatrix values="0 0 0 0 0 0 0 0 0 0 0 0 0 0 0 0 0 0 0.15 0"/>
            <feBlend in2="BackgroundImageFix" result="effect1_dropShadow_4301_18663"/>
            <feBlend in="SourceGraphic" in2="effect1_dropShadow_4301_18663" result="shape"/>
        </filter>
    </defs>
</svg>
