<svg width="89" height="85" viewBox="0 0 89 85" fill="none" xmlns="http://www.w3.org/2000/svg">
    <g filter="url(#18fe3c3bra)">
        <path d="M69.737 7.537v19.836l-4.76 2.777.099-19.836 4.661-2.777z" fill="url(#2tygf1klnb)"/>
        <path d="m23.521 10.513-.099 19.835-4.959-2.777.1-19.835 4.958 2.777z" fill="url(#0bdogia0rc)"/>
        <path d="M54.96 11.405c-.695-.396-1.39-.694-2.183-.991 0 0-.099 0-.099-.1h-.1a32.246 32.246 0 0 0-1.685-.595c-.1 0-.1 0-.199-.099-.099 0-.297-.1-.396-.1-.298-.098-.595-.197-.893-.197-.099 0-.198 0-.297-.1-.1 0-.199 0-.397-.099-.298-.099-.496-.099-.794-.099-.099 0-.198 0-.396-.1h-.298c-.198 0-.496-.098-.694-.098h-3.57c-.298 0-.595 0-.992.099h-.496c-.595.1-1.19.1-1.686.198h-.1c-.198 0-.297.1-.495.1-.298.099-.595.099-.893.198-.198 0-.396.099-.595.198-.297.1-.496.1-.793.198h-.1c-.098 0-.198.1-.297.1-.397.099-.892.297-1.29.496-.098.099-.297.099-.396.198-.496.198-.992.496-1.487.694-.1 0-.1.1-.199.1-.1.098-.198.198-.397.297-.198.099-.396.297-.595.397-.099.099-.297.198-.396.297-.199.1-.298.298-.496.397l-.1.099-.198.198c-.198.199-.396.496-.595.695 0 .099-.099.099-.099.198l-.1.1c-.098.197-.297.396-.396.495 0 .1-.1.198-.198.198v.1c-.1.198-.199.297-.199.495 0 .1-.099.199-.099.298v.1c-.099.098-.099.297-.099.396 0 .099-.1.198-.1.297v.1c0 .198 0 .297-.098.495v.398l-.1 19.835v-.496c0-.199 0-.298.1-.496 0-.1.099-.298.099-.397 0-.1.099-.297.099-.397 0-.099.1-.198.198-.396.1-.199.1-.298.199-.496.099-.1.099-.199.198-.298.1-.198.198-.396.397-.496.099-.099.198-.198.198-.297.198-.199.397-.496.595-.694l.298-.298c.198-.1.297-.297.496-.397.099-.099.297-.198.396-.297.199-.1.397-.298.595-.397.199-.1.397-.198.596-.397.495-.297.991-.495 1.487-.694.1-.1.298-.1.397-.198.397-.199.793-.298 1.29-.496.098 0 .297-.1.396-.1.297-.098.496-.198.793-.198.199-.099.397-.099.595-.198.298-.1.595-.1.893-.198.198 0 .397-.1.496-.1.595-.099 1.09-.198 1.686-.198h.595c.297 0 .595-.1.992-.1h2.876c.198 0 .496 0 .694.1.198 0 .496.1.694.1.199 0 .496.098.694.098.298 0 .496.1.794.1.198 0 .397.099.595.099.297.099.595.099.893.198.198 0 .396.1.495.1.595.198 1.091.396 1.686.594.1 0 .1 0 .199.1.793.297 1.487.595 2.182.991 3.074 1.785 4.562 3.967 4.562 6.248l.099-19.835c.1-2.083-1.389-4.264-4.463-6.05z" fill="url(#uajbmb36ud)"/>
        <path d="M74.498 20.926v19.836h-6.844V21.026l6.844-.1z" fill="url(#i6sel7t2oe)"/>
        <path d="M14.1 21.224v19.835l-.1-6.942.1-19.835v6.942z" fill="#BFC2EB"/>
        <path d="M20.942 21.224v19.835h-6.843V21.224h6.843z" fill="url(#9a7pcga6if)"/>
        <path d="M67.158 21.918a6.516 6.516 0 0 1-1.19 1.686c-.297.397-.595.694-.892.992l-.1 19.835c.298-.297.596-.694.893-.991.397-.596.793-1.091 1.19-1.686.199-.298.298-.596.496-.992l.1-19.836c-.1.397-.298.695-.497.992zM23.621 24.993l-.1 19.835c-1.288-1.29-2.18-2.48-2.578-3.769l.1-19.835c.396 1.29 1.289 2.48 2.578 3.769z" fill="#979DD8"/>
        <path d="m57.24 29.753-.099 19.836c-.297.099-.496.198-.793.297l.099-19.835c.297-.1.496-.199.793-.298z" fill="#8E91C4"/>
        <path d="M57.24 29.753a4.84 4.84 0 0 0-1.091.397l-1.19.298c-.198.099-.397.099-.595.198-.496.099-.893.198-1.389.297-.099 0-.297.1-.396.1-.595.099-1.091.198-1.686.297l-.1 19.835c.596-.099 1.091-.198 1.687-.297h.099c.099 0 .198-.1.396-.1.496-.098.893-.198 1.389-.297.198-.099.397-.099.595-.198l1.19-.298c.1 0 .198-.099.298-.099.297-.099.495-.198.793-.198V29.753zM38.796 31.241c-.695-.1-1.389-.198-2.083-.397-.198 0-.298-.099-.496-.099-.892-.198-1.785-.397-2.579-.595-.396-.1-.892-.198-1.289-.397L32.25 49.59c.397.099.793.198 1.09.297h.1c.794.199 1.686.397 2.579.595.099 0 .198 0 .198.1h.298c.694.099 1.388.297 2.082.396l.199-19.736z" fill="#979DD8"/>
        <path d="M61.704 32.431v19.835l-4.562-2.677.1-19.836 4.462 2.678z" fill="url(#myj6fw4qeg)"/>
        <path d="M70.035 27.571v19.836l-8.33 4.86V32.43l8.33-4.86zM27.488 32.63l-.1 19.835-8.529-4.96V27.67l8.629 4.96z" fill="#BFC2EB"/>
        <path d="M32.347 29.753V49.59l-4.958 2.876.099-19.836 4.86-2.876z" fill="url(#96r4sp3hnh)"/>
        <path d="m38.894 35.208-.1 19.835V31.241l.1 3.967z" fill="#BAC2E7"/>
        <path d="m65.177 24.695 4.959 2.876-8.331 4.86-4.562-2.579c-2.182.794-4.265 1.29-6.447 1.488v3.967h-12V31.34a51.64 51.64 0 0 1-6.447-1.488l-4.959 2.876-8.628-4.958 4.661-2.777c-1.289-1.29-2.182-2.48-2.578-3.77h-6.843v-6.941h6.843c.595-1.389 1.487-2.58 2.578-3.77l-4.959-2.875 8.53-4.96 4.959 2.877c1.884-.595 3.868-1.29 6.248-1.587V0h12v3.967c2.38.397 4.265.992 6.05 1.488l4.959-2.876 8.628 4.958-4.661 2.777c1.29 1.19 2.182 2.48 2.578 3.77H74.6v6.942h-6.844a18.826 18.826 0 0 1-2.578 3.67zm-31.539-.893c6.05 3.472 15.472 3.472 21.423 0 5.95-3.47 5.95-8.925-.1-12.397-6.05-3.47-15.471-3.47-21.422 0-5.95 3.472-5.95 8.926.1 12.397z" fill="#E2E7FB"/>
        <path d="M50.795 35.208v19.835h-12l.099-19.835h11.9z" fill="#BFC2EB"/>
    </g>
    <defs>
        <linearGradient id="2tygf1klnb" x1="64.996" y1="18.855" x2="69.748" y2="18.855" gradientUnits="userSpaceOnUse">
            <stop stop-color="#BFC2EB"/>
            <stop offset="1" stop-color="#979DD8"/>
        </linearGradient>
        <linearGradient id="0bdogia0rc" x1="18.503" y1="19.041" x2="23.501" y2="19.041" gradientUnits="userSpaceOnUse">
            <stop stop-color="#979DD8"/>
            <stop offset="1" stop-color="#BFC2EB"/>
        </linearGradient>
        <linearGradient id="uajbmb36ud" x1="44.287" y1="37.496" x2="44.287" y2="8.824" gradientUnits="userSpaceOnUse">
            <stop stop-color="#979DD8"/>
            <stop offset=".312" stop-color="#9BA1DA"/>
            <stop offset=".636" stop-color="#A8ACE0"/>
            <stop offset=".964" stop-color="#BCBFEA"/>
            <stop offset="1" stop-color="#BFC2EB"/>
        </linearGradient>
        <linearGradient id="i6sel7t2oe" x1="67.625" y1="30.89" x2="74.536" y2="30.89" gradientUnits="userSpaceOnUse">
            <stop stop-color="#BFC2EB"/>
            <stop offset="1" stop-color="#979DD8"/>
        </linearGradient>
        <linearGradient id="9a7pcga6if" x1="14.077" y1="31.139" x2="20.987" y2="31.139" gradientUnits="userSpaceOnUse">
            <stop stop-color="#979DD8"/>
            <stop offset="1" stop-color="#BFC2EB"/>
        </linearGradient>
        <linearGradient id="myj6fw4qeg" x1="57.18" y1="41.001" x2="61.749" y2="41.001" gradientUnits="userSpaceOnUse">
            <stop stop-color="#BFC2EB"/>
            <stop offset="1" stop-color="#979DD8"/>
        </linearGradient>
        <linearGradient id="96r4sp3hnh" x1="27.423" y1="41.125" x2="32.388" y2="41.125" gradientUnits="userSpaceOnUse">
            <stop stop-color="#979DD8"/>
            <stop offset="1" stop-color="#BFC2EB"/>
        </linearGradient>
        <filter id="18fe3c3bra" x="0" y="0" width="88.599" height="84.043" filterUnits="userSpaceOnUse" color-interpolation-filters="sRGB">
            <feFlood flood-opacity="0" result="BackgroundImageFix"/>
            <feColorMatrix in="SourceAlpha" values="0 0 0 0 0 0 0 0 0 0 0 0 0 0 0 0 0 0 127 0" result="hardAlpha"/>
            <feOffset dy="15"/>
            <feGaussianBlur stdDeviation="7"/>
            <feComposite in2="hardAlpha" operator="out"/>
            <feColorMatrix values="0 0 0 0 0 0 0 0 0 0 0 0 0 0 0 0 0 0 0.15 0"/>
            <feBlend in2="BackgroundImageFix" result="effect1_dropShadow_4299_18458"/>
            <feBlend in="SourceGraphic" in2="effect1_dropShadow_4299_18458" result="shape"/>
        </filter>
    </defs>
</svg>
