<svg width="139" height="138" viewBox="0 0 139 138" fill="none" xmlns="http://www.w3.org/2000/svg">
    <g filter="url(#pgmcw9psfa)">
        <path d="M72.745 79.053c-.117.234-.117.819 0 1.404.117.584 1.052.818 2.339.35 1.637-.701 3.274-1.403 4.911-2.69.936-.7.585-.7.819-1.169a.252.252 0 0 0-.234-.234c-4.56.117-7.835 2.34-7.835 2.34z" fill="#D51571"/>
        <path d="M123.499 53.209V78L86.428 99.4V74.61l37.071-21.401z" fill="#BCC4E9"/>
        <path d="M83.737 73.089v24.792l2.69 1.52V74.61l-2.69-1.52z" fill="#CED3F9"/>
        <path d="M57.892 15.085v24.792l-37.07 21.4V36.487l37.07-21.4z" fill="#BCC4E9"/>
        <path d="M18.132 35.2v24.557l2.69 1.52V36.72l-2.69-1.52z" fill="#CED3F9"/>
        <path d="M55.203 13.8 18.132 35.2l68.294 39.643 37.071-21.4-68.294-39.644z" fill="#E2E7FB"/>
        <path d="M18.134 35.2v3.625L86.428 78.35v-3.508L18.134 35.2z" fill="#CED3F9"/>
        <path d="m67.715 37.539 11.343 6.548v-1.169l-11.343-6.549v1.17z" fill="#B7C4E7"/>
        <path d="M79.059 42.918v1.17l11.343-6.55V36.37l-11.343 6.549z" fill="#8E91C4"/>
        <path d="m79.175 29.703-11.46 6.666 11.343 6.549 11.46-6.549-11.343-6.666z" fill="#FEFFFF"/>
        <path d="M83.031 37.89V18.36l-.818.585v19.413l.819-.468z" fill="#8E91C4"/>
        <path d="m76.835 14.852-.818.468 6.198 3.625.818-.585-6.198-3.508z" fill="#FFFEFF"/>
        <path d="M76.019 15.32v19.529l6.197 3.625v-19.53L76.02 15.32z" fill="#E7EAFF"/>
        <path d="M94.73 41.632V18.36l-1.872 1.053v23.271l1.871-1.052z" fill="#8E91C4"/>
        <path d="M66.544 4.21v23.272l26.312 15.202V19.413L66.544 4.21z" fill="#B7C4E7"/>
        <path d="m92.859 19.413 1.871-1.053L68.301 3.158 66.547 4.21l26.312 15.203z" fill="#FFFEFF"/>
        <path d="M67.129 5.146v21.751l25.143 14.5v-21.75L67.129 5.146z" fill="url(#uvy9rqtslb)"/>
        <path d="m96.246 53.326 11.694 6.783v-5.146l-11.694-6.782v5.145z" fill="#B7C4E7"/>
        <path d="M107.94 54.963v5.146l11.695-6.783v-5.145l-11.695 6.782z" fill="#8E91C4"/>
        <path d="m108.057 41.28-11.81 6.9 11.693 6.783 11.812-6.782-11.695-6.9z" fill="#FEFFFF"/>
        <path d="m96.246 47.596 11.694 6.783v-5.146L96.246 42.45v5.146z" fill="#B7C4E7"/>
        <path d="M107.94 49.233v5.146l11.695-6.783V42.45l-11.695 6.783z" fill="#8E91C4"/>
        <path d="m108.057 35.668-11.81 6.782 11.693 6.783 11.812-6.783-11.695-6.782z" fill="#FEFFFF"/>
        <path d="m79.295 63.032 11.694 6.783v-5.146l-11.694-6.782v5.145z" fill="#B7C4E7"/>
        <path d="M90.99 64.67v5.145l11.694-6.783v-5.145L90.99 64.669z" fill="#8E91C4"/>
        <path d="m90.988 51.104-11.811 6.783 11.811 6.782 11.694-6.782-11.694-6.783z" fill="#FEFFFF"/>
        <path d="M31.813 11.46v19.647l7.133 4.093V15.67l-7.133-4.21z" fill="#B7C4E7"/>
        <path d="M38.944 15.67V35.2l19.764-11.344V4.21L38.944 15.67z" fill="#8E91C4"/>
        <path d="M51.81 0 31.93 11.46l7.017 4.21 19.88-11.577L51.812 0z" fill="#FEFFFF"/>
        <path d="m54.268 40.93 13.331 7.718.117-.585-13.448-7.718v.585z" fill="#B7C4E7"/>
        <path d="m60.816 36.486-6.548 3.86 13.448 7.717 6.198-3.625-13.098-7.952z" fill="#FEFFFF"/>
        <path d="m73.916 44.438-6.197 3.625-.117.585 6.314-3.625v-.585z" fill="#8E91C4"/>
        <path d="M34.619 106.769c6.523 0 11.811-2.88 11.811-6.432 0-3.552-5.288-6.432-11.811-6.432s-11.811 2.88-11.811 6.432c0 3.552 5.288 6.432 11.81 6.432z" fill="#8B8EC1"/>
        <path d="M34.619 107.354c6.523 0 11.811-2.88 11.811-6.432 0-3.552-5.288-6.432-11.811-6.432s-11.811 2.88-11.811 6.432c0 3.552 5.288 6.432 11.81 6.432z" fill="#8B8EC1"/>
        <path d="M34.619 105.95c6.523 0 11.811-2.879 11.811-6.432 0-3.552-5.288-6.431-11.811-6.431s-11.811 2.88-11.811 6.431c0 3.553 5.288 6.432 11.81 6.432z" fill="#E2E7FB"/>
        <path d="M36.258 75.896v23.505l-1.52.936V76.832l1.52-.936z" fill="#B7C4E7"/>
        <path d="m33.1 75.896 1.637.936v23.505L33.1 99.284V75.896z" fill="#8E91C4"/>
        <path d="m19.887 81.275 14.851 8.654v-2.924L19.887 78.47v2.806z" fill="#B7C4E7"/>
        <path d="M34.74 87.005v2.924l14.851-8.654V78.47l-14.852 8.536z" fill="#8E91C4"/>
        <path d="m34.855 69.698-14.968 8.654 14.851 8.653 14.97-8.653-14.853-8.654z" fill="#FEFFFF"/>
        <path d="M75.9 54.964c2.13 0 3.858-.838 3.858-1.871 0-1.034-1.727-1.872-3.859-1.872-2.131 0-3.859.838-3.859 1.872 0 1.033 1.728 1.87 3.86 1.87z" fill="#8B8EC1"/>
        <path d="M75.9 55.08c2.13 0 3.858-.838 3.858-1.871 0-1.034-1.727-1.871-3.859-1.871-2.131 0-3.859.837-3.859 1.87 0 1.034 1.728 1.872 3.86 1.872z" fill="#8B8EC1"/>
        <path d="M75.9 54.73c2.13 0 3.858-.838 3.858-1.872 0-1.033-1.727-1.87-3.859-1.87-2.131 0-3.859.837-3.859 1.87 0 1.034 1.728 1.871 3.86 1.871z" fill="#FEFFFF"/>
        <path d="M70.404 52.624c.351-.702 1.52-2.105 2.34-2.339.818-.35 2.572-.234 3.39 0 .585.117 3.158 1.404 3.041 1.754-.117.468-1.286.819-1.754 1.053-.585.234-1.637.702-2.339.702-.468 0-1.286-.234-1.754-.234-.351.117-.936.467-1.287.584-.35.117-1.169 0-1.169 0s-.936-.35-.936-.701c0-.117.468-.702.468-.819zM60.933 38.474c-.468 0-1.404 0-1.871.117-.82.468-2.222 3.157-2.222 3.157l-.585 1.287 1.52-.35s1.403-.118 1.637-.235c.234-.117 1.287-.234 1.755-.468.35-.233.935-1.052 1.052-1.169.117-.117 1.286-.819 1.286-1.286.117-.351-.701-.702-.818-.702-.936-.35-1.17-.35-1.754-.35z" fill="#FFAD54"/>
        <path d="m41.873 33.68-1.053 3.625s0 2.456.351 3.274c.351.702.585 1.754.585 1.754s-.702.585 1.17.585c1.87.117 1.987.585 3.04-.702 1.052-1.286 1.988-.701 1.637-3.274-.35-2.573-1.053-6.315-1.988-6.9-.936-.584-3.742 1.637-3.742 1.637z" fill="#F7B070"/>
        <path d="M35.908 46.543c-2.456-1.87-6.432-1.988-6.9-2.105-.35-.117-3.508 2.69-3.508 2.69s-1.988 8.069-1.52 11.811c.467 3.742 2.69 12.513 3.39 13.332.703.818 1.638 4.444 2.69 5.379 1.053.936 4.21 1.871 4.21 1.871s3.392.585 4.795-.702c1.52-1.169 2.69-5.613 2.69-5.613l-3.86-4.794s-3.39-1.52-1.637-7.134l1.755-5.613 1.052-1.053L46.2 52.04s3.742-2.105 4.677-2.807c.936-.702 4.795-3.508 5.263-3.976.35-.585 1.87-2.222 1.87-2.222s-.467-.117-.7-.468c-.235-.234-.235-.584-.235-.584s-5.73 2.923-7.367 3.742c-1.754.818-8.303 2.456-8.303 2.456l-5.496-1.638z" fill="url(#fymvsa3k8c)"/>
        <path d="M41.287 70.516c.468-.35 3.509-.467 7.836-.584 4.327-.117 4.443.233 10.174 3.976 5.73 3.742 13.916 6.431 13.916 6.431s1.052.118 1.52-.35c.585-.585.935-1.053.935-1.053s-20.581-15.553-21.634-15.67c-1.17-.117-22.804.117-22.92 1.17-.117 1.052.35-1.287-.117 1.052-.468 2.222 2.69 7.835 2.69 7.835l5.495-.117 2.105-2.69z" fill="#3C1EA0"/>
        <path d="M54.27 95.191c-.118.234-.118.819 0 1.404.116.584 1.052.818 2.338.35 1.637-.701 3.275-1.403 4.912-2.69.935-.7.584-.7.818-1.169a.252.252 0 0 0-.233-.233c-4.561.117-7.836 2.338-7.836 2.338z" fill="#D51571"/>
        <path d="M40.233 67.827c.35-.234 18.828.584 19.646 5.847.117.935.234 4.794-.585 9.004-.818 4.21-.935 4.795-1.754 7.836-.468 1.754-.701 3.742-.935 4.327-.117.35-.468.701-.819.818-.702.234-1.52-.234-1.637-1.052-.35-1.638-.585-5.614-.234-9.94.585-6.666-.935-7.251-.935-7.251s-6.9 2.105-8.537 2.456c-1.754.234-9.005.117-9.005.117s-2.456-4.795 0-8.303c2.456-3.508 4.795-3.86 4.795-3.86z" fill="url(#5ggtw4bnzd)"/>
        <path d="M38.482 47.245c-.936-.117-7.952-1.17-8.888 2.806-.936 3.977-1.754 12.163-.819 16.255.936 3.977 2.807 13.8 6.081 15.203 3.275 1.286 6.666 1.286 9.239-.117h.117c3.976-2.339 4.444-7.952 1.052-10.992-.233-.234-.467-.468-.818-.702-3.04-2.573-2.924-4.327-2.573-7.134.35-2.806 2.339-6.198 2.339-6.198s4.56 1.988 9.121 2.924c4.561.935 9.473 0 12.981-2.105 3.508-2.105 4.795-3.04 4.795-3.04s-.234-.585-.351-.936c-.117-.468-.117-.936-.117-.936s-1.871.468-6.9 1.17c-5.028.702-13.331-1.988-14.267-2.69-.935-.702-10.992-3.508-10.992-3.508z" fill="url(#noyrsxry8e)"/>
        <path d="M47.953 31.224c-.702-1.053-1.872-1.637-3.158-1.754-.234 0-.35-.117-.585-.117-4.794 0-6.548 4.327-9.121 7.835-4.327 6.198-10.174-.35-15.787 4.21-.819.935-2.105 4.56-1.52 6.432 1.286 4.093 6.782 6.665 11.109 3.976.819-.936 2.69-2.105 2.69-3.86 11.928 3.275 10.174-7.718 12.512-10.992.351.234.82.35 1.287.35 1.52 0 2.923-1.052 3.274-2.572.351-1.286 0-2.456-.701-3.508z" fill="#3C1EA0"/>
        <path d="m36.727 88.642-4.677-22.57-1.988 1.17 4.677 22.57 1.988-1.17z" fill="#8E91C4"/>
        <path d="m17.314 57.536-2.105 1.17 14.852 8.536 1.988-1.17-14.735-8.536z" fill="#FFFEFF"/>
        <path d="m15.209 58.705 4.678 22.57 14.851 8.654-4.677-22.687-14.852-8.537z" fill="#E7EAFF"/>
        <path d="m70.875 9.59-1.988-1.17v-.234l1.988 1.17v.233zM75.668 21.517l-6.782-3.859v-.117l6.782 3.86v.116z" fill="#fff"/>
        <path d="m76.138 21.634 2.923 1.754v.117l-2.923-1.637v-.234zM76.138 20.933l2.923 1.754v.117l-2.923-1.637v-.234zM76.138 20.231l2.923 1.754v.117l-2.923-1.637v-.234zM76.138 19.53l2.923 1.636v.234l-2.923-1.754v-.117zM76.138 17.424l2.923 1.638v.234l-2.923-1.755v-.117zM76.138 15.904l2.923 1.754v.234l-2.923-1.754v-.234zM76.138 13.8l2.923 1.753v.117l-2.923-1.637v-.234zM76.138 12.396l2.923 1.754v.117l-2.923-1.637v-.234z" fill="#00A499"/>
        <path d="m75.668 19.062-6.782-3.86v-.116l6.782 3.859v.117z" fill="#fff"/>
        <path d="m76.138 18.828 2.923 1.637v.234l-2.923-1.754v-.117zM76.138 18.126l2.923 1.637v.234l-2.923-1.754v-.117zM76.138 16.606l2.923 1.754v.234l-2.923-1.754v-.234zM76.138 15.203l2.923 1.754v.234l-2.923-1.755v-.233zM76.138 14.5l2.923 1.755v.234l-2.923-1.754V14.5z" fill="#00A499"/>
        <path d="m75.67 12.98-6.783-3.976v-.116l6.782 3.859v.233z" fill="#fff"/>
        <path d="m76.138 13.098 2.923 1.754v.117l-2.923-1.638v-.233z" fill="#00A499"/>
        <path d="m74.616 17.892-5.73-3.274v-.234l5.73 3.391v.117zM74.499 20.348l-5.613-3.274v-.234l5.613 3.274v.234zM69.938 10.876l-1.052-.585v-.234l1.052.585v.234zM70.288 11.11v-.234l5.38 3.04v.234l-5.38-3.04zM73.33 14.735l-4.444-2.573v-.234l4.444 2.573v.234zM73.677 14.851v-.116l1.988 1.052v.234l-1.988-1.17zM74.147 17.073v-.233l1.52.818v.234l-1.52-.819zM73.797 16.84l-4.911-2.807v-.234l4.911 2.807v.234zM74.146 11.46l-2.923-1.637V9.59l2.923 1.637v.234zM74.496 11.694v-.234l1.17.702v.117l-1.17-.585zM70.757 14.5l-1.871-1.169v-.117l1.87 1.053v.234zM71.107 14.618V14.5l4.561 2.572v.234l-4.56-2.69zM75.2 14.618l-6.314-3.742v-.117l6.315 3.625v.234zM70.523 17.424l-1.637-.935v-.234l1.637.936v.233zM70.872 17.541v-.117l4.795 2.69v.234l-4.795-2.807zM71.81 13.214l-2.924-1.637v-.234l2.923 1.637v.234zM72.16 13.214l3.508 1.988v.234l-3.509-1.988v-.234zM75.084 16.372l-6.198-3.625v-.234l6.198 3.625v.234zM73.563 12.396l-4.677-2.69v-.234l4.677 2.69v.234zM73.213 18.36l-4.327-2.573v-.117l4.327 2.456v.234zM73.564 18.36l2.104 1.17v.233l-2.105-1.286v-.117zM82.45 16.255l-1.987-1.17v-.233l1.988 1.17v.233zM87.129 28.183l-6.666-3.859v-.234l6.666 3.977v.116z" fill="#fff"/>
        <path d="m87.597 28.3 2.923 1.755v.116l-2.923-1.637V28.3zM87.597 27.599l2.923 1.637v.234l-2.923-1.755V27.6zM87.597 26.897l2.923 1.637v.234l-2.923-1.754v-.117zM87.597 26.195l2.923 1.638v.233l-2.923-1.754v-.117zM87.597 23.973l2.923 1.755v.233l-2.923-1.754v-.234zM87.597 22.57l2.923 1.754v.117l-2.923-1.637v-.234zM87.597 20.465l2.923 1.637v.234l-2.923-1.754v-.117zM87.597 19.062l2.923 1.637v.234l-2.923-1.754v-.117z" fill="#00A499"/>
        <path d="m87.129 25.728-6.666-3.86v-.233l6.666 3.859v.234z" fill="#fff"/>
        <path d="m87.597 25.377 2.923 1.754v.234l-2.923-1.754v-.234zM87.597 24.675l2.923 1.754v.234l-2.923-1.754v-.234zM87.597 23.272l2.923 1.754v.234l-2.923-1.754v-.234zM87.597 21.868l2.923 1.755v.116l-2.923-1.637v-.234zM87.597 21.167l2.923 1.754v.117L87.597 21.4v-.234z" fill="#00A499"/>
        <path d="m87.129 19.53-6.666-3.86v-.233l6.666 3.976v.117z" fill="#fff"/>
        <path d="M87.597 19.764 90.52 21.4v.234l-2.923-1.754v-.117z" fill="#00A499"/>
        <path d="m86.193 24.558-5.73-3.274v-.234l5.73 3.274v.234zM86.076 27.014l-5.613-3.274v-.234l5.613 3.274v.234zM81.398 17.541l-.935-.584v-.234l.936.585v.233zM81.75 17.659v-.117l5.38 3.04v.234l-5.38-3.157zM84.79 21.284l-4.327-2.456v-.234l4.327 2.573v.117zM85.256 21.518V21.4l1.87 1.052v.234l-1.87-1.17zM85.726 23.74v-.234l1.403.818v.234l-1.403-.818zM85.374 23.506l-4.911-2.924v-.117l4.912 2.807v.234zM85.727 18.126l-2.923-1.754v-.117l2.923 1.637v.234zM86.077 18.36v-.234l1.053.585v.234l-1.053-.585zM82.334 21.05l-1.871-1.053v-.233l1.871 1.17v.116zM82.686 21.284v-.117l4.443 2.573v.117l-4.444-2.573zM86.778 21.167l-6.315-3.626v-.233l6.315 3.742v.117zM81.983 23.974l-1.52-.82v-.233l1.52.936v.117zM82.334 24.207v-.234l4.795 2.807v.234l-4.795-2.807zM83.386 19.88l-2.923-1.754v-.117l2.924 1.638v.234zM83.737 19.88l3.392 1.989v.116l-3.392-1.87v-.234zM86.66 23.038l-6.197-3.625v-.234l6.198 3.625v.234zM85.024 18.945l-4.561-2.69v-.117l4.56 2.69v.117zM84.673 24.909l-4.21-2.456v-.117l4.21 2.456v.117zM85.023 24.909l2.105 1.286v.117l-2.105-1.17v-.233zM82.45 26.195l-1.987-1.17v-.233l1.988 1.17v.233z" fill="#fff"/>
        <path d="m87.597 36.837 2.923 1.637v.234l-2.923-1.754v-.117zM87.597 36.018l2.923 1.754v.234l-2.923-1.754v-.234zM87.597 33.913l2.923 1.754v.234l-2.923-1.754v-.234zM87.597 32.51l2.923 1.754v.117l-2.923-1.637v-.234zM87.597 30.405l2.923 1.637v.234l-2.923-1.754v-.117zM87.597 28.885l2.923 1.754v.234l-2.923-1.754v-.234z" fill="#00A499"/>
        <path d="m87.129 35.667-6.666-3.859v-.234l6.666 3.86v.233z" fill="#fff"/>
        <path d="m87.597 35.316 2.923 1.755v.234l-2.923-1.755v-.233zM87.597 34.615l2.923 1.754v.234l-2.923-1.754v-.234zM87.597 33.212l2.923 1.754v.117l-2.923-1.638v-.233zM87.597 31.808l2.923 1.755v.116l-2.923-1.637v-.234zM87.597 31.107l2.923 1.637v.234l-2.923-1.755v-.116z" fill="#00A499"/>
        <path d="m87.129 29.47-6.666-3.86v-.233l6.666 3.976v.116z" fill="#fff"/>
        <path d="m87.597 29.703 2.923 1.637v.234l-2.923-1.754v-.117z" fill="#00A499"/>
        <path d="m86.193 34.498-5.73-3.274v-.234l5.73 3.274v.234zM81.398 27.481l-.935-.584v-.234l.936.584v.234zM81.75 27.598v-.117l5.38 3.04v.235l-5.38-3.158zM84.79 31.224l-4.327-2.573v-.117l4.327 2.573v.117zM85.256 31.457v-.233l1.87 1.169v.234l-1.87-1.17zM85.726 33.563v-.117l1.403.818v.117l-1.403-.819zM85.374 33.446l-4.911-2.924v-.117l4.912 2.807v.233zM85.727 28.066l-2.923-1.754v-.117l2.923 1.637v.234zM86.077 28.3v-.234l1.053.585v.234l-1.053-.585zM82.334 30.99l-1.871-1.053v-.234l1.871 1.17v.116zM82.686 31.223v-.233l4.443 2.572v.234l-4.444-2.573zM86.778 31.107l-6.315-3.626v-.234l6.315 3.743v.117zM81.983 33.913l-1.52-.935v-.117l1.52.935v.117zM82.334 34.147v-.234l4.795 2.807v.234l-4.795-2.807zM83.386 29.82l-2.923-1.754v-.234l2.924 1.754v.234zM83.737 29.82l3.392 1.988v.117l-3.392-1.871v-.234zM86.66 32.978l-6.197-3.626v-.233l6.198 3.625v.234zM85.024 28.885l-4.561-2.69v-.117l4.56 2.69v.117zM84.673 34.849l-4.21-2.456v-.234l4.21 2.573v.117zM85.023 34.849l2.105 1.286v.117l-2.105-1.17v-.233z" fill="#fff"/>
    </g>
    <defs>
        <linearGradient id="uvy9rqtslb" x1="67.159" y1="23.283" x2="92.276" y2="23.283" gradientUnits="userSpaceOnUse">
            <stop stop-color="#3C1EA0"/>
            <stop offset=".997" stop-color="#A01E8C"/>
        </linearGradient>
        <linearGradient id="fymvsa3k8c" x1="24.034" y1="60.596" x2="58.008" y2="60.596" gradientUnits="userSpaceOnUse">
            <stop stop-color="#1EA5A0"/>
            <stop offset="1" stop-color="#0096C8"/>
        </linearGradient>
        <linearGradient id="5ggtw4bnzd" x1="34.332" y1="81.768" x2="60.064" y2="81.768" gradientUnits="userSpaceOnUse">
            <stop offset=".003" stop-color="#A01E8C"/>
            <stop offset="1" stop-color="#3C1EA0"/>
        </linearGradient>
        <linearGradient id="noyrsxry8e" x1="28.411" y1="64.75" x2="71.122" y2="64.75" gradientUnits="userSpaceOnUse">
            <stop stop-color="#1EA5A0"/>
            <stop offset="1" stop-color="#0096C8"/>
        </linearGradient>
        <filter id="pgmcw9psfa" x=".209" y="0" width="138.29" height="137.354" filterUnits="userSpaceOnUse" color-interpolation-filters="sRGB">
            <feFlood flood-opacity="0" result="BackgroundImageFix"/>
            <feColorMatrix in="SourceAlpha" values="0 0 0 0 0 0 0 0 0 0 0 0 0 0 0 0 0 0 127 0" result="hardAlpha"/>
            <feOffset dy="15"/>
            <feGaussianBlur stdDeviation="7.5"/>
            <feComposite in2="hardAlpha" operator="out"/>
            <feColorMatrix values="0 0 0 0 0 0 0 0 0 0 0 0 0 0 0 0 0 0 0.15 0"/>
            <feBlend in2="BackgroundImageFix" result="effect1_dropShadow_4313_18828"/>
            <feBlend in="SourceGraphic" in2="effect1_dropShadow_4313_18828" result="shape"/>
        </filter>
    </defs>
</svg>
