<svg width="215" height="168" viewBox="0 0 215 168" fill="none" xmlns="http://www.w3.org/2000/svg">
    <g filter="url(#zyp1e0hqra)">
        <path d="m174.38 137.013-10.555-5.962c-.081 0-.081-.081-.161-.081h-.161v.725c0 .725-.484 1.531-1.531 2.095-.081 0-.081.081-.162.081-.966.483-2.256.725-3.545.725-1.289 0-2.578-.242-3.545-.806l-.242-.161c-.08-.081-.161-.081-.242-.161h-.08c-.081 0-.081-.081-.161-.081h-.081l-.081-.08-.08-.081-.081-.08-.08-.081-.081-.081v-.08l-.08-.081s0-.08-.081-.08V125.007l-4.029-2.256V110.343l4.11 2.336v-11.361V102.124s0 .081.08.081v.08s0 .081.081.081v.08l.08.081.081.08.08.081s.001.081.081.081l.081.08s.08.081.161.081l.08.08h.081l.081.081h.08l.081.081h.08c.081 0 .081.08.161.08 1.048.564 2.337.886 3.707.886.322 0 .725 0 1.047-.08h.323v17.888c.725-.081 1.45-.323 2.095-.645.08 0 .08-.081.161-.081.725-.402 1.208-.966 1.45-1.45v-1.209s0-.08.081-.08c.08 0 .08-.081.161-.081.08 0 .161 0 .161.081l10.555 5.962v12.57h-.161z" fill="url(#htxjcw7c3b)"/>
        <path d="m174.38 124.524 25.542-14.343v12.57l-25.542 14.262v-12.489z" fill="#979DD8"/>
        <path d="M163.503 114.291v-12.49c.081-.241.081-.402.081-.644V113.565c0 .323 0 .484-.081.726z" fill="#A01E8C"/>
        <path d="m174.381 124.524 25.543-14.262L174.542 96l-10.636 5.963c-.08 0-.08.08-.161.08-.161 0-.322-.08-.241-.161.402-.967-.162-2.014-1.612-2.74-.967-.483-2.256-.725-3.545-.725-1.289 0-2.579.242-3.546.806-2.175 1.209-2.175 3.062-.161 4.19 1.048.564 2.337.886 3.707.886.322 0 .725 0 1.047-.08.242 0 .403.161.242.241L149 110.423l10.636 5.721c.081.08.081.161 0 .242-.081 0-.081.08-.161.08-.403-.08-.806-.08-1.128-.08-1.37 0-2.659.322-3.707.886-2.014 1.128-2.014 2.901-.161 4.109l.242.161c.967.564 2.256.806 3.545.806 1.289 0 2.498-.242 3.546-.725.08 0 .08-.081.161-.081 1.289-.725 1.772-1.772 1.45-2.659 0-.08 0-.08.081-.161.08 0 .08-.08.161-.08.08 0 .161 0 .161.08l10.555 5.802z" fill="#E2E7FB"/>
        <path d="M120.806 3.787c-.484 0-.806.403-.806 1.047V35.05c0 .887.645 2.015 1.45 2.498l26.268 15.148c.242.162.483.162.645.162.483 0 .805-.403.805-1.048V21.594c0-.886-.644-2.014-1.45-2.498L121.45 3.948c-.241-.161-.483-.161-.644-.161z" fill="url(#6pkt9alaqc)"/>
        <path d="M120.804 3.787c-.081 0-.161 0-.323.08L129.748 0H130.392s.081 0 .081.08c.08 0 .08.081.161.081l26.268 15.148c.805.484 1.45 1.531 1.45 2.498v30.216c0 .483-.161.806-.484.967l-9.266 3.867c.323-.16.484-.483.484-.966V21.675c0-.887-.645-2.015-1.451-2.498L121.368 4.029c-.081-.08-.161-.08-.242-.161h-.081c-.08-.081-.161-.081-.241-.081z" fill="url(#ma2bd15dod)"/>
        <path d="m138.047 26.751 5.801 7.09v1.532l-5.801.403v-2.257l3.868-.08-3.868-4.432v-2.256zM135.146 21.514l1.451.886-3.868 11.925-1.531-.886 3.948-11.925zM129.425 21.755v2.257h-3.867l3.787 4.512v2.175l-5.721-7.01v-1.53l5.801-.404z" fill="#fff"/>
        <path d="M24.267 42.666h.402v-.644s0-.081.081-.081v-.08s0-.081.08-.081v-.161l.081-.08.08-.081.081-.081.08-.08.081-.081.081-.08.08-.081.081-.081.161-.161c.081-.08.162-.08.162-.161h.08c.08 0 .08-.08.161-.08h.08c.081-.081.162-.081.243-.162 1.047-.564 2.417-.886 3.787-.886h.402v.241-.08 6.285s0 .08.081.08l9.186 4.915V38.476l-3.868-2.095V34.77c0-.161 0-.323-.08-.484.08.161.08.323.08.564V33.24c0-.242-.08-.403-.161-.645.08.161.08.242.161.403v.322-1.611c0-.161 0-.322-.08-.484.08.162.08.323.08.564v-1.611c0-.806-.564-1.612-1.692-2.256-1.128-.564-2.579-.886-4.029-.886-1.37 0-2.74.322-3.787.886-.08.08-.161.08-.242.161 0 0-.08 0-.08.08-.08 0-.08.081-.161.081h-.08c-.082.08-.162.08-.162.161l-.161.161-.08.081-.081.08-.08.081-.082.08-.08.081-.08.08-.081.082v.16s0 .081-.08.081v.08s0 .081-.081.081V30.096h-.403l-.161 12.57zM35.87 32.594c0-.08-.081-.16-.162-.242.08.081.162.162.162.242zm.16 3.787v-.08c0-.162 0-.242-.08-.403 0 .08 0 .16.08.16v.323z" fill="url(#q4hvygnjie)"/>
        <path d="m64.231 24.295-8.944 5.237c-.08 0-.08.08-.16.08h-.162c-.242-.805-.725-1.53-1.773-2.013-1.128-.564-2.578-.887-4.028-.887-1.45 0-2.901.323-4.03.967-.08.08-.16.08-.16.161 0 0-.08 0-.08.08-.081 0-.081.081-.162.081 0 0-.08 0-.08.081l-.081.08s-.08 0-.08.081l-.081.08-.08.081-.081.08-.081.081-.08.081s0 .08-.081.08l-.08.081s0 .08-.081.08c0 0 0 .081-.08.081v.162s0 .08-.081.08c0 .08-.081.08-.081.161V36.542l-3.545 2.095v12.49l8.944-5.238V39.524h.16c1.451 0 2.901.241 4.03.886.966.564 1.53 1.209 1.772 2.014h.161c.08 0 .161 0 .161-.08l8.944-5.238V24.295zm-9.346 6.849v-.08.08zm0 9.347v-.081.08zm0-1.612c-.081-.403-.323-.725-.564-1.047.322.322.483.725.564 1.047 0 0 .08 0 0 0zm0-1.53v-.081.08zm0-3.224v.08-.08zm0-1.45c-.081-.403-.323-.725-.564-1.048.322.323.483.726.564 1.048 0 0 .08.08 0 0z" fill="#979DD8"/>
        <path d="m39.335 11 24.898 13.295-8.944 5.237c-.08 0-.08.08-.161.08h-.162c-.241-.805-.725-1.53-1.772-2.013-1.128-.564-2.579-.887-4.029-.887-1.45 0-2.9.323-4.029.967-2.095 1.209-2.095 3.143-.08 4.351.08 0 .16.08.16.08.968.565 2.257.806 3.546.887h.161c.08.08.08.161 0 .161l-8.944 5.238-9.185-4.915c-.161-.081-.08-.242.16-.242 1.29-.08 2.499-.403 3.466-.967 2.175-1.29 2.175-3.304-.08-4.512-1.129-.564-2.58-.887-4.03-.887-1.37 0-2.74.323-3.787.887-1.047.564-1.692 1.37-1.772 2.095 0 .08-.162.16-.242.16h-.161l-9.186-4.914L39.335 11z" fill="#E2E7FB"/>
        <path d="M24.266 30.096 15 25.181l.08 12.49 9.186 4.915v-12.49z" fill="url(#s056eompsf)"/>
    </g>
    <defs>
        <linearGradient id="htxjcw7c3b" x1="149.049" y1="119.092" x2="174.398" y2="119.092" gradientUnits="userSpaceOnUse">
            <stop stop-color="#979DD8"/>
            <stop offset="1" stop-color="#BFC2EB"/>
        </linearGradient>
        <linearGradient id="6pkt9alaqc" x1="149.114" y1="28.299" x2="119.991" y2="28.299" gradientUnits="userSpaceOnUse">
            <stop stop-color="#FF5000"/>
            <stop offset="1" stop-color="#FF8200"/>
        </linearGradient>
        <linearGradient id="ma2bd15dod" x1="158.359" y1="26.328" x2="120.494" y2="26.328" gradientUnits="userSpaceOnUse">
            <stop offset=".003" stop-color="#A01E8C"/>
            <stop offset="1" stop-color="#3C1EA0"/>
        </linearGradient>
        <linearGradient id="q4hvygnjie" x1="24.266" y1="39.034" x2="39.987" y2="39.034" gradientUnits="userSpaceOnUse">
            <stop stop-color="#979DD8"/>
            <stop offset=".312" stop-color="#9BA1DA"/>
            <stop offset=".636" stop-color="#A8ACE0"/>
            <stop offset=".964" stop-color="#BCBFEA"/>
            <stop offset="1" stop-color="#BFC2EB"/>
        </linearGradient>
        <linearGradient id="s056eompsf" x1="15.034" y1="33.903" x2="24.273" y2="33.903" gradientUnits="userSpaceOnUse">
            <stop stop-color="#BFC2EB"/>
            <stop offset="1" stop-color="#979DD8"/>
        </linearGradient>
        <filter id="zyp1e0hqra" x="0" y="0" width="214.924" height="167.013" filterUnits="userSpaceOnUse" color-interpolation-filters="sRGB">
            <feFlood flood-opacity="0" result="BackgroundImageFix"/>
            <feColorMatrix in="SourceAlpha" values="0 0 0 0 0 0 0 0 0 0 0 0 0 0 0 0 0 0 127 0" result="hardAlpha"/>
            <feOffset dy="15"/>
            <feGaussianBlur stdDeviation="7.5"/>
            <feComposite in2="hardAlpha" operator="out"/>
            <feColorMatrix values="0 0 0 0 0 0 0 0 0 0 0 0 0 0 0 0 0 0 0.15 0"/>
            <feBlend in2="BackgroundImageFix" result="effect1_dropShadow_4299_18623"/>
            <feBlend in="SourceGraphic" in2="effect1_dropShadow_4299_18623" result="shape"/>
        </filter>
    </defs>
</svg>
