<svg width="128" height="152" viewBox="0 0 128 152" fill="none" xmlns="http://www.w3.org/2000/svg">
    <g filter="url(#tjk2vfv0xa)">
        <path d="M108.259 53.516c1.454.87 2.617 2.904 2.617 4.574l-.145 62.014c0 1.67-1.163 2.396-2.69 1.525L17.617 69.491C16.163 68.62 15 66.586 15 64.916l.145-62.014c0-1.67 1.163-2.396 2.69-1.525l90.424 52.139z" fill="url(#21ifbbsmyb)"/>
        <path d="M110.078 52.499 19.653.361c-.726-.436-1.38-.436-1.89-.218l-1.817 1.09c.51-.291 1.163-.219 1.89.217l90.425 52.138c1.453.872 2.616 2.905 2.616 4.575l-.145 62.014c0 .871-.291 1.452-.8 1.67l1.818-1.089c.508-.291.799-.872.799-1.67l.146-62.014c0-1.743-1.163-3.776-2.617-4.575z" fill="url(#itclkkof8c)"/>
        <path d="M62.758 46.109c-.582-.363-1.163-.581-1.745-.654v-.363c0-4.792-3.27-10.093-7.414-12.49-3.925-2.25-7.196-.653-7.56 3.559-.581-.8-1.308-1.525-2.035-1.961-1.817-1.09-3.344-.29-3.416 1.815-.218-.145-.364-.29-.582-.363-2.471-1.38-4.434-.29-4.434 2.542v.072c0 1.961 1.454 4.357 3.126 5.374L63.63 58.381c.8.508 2.326.654 2.907.29.873-.508 1.454-1.67 1.454-3.267-.072-3.268-2.471-7.698-5.233-9.295z" fill="#fff"/>
        <path d="m87.835 60.777-16.428-9.512v-4.938l-16.427-9.44c-.073-.073-.218 0-.218.072 0 .146.072.29.218.29l15.991 9.223v4.938l16.791 9.73c.073.073.218 0 .218-.072 0-.073-.072-.218-.145-.29zM90.16 72.759l-11.702-6.753v-3.994l-16.064-9.295c-.073-.073-.218 0-.218.073 0 .145.072.29.218.29l15.7 9.077v3.994l12.067 6.971c.073.073.218 0 .218-.073-.073-.072-.145-.218-.218-.29zM73.588 71.887 56.87 62.23V51.12c0-.146-.073-.291-.218-.291-.073-.073-.218 0-.218.072v11.546l17.081 9.803c.073.073.219 0 .219-.072 0-.073 0-.218-.146-.29zM48.584 45.383c-.073-.073-.219 0-.219.072v7.19l-15.773-9.078c-.073-.072-.218 0-.218.073 0 .072.073.29.218.29l16.137 9.295v-7.624c0-.073-.073-.218-.145-.218zM32.374 22.654c0 .145.073.29.218.29l10.176 5.882v10.24c0 .144.073.29.218.29.073.072.219 0 .219-.073V28.609l-10.54-6.1c-.218-.073-.291 0-.291.145z" fill="#D7D7D7"/>
        <path fill-rule="evenodd" clip-rule="evenodd" d="M32.228 18.297c-1.962-1.162-3.634-.218-3.634 2.033s1.599 5.083 3.634 6.173c1.963 1.161 3.635.218 3.635-2.034 0-2.25-1.6-5.01-3.635-6.172z" fill="url(#5gos1ggr4d)"/>
        <path fill-rule="evenodd" clip-rule="evenodd" d="M32.228 39.428c-1.962-1.162-3.634-.218-3.634 2.033 0 2.252 1.599 5.084 3.634 6.173 1.963 1.162 3.635.218 3.635-2.033 0-2.252-1.6-5.01-3.635-6.173z" fill="url(#dbq9ms27le)"/>
        <path fill-rule="evenodd" clip-rule="evenodd" d="M73.805 68.111c-1.962-1.162-3.634-.218-3.634 2.033 0 2.252 1.599 5.084 3.634 6.245 1.963 1.162 3.635.218 3.635-2.033-.073-2.25-1.672-5.083-3.635-6.245z" fill="url(#9a8ztszswf)"/>
        <path fill-rule="evenodd" clip-rule="evenodd" d="M88.053 57.001c-1.962-1.162-3.634-.218-3.634 2.034 0 2.25 1.6 5.083 3.634 6.245 1.963 1.161 3.635.217 3.635-2.034-.073-2.324-1.672-5.156-3.635-6.245z" fill="url(#vxv0s9xpxg)"/>
        <path fill-rule="evenodd" clip-rule="evenodd" d="M90.38 68.983c-1.963-1.162-3.635-.218-3.635 2.033s1.6 5.083 3.634 6.172c1.963 1.162 3.635.218 3.635-2.033-.073-2.25-1.672-5.01-3.635-6.172z" fill="url(#23aczk6rgh)"/>
        <path fill-rule="evenodd" clip-rule="evenodd" d="M48.583 44.439c-.51-.29-.945-.073-.945.58 0 .654.436 1.38.945 1.67.509.291.945.074.945-.58 0-.58-.436-1.38-.945-1.67zM42.768 38.267c-.509-.291-.945-.073-.945.58 0 .654.436 1.38.945 1.67.509.291.945.073.945-.58 0-.654-.363-1.38-.945-1.67zM54.98 35.943c-.509-.291-.945-.073-.945.58 0 .654.436 1.38.945 1.67.509.291.945.073.945-.58.073-.581-.363-1.307-.945-1.67zM62.394 51.846c-.509-.29-.945-.073-.945.58 0 .654.436 1.38.945 1.67.509.291.945.073.945-.58 0-.581-.436-1.38-.945-1.67zM56.723 49.957c-.509-.29-.945-.072-.945.581 0 .654.436 1.38.945 1.67.51.291.945.073.945-.58.073-.654-.363-1.38-.945-1.67z" fill="#440097"/>
        <path d="m30.993 63.682 7.56 4.357c1.308.726 2.326.145 2.326-1.307 0-1.453-1.018-3.268-2.326-3.994l-7.56-4.357c-1.308-.726-2.326-.145-2.326 1.307s1.018 3.268 2.326 3.994zM44.294 71.38l7.56 4.356c1.308.726 2.326.145 2.326-1.307s-1.018-3.268-2.326-3.994l-7.56-4.357c-1.308-.726-2.326-.145-2.326 1.307-.072 1.453 1.018 3.268 2.326 3.994zM57.523 79.004l7.56 4.357c1.308.726 2.326.145 2.326-1.307 0-1.453-1.018-3.268-2.326-3.994l-7.56-4.357c-1.308-.726-2.326-.145-2.326 1.307s1.018 3.268 2.326 3.994zM70.826 86.701l7.56 4.357c1.308.726 2.326.145 2.326-1.307s-1.018-3.268-2.326-3.994l-7.56-4.357c-1.308-.726-2.326-.145-2.326 1.307 0 1.453 1.018 3.268 2.326 3.994zM84.126 94.326l7.56 4.357c1.308.726 2.326.145 2.326-1.307 0-1.453-1.018-3.268-2.326-3.994l-7.56-4.357c-1.308-.726-2.326-.145-2.326 1.307-.072 1.452 1.018 3.268 2.326 3.994z" fill="#440097"/>
    </g>
    <defs>
        <linearGradient id="21ifbbsmyb" x1="62.938" y1="1.006" x2="62.938" y2="122" gradientUnits="userSpaceOnUse">
            <stop stop-color="#00A499"/>
            <stop offset="1" stop-color="#1BA9D6"/>
        </linearGradient>
        <linearGradient id="itclkkof8c" x1="53.828" y1="66.779" x2="102.733" y2="38.515" gradientUnits="userSpaceOnUse">
            <stop stop-color="#F8FBFF"/>
            <stop offset="1" stop-color="#BCC4D4"/>
        </linearGradient>
        <linearGradient id="5gos1ggr4d" x1="28.594" y1="22.4" x2="35.803" y2="22.4" gradientUnits="userSpaceOnUse">
            <stop stop-color="#440097"/>
            <stop offset="1" stop-color="#A51890"/>
        </linearGradient>
        <linearGradient id="dbq9ms27le" x1="28.594" y1="43.531" x2="35.803" y2="43.531" gradientUnits="userSpaceOnUse">
            <stop stop-color="#440097"/>
            <stop offset="1" stop-color="#A51890"/>
        </linearGradient>
        <linearGradient id="9a8ztszswf" x1="70.171" y1="72.25" x2="77.38" y2="72.25" gradientUnits="userSpaceOnUse">
            <stop stop-color="#440097"/>
            <stop offset="1" stop-color="#A51890"/>
        </linearGradient>
        <linearGradient id="vxv0s9xpxg" x1="84.419" y1="61.14" x2="91.628" y2="61.14" gradientUnits="userSpaceOnUse">
            <stop stop-color="#440097"/>
            <stop offset="1" stop-color="#A51890"/>
        </linearGradient>
        <linearGradient id="23aczk6rgh" x1="86.745" y1="73.086" x2="93.954" y2="73.086" gradientUnits="userSpaceOnUse">
            <stop stop-color="#440097"/>
            <stop offset="1" stop-color="#A51890"/>
        </linearGradient>
        <filter id="tjk2vfv0xa" x="0" y="0" width="127.694" height="152" filterUnits="userSpaceOnUse" color-interpolation-filters="sRGB">
            <feFlood flood-opacity="0" result="BackgroundImageFix"/>
            <feColorMatrix in="SourceAlpha" values="0 0 0 0 0 0 0 0 0 0 0 0 0 0 0 0 0 0 127 0" result="hardAlpha"/>
            <feOffset dy="15"/>
            <feGaussianBlur stdDeviation="7.5"/>
            <feComposite in2="hardAlpha" operator="out"/>
            <feColorMatrix values="0 0 0 0 0 0 0 0 0 0 0 0 0 0 0 0 0 0 0.15 0"/>
            <feBlend in2="BackgroundImageFix" result="effect1_dropShadow_4301_18624"/>
            <feBlend in="SourceGraphic" in2="effect1_dropShadow_4301_18624" result="shape"/>
        </filter>
    </defs>
</svg>
