<svg width="60" height="57" viewBox="0 0 60 57" fill="none" xmlns="http://www.w3.org/2000/svg">
    <path d="M17.714 24.153c0-.567-.102-1.123-.297-1.644h7.732c.49 0 .888-.398.888-.888v-5.858a4.701 4.701 0 0 0 6.01-4.509 4.701 4.701 0 0 0-6.01-4.508V.887A.887.887 0 0 0 25.15 0H2.393A2.397 2.397 0 0 0 0 2.394v19.227c0 .49.397.888.887.888H8.62a4.701 4.701 0 0 0 4.398 6.34 4.701 4.701 0 0 0 4.696-4.696zm-7.617 0c0-.716.263-1.406.74-1.941a.888.888 0 0 0-.662-1.478h-8.4V2.394a.62.62 0 0 1 .62-.62h21.867V8.15a.888.888 0 0 0 1.402.723 2.899 2.899 0 0 1 1.688-.539c1.61 0 2.921 1.31 2.921 2.921 0 1.611-1.31 2.921-2.92 2.921a2.902 2.902 0 0 1-1.69-.538.888.888 0 0 0-1.4.723v6.374h-8.4a.887.887 0 0 0-.663 1.478c.477.535.74 1.225.74 1.941 0 1.61-1.31 2.921-2.922 2.921-1.61 0-2.92-1.31-2.92-2.921z" fill="#00A499"/>
    <path d="M57.606 13.01H43.274a.887.887 0 1 0 0 1.775h14.332a.62.62 0 0 1 .62.62v18.34h-6.931a4.701 4.701 0 0 0-4.313-6.56 4.7 4.7 0 0 0-4.313 6.56h-6.931v-6.186a4.7 4.7 0 0 0 6.29-4.417 4.7 4.7 0 0 0-6.29-4.416v-3.94h3.987a.887.887 0 0 0 0-1.775H34.85a.887.887 0 0 0-.887.887v6.357a.887.887 0 0 0 1.466.672 2.92 2.92 0 0 1 4.823 2.215c0 1.61-1.31 2.921-2.92 2.921a2.92 2.92 0 0 1-1.903-.706.887.887 0 0 0-1.466.673v7.714h-9.235a.887.887 0 0 0-.737 1.381c.322.48.492 1.041.492 1.622 0 1.61-1.31 2.92-2.921 2.92a2.924 2.924 0 0 1-2.43-4.542.887.887 0 0 0-.737-1.381h-7.807a.887.887 0 0 0-.887.888v8.293a.887.887 0 0 0 1.775 0v-7.406h5.553a4.7 4.7 0 0 0 4.533 5.924 4.701 4.701 0 0 0 4.533-5.924h7.868v6.585a.887.887 0 0 0 1.35.756 2.925 2.925 0 0 1 4.445 2.492 2.924 2.924 0 0 1-4.444 2.493.888.888 0 0 0-1.351.757v5.876H12.095a.62.62 0 0 1-.62-.62v-7.384a.887.887 0 0 0-1.774 0v7.384a2.397 2.397 0 0 0 2.394 2.395h45.51A2.397 2.397 0 0 0 60 53.858V15.405a2.397 2.397 0 0 0-2.394-2.394zm0 41.468H35.738v-4.56a4.7 4.7 0 0 0 5.795-4.565 4.7 4.7 0 0 0-5.795-4.565v-5.27h8.612a.887.887 0 0 0 .613-1.528 2.895 2.895 0 0 1-.902-2.11c0-1.61 1.31-2.92 2.92-2.92 1.611 0 2.922 1.31 2.922 2.92 0 .804-.321 1.554-.904 2.11a.887.887 0 0 0 .614 1.529h8.612v18.34a.62.62 0 0 1-.62.62z" fill="#00A499"/>
</svg>
